<svg xmlns="http://www.w3.org/2000/svg" viewBox="0 0 92 29.25">
    <path fill="#656565" d="M69.15 9.26c-.28.08-.73.14-1.02.14h-8.46c-.29 0-.73-.06-1.02-.14-.1-.02-.09.06-.09.06v2.07c.02.07.1.06.12 0 0 0 .04-.2.18-.38.25-.31.64-.75 1.29-.76h.77c.42 0 1.69.03 2.02.06l.12.01v10.76c0 1.53-1.26 1.82-1.26 1.82-.05.02-.09.08 0 .1.04.02.1.02.2.02h3.98l.2-.01c.08-.03.05-.1 0-.11 0 0-1.27-.29-1.27-1.82V10.32l.12-.01c.33-.03 1.44-.05 1.85-.06h.78c.64 0 1.04.45 1.28.76.14.18.18.37.18.37.03.06.1.08.12 0V9.32s.02-.07-.09-.05m22.9 1.95V9.3s.02-.07-.09-.05c-.28.08-.72.14-1.02.14h-8.29c-.29 0-.73-.06-1.02-.14-.1-.02-.1.06-.1.06v1.89l.01.18c.02.07.1.06.12 0 0 0 .04-.2.18-.38.24-.31.64-.75 1.28-.76h.78c.41 0 1.52.03 1.85.06l.12.01v10.76c0 1.53-1.26 1.82-1.26 1.82-.05.02-.08.08 0 .1.04.02.1.02.2.02h3.99l.19-.01c.08-.03.05-.1 0-.11 0 0-1.26-.29-1.26-1.82V10.32l.11-.01a45.1 45.1 0 011.86-.06h.77c.64 0 1.04.45 1.29.76.13.18.18.37.18.37.02.06.1.08.11 0v-.17M47.4 17.92c.56 2.44 2.41 5.3 7.35 5.3a8 8 0 002.48-.4c.4-.14.93-.4 1.03-.53.02-.02.77-1.75.98-2.28.03-.08-.05-.1-.07-.07-.62.67-1.42 1.62-2.7 1.99a8.4 8.4 0 01-1.99.34c-2.58 0-4.51-1.79-5.1-4.35a7.6 7.6 0 01-.2-1.72c0-1.39.28-2.6.8-3.58a4.43 4.43 0 014.1-2.45h.15c1.55 0 2.38.96 2.72 1.25.03.02.11.05.11-.05V9.29c0-.1-.08-.07-.1-.05-.14.1-.29.2-.54.2-.17 0-.35-.02-.52-.04-.21-.04-.87-.21-1.68-.21-3.6 0-5.45 1.52-6.32 3.43a8.6 8.6 0 00-.5 5.3M34.54 16.7c0 .01-.88.02-1.97-.04v-4.44c0-.24.02-1.76.07-1.95.61-.08 1.65-.05 2.21-.05 1.98 0 2.83 1.04 3.07 2.41.04.28.07.58.07.88 0 1.77-.78 3.2-3.45 3.2zm5.03-4.07c-.32-1.82-1.7-3.24-4.53-3.24l-5.32.01a.7.7 0 00-.2.01c-.08.03-.05.1 0 .1 0 0 1.27.1 1.27 1.63V21.3c0 1.54-1.26 1.62-1.26 1.62-.06.01-.1.08 0 .1.03.02.1.02.19.02h3.95l.2-.01c.08-.03.05-.1 0-.1 0 0-1.27-.1-1.27-1.63V17.53c.85.06 2.28.07 2.28.07 3.41 0 4.76-1.88 4.76-4.12 0-.3-.02-.58-.07-.86m4.76 0v-1.49c0-1.53 1.26-1.62 1.26-1.62.06-.01.09-.08 0-.1a.83.83 0 00-.2-.02h-3.81c-.1 0-.16 0-.2.02-.08.02-.05.09 0 .1 0 0 1.27.09 1.27 1.62V21.3c0 1.54-1.27 1.63-1.27 1.63-.05 0-.08.07 0 .1l.2.01h3.82l.2-.01c.08-.03.04-.1 0-.1 0 0-1.27-.09-1.27-1.63v-3.37m35.45 3.05s-.1.22-.26.39c-.3.33-.47.47-1.19.65-.63.16-1.5.15-1.5.15-1.51 0-2.9-.17-2.9-.17v-5.37h3.23c.77 0 .9.61.9.61.01.03.05.05.06 0V15.2v-.1c-.01-.04-.05-.02-.05 0 0 0-.14.62-.9.62h-3.24V10.35l.11-.02c.63-.05 1.74-.1 2.83-.1.48 0 1.02.04 1.06.04.64 0 1.04.44 1.29.75l.27.38c.02.06.1.07.11 0V9.32s.02-.08-.09-.06c-.28.08-.73.14-1.02.14H71a.8.8 0 00-.2 0c-.08.03-.05.1 0 .11 0 0 1.27.29 1.27 1.83v9.75c0 1.53-1.26 1.82-1.26 1.82-.06.01-.09.08 0 .1.03.02.1.02.2.02h8.82c.09 0 .09-.1.09-.1v-1.77-.2c-.03-.06-.1-.05-.13.01"/>
    <path fill="#990000" d="M15.26 28.53c-.6 0-.73-.64-.73-1.6 0-.69 0-1.54.7-1.54.65 0 .74.79.74 1.65 0 .66 0 1.49-.7 1.49zm.02-3.78c-1.07 0-1.67.81-1.67 2.23 0 1.4.58 2.18 1.63 2.18 1.06 0 1.65-.78 1.65-2.18 0-1.44-.58-2.23-1.61-2.23M9.1 28.57c-.4 0-.8-.22-.8-.74a.8.8 0 01.43-.67l.16.02c.36.11.94.28.94.8 0 .35-.3.6-.73.6zm-.04-3.23c.37 0 .63.27.63.66 0 .28-.15.45-.32.59l-.05.04-.08-.03c-.34-.1-.76-.24-.76-.73 0-.26.22-.53.58-.53zm.97 1.55l-.15-.06.14-.08c.27-.16.54-.37.54-.88 0-.55-.48-1.12-1.4-1.12-.93 0-1.55.47-1.55 1.16 0 .47.2.7.5.9l.12.08-.13.07c-.46.23-.7.55-.7.99 0 .74.62 1.2 1.62 1.2 1.06 0 1.71-.48 1.71-1.27 0-.45-.23-.76-.7-.99m10.73-.67h-.09v-.8l.1-.02c.24-.03.98-.03 1.04-.03.43 0 .55.13.7.28v-.9c-.17.06-.36.05-.5.05h-2.07v2.07c.12-.03.33-.06.53-.07.42-.04.77.06 1 .27.2.18.29.38.27.74-.04.69-.51.8-1.04.8-.25 0-.62-.06-.9-.19l-.2.49c.32.16.72.25 1.16.25 1.41 0 1.86-.8 1.86-1.47 0-.14.02-.62-.39-1.02-.34-.32-.84-.48-1.47-.45M4.14 28.49l.01-3.72a3.3 3.3 0 01-1.25.73l.4.13v2.86c0 .42-.2.49-.32.62h1.5c-.13-.13-.34-.2-.34-.62"/>
    <path fill="#990000" d="M13.33 2a1.78 1.78 0 00-.42-.73c.72-.31 1.58-.17 1.76-.02a2.3 2.3 0 00-1.34.75zm4.95.85c-.18.16-.7.7-1.03.79-.23.04-.15-.11-.05-.22.5-.55.8-1.04.9-1.28.14-.3.2-.97-.66-.86-.17.02-.7.14-1.28.55-.14.09-.14-.03-.1-.1.1-.21.55-.59.65-.67a4.66 4.66 0 00-5.25.03c-.3.22-.6.3-.76.36-.1.03-.38.18-.38.61.01.08.03.13.14.1.37-.1.64-.29.88-.37.2-.09.43.05.18.21-.31.19-.63.37-.8.58-.09.11-.45.57.1 1.26.15-.26.68-.9 1.45-.8.74.07 1.62.88 1.46 2.12-.06.61-.7 1.33-1.54.97-.3-.15-.5-.35-.65-.91a.66.66 0 00-.23.87c.04.1.01.15-.08.22-.1.06-.15.2-.07.34.65 1.17 2.84.64 3.23-1.03.02-.1.14-.1.14.06-.06 2.16-2.58 3.25-4.33 1.38-.21-.2-.4-.21-.7-.14-.3.1-1.29.3-1.96.18-.02.42 0 1.54 1.7 1.95.22.04.08.15 0 .2-.8.44-1.45.39-1.9.22.18 1.04 1.25 1.48 1.98.94.69-.5 1.14-.46 1.33-.4.15.06.2.17 0 .2-.45.05-1.07.33-1.32 1.11-.27.83-.67 1.16-.89 1.2.45.14 1.54.1 2.14-.22.42-.23.82-.96 1.36-.93.09 0 .14.02.01.14-.06.06-.49.47-.62 1.1-.04.17-.22.99-.65 1.24 1.25.45 2.78-.27 2.93-2.05.01-.15.11-.22.18 0a3.73 3.73 0 01-.48 2.71c2.2-.24 2.25-1.73 2.23-2.02.01-.31-.4-1.63.03-2.01.11-.1.2-.08.18.12-.06.35.2.89.35 1.26a2.1 2.1 0 01-.4 2.14c.23-.11 1.98-.85 1.66-2.4-.07-.33-.5-.99-.5-1.7 0-.36.23-.75.35-.84.12-.1.2-.03.18.1-.04.17-.1.8.21 1.26.09.12.4.6.43 1.49 1.16-1.6.62-2.58.36-2.95-.89-1.32-.5-2.16-.4-2.38.07-.15.22-.18.26-.02.03.15-.04 1.15.76 2.06.24.33.2.72.23.9 1.68-3.35-.7-6.37-.96-6.67m6.16 6.19c-.48.68-.53.63-.87 1.24-.4.75-.63 2.4.25 3.53.17-1.51 1.44-2.18 1.83-2.72.43-.6.22-1.12.06-1.41-.2-.39-.08-.7-.01-1.03.17-.83.05-1.38-.13-1.86-.35-.9-1.97-1.75-3.52-.35-.14.16-4.8 3.94-2.47 11.76a2.46 2.46 0 01-.92 2.72c-.65.5-1.93.79-2.93.07-2.38-1.71-1.39-5.05-.61-6.35-.2.17-1.08.6-2.8.53.18-.23.5-.75.58-.98a2.66 2.66 0 01-3.2-.27c.37-.18.75-.39.98-1.1-.42.36-2.1.7-3.38-.1a2.47 2.47 0 001.21-1.09c-.33.13-2.79.68-5.36.12-1-.22-1.23.5-1.28.88-.48.27-.78 1.44.33 1.76 0 .4.33 1.44 1.86.48a6.87 6.87 0 013.66-.85c-.48 1.67-.18 2.27 1.79 5.02.68.99.54 2.29-.78 2.29H2.16v1.7h21.6v-1.7h-3.13c1.38-1.21.61-3.42.46-3.91-2.06-6.48.77-9.5 1.69-10.33 1.27-1.12 2.95-.02 1.66 1.95M8.49 4.07c.83.43 1.8.35 2.36.24 1.46-.28 1.84-.24 2.15-.14.31.1.34.37.3.46-.02.07-.08.16-.31.13-.2-.03-.8-.13-1.68.16-1.85.62-2.64-.35-2.82-.85M17 .8a2.91 2.91 0 00-1.15-.5c.74-.61 1.91-.15 1.15.5M2.46 15.6c-.15-.03-.53-.14-.63-.56-.08.17-.36 1.47.75 1.44-.42-.2-.18-.77-.12-.88m-.8-.87c-.17-.03-.49-.17-.52-.54-.12.18-.91 1.06.09 1.64-.16-.46.13-.86.42-1.1m-.56-.86a.81.81 0 01-.04-.84c-.19.1-1.5.71-.78 1.67 0-.56.55-.78.82-.83m.32-1.37a.97.97 0 01.53-.74c-.16-.02-1.82-.06-1.57 1.23.16-.6.85-.52 1.04-.49m3.32-3.57c.8 1.03 1.68 1.32 2.63 1.77-.59-.46-.72-1.39-.75-1.89.3.14.79.3 1.4.28C7.16 8.55 7 7.9 6.9 6.96c-.66-.2-1.09-.2-2.71-1.47-1.16-.96-2.17-.3-2.1.28-.16.06-1.03.53-.42 1.43-.1.34.09 1.33 1.19 1.2.28 0 1.12-.43 1.87.52M1.23 7.7c-.07.4.22.7.34.75-.07.04-.6.3-.28.81-.97-.48-.27-1.4-.06-1.56m-.1-.37a1 1 0 01-.18-.69c-.2.11-1.2.48-.56 1.43-.14-.54.56-.71.74-.74m.43-1.82C.7 5.42-.14 5.73.02 6.7c.17-.69.86-.51 1.02-.48.13-.44.38-.63.52-.72m.26-.34c.32-.33.59-.44.86-.43-.26-.12-1.5-.78-1.83.46.4-.42.9-.09.97-.03"/>
</svg>