<?xml version="1.0" standalone="no"?>
<!DOCTYPE svg PUBLIC "-//W3C//DTD SVG 20010904//EN"
 "http://www.w3.org/TR/2001/REC-SVG-20010904/DTD/svg10.dtd">
<svg version="1.0" xmlns="http://www.w3.org/2000/svg"
 width="700.000000pt" height="700.000000pt" viewBox="0 0 700.000000 700.000000"
 preserveAspectRatio="xMidYMid meet">
<metadata>
Created by potrace 1.11, written by Peter Selinger 2001-2013
</metadata>
<g transform="translate(0.000000,700.000000) scale(0.100000,-0.100000)"
fill="#000000" stroke="none">
<path d="M3520 6641 c-142 -42 -242 -137 -289 -274 -27 -78 -23 -198 9 -282
20 -52 44 -81 179 -218 86 -87 157 -160 159 -161 1 -2 -31 -29 -72 -60 -137
-105 -312 -302 -428 -481 -247 -383 -445 -921 -554 -1505 -3 -14 -11 -56 -19
-95 -7 -38 -16 -92 -20 -119 -3 -27 -8 -52 -9 -55 -7 -12 -18 -147 -17 -209 1
-70 10 -168 17 -194 4 -13 -3 -18 -33 -23 -21 -3 -232 -54 -469 -113 l-432
-107 -4 96 c-3 87 -6 100 -31 133 -57 74 -27 70 -652 70 l-560 0 -36 -24 c-19
-13 -46 -40 -59 -59 l-24 -36 -1 -1165 c-1 -656 3 -1180 8 -1199 12 -48 44
-87 86 -108 33 -16 82 -18 581 -19 590 -1 585 -2 643 53 36 35 47 79 47 184
l0 86 102 -18 c57 -10 117 -20 133 -23 27 -5 352 -61 415 -71 53 -8 206 -35
230 -40 14 -3 41 -7 60 -10 19 -3 46 -7 60 -10 14 -3 41 -8 60 -11 19 -2 55
-9 80 -14 25 -5 65 -12 90 -15 25 -4 104 -17 175 -30 72 -13 144 -26 160 -28
17 -3 86 -15 155 -27 69 -11 136 -23 150 -25 77 -13 439 -76 460 -80 103 -21
356 -28 455 -12 200 32 369 102 560 232 97 66 422 295 510 359 11 8 180 127
375 265 195 138 364 257 375 265 11 8 117 83 235 166 118 83 237 172 264 198
237 227 237 609 0 832 -73 67 -147 112 -226 135 l-57 16 14 37 c35 88 55 232
51 377 -2 77 -7 151 -10 165 -3 14 -12 64 -20 112 -9 48 -18 97 -21 110 -2 13
-7 34 -9 48 -8 47 -37 185 -48 225 -5 22 -12 48 -14 59 -15 82 -81 308 -136
471 -75 222 -213 527 -303 670 -164 260 -302 423 -472 559 -40 32 -73 60 -73
62 0 3 67 71 149 152 151 149 176 184 205 281 62 209 -81 448 -303 506 -34 9
-264 12 -921 12 -773 0 -881 -2 -930 -16z m1802 -328 c13 -13 21 -34 21 -54 0
-27 -24 -55 -199 -229 -109 -109 -208 -201 -219 -203 -11 -3 -51 -14 -90 -25
-236 -69 -572 -65 -813 8 -65 20 -72 25 -270 218 -214 209 -222 219 -186 270
9 13 24 27 35 30 10 4 396 7 858 7 l841 0 22 -22z m-1339 -838 c48 -13 90 -24
92 -24 3 0 18 -2 33 -5 114 -23 202 -31 352 -31 160 0 243 8 365 35 115 26
121 27 162 40 29 10 38 9 71 -11 125 -76 280 -219 384 -355 229 -299 436 -785
553 -1304 30 -130 65 -313 81 -415 3 -22 9 -58 13 -81 13 -69 5 -244 -14 -314
-19 -69 -88 -222 -108 -238 -7 -6 -77 -30 -157 -55 -80 -25 -282 -89 -450
-142 -168 -53 -368 -116 -445 -140 -77 -24 -182 -58 -234 -74 l-94 -30 -41 33
c-63 50 -80 58 -246 125 -85 35 -174 71 -197 82 -24 10 -47 19 -51 19 -5 0
-22 6 -38 14 -16 8 -198 82 -404 164 -373 148 -502 190 -655 212 -132 19 -121
12 -136 87 -20 105 -19 172 5 308 2 17 7 48 11 70 10 71 66 337 92 440 165
653 395 1119 698 1418 76 75 237 196 260 197 6 0 49 -11 98 -25z m-2786 -3735
l-1 -970 -343 0 -343 0 0 970 0 970 343 0 344 0 0 -970z m1649 916 c136 -12
337 -73 559 -171 17 -7 156 -63 310 -125 293 -116 291 -115 367 -149 26 -12
53 -21 60 -21 7 0 22 -7 32 -15 11 -8 26 -15 34 -15 28 0 120 -49 140 -75 31
-39 36 -84 17 -130 -29 -72 -75 -89 -185 -71 -25 4 -97 16 -160 26 -115 19
-158 25 -227 35 -21 3 -47 8 -59 10 -12 3 -39 7 -60 10 -21 3 -64 10 -94 15
-30 5 -73 12 -95 15 -22 3 -65 10 -95 15 -30 5 -73 12 -95 15 -22 3 -49 7 -60
10 -32 7 -286 46 -332 51 -98 12 -189 -70 -186 -166 2 -98 62 -160 167 -174
27 -4 86 -14 133 -22 46 -8 99 -16 118 -19 19 -3 51 -7 71 -10 21 -3 46 -7 58
-10 12 -2 39 -7 61 -10 22 -3 65 -10 95 -15 30 -5 71 -12 90 -14 20 -3 47 -7
60 -10 14 -3 42 -8 63 -11 73 -10 114 -17 262 -41 83 -14 161 -27 175 -29 14
-2 43 -7 65 -11 170 -30 329 14 437 121 88 87 134 182 143 291 2 31 5 58 7 60
3 2 85 29 184 60 98 31 190 60 204 64 111 36 454 144 490 155 25 7 95 29 155
48 434 138 470 149 515 144 85 -7 160 -60 202 -141 16 -32 19 -53 16 -101 -9
-109 -43 -153 -208 -269 -52 -36 -104 -73 -115 -80 -11 -8 -112 -80 -225 -160
-113 -80 -214 -152 -225 -160 -11 -8 -117 -83 -235 -167 -118 -84 -289 -205
-380 -270 -91 -64 -202 -143 -248 -176 -45 -32 -108 -77 -139 -100 -104 -76
-283 -156 -398 -177 -16 -3 -43 -8 -60 -11 -95 -18 -250 -5 -495 40 -57 11
-84 16 -280 49 -113 19 -257 44 -320 55 -63 11 -132 23 -154 27 -21 3 -48 8
-60 10 -11 2 -36 7 -55 10 -18 3 -43 8 -55 10 -11 2 -77 13 -146 25 -69 11
-183 31 -255 44 -71 13 -146 26 -165 29 -32 5 -137 23 -525 90 -82 15 -162 29
-178 32 l-27 6 2 646 3 647 65 18 c36 10 76 20 90 23 14 3 48 12 76 20 28 8
62 17 74 19 13 2 37 9 54 14 48 16 451 121 541 142 44 10 116 22 160 25 44 4
81 7 82 8 3 2 96 -3 159 -8z"/>
<path d="M4299 5001 c0 -14 -1 -70 -1 -123 0 -83 -3 -98 -16 -98 -35 0 -145
-33 -186 -56 -181 -101 -281 -313 -244 -516 32 -174 181 -331 358 -378 25 -7
126 -13 226 -15 195 -3 214 -7 266 -62 51 -54 64 -143 29 -211 -22 -43 -42
-63 -90 -87 -51 -26 -341 -26 -391 0 -63 32 -96 74 -110 140 l-6 30 -144 1
c-82 1 -148 -3 -151 -8 -11 -17 19 -148 48 -205 32 -67 120 -164 177 -198 45
-26 116 -54 156 -61 76 -13 70 -2 70 -134 l0 -120 118 -1 c123 -1 175 1 181 6
2 2 3 56 2 119 -1 64 2 116 6 117 167 15 325 124 398 273 136 279 -14 600
-318 679 -38 10 -113 16 -224 17 -174 1 -207 7 -256 50 -72 63 -75 203 -6 270
50 47 89 57 243 58 155 1 190 -5 243 -40 35 -24 73 -89 73 -126 0 -22 2 -22
153 -22 l154 0 -8 58 c-29 209 -185 376 -386 414 l-63 12 0 121 0 122 -150 0
-150 0 -1 -26z"/>
</g>
</svg>
