<?xml version="1.0" encoding="utf-8"?>
<svg xmlns="http://www.w3.org/2000/svg" version="1.1" viewBox="0 0 180 60" fill="#000000">
    <path d="M17.3,40.3h23.8L29.5,10.7L17.3,40.3z M48.9,60L43,45.1H15.4L9.3,60H0v-1.6c3.6-0.6,5.3-2.4,6.5-5.2l20-48.9c-1.2-1.5-2.3-2.1-3.9-2.7V0h12.9l21.1,53.1c1,2.6,2.6,4.9,6.3,5.3V60C62.9,60,48.9,60,48.9,60z"/>
    <path d="M104.1,31.6c-3.4,1.3-6.9,1.8-9.8,1.8c-4.6,0-8.9-1.4-11.2-2.9v25c3.6,0.6,7.2,0.8,10,0.8c8.3,0,16.3-2.6,16.3-13.5C109.4,36.8,106.2,33,104.1,31.6z M91.9,3.7c-3.7,0-6.6,0.3-8.8,0.6v22.2c2.7,1.9,7.2,3.3,11.2,3.3c5.2,0,11.8-1.8,11.8-12.2C106.1,8.3,100.5,3.7,91.9,3.7z M73.8,8.3c0-4-1.7-5.6-5.1-6.7V0H95c11,0,20.8,5.7,20.8,16.4c0,5.5-2.5,9.4-5.9,12.1c4.9,1.8,9.3,6,9.3,13.5c0,13.9-11.6,18-23.8,18H68.7v-1.6c3.4-1.1,5.1-2.7,5.1-6.7C73.8,51.7,73.8,8.3,73.8,8.3z"/>
    <path d="M172.6,3.7c1.6,0,2.4-1.7,3.1-3.7h1.6l2.7,17.1h-1.6c-5-5.9-12.3-12.8-22.5-12.8c-11.9,0-21.1,8.8-21.1,22.8c0,15.2,9.8,26.6,24.7,26.6c6.6,0,13.3-2.1,19.4-6l0.9,1.9c-3.7,3.7-11.5,10.3-25.8,10.3c-15.8,0-29.1-11-29.1-30.3C124.8,14,137.6,0,155.2,0C165.9,0,170.4,3.7,172.6,3.7L172.6,3.7z"/>
</svg>
