<?xml version="1.0" encoding="utf-8"?>
<svg xmlns="http://www.w3.org/2000/svg" version="1.1" viewBox="0 0 348 46" fill="#000000">
    <path fill="#004a7f" d="m43.442 17.267c-2.92-8.634-10.744-14.234-19.269-14.934l-.933 10.967c4.32.35 8.174 3.15 9.693 7.467 1.985 5.833-1.168 12.133-6.89 14.116-5.84 1.984-12.145-1.166-14.13-6.883-1.986-5.833 1.167-12.133 6.89-14.117l3.152-6.65-6.656-3.85c-11.679 3.967-17.868 16.45-13.898 28.117 3.97 11.55 16.466 17.733 28.144 13.883 11.561-3.966 17.75-16.566 13.897-28.116z"/>
    <path transform="translate(49.047)" d="m16.816 11.083c-10.043 0-16.7 7.117-16.7 17.15 0 10.967 6.073 17.734 18.919 17.734 5.722 0 9.81-1.284 12.028-2.45v-7.584l-.467-.233c-2.92 1.4-5.956 2.45-10.627 2.45-5.839 0-8.875-2.1-9.692-7.117h21.37c1.401-14-5.021-19.95-14.83-19.95zm-6.306 13.417c.7-4.433 2.92-6.417 6.423-6.417s5.138 2.1 5.372 6.417zm37.603 13.533c-1.402 0-2.102-.816-2.102-2.45v-33.25l-10.394.117v35c0 6.3 3.62 8.283 9.226 8.283 2.336 0 4.32-.466 5.372-.933v-6.883l-.35-.234c-.584.117-.935.35-1.752.35zm21.137-35.583h-15.298v42.7h15.298c13.663 0 24.29-5.717 24.29-21.117 0-15.283-10.627-21.583-24.29-21.583zm-.584 34.183h-3.036v-25.55h3.036c7.707 0 12.962 3.617 12.962 12.95 0 9.567-5.255 12.6-12.962 12.6zm28.844-24.733h10.393v33.367h-10.393zm0-11.783h10.393v8.4h-10.393zm37.136 14.816c-2.102-2.333-4.905-3.85-8.992-3.85-8.175 0-14.247 5.95-14.247 17.734 0 11.433 5.605 17.15 13.896 17.15 4.555 0 7.591-1.75 9.927-4.784l.934 3.967h8.525v-33.25h-9.576zm-.35 21c-1.402 1.167-3.27 1.984-5.606 1.984-3.854 0-6.656-2.8-6.656-9.1 0-6.534 2.569-10.034 6.89-10.034 2.335 0 3.97.7 5.488 1.867v15.283h-.117zm25.457-18.316-.7-5.717h-9.11v33.367h10.394v-21.234c1.985-2.1 4.32-2.683 8.174-2.683 1.051 0 2.102.117 2.92.35l.35-.233v-9.8c-.7-.117-1.635-.234-2.686-.234-4.437-.116-7.59 3.034-9.342 6.184zm15.064-17.5h10.393v8.4h-10.393zm0 11.783h10.393v33.367h-10.393zm31.647-.817c-10.16 0-17.867 6.534-17.867 17.384s7.59 17.5 17.867 17.5c10.16 0 17.868-6.65 17.868-17.5s-7.708-17.384-17.868-17.384zm0 27.3c-4.32 0-7.24-3.266-7.24-9.916s2.92-9.917 7.24-9.917c4.321 0 7.24 3.267 7.24 9.917 0 6.766-2.802 9.916-7.24 9.916zm50.216-27.3c-10.044 0-16.7 7.117-16.7 17.15 0 10.967 6.072 17.734 18.918 17.734 5.722 0 9.81-1.284 12.028-2.45v-7.584l-.467-.233c-2.92 1.4-5.956 2.45-10.627 2.45-5.839 0-8.875-2.1-9.692-7.117h21.37c1.401-14-5.021-19.95-14.83-19.95zm-6.308 13.417c.7-4.433 2.92-6.417 6.423-6.417s5.138 2.1 5.372 6.417zm38.538-.117-2.92-.7c-2.218-.583-3.152-1.166-3.152-2.683s.934-2.567 4.087-2.567c3.854 0 7.24.934 9.576 2.217l.35-.233v-7.584c-2.57-1.05-5.839-1.866-10.277-1.866-8.174 0-13.079 4.316-13.079 10.85 0 5.833 3.62 8.866 8.875 10.15l2.92.7c2.92.7 3.854 1.166 3.854 2.8 0 1.75-1.518 2.8-4.788 2.8-3.97 0-7.708-1.284-10.394-3.384l-.35.234v7.816c2.686 1.634 5.956 2.8 11.678 2.8 8.408 0 13.663-4.2 13.663-11.55 0-5.95-3.27-8.166-10.043-9.8z"/>
    <path d="m279.956 48c-.234-.117-.468-.235-.702-.235-3.046-.938-4.803-3.987-4.1-7.036.703-2.932 3.514-5.042 6.56-4.69 3.162.351 5.504 3.048 5.27 6.215-.117 2.462-1.757 4.69-4.1 5.394-.234.117-.585.235-.82.352z"/>
</svg>
