<?xml version="1.0" encoding="utf-8"?>
<svg xmlns="http://www.w3.org/2000/svg" version="1.1" viewBox="0 10 24 5" fill="#191A1E">
    <path d="M22.9286961,14.9142857 L23,14.0171429 L22.9670905,14.0171429 L22.7092994,14.4685714 C22.5666916,14.72 22.4789329,14.76 22.2485664,14.76 L21.9414111,14.76 L21.9414111,11.6628571 C21.9414111,11.1714286 22.0017452,11.08 22.210172,10.9942857 L22.210172,10.9714286 L21.1735228,10.9714286 L21.1735228,10.9942857 C21.3819496,11.08 21.4422837,11.1714286 21.4422837,11.6628571 L21.4422837,14.2228571 C21.4422837,14.7142857 21.3819496,14.8057143 21.1735228,14.8914286 L21.1735228,14.9142857 L22.9286961,14.9142857 Z"></path>
    <path d="M19.5012327,15 C18.8540126,15 18.3987645,14.52 18.3987645,13.0114286 C18.3987645,11.4514286 18.8869221,10.8914286 19.5670517,10.8914286 C20.1594227,10.8914286 20.6585501,11.2914286 20.6585501,12.88 C20.6585501,14.3942857 20.2142719,15 19.5012327,15 Z M19.5231724,14.8742857 C19.9509959,14.8742857 20.0881188,14.3714286 20.0881188,12.9371429 C20.0881188,11.48 19.945511,11.0171429 19.5341422,11.0171429 C19.1118036,11.0171429 18.9637109,11.5142857 18.9637109,12.9714286 C18.9637109,14.4057143 19.1063187,14.8742857 19.5231724,14.8742857 Z"></path>
    <path d="M17.3791795,10 L17.4230588,10.0114286 C17.3901493,10.1371429 17.280451,10.5142857 16.9787806,10.5142857 C16.7484141,10.5142857 16.5728967,10.2971429 16.4028643,10.2971429 C16.2876811,10.2971429 16.1779828,10.4057143 16.1341034,10.52 L16.0902241,10.5085714 C16.1231336,10.3828571 16.2328319,10.0057143 16.5345023,10.0057143 C16.753899,10.0057143 16.9349012,10.2057143 17.1159035,10.2057143 C17.2310867,10.2057143 17.3353001,10.1142857 17.3791795,10 Z M17.6863348,14.9714286 L17.4340286,14.9714286 L16.0408598,11.7942857 L16.0408598,13.9371429 C16.0408598,14.7142857 16.1395883,14.8057143 16.3480152,14.8914286 L16.3480152,14.9142857 L15.5472174,14.9142857 L15.5472174,14.8914286 C15.7556442,14.8057143 15.8434028,14.7142857 15.8434028,13.9371429 L15.8434028,11.6628571 C15.8434028,11.1714286 15.7446743,11.08 15.5362475,10.9942857 L15.5362475,10.9714286 L16.2383168,10.9714286 L17.4888778,13.8742857 L17.4888778,11.9485714 C17.4888778,11.1714286 17.3901493,11.08 17.1817225,10.9942857 L17.1817225,10.9714286 L17.9770354,10.9714286 L17.9770354,10.9942857 C17.7686085,11.08 17.6863348,11.1714286 17.6863348,11.9485714 L17.6863348,14.9714286 Z"></path>
    <path d="M15.2571262,14.9142857 L14.2424167,14.9142857 L14.2424167,14.8914286 C14.5276323,14.8057143 14.483753,14.5085714 14.2808111,13.4914286 L13.4800133,13.4914286 C13.2661015,14.5142857 13.2222222,14.7771429 13.5403474,14.8914286 L13.5403474,14.9142857 L12.772459,14.9142857 L12.772459,14.8914286 C12.9479764,14.7714286 13.0247652,14.5885714 13.2935261,13.3771429 L13.8365329,10.9314286 L14.2369318,10.9314286 L14.7525139,13.3714286 C14.9883653,14.5085714 15.0651542,14.7657143 15.2571262,14.8914286 L15.2571262,14.9142857 Z M14.2424167,13.3142857 L13.891382,11.5314286 L13.5184077,13.3142857 L14.2424167,13.3142857 Z"></path>
    <path d="M11.9777556,14.8914286 L11.9777556,14.9142857 L10.8862572,14.9142857 L10.8862572,14.8914286 C11.094684,14.8057143 11.1550181,14.7142857 11.1550181,14.2228571 L11.1550181,11.6628571 C11.1550181,11.1714286 11.094684,11.08 10.8862572,10.9942857 L10.8862572,10.9714286 L11.8899969,10.9714286 C12.608521,10.9714286 12.9101914,11.2285714 12.9101914,11.9942857 C12.9101914,12.9028571 12.4713981,13.1371429 11.8516025,13.1371429 L11.6541455,13.1371429 L11.6541455,14.2228571 C11.6541455,14.7142857 11.7254494,14.8057143 11.9777556,14.8914286 Z M11.6541455,11.1257143 L11.6541455,12.9885714 L11.7967534,12.9885714 C12.2629713,12.9885714 12.4055791,12.6285714 12.4055791,12.0171429 C12.4055791,11.4342857 12.279426,11.1257143 11.8351478,11.1257143 L11.6541455,11.1257143 Z"></path>
    <path d="M8.99457047,14.8514286 C9.13169338,14.9371429 9.46078837,15 9.65824537,15 C10.1793124,15 10.5248622,14.5714286 10.5248622,13.8571429 C10.5248622,12.5314286 9.32915038,12.56 9.32915038,11.6057143 C9.32915038,11.2914286 9.48821296,11.08 9.75148895,11.08 C10.0696141,11.08 10.2341616,11.3885714 10.3657996,11.8171429 L10.404194,11.8171429 L10.404194,11.04 C10.2615862,10.9657143 10.0860689,10.8914286 9.87215711,10.8914286 C9.38399954,10.8914286 8.99457047,11.28 8.99457047,11.9771429 C8.99457047,13.1942857 10.1847974,13.2057143 10.1847974,14.2114286 C10.1847974,14.6285714 9.98185545,14.84 9.71309454,14.84 C9.41142413,14.84 9.18654255,14.5828571 9.03296489,13.9371429 L8.99457047,13.9371429 L8.99457047,14.8514286 Z"></path>
    <path d="M8.60026594,14.9142857 L8.67156985,14.0171429 L8.63866035,14.0171429 L8.38086928,14.4685714 C8.23826145,14.72 8.15050278,14.76 7.92013629,14.76 L7.5252223,14.76 L7.5252223,12.9657143 L7.90368154,12.9657143 C8.10113853,12.9657143 8.18341228,13.0457143 8.33698994,13.3257143 L8.35892961,13.3257143 L8.35892961,12.4457143 L8.33698994,12.4457143 C8.16695753,12.7257143 8.10113853,12.8114286 7.90368154,12.8114286 L7.5252223,12.8114286 L7.5252223,11.1257143 L7.88174187,11.1257143 C8.0572592,11.1257143 8.16695753,11.1828571 8.29311061,11.4228571 L8.48508269,11.7771429 L8.50702236,11.7771429 L8.50702236,10.9714286 L6.75733398,10.9714286 L6.75733398,10.9942857 C6.96576081,11.08 7.02609489,11.1714286 7.02609489,11.6628571 L7.02609489,14.2228571 C7.02609489,14.7142857 6.96576081,14.8057143 6.75733398,14.8914286 L6.75733398,14.9142857 L8.60026594,14.9142857 Z"></path>
    <path d="M5.05274386,14.9142857 L5.12404777,14.0171429 L5.09113827,14.0171429 L4.8333472,14.4685714 C4.69073937,14.72 4.6029807,14.76 4.37261421,14.76 L4.06545888,14.76 L4.06545888,11.6628571 C4.06545888,11.1714286 4.12579296,11.08 4.33421979,10.9942857 L4.33421979,10.9714286 L3.29757057,10.9714286 L3.29757057,10.9942857 C3.5059974,11.08 3.56633148,11.1714286 3.56633148,11.6628571 L3.56633148,14.2228571 C3.56633148,14.7142857 3.5059974,14.8057143 3.29757057,14.8914286 L3.29757057,14.9142857 L5.05274386,14.9142857 Z"></path>
    <path d="M2.84293195,14.9142857 L2.91423587,14.0171429 L2.88132637,14.0171429 L2.62353529,14.4685714 C2.48092746,14.72 2.3931688,14.76 2.1628023,14.76 L1.76788831,14.76 L1.76788831,12.9657143 L2.14634756,12.9657143 C2.34380455,12.9657143 2.4260783,13.0457143 2.57965596,13.3257143 L2.60159563,13.3257143 L2.60159563,12.4457143 L2.57965596,12.4457143 C2.40962355,12.7257143 2.34380455,12.8114286 2.14634756,12.8114286 L1.76788831,12.8114286 L1.76788831,11.1257143 L2.12440789,11.1257143 C2.29992522,11.1257143 2.40962355,11.1828571 2.53577663,11.4228571 L2.72774871,11.7771429 L2.74968837,11.7771429 L2.74968837,10.9714286 L1,10.9714286 L1,10.9942857 C1.20842683,11.08 1.26876091,11.1714286 1.26876091,11.6628571 L1.26876091,14.2228571 C1.26876091,14.7142857 1.20842683,14.8057143 1,14.8914286 L1,14.9142857 L2.84293195,14.9142857 Z"></path>
</svg>
