<?xml version="1.0" encoding="utf-8"?>
<svg xmlns="http://www.w3.org/2000/svg" version="1.1" viewBox="0 0 403 208.2">
    <linearGradient id="gradient" gradientUnits="userSpaceOnUse" x1="76.9654" y1="238.6466" x2="322.9608" y2="-7.3489">
        <stop offset="0" style="stop-color:#F5A717"/>
        <stop offset="1" style="stop-color:#E6511F"/>
    </linearGradient>
    <path fill="url(#gradient)" d="M33.9,156.1c0,8.8-5.3,12.8-16.8,12.8C5.3,168.9,0,164.6,0,156.1V50.8c0-9.4,4.5-13.4,14.7-13.4c9.4,0,12.6,2.1,14.7,10.2c0.5,1.6,1.3,2.4,2.1,2.4c0.8,0,1.3-0.3,3.2-2.1c6.7-6.4,17.9-10.4,29.4-10.4c6.9,0,10.4,3.7,10.4,11c0,16.8-3.2,23-11.5,23c-20.3,0-29.9,11-29.1,33.1V156.1z M87.1,13.4C87.1,4.3,92.5,0,104,0c11.8,0,17.1,4.3,17.1,13.4v19.2c0,4,1.3,5.3,5.3,5.3h9.1c9.1,0,13.4,5.1,13.4,16c0,10.7-4.3,15.8-13.4,15.8h-9.1c-3.7,0-5.3,1.6-5.3,5.3v40.1c0,18.2,5.9,27,17.9,27c2.9,0,5.9-0.3,13.9-1.1c0.8-0.3,1.6-0.3,2.7-0.3c5.9,0,8.5,2.9,8.5,9.9c0,13.1-11.5,20.3-31.8,20.3c-29.9,0-45.2-19.5-45.2-57.7V13.4z M238.1,56.4c5.4-15.5,9.4-19.2,20.3-19.2c10.2,0,15.5,4,15.5,11.5c0,1.9-0.3,2.7-1.3,5.9L237,150.5c-5.4,14.7-9.6,18.4-20.3,18.4c-10.7,0-15-3.7-20.3-18.4l-35.5-95.9c-1.1-2.7-1.3-4-1.3-5.9c0-7.5,5.4-11.5,15.5-11.5c11,0,14.7,3.7,20,19.2L213,108c0.8,2.1,1.9,3.2,3.7,3.2c1.6,0,2.9-1.1,3.5-3.2L238.1,56.4z M312.7,131.8c-3.2,0-4.5,1.3-4.5,4c0,26.5,17.4,42.8,46,42.8c10.2,0,17.1-1.6,29.7-6.7c4.3-1.6,6.1-2.1,8-2.1c4.5,0,7.8,4,7.8,10.2c0,16-21.9,28.3-51,28.3c-47.6,0-74.3-30.5-74.3-84.7c0-53.7,25.7-86.1,68.1-86.1c36.3,0,60.7,27.3,60.7,67.9c0,20.3-5.3,26.5-23.2,26.5H312.7zM366.1,104.8c3.2,0,4.3-1.3,4.3-4.8c0-24.6-10.7-37.9-29.9-37.9c-19,0-31.8,16-31.8,39c0,2.4,1.6,3.7,4.3,3.7H366.1z"/>
</svg>
