<?xml version="1.0" encoding="utf-8"?>
<svg xmlns="http://www.w3.org/2000/svg" version="1.1" viewBox="0 0 256 50" fill="#000000">
    <path d="M216.984375,9.37890625 C218.417969,11.1367188 220.179688,13.0429688 222.085938,14.3632812 L222.085938,14.3632812 L223.75,13.0742188 L224.265625,13.71875 C223.054688,14.6757812 221.003906,15.6953125 220.984375,17.4140625 L220.984375,36.8828125 C222.375,38.640625 223.457031,40.875 222.796875,43.2929688 C220.523438,48.6445312 214.074219,47.1992188 209.90625,49.5976562 C209.90625,44.8164062 204.9375,44.6601562 203.65625,47.5585938 L202.875,47.3242188 C204.285156,40.7695312 214.054688,40.3203125 214.675781,47.1054688 C217.828125,47.3046875 218.8125,43.2578125 216.949219,41.0195313 C216.167969,40.09375 215.417969,38.1445312 215.417969,37.0429688 C213.99737,38.5597051 212.659495,40.1518549 211.410156,41.8125 L206.835938,37.7460938 L205.5,39.1796875 L204.875,38.640625 C205.480469,37.9101563 207.195313,36.296875 207.21875,35.6601563 L207.21875,17.03125 C210.523438,14.9492187 214.132812,12.3203125 216.984375,9.37890625 Z M173.789062,9.37890625 C176.269531,12.015625 179.144531,14.734375 178.246094,18.6875 C177.769531,20.8085938 175.050781,23.984375 173.847656,25.2890625 C177.683594,27.3710937 179.730469,32.4179688 178.0625,36.484375 C176.640625,39.953125 172.789062,44.9648438 170.183594,47.71875 C169.597656,46.546875 168.425781,45.0078125 166.882812,45.0820312 C165.054688,45.2460938 164.363281,47.3359375 163.992188,47.5351562 L163.359375,47.0039062 C163.945312,44.6601562 165.660156,42.2734375 168.007812,41.2460938 C169.730166,40.6514775 171.641113,41.1189034 172.894531,42.4414063 C177.039062,37.3632813 173.765625,32.7929688 169.402344,29.0976563 C171.503906,26.3632813 174.125,24.0625 173.980469,21.2578125 C173.847656,18.65625 172.730469,16.9257812 170.855469,15.1679688 L169.605469,16.5078125 L168.996094,15.953125 C170.751974,13.8815662 172.353908,11.6842924 173.789062,9.37890625 Z M137.710938,1.62109375 C139.109375,2.42578125 140.207031,3.74609375 141.089844,5.0625 C142.433594,3.7109375 144.726562,2.296875 147.089844,5.13671875 L146.585938,5.65234375 C145.023438,4.5390625 143.957031,5.06640625 143.3125,6.24609375 C142.726562,7.4921875 142.824219,9.40234375 143.066406,10.78125 L147.1875,34.0859375 C147.317187,34.8861992 147.752795,35.6047424 148.402344,36.0898438 C148.960007,35.6792963 149.453664,35.188272 149.867188,34.6328125 L150.480469,35.1953125 C149.164063,36.671875 146.292969,40.1601563 144.980469,41.7929688 C143.660156,40.4726563 142.195313,39.1523438 141.828125,37.46875 L140.34375,29.265625 L133.28125,29.265625 L132.5,32.9804688 C134.617188,33.171875 136.222656,34.2382813 137.691406,35.7890625 L138.863281,34.265625 L139.46875,34.6953125 L134.628906,41.515625 C134.152344,39.7578125 133.28125,37.8085938 130.945312,37.5820313 C129.027344,37.3984375 127.820313,38.6210938 127.957031,40.5625 C128.09375,42.5039063 130.199219,43.5234375 131.925781,43.6132813 C133.652344,43.703125 135.09375,42.8007813 136.054688,41.9453125 L136.632813,42.4101563 C135.461066,43.8097515 133.697508,44.5742498 131.875,44.4726563 C128.780788,44.2770869 126.369459,41.713661 126.363281,38.6132813 C126.363281,35.703125 128.476562,33.59375 131.242188,33.0351562 L132.355469,28.015625 L136.535156,7.875 C135.980358,6.12747317 134.699165,4.70392551 133.019531,3.96875 C132.153206,3.60146625 131.174919,3.60146625 130.308594,3.96875 C128.570312,4.9140625 128.539063,7.06640625 129.890625,8.34375 C131.023438,9.41015625 132.90625,9.21484375 134.265625,8.80859375 L134.484375,9.39453125 C132.904415,10.1897583 131.029837,10.1339324 129.5,9.24609375 C128.430738,8.50445151 127.842861,7.24513987 127.960937,5.94921875 C128.10483,4.17972024 129.039105,2.56949498 130.503906,1.56640625 C132.480469,0.08203125 135.730469,0.39453125 137.710938,1.62109375 Z M153.78125,9.37890625 C155.656645,10.6988166 156.971677,12.6713646 157.46875,14.9101562 C159.266467,13.2441629 160.879901,11.3897616 162.28125,9.37890625 C163.234375,10.9921875 164.234375,13.0625 165.558594,14.4570312 L167.441406,12.8945312 L167.890625,13.4101562 C166.859375,14.421875 165.695312,15.0078125 165.695312,16.4140625 L165.695312,34.65625 C165.746526,35.1969156 166.032041,35.688002 166.476562,36 L168.175781,34.21875 L168.75,34.7695312 C166.90625,37.0507812 164.890625,39.3671875 163.347656,41.8242187 C161.785156,40.3867187 160.148438,38.3710937 160.148438,36.8554687 L160.148438,16.5429687 C159.83912,15.9600655 159.452848,15.4213877 159,14.9414062 C158.414062,15.453125 157.636719,15.9179687 157.492188,16.6484375 L157.492188,35.4375 C157.492188,36.109375 158.421875,36.640625 158.972656,36.9570312 C157.539043,38.4911127 156.211744,40.1211984 155,41.8359375 C153.71875,40.1875 152.265625,38.3945312 150.53125,37.1015625 C150.921875,36.7578125 151.886719,36.0976563 151.886719,35.4726562 L151.886719,16.3828125 C151.836301,15.6452989 151.448608,14.9722406 150.835938,14.5585937 L149.386719,16.1757812 L148.777344,15.6289062 C150.605403,13.6789536 152.278454,11.5892725 153.78125,9.37890625 Z M233.714844,9.37890625 C235,12.78125 236.667969,16.0195312 238.265625,19.2890625 L231.101562,26.625 L231.101562,34.3789062 L233.957031,36.7617187 C234.828125,35.9257812 235.519531,35.015625 236.34375,34.0585937 L237.03125,34.5390625 C234.996094,37.0078125 232.832031,39.2890625 230.851562,41.8554688 C229.126903,40.2888101 227.302788,38.8352596 225.390625,37.5039062 L223.980469,39.0234375 L223.339844,38.4648437 C223.957031,37.75 225.484375,36.2460937 225.503906,35.4960937 L225.503906,17.0859375 C226.746094,15.9648438 231.851562,11.3046875 233.707031,9.375 L233.714844,9.37890625 Z M199.296875,9.37890625 C200.478776,11.0696328 201.78444,12.6703771 203.203125,14.1679687 L204.6875,12.5039062 L205.3125,13.078125 C204.410156,14.0976562 202.40625,15.8984375 202.40625,16.8554687 L202.40625,34.6679688 C202.468184,35.321059 202.81016,35.9152414 203.34375,36.296875 L204.988281,34.5820312 L205.625,35.109375 C203.644531,37.3085937 201.570312,39.4882812 199.957031,41.8359375 C198.5625,40.6640625 196.792969,38.6132812 196.792969,37.1210937 L196.792969,16.4101562 C196.778323,15.7388059 196.384934,15.1335924 195.777344,14.8476562 L195.054687,15.6289062 L194.449219,15.09375 C196.16775,13.2783058 197.786036,11.3705273 199.296875,9.37890625 L199.296875,9.37890625 Z M190.011719,9.37890625 C191.296875,12.78125 192.964844,16.0195312 194.5625,19.2890625 L187.398438,26.625 L187.398438,34.3789062 L190.257812,36.7617188 C191.125,35.9257812 191.820312,35.015625 192.640625,34.0585937 L193.3125,34.5234375 C191.273438,36.9921875 189.113281,39.2734375 187.132812,41.8398438 C185.404142,40.281891 183.577489,38.8362252 181.664063,37.5117187 L180.253906,39.03125 L179.609375,38.4882812 C180.230469,37.7734375 181.816406,36.2539062 181.816406,35.5078125 L181.816406,17.0898438 C183.078125,15.9726562 188.140625,11.3046875 190.011719,9.37890625 Z M250.082031,9.37890625 C250.367188,12.140625 252.613281,15.921875 254.671875,12.1328125 L255.214844,12.3242187 C254.355469,14.7734375 252.773438,17.7695312 250.847656,18.4921875 C249.675781,18.9414062 248.234375,17.9648437 246.988281,15.5429687 C246.423964,15.9183099 246.052708,16.522314 245.972656,17.1953125 L245.972656,34.3164062 L248.316406,36.5898437 L250.519531,34.1132812 L251.121094,34.703125 C249.53125,36.4453125 246.78125,39.71875 245.3125,41.8007812 C243.687415,40.2072931 241.936998,38.7468707 240.078125,37.4335937 L238.695312,38.9140625 L238.078125,38.3789062 C238.679688,37.6445312 240.363281,36.109375 240.363281,35.3203125 L240.363281,16.671875 C240.324219,15.4453125 240.027344,14.8984375 239.71875,14.6289062 L238.890625,15.515625 L238.28125,14.9726562 C239.936229,13.2089848 241.475876,11.3405326 242.890625,9.37890625 C244.753906,10.7382812 246.015625,12.6914062 245.972656,15.0390625 C247.066406,13.2109375 248.464844,11.03125 250.082031,9.37890625 Z M212.765625,14.515625 L212.765625,35.3359375 C213.234375,35.7265625 213.628906,36.0664063 214.242187,36.5820312 C214.605469,36.0703125 215.089844,35.5585937 215.414062,35.125 L215.414062,16.6328125 C214.651542,15.7885152 213.757114,15.0735001 212.765625,14.515625 Z M187.398437,16.5742187 L187.398437,25.2109375 L190.320312,22.328125 C189.496578,20.3374999 188.51969,18.4137622 187.398437,16.5742187 L187.398437,16.5742187 Z M231.101562,16.5742188 L231.101562,25.2109375 L234.023438,22.328125 C233.199703,20.3374999 232.222815,18.4137622 231.101562,16.5742188 L231.101562,16.5742188 Z M137.109375,11.0390625 L134.339844,24.2226562 L139.453125,24.2226562 L137.109375,11.0390625 Z M199.726562,0.73828125 C200.955686,1.93732007 202.110193,3.21053862 203.183594,4.55078125 C202.269531,6.0078125 200.808594,7.28515625 199.519531,8.36328125 L196.003906,4.578125 L199.726562,0.73828125 Z"></path>
    <path d="M56.421875,9.37890625 C57.8515625,11.1367188 59.609375,13.0429688 61.5,14.3632812 L61.5,14.3632812 L63.1640625,13.09375 L63.6835938,13.71875 C62.46875,14.6757812 60.4179688,15.6953125 60.4023438,17.4140625 L60.4023438,36.8984375 C61.796875,38.65625 62.8789063,40.890625 62.21875,43.3085938 C59.9453125,48.6601562 53.4960938,47.2148438 49.328125,49.6132812 C49.328125,44.8320312 44.359375,44.6757812 43.078125,47.5742188 L42.296875,47.3398438 C43.7070313,40.7851562 53.4804688,40.3359375 54.1015625,47.1210938 C57.25,47.3203125 58.234375,43.2734375 56.375,41.0351562 C55.59375,40.109375 54.8398438,38.1601562 54.8398438,37.0585938 C53.4216576,38.576385 52.0851374,40.1684739 50.8359375,41.828125 L46.2734375,37.7382812 L44.921875,39.171875 L44.3007813,38.6328125 C44.90625,37.9023438 46.6210938,36.2890625 46.6445313,35.6523438 L46.6445313,17.03125 C49.9570313,14.9492188 53.5703125,12.3203125 56.421875,9.37890625 Z M26.03125,0.00390625 C29.3945313,1.23828125 29.0273438,6.51171875 26.6953125,8.51171875 L26.6953125,8.51171875 C25.2265625,10.0429688 22.609375,10.7265625 20.5585938,10.5507813 L20.5585938,37.4140625 C23.9453125,37.4140625 25.21875,33.0859375 25.515625,31.0078125 L26.1757813,31.375 C26.0546875,35.7265625 23.09375,39.9414063 19.140625,41.4101563 C14.6640625,43.0820313 9.68359375,41.703125 6.3125,38.625 C1.09375,33.2070313 -0.078125,24.7109375 2.265625,17.6015625 C4.2421875,12.6875 9.08203125,9.0078125 14.4335938,9.0078125 L14.5078125,9.66796875 C9.9609375,11.7226563 8.0546875,16.5585938 7.4765625,21.1757813 C6.96484375,25.7851563 7.9921875,30.5507813 10.9375,34.0664063 C11.3684542,33.9445676 11.7162175,33.6257845 11.875,33.2070313 L11.875,13.2851563 C13.5625,12.0390625 15.4453125,10.9140625 17.203125,9.59765625 C13.5390625,7.42578125 7.671875,5.64453125 3.73828125,8.20703125 C1.53515625,9.6484375 0.8671875,12.7382813 2.78515625,14.6601563 L2.41796875,15.171875 C0.3125,13.859375 0.2109375,11.0664063 0.51953125,8.875 C1.01953125,5.359375 4.46875,2.1640625 7.8515625,1.32421875 C14.21875,-0.23828125 18.9960938,3.96484375 24.7890625,4.83984375 C26.6132813,5.14453125 27.3515625,3.23046875 26.8398438,1.76171875 C26.65625,1.23828125 26.0234375,0.8671875 25.6679688,0.6484375 L26.03125,0.00390625 Z M37.2695312,9.37890625 C39.03125,11.2109375 40.84375,12.5039062 42.7382812,13.90625 L42.7382812,13.90625 C43.1289062,13.6796875 43.6132812,13.3398438 43.9765625,13.0820313 L44.5078125,13.6757812 C43.4804688,14.703125 41.5039062,15.2890625 41.6484375,17.046875 L41.6484375,35.4609375 C41.8240324,35.8524215 42.1406127,36.1634233 42.5351562,36.3320312 C43.0507812,35.96875 43.3984375,35.3828125 43.90625,34.8476562 L44.4414063,35.2382812 C42.796875,37.296875 41.03125,39.6367188 39.5664062,41.8359375 C38.0686192,40.5377432 36.9078674,38.8958021 36.1835938,37.0507813 C34.4634574,38.4247109 32.9470328,40.0358298 31.6796875,41.8359375 C30.1172184,40.5967399 28.6663556,39.222995 27.34375,37.7304687 L25.953125,39.1953125 L25.3671875,38.6757812 C26.0820312,37.8046875 27.78125,36.2695312 27.7890625,35.2421875 L27.7890625,16.3203125 C30.6210938,14.5078125 34.3242188,12.4140625 37.2695312,9.37890625 Z M87.5234375,9.37890625 C89.765625,12.40625 93.28125,13.5039062 95.625,9.66796875 L96.3398437,10.1601562 L89.421875,21.0273438 C90.375,21.7617188 92.0585937,22.3828125 93.234375,22.7421875 L93.234375,35.9414062 C90.0429687,37.5351562 87.5273437,39.0898438 85.125,41.8554688 C83.875,40.3164062 82.1171875,39.2148438 80.046875,39.2890625 C78.2851562,39.140625 77.2382812,40.609375 76.2148437,41.8554688 L75.5,41.4101562 C77.7734375,37.8046875 80.078125,34.0898438 82.421875,30.5 C81.5274843,29.7081726 80.5912421,28.9649163 79.6171875,28.2734375 L79.6679687,16.6757813 C82.0820312,15.359375 85.515625,12.7695312 87.5234375,9.37890625 Z M73.3945312,9.37890625 C74.6796875,12.78125 76.3476562,16.0195312 77.9414062,19.2890625 L70.7773438,26.625 L70.7773438,34.3789062 L73.6367188,36.7617188 C74.5078125,35.9257812 75.1992188,35.015625 76.0234375,34.0585938 L76.6914062,34.5234375 C74.65625,36.9921875 72.4921875,39.2734375 70.5117188,41.8398438 C68.7838349,40.2809605 66.9571199,38.8352461 65.0429688,37.5117187 L63.6328125,39.03125 L62.9882813,38.4726562 C63.609375,37.7578125 65.1796875,36.2539062 65.1796875,35.5078125 L65.1796875,17.0898438 C66.4414062,15.9726562 71.5234375,11.3046875 73.3945312,9.37890625 Z M17.7421875,9.828125 L17.7421875,28.7421875 C17.7421875,32.703125 13.6914062,33.6835938 11.8828125,35.1210937 C13.8632812,36.8789062 16.796875,37.6367187 19.5820312,37.5039062 L19.5820312,10.453125 C18.9560751,10.284155 18.3415442,10.0753971 17.7421875,9.828125 L17.7421875,9.828125 Z M86.328125,25.9101562 L80.6679687,34.8007812 C83.21875,34.2695312 85.484375,34.4609375 87.6054687,36.8515625 L87.6054687,27.125 C87.6054687,26.6835938 86.7851562,26.140625 86.328125,25.9101562 Z M33.40625,14.2890625 L33.40625,35.28125 L34.8320312,36.78125 C35.171875,36.46875 35.734375,35.9570312 36.1757812,35.515625 L36.1757812,16.5742188 C35.3159589,15.7539629 34.4024806,14.9918609 33.4414062,14.2929688 L33.40625,14.2890625 Z M52.1992187,14.515625 L52.1992187,35.3359375 C52.6679687,35.7265625 53.0625,36.0664062 53.671875,36.5820312 C54.0390625,36.0703125 54.5234375,35.5585938 54.84375,35.125 L54.84375,16.6328125 C54.0817955,15.7894987 53.1888198,15.0745905 52.1992187,14.515625 Z M85.15625,15.2382812 L85.15625,24.7539062 C85.1662218,25.0630952 85.3576914,25.3372796 85.6445312,25.453125 L91.1132812,16.828125 C88.4921875,17.609375 87.1523437,17.0976562 85.2539062,15.3320313 L85.15625,15.2382812 Z M70.7929687,16.578125 L70.7929687,25.2109375 L73.7148437,22.328125 C72.8892402,20.3355564 71.9069977,18.4115627 70.7773437,16.5742188 L70.7929687,16.578125 Z"></path>
    <path transform="translate(94.531250,10.937500)" d="M15.3515625,0.21484375 L15.9414063,1.69921875 L17.5039063,1.69921875 L19.1109375,1.74419947 L19.8554688,0.27734375 C19.8697863,0.250719201 19.8974786,0.234278783 19.9273795,0.234163826 L19.9335938,0.22265625 C19.9523436,0.18267949 19.9955856,0.160257693 20.0390625,0.16796875 L22.828125,0.53125 C22.8647988,0.535618374 22.8962105,0.559551087 22.9101563,0.59375 C22.9254951,0.624495129 22.9254951,0.660661121 22.9101563,0.69140625 L21.9648438,2.09375 L22.9249375,2.32219947 L23.9492188,0.94140625 C23.9652015,0.919039975 23.9926564,0.908140345 24.0194283,0.91318557 L24.0390625,0.88671875 C24.0616374,0.851713988 24.104601,0.835801554 24.1445313,0.84765625 L26.171875,1.32421875 C26.2082095,1.3327878 26.2376642,1.35929697 26.25,1.39453125 C26.2616744,1.4294731 26.2542704,1.46797422 26.2304688,1.49609375 L24.0039063,4.0703125 L23.578125,5.30078125 L23.3046875,6.65234375 C23.2982604,6.67947055 23.2820787,6.70319694 23.2593513,6.71907951 C23.2564303,6.72563214 23.2538218,6.73221961 23.25,6.73828125 L23.0441855,6.94128297 C23.875594,7.13521924 24.6992829,7.37354158 25.5117188,7.65625 L25.5742188,7.65625 C25.851257,7.72610118 26.0417636,7.98010992 26.03125,8.265625 C26.0507813,8.72265625 26.0742188,9.1875 26.1015625,9.6640625 C26.2355095,9.6073056 26.3937594,9.6042657 26.5351563,9.66796875 C26.6849328,9.717311 26.8078255,9.82607814 26.875,9.96875 C26.9139493,10.0570955 26.9139493,10.1577483 26.875,10.2460938 C26.8485597,10.3029739 26.8158015,10.3566975 26.7773438,10.40625 C26.6953125,10.515625 26.703125,10.5234375 26.7226563,10.5390625 C26.8426146,10.6060075 26.8917372,10.7533752 26.8359375,10.8789063 C26.7750405,10.9833366 26.6873931,11.0696356 26.5820313,11.1289063 C26.5413374,11.1532902 26.5044792,11.1835666 26.4726563,11.21875 L26.5039063,11.2421875 C26.6328125,11.3320313 26.6640625,11.4257813 26.5976563,11.546875 C26.5350861,11.6478541 26.4440193,11.7280473 26.3359375,11.7773438 C26.2890625,11.8046875 26.2226563,11.8398438 26.21875,11.8632813 C26.2154099,11.883322 26.2177818,11.8690902 26.2185395,11.8889654 L26.2265625,11.9101563 C26.2302734,11.9169233 26.2337282,11.9235561 26.236935,11.9300602 L26.2584284,11.9650707 C26.2842035,11.9415155 26.3113671,11.9192604 26.3398438,11.8984375 C26.3772004,11.880853 26.4156129,11.8661496 26.4547529,11.8543593 L26.4459375,11.8671995 L26.4661098,11.8368732 C26.5871811,11.6354673 26.6925584,11.4248998 26.78125,11.2070313 C26.8690262,10.873949 27.0673654,10.5805723 27.34375,10.375 C27.5429688,10.2734375 27.6015625,9.7109375 27.6367188,9.375 C27.6487038,9.26047585 27.657965,9.1740985 27.6675977,9.10704626 C27.6631864,9.10471107 27.6613636,9.09936343 27.6601563,9.09375 C27.6433738,9.0026455 27.5618466,8.92036985 27.4842122,8.86227618 C27.4325142,8.93429394 27.3606359,8.98837991 27.2773438,9.01953125 C27.2377556,9.03638875 27.1953545,9.04566399 27.1523438,9.04687516 C27.0982936,9.04692586 27.0449132,9.03491527 26.9960938,9.01171875 C26.945509,8.98729855 26.8957032,8.94652141 26.8692841,8.88103988 C26.8163499,8.86760874 26.7647245,8.84802591 26.7148438,8.82421875 C26.5387575,8.74981381 26.3986237,8.60967996 26.3242188,8.43359375 C26.289289,8.35664292 26.289289,8.26835708 26.3242188,8.19140625 C26.421875,7.984375 26.7148438,7.94140625 27.0507813,8.09375 L27.1477326,8.14363951 L27.2339375,8.20019947 L27.2467022,8.19661231 C27.2873264,8.19053516 27.329338,8.19661231 27.3671875,8.21484375 C27.4689705,8.26159731 27.5457866,8.34979366 27.578125,8.45703125 C27.6061347,8.54838433 27.5995493,8.64627788 27.5606303,8.73239537 C27.6152221,8.77079016 27.6810651,8.82614456 27.7321997,8.89351091 L27.7437755,8.87999856 C27.7364945,8.85110686 27.7337054,8.79598214 27.7265625,8.703125 L27.7245478,8.67222936 C27.7166994,8.64533445 27.7073153,8.6118608 27.6953125,8.5703125 L27.6653283,8.44558877 L27.6309375,8.33119947 L27.5847326,8.24539976 C27.3500705,7.81703016 27.2584635,7.73795573 27.2226563,7.734375 C26.9442551,7.72935716 26.6773791,7.62232876 26.4726563,7.43359375 C26.3729505,7.34274457 26.3271712,7.20688325 26.3515625,7.07421875 C26.3604512,7.0126101 26.3981738,6.95892794 26.453125,6.9296875 L26.4296875,6.9296875 C26.1871837,6.81539556 26.0246416,6.57978411 26.0039063,6.3125 C25.9988235,6.21246295 26.0611666,6.12134611 26.15625,6.08984375 C26.1213623,6.04325715 26.0821232,6.00009407 26.0390625,5.9609375 C25.90625,5.8359375 25.7382813,5.67578125 25.7578125,5.48828125 C25.775574,5.35437778 25.861254,5.23915296 25.984375,5.18359375 L26.0078125,5.18359375 L25.90625,5.078125 C25.8229778,5.00707036 25.759694,4.91551086 25.7226563,4.8125 C25.6838324,4.56606031 25.8001411,4.32103651 26.015625,4.1953125 C26.275428,4.11580308 26.5575457,4.20059256 26.7304688,4.41015625 C26.7767947,4.49099978 26.8010433,4.5826056 26.8007813,4.67578125 L26.7978487,4.70703125 L26.8007813,4.73828125 C26.9714313,4.72482683 27.1373758,4.79825359 27.2421875,4.93359375 C27.308256,5.08143601 27.3166167,5.24864848 27.265625,5.40234375 C27.2482345,5.46327021 27.2403294,5.52651122 27.2421875,5.58984375 L27.2890625,5.58984375 C27.3558709,5.56998192 27.4279065,5.5784567 27.4882813,5.61328125 L27.5379375,5.64819947 L27.5719375,5.64819947 L27.5628308,5.58705983 C27.5563145,5.55382666 27.5483859,5.52087043 27.5390625,5.48828125 C27.4529974,5.2956337 27.4529974,5.07546005 27.5390625,4.8828125 C27.6377203,4.77353599 27.7836622,4.71953747 27.9296875,4.73828125 C27.943756,4.74209912 27.9585878,4.74209912 27.9726563,4.73828125 C27.9921875,4.73828125 27.9726563,4.6171875 27.9726563,4.5546875 C27.9615802,4.45275789 27.9681877,4.34968115 27.9921875,4.25 C28.0607168,4.02443369 28.2816928,3.8809642 28.515625,3.91015625 C28.765694,3.94287324 28.9582951,4.14689981 28.9765625,4.3984375 C28.9734473,4.48399028 28.9562915,4.56844934 28.9257813,4.6484375 C28.890625,4.75 28.890625,4.75390625 28.9257813,4.76953125 C29.0899983,4.85962881 29.1995053,5.02461936 29.21875,5.2109375 C29.1903597,5.38597903 29.0986008,5.54447176 28.9609375,5.65625 C28.9397223,5.67454316 28.9198817,5.69428582 28.9015474,5.71531257 C28.9821987,5.66950687 29.0802504,5.66351639 29.2009042,5.69525556 L29.296875,5.7265625 C29.3173865,5.6900556 29.3318946,5.6504881 29.3398438,5.609375 C29.3591298,5.49759368 29.4017189,5.39112081 29.4648438,5.296875 C29.6862882,5.084482 30.019888,5.04021283 30.2890625,5.1875 C30.4829737,5.27041429 30.635127,5.42820287 30.7109375,5.625 C30.7538827,5.74487148 30.7424734,5.87750492 30.6796875,5.98828125 C30.6369255,6.0628481 30.5858153,6.13230554 30.5273438,6.1953125 C30.4023438,6.34375 30.3984375,6.37109375 30.4414063,6.41015625 C30.6015625,6.5625 30.640625,6.7109375 30.5546875,6.859375 C30.4615581,6.99123189 30.3365883,7.097389 30.1914063,7.16796875 C30.125,7.20703125 30.0117188,7.26953125 30.0117188,7.30078125 C30.0117188,7.33203125 30.0117188,7.328125 30.0664063,7.36328125 C30.2226563,7.48828125 30.25,7.609375 30.1601563,7.75390625 C30.0604451,7.88316309 29.9244355,7.97972992 29.7695313,8.03125 C29.6835938,8.07421875 29.5976563,8.11328125 29.5820313,8.15625 C29.5664063,8.19921875 29.5820313,8.21484375 29.6054688,8.23828125 C29.7179996,8.36984438 29.7179996,8.56374937 29.6054688,8.6953125 C29.329875,8.92863994 28.9654689,9.028673 28.609375,8.96875 C28.3810107,9.00967659 28.1623722,9.09315675 27.9648438,9.21484375 L27.9309466,9.23150669 C27.9230646,9.28818227 27.9174302,9.34517255 27.9140625,9.40234375 C27.8671875,9.87109375 27.8046875,10.453125 27.46875,10.6210938 C27.2734375,10.7226563 27.15625,11.0117188 27.015625,11.3164063 C26.9567548,11.4715095 26.8893243,11.6230867 26.813686,11.7704511 L26.7842973,11.8235231 C26.8225842,11.8275963 26.8607223,11.8343297 26.8984375,11.84375 C26.9631051,11.8723514 27.0306961,11.8856687 27.0971437,11.8852488 C27.2064611,11.7805557 27.3426139,11.7094616 27.4900786,11.6792354 C27.5072263,11.6559131 27.5223662,11.62964 27.5351563,11.6015625 C27.5820313,11.5371094 27.6223145,11.4836426 27.6724854,11.4609375 L27.688667,11.4583385 C27.6547372,11.1677153 27.6813568,10.8477966 27.8125,10.7460938 C27.8794829,10.6953082 27.9720796,10.6953082 28.0390625,10.7460938 C28.0703125,10.7695313 28.0820313,10.7695313 28.0820313,10.7695313 C28.1099376,10.6823859 28.1244262,10.5915027 28.125,10.5 C28.1445313,10.2929688 28.1601563,10.0820313 28.296875,10.0078125 C28.3880064,9.97176561 28.4912635,9.98504153 28.5703125,10.0429688 L28.609375,10.0429688 C28.6132685,10.0053087 28.6132685,9.96734755 28.609375,9.9296875 C28.6028029,9.75363597 28.6520201,9.5800085 28.75,9.43359375 C28.8554688,9.29296875 29,9.26953125 29.2109375,9.359375 L29.2421875,9.359375 C29.2548971,9.3262693 29.2653379,9.29233666 29.2734375,9.2578125 C29.2926291,9.15696698 29.3325324,9.06119927 29.390625,8.9765625 C29.5955502,8.7849518 29.9017403,8.7500493 30.1445313,8.890625 C30.3220728,8.96285272 30.4629285,9.10370842 30.5351563,9.28125 C30.5748827,9.39103569 30.5634192,9.51283574 30.5039063,9.61328125 C30.4649582,9.68016263 30.4177084,9.74184995 30.3632813,9.796875 C30.2460938,9.9296875 30.25,9.94921875 30.28125,9.98046875 C30.4296875,10.1210938 30.4609375,10.2578125 30.3789063,10.3945313 C30.2930662,10.5132 30.1789316,10.6085359 30.046875,10.671875 C30.0029297,10.6953125 29.9370117,10.7297363 29.9051514,10.757019 L29.8867188,10.78125 C29.8867188,10.78125 29.8867188,10.78125 29.9296875,10.8320313 C30.0742188,10.9492188 30.0976563,11.0625 30.0117188,11.1953125 C29.9230759,11.3111613 29.802101,11.3981545 29.6640625,11.4453125 C29.5898438,11.4804688 29.5078125,11.515625 29.5,11.5507813 C29.4907313,11.5759809 29.4985935,11.6042847 29.5195313,11.6210938 C29.5622916,11.671812 29.5870886,11.7323731 29.5939225,11.7945073 C29.7389448,11.8529747 29.8515621,11.9841223 29.8828125,12.1484375 C29.9448818,12.3935393 29.825608,12.6484257 29.5976563,12.7578125 C29.5273144,12.7843662 29.4537524,12.8014431 29.3789063,12.8085938 C29.2695313,12.8085938 29.2695313,12.8085938 29.2695313,12.8867188 C29.2545257,13.0622061 29.1408288,13.213802 28.9765625,13.2773438 C28.7995615,13.3204142 28.6139641,13.3122859 28.4414063,13.2539063 C28.3834049,13.2350429 28.3227057,13.2258061 28.2617188,13.2265625 C28.2579009,13.240631 28.2579009,13.2554628 28.2617188,13.2695313 C28.2617188,13.5078125 27.96875,13.5664063 27.8710938,13.5859375 C27.739012,13.6008725 27.605267,13.5848231 27.4804688,13.5390625 C27.4206542,13.5113839 27.3548088,13.4992898 27.2890625,13.5039063 C27.2851404,13.5139537 27.2851404,13.5251088 27.2890625,13.5351563 C27.2419429,13.6880369 27.1077652,13.7940396 26.9534978,13.8089401 L26.875,13.8085938 C26.6378839,13.8240611 26.4047088,13.7583658 26.2122998,13.6256037 L26.1970282,14.1956027 L26.1669375,14.7721995 L26.201065,14.7464599 C26.337679,14.6608653 26.5168194,14.6669518 26.6484375,14.7695313 C26.71875,14.8085938 26.7382813,14.8007813 26.7421875,14.8007813 C26.76626,14.7532173 26.785875,14.7035259 26.8007813,14.6523438 C26.8242236,14.5365148 26.875129,14.4280059 26.9492188,14.3359375 C27.0371214,14.2358876 27.1615601,14.1753827 27.2945371,14.1680359 C27.4275141,14.1606891 27.5578607,14.2071175 27.65625,14.296875 C27.8817295,14.4697605 27.9494275,14.7801808 27.8164063,15.03125 C27.7957166,15.0927396 27.7709212,15.1527705 27.7421875,15.2109375 C27.6679688,15.3789063 27.6328125,15.4726563 27.7421875,15.6015625 C27.8801075,15.7157753 27.9057394,15.9174129 27.8007813,16.0625 C27.6964968,16.1833016 27.5615437,16.2737202 27.4101563,16.3242188 C27.3398438,16.3554688 27.2226563,16.40625 27.21875,16.4335938 C27.2148438,16.4609375 27.21875,16.4648438 27.265625,16.5039063 C27.3133371,16.5529436 27.3462101,16.599283 27.3647018,16.6439924 C27.6715407,16.5622584 28.0212813,16.5099954 28.203125,16.6171875 C28.2743644,16.6561914 28.3497626,16.683982 28.4268936,16.7006483 L28.5419375,16.7171995 L28.572368,16.6569831 C28.6386218,16.4981478 28.6670909,16.3261992 28.6557285,16.1547821 C28.6230897,16.1615479 28.5909073,16.1643599 28.5585938,16.1640625 C28.4844151,16.1643168 28.4110814,16.1483167 28.34375,16.1171875 C28.2450277,16.0683422 28.1693232,15.9828242 28.1328125,15.8789063 C28.1111797,15.819 28.1030158,15.7498782 28.1297619,15.6796944 C28.097382,15.6219407 28.0680339,15.5574002 28.0429688,15.4882813 C27.976846,15.3263179 27.9565745,15.1492804 27.984375,14.9765625 C27.998321,14.8650066 28.0593451,14.7663218 28.1496835,14.7038048 L28.2226563,14.6640625 C28.3587671,14.6188191 28.5087257,14.65181 28.6132813,14.75 C28.7472929,14.8639424 28.8473091,15.0126151 28.9023438,15.1796875 C28.9289164,15.2524266 28.9483188,15.3273243 28.9604202,15.4033198 L28.9335938,15.3867188 C28.9969249,15.4182093 29.0458321,15.4727059 29.0703125,15.5390625 C29.1091495,15.6581252 29.0978677,15.7878654 29.0390625,15.8984375 C28.9829046,16.002789 28.8891539,16.0815194 28.7772574,16.1189631 C28.8017899,16.3203451 28.7714024,16.5260098 28.6904533,16.713734 C28.7403049,16.7092738 28.790668,16.6994909 28.8402318,16.6847839 L28.9059375,16.6611995 L28.92897,16.6485825 C28.9708078,16.6251317 29.0328245,16.5902509 29.0968591,16.5508154 L29.1900302,16.4788706 C29.1981648,16.3820375 29.2012385,16.2847815 29.1992188,16.1875 C29.1054688,15.84375 29.1445313,15.15625 29.3632813,15.015625 C29.4419371,14.9674643 29.5437529,14.982244 29.6054688,15.0507813 C29.640625,15.078125 29.65625,15.078125 29.65625,15.078125 C29.6903155,14.9808166 29.7190047,14.8817087 29.7421875,14.78125 C29.7851563,14.5585938 29.828125,14.328125 29.984375,14.265625 C30.0863463,14.2347591 30.1970359,14.2616836 30.2734375,14.3359375 C30.2906082,14.3524676 30.312411,14.363369 30.3359375,14.3671875 C30.3320244,14.3203942 30.3320244,14.2733558 30.3359375,14.2265625 C30.3486604,14.0335804 30.4210026,13.8493127 30.5429688,13.6992188 C30.671875,13.5625 30.8359375,13.5546875 31.0546875,13.671875 L31.0898438,13.671875 C31.1134825,13.6369736 31.1319055,13.5988117 31.1445313,13.5585938 C31.17825,13.4514062 31.2326622,13.3518716 31.3046875,13.265625 C31.5518553,13.0826594 31.8895509,13.0826594 32.1367188,13.265625 C32.3194798,13.3708995 32.4519113,13.5455964 32.5039063,13.75 C32.5324254,13.8730918 32.5068274,14.0025039 32.4335938,14.1054688 C32.3787961,14.1726625 32.3187084,14.2353626 32.2539063,14.2929688 C32.1132813,14.4257813 32.1054688,14.453125 32.1445313,14.4960938 C32.2890625,14.6679688 32.3085938,14.8164063 32.203125,14.9570313 C32.0988406,15.0778328 31.9638874,15.1682514 31.8125,15.21875 C31.7421875,15.25 31.625,15.3007813 31.6171875,15.3320313 C31.6267175,15.3590045 31.6428295,15.3831725 31.6640625,15.4023438 C31.8085938,15.5429688 31.8203125,15.6679688 31.7109375,15.7929688 C31.6576217,15.8489661 31.597215,15.897214 31.5315125,15.9366355 L31.4893985,15.9583599 L31.4890641,15.9664334 L31.4879375,15.9741995 L31.5837149,15.9559534 C31.6254421,15.9455216 31.666608,15.9328449 31.7070313,15.9179688 L31.7649375,15.8901995 L31.71875,15.9140625 C31.9128275,15.8057328 32.1424304,15.7803779 32.3554688,15.84375 C32.4871027,15.9082182 32.571569,16.0409509 32.5742188,16.1875 C32.5703759,16.204209 32.5703759,16.2215723 32.5742188,16.2382813 C32.6152759,16.2346112 32.655851,16.226758 32.6953125,16.2148438 C32.787033,16.1839037 32.8849272,16.1758576 32.9804688,16.1914063 C33.2214191,16.233046 33.390832,16.4515885 33.3710938,16.6953125 C33.378538,16.9480229 33.2042937,17.1699378 32.9570313,17.2226563 C32.8817126,17.2304711 32.8057874,17.2304711 32.7304688,17.2226563 C32.6171875,17.2226563 32.6210938,17.2226563 32.6054688,17.2734375 C32.5484855,17.4450205 32.3949565,17.5663084 32.2148438,17.5820313 C32.0324242,17.5861708 31.8529095,17.5358523 31.6992188,17.4375 C31.6475049,17.4022445 31.58894,17.3782862 31.5273438,17.3671875 C31.5234275,17.3799139 31.5234275,17.3935236 31.5273438,17.40625 C31.46875,17.640625 31.1679688,17.625 31.0703125,17.625 C30.943717,17.6088267 30.8230113,17.5618856 30.71875,17.4882813 C30.65625,17.453125 30.5742188,17.40625 30.5429688,17.4140625 C30.5117188,17.421875 30.5429688,17.4140625 30.5234375,17.4414063 C30.4556925,17.5809366 30.3060718,17.6612592 30.1523438,17.640625 L30.0039063,17.640625 C29.7081157,17.5865914 29.4502357,17.4070727 29.296875,17.1484375 C29.2650463,17.0703125 29.1131902,16.9857575 28.9921347,16.9281133 L28.9640561,16.9418954 C28.6628625,17.0499699 28.3242439,17.0235736 28.0390625,16.859375 C27.9415674,16.7999268 27.6428608,16.8490459 27.3561943,16.9283051 L27.2359375,16.9631995 C27.1792421,17.008397 27.1191762,17.0448183 27.0553841,17.0733911 C27.0674268,17.080172 27.0789792,17.0904305 27.0898438,17.1015625 C27.1711101,17.1826357 27.2185773,17.291531 27.2226563,17.40625 L27.2734375,17.375 C27.5044908,17.1668105 27.8286897,17.0969144 28.125,17.1914063 C28.203125,17.2226563 28.2226563,17.3320313 28.1992188,17.5820313 L28.3242188,17.5039063 C28.5273438,17.3710938 28.8085938,17.1875 29,17.328125 C29.1015625,17.40625 29.109375,17.71875 29.09375,17.8476563 L29.171875,17.8164063 C29.3046875,17.7578125 29.5078125,17.6679688 29.6601563,17.8164063 C29.8455832,17.9650718 29.9439124,18.1969528 29.921875,18.4335938 C29.8912246,18.6551974 29.7540816,18.8477811 29.5546875,18.9492188 C29.3790423,19.0165512 29.1800622,18.9683607 29.0546875,18.828125 L28.984375,18.7773438 C28.9160156,18.8320313 28.763916,19.1379395 28.6170502,19.213562 L28.5546875,19.2304688 C28.3367504,19.204937 28.1490601,19.064914 28.0625,18.8632813 C28.0439628,18.8293154 28.0230788,18.7966841 28,18.765625 L27.9804688,18.7890625 C27.8984375,18.9101563 27.6328125,19.1796875 27.46875,19.1367188 C27.3274786,19.0741401 27.2117448,18.9652953 27.140625,18.828125 L27.0818281,18.7453336 L27.0117188,18.671875 C26.8918273,18.8583701 26.6712013,18.9540261 26.453125,18.9140625 C26.3539497,18.8595572 26.2663949,18.788773 26.1933845,18.7057658 C26.2133671,18.7866587 26.2125966,18.8730156 26.1914063,18.9570313 C26.1361314,19.1054314 26.0147903,19.2195498 25.8632813,19.265625 C26.0104985,19.4737076 26.0469489,19.7405243 25.9609375,19.9804688 C25.8882426,20.2232987 25.6864638,20.405502 25.4375,20.453125 C25.37176,20.8146952 25.0930439,20.9466939 24.7247066,21.0585914 C24.5401608,21.4880314 24.3336022,21.919659 24.1030061,22.3532401 L23.8639375,22.7871995 L23.9463479,22.818921 C24.1443342,22.8879519 24.346129,22.945808 24.5507813,22.9921875 L24.609375,22.9921875 C24.8567001,22.9770168 25.1046415,22.98562 25.349807,23.0177278 L25.3712216,22.9479824 C25.369256,22.925006 25.3679104,22.9019722 25.3671875,22.8789063 C25.3633829,22.7281681 25.3477095,22.5779639 25.3203125,22.4296875 C25.2070313,22.1953125 25.1132813,21.6484375 25.28125,21.46875 C25.3440416,21.4184765 25.4333022,21.4184765 25.4960938,21.46875 L25.5273438,21.46875 C25.5351759,21.3908213 25.5351759,21.3123037 25.5273438,21.234375 C25.5273438,21.046875 25.5273438,20.84375 25.6484375,20.78125 C25.726539,20.7342182 25.8242422,20.7342182 25.9023438,20.78125 L25.9257813,20.78125 C25.9296672,20.7514281 25.9296672,20.7212281 25.9257813,20.6914063 C25.9066533,20.5351044 25.9366906,20.3767259 26.0117188,20.2382813 C26.1027033,20.1027558 26.2810489,20.0573281 26.4257813,20.1328125 L26.4492188,20.1328125 L26.4492188,20.046875 C26.4621368,19.955234 26.4912349,19.8666171 26.5351563,19.7851563 C26.7072364,19.600982 26.9778186,19.5474949 27.2070313,19.6523438 C27.3703966,19.7069345 27.5035169,19.8273093 27.5742188,19.984375 C27.615461,20.0817506 27.615461,20.1916869 27.5742188,20.2890625 C27.5424657,20.3513166 27.5045131,20.4102086 27.4609375,20.4648438 C27.3632813,20.5898438 27.375,20.6015625 27.3984375,20.6210938 C27.5331718,20.7008483 27.5855275,20.8697377 27.5195313,21.0117188 C27.4491471,21.12314 27.3525954,21.2156688 27.2382813,21.28125 L27.1691848,21.3283093 L27.109375,21.3867188 L27.1484375,21.421875 C27.2890625,21.515625 27.3203125,21.6171875 27.25,21.7460938 C27.1786601,21.8560799 27.0768693,21.9429414 26.9570313,21.9960938 C26.8984375,22.0273438 26.828125,22.0703125 26.8203125,22.0976563 C26.8125,22.125 26.8203125,22.125 26.8203125,22.1484375 C26.9163663,22.2609313 26.9163663,22.4265687 26.8203125,22.5390625 C26.6114661,22.7388592 26.3271398,22.839795 26.0390625,22.8164063 C25.8607239,22.8594868 25.6923124,22.9363992 25.5429688,23.0429688 C25.5919149,23.056927 25.6417525,23.0670332 25.6914063,23.078125 C26.0627772,23.1956801 26.4682871,23.1210195 26.7734375,22.8789063 C26.8717135,22.8206489 26.9734666,22.7684678 27.078125,22.7226563 C27.3789063,22.6015625 27.6835938,22.0195313 27.9101563,21.5976563 L27.9570313,21.5078125 C28.1124551,21.1989949 28.3912316,20.970625 28.724071,20.8788275 C29.0881563,20.5040234 29.1632761,20.3698886 29.15625,20.3242188 C29.1130566,20.0192261 29.1839996,19.7090244 29.3554688,19.453125 C29.4284033,19.3602645 29.5423006,19.3091568 29.6601563,19.3164063 C29.757956,19.3196755 29.8499681,19.3635582 29.9140625,19.4375 L29.9140625,19.3984375 C29.9718286,19.0927571 30.1945617,18.8444398 30.4921875,18.7539063 C30.59375,18.7304688 30.6796875,18.8359375 30.7734375,18.9726563 C30.8170131,18.9180211 30.8549657,18.8591291 30.8867188,18.796875 C30.9960938,18.6015625 31.1367188,18.3554688 31.3515625,18.3398438 C31.4654018,18.3398438 31.6108099,18.4919483 31.6844707,18.5895249 L31.7148438,18.6328125 C31.7577772,18.5932289 31.7958091,18.5486397 31.828125,18.5 C31.9101563,18.3945313 32,18.2695313 32.1289063,18.25 C32.3344004,18.1832551 32.5597461,18.2259677 32.7265625,18.3632813 C32.8828125,18.5625 32.75,18.8867188 32.6835938,19.0429688 L32.6640625,19.09375 L32.6015625,19.0742188 L32.6523438,19.1328125 L32.609375,19.171875 C32.5302676,19.2156074 32.4444761,19.2459644 32.3554688,19.2617188 C32.3094895,19.2700932 32.2648274,19.2845426 32.2226563,19.3046875 C32.3007813,19.5117188 32.375,19.78125 32.1992188,19.8710938 C32.04069,19.9293554 31.8697608,19.9455062 31.703125,19.9179688 C31.6087124,19.9023762 31.5123814,19.9023762 31.4179688,19.9179688 L31.4179688,19.9765625 L31.4248106,19.9898244 C31.4669843,20.0244771 31.5022138,20.0676258 31.5273438,20.1210938 L31.5358504,20.1446784 C31.5888043,20.1441771 31.6374217,20.1554166 31.6796875,20.1835938 C31.7626209,20.2501986 31.8042087,20.3556533 31.7890625,20.4609375 C31.7851934,20.4829038 31.7851934,20.5053774 31.7890625,20.5273438 L31.9140625,20.4648438 C32.0814077,20.3661178 32.2750188,20.3211237 32.46875,20.3359375 C32.6523438,20.3671875 32.7539063,20.4960938 32.7773438,20.7265625 C32.7773438,20.8710938 33.0585938,20.90625 33.2929688,20.9335938 L33.3671875,20.9335938 C33.6289063,20.96875 33.828125,21.3242188 33.8476563,21.65625 C33.8508331,21.7743434 33.8056868,21.8886201 33.7226563,21.9726563 C33.5383464,22.131404 33.3017858,22.2162875 33.0585938,22.2109375 C32.937706,22.1984592 32.8227076,22.1524598 32.7265625,22.078125 L32.678715,22.0490302 L32.6289063,22.0234375 L32.6289063,22.0820313 C32.5820313,22.2578125 32.5507813,22.3828125 32.3828125,22.3789063 C32.2223766,22.3590961 32.070064,22.2970927 31.9414063,22.1992188 C31.8789063,22.1601563 31.7695313,22.0898438 31.7421875,22.1015625 C31.7148438,22.1132813 31.71875,22.1015625 31.7109375,22.1796875 C31.6875,22.3515625 31.6054688,22.4335938 31.453125,22.4335938 L31.4179688,22.4335938 C31.2591243,22.4068435 31.1113236,22.3349771 30.9921875,22.2265625 C30.9179688,22.1679688 30.8398438,22.1132813 30.796875,22.1171875 C30.7539063,22.1210938 30.75,22.1523438 30.734375,22.1796875 C30.6668152,22.3295895 30.5052658,22.4135952 30.34375,22.3828125 C29.9966194,22.2547752 29.7264472,21.9759804 29.609375,21.625 C29.5758371,21.5094804 29.0908263,21.2197705 28.8936386,21.1051707 C28.8715469,21.1130319 28.843787,21.1207861 28.8149435,21.1289737 L28.8242188,21.15625 C28.5726509,21.2257052 28.3605733,21.3943528 28.2361212,21.6228093 L28.2189375,21.6051995 L28.300249,21.6893569 C28.3657049,21.7647463 28.4219726,21.8475194 28.4679427,21.935911 L28.4257813,21.9414063 C28.5606858,21.9142297 28.7008697,21.9408647 28.8164063,22.015625 C28.9100774,22.0751714 28.9739934,22.1717556 28.9921875,22.28125 C29.0027683,22.3356658 29.0016511,22.3971004 28.9736715,22.4555952 C28.9989897,22.5217809 29.0199033,22.5930905 29.0351563,22.6679688 C29.091216,22.8807102 29.0647011,23.1067845 28.9609375,23.3007813 C28.9105672,23.3829699 28.8286589,23.4408706 28.734375,23.4609375 L28.6679688,23.4609375 L28.6679688,23.4648438 C28.5519904,23.4605157 28.4430333,23.4081597 28.3671875,23.3203125 C28.2544209,23.1859524 28.1789803,23.0242938 28.1484375,22.8515625 L28.1290039,22.7261563 L28.125,22.6601563 C28.0674089,22.6204554 28.0269463,22.5604591 28.0117188,22.4921875 C27.986904,22.363289 28.0177441,22.2299075 28.0966223,22.1249846 C28.1524944,22.0506642 28.2287793,21.9955304 28.3149825,21.9654363 C28.2733709,21.8921444 28.2220772,21.8226662 28.1633231,21.7595708 L28.1659375,21.7521995 L28.0965469,21.883918 C27.853125,22.34 27.5578125,22.8476563 27.1992188,22.9882813 C27.109375,23.03125 27.0195313,23.078125 26.9335938,23.1289063 C26.7133475,23.2790115 26.4610069,23.3737096 26.1979856,23.4060807 L26.0409375,23.4171995 L25.893058,23.409052 C25.7937121,23.3973407 25.695886,23.3741543 25.6015625,23.3398438 C25.2774769,23.2768506 24.9467973,23.2545428 24.6171875,23.2734375 L24.5507813,23.2734375 C24.2682197,23.2163259 23.9908651,23.1363808 23.7214371,23.0344382 C23.5434557,23.337205 23.3524395,23.6419749 23.1484034,23.9475173 C23.2927504,23.9776938 23.4381794,24.021653 23.5484569,24.0588869 C23.5703646,24.0608333 23.6028646,24.0625 23.6445313,24.0625 C24.3203125,24.1601563 24.5,24.1328125 24.5351563,24.0898438 C24.8422022,23.8095718 25.2747547,23.7129535 25.671875,23.8359375 C25.7682692,23.8921381 25.8042206,24.013688 25.7539063,24.1132813 C25.749995,24.1313006 25.749995,24.1499494 25.7539063,24.1679688 C25.8571556,24.1875193 25.9631569,24.1875193 26.0664063,24.1679688 C26.2890625,24.140625 26.5234375,24.109375 26.6289063,24.2382813 C26.689873,24.3254433 26.7002699,24.4383244 26.65625,24.5351563 C26.6523809,24.5571226 26.6523809,24.5795962 26.65625,24.6015625 L26.796875,24.5742188 C26.9834476,24.5269298 27.1801425,24.5392232 27.359375,24.609375 C27.53125,24.6875 27.5898438,24.8398438 27.546875,25.0820313 C27.5429587,25.0947576 27.5429587,25.1083674 27.546875,25.1210938 C27.5868631,25.1288899 27.6279806,25.1288899 27.6679688,25.1210938 C27.781271,25.1240841 27.8933649,25.1451841 28,25.1835938 C28.2470843,25.3599777 28.3539903,25.674407 28.265625,25.9648438 C28.2230865,26.1710168 28.0991435,26.3512976 27.921875,26.4648438 C27.811457,26.527346 27.6805464,26.54283 27.5585938,26.5078125 C27.4792394,26.4769465 27.4022164,26.4403932 27.328125,26.3984375 C27.15625,26.3007813 27.1328125,26.3046875 27.0976563,26.3554688 C27.0450502,26.4868446 26.9255028,26.5794939 26.7851563,26.5976563 C26.748937,26.6035616 26.7120005,26.6035616 26.6757813,26.5976563 C26.5203459,26.5372222 26.3850014,26.4343603 26.2851563,26.3007813 C26.2379325,26.2411019 26.1811798,26.1896285 26.1171875,26.1484375 C26.094773,26.1673769 26.077338,26.1915176 26.0664063,26.21875 C25.9765625,26.3945313 25.8632813,26.4453125 25.6992188,26.3867188 C25.5550762,26.3172336 25.4342769,26.2072927 25.3515625,26.0703125 C25.296875,25.9921875 25.2382813,25.9140625 25.1953125,25.9101563 C25.1657001,25.9142843 25.1382574,25.9280057 25.1171875,25.9492188 C25.0071323,26.0818444 24.8177952,26.116419 24.6679688,26.03125 C24.3860487,25.7995793 24.2214945,25.454731 24.21875,25.0898438 C24.21875,25.0301066 24.1099099,24.8900776 23.9792046,24.7405303 L23.8174293,24.5610344 C23.7637167,24.5026992 23.712072,24.4473706 23.6680617,24.3995781 L23.6039375,24.3291995 L23.4778398,24.2739421 C23.3241525,24.2152742 23.1631261,24.1784156 22.9994733,24.1643384 L22.9908215,24.1798693 L22.9997559,24.1951006 C23.1000422,24.3663066 23.16496,24.5558582 23.1907256,24.7524556 C23.2825674,24.7543777 23.3734297,24.7819628 23.453125,24.8320313 C23.5435842,24.894784 23.6065054,24.9898649 23.6289063,25.0976563 C23.6384475,25.1480884 23.6384765,25.2037523 23.6178741,25.2583416 C23.6464445,25.3302447 23.6704915,25.4086914 23.6875,25.4921875 C23.7437182,25.7036275 23.7171747,25.9285489 23.6132813,26.1210938 C23.5755035,26.1827352 23.5199857,26.2307147 23.4548118,26.2593176 L23.3867188,26.28125 L23.3320313,26.2890625 C23.2594665,26.2862385 23.1891256,26.2632424 23.1289063,26.2226563 C22.9566599,26.0864732 22.843374,25.8892719 22.8125,25.671875 C22.7958887,25.6033212 22.7857067,25.5336157 22.7819538,25.4636499 C22.7269891,25.4257164 22.686355,25.3654658 22.671875,25.296875 C22.6511867,25.1734355 22.6807236,25.0468488 22.7539063,24.9453125 C22.8243799,24.8472111 22.9312759,24.7817679 23.0503185,24.7634255 C23.0283882,24.605538 22.9769464,24.4520107 22.899867,24.3110033 C22.4858961,24.9016365 22.0232453,25.4940496 21.5055602,26.088376 C22.3594674,26.4340885 24.8921935,27.4934996 25.4140625,28.078125 L25.4229375,28.0881995 C25.4305351,28.0950309 25.4313774,28.0963141 25.4322143,28.0975993 L25.46875,28.140625 L25.4621772,28.1487568 C25.5711599,28.356934 25.5525235,28.6085938 25.4168453,28.7979636 L25.3515625,28.875 L25.3515625,28.8632813 C25.1571181,29.0334201 25.0058835,29.1356578 24.8759109,29.0410505 L24.8509375,29.0171995 L24.8398438,29.0351563 L24.765625,28.9375 C24.4097107,28.4783706 21.8778242,26.9361194 20.9815533,26.6656576 C20.0317791,27.6911483 18.9109944,28.720134 17.59375,29.75 L17.5195313,29.8203125 L17.4492188,29.7617188 C16.4163894,28.9533413 15.5042917,28.1457018 14.699277,27.3407051 L14.3282875,26.9664051 L13.9719375,26.5921995 L13.9308185,26.5981671 C13.2419035,26.7407354 10.2929688,28.6702836 9.98828125,28.9335938 L9.9140625,28.96875 L9.89642533,28.9451407 C9.79307594,28.9633862 9.66319067,28.9376132 9.49609375,28.8398438 C9.26543713,28.7096581 9.17223896,28.4249801 9.28125,28.1835938 C9.290625,28.1689063 9.300975,28.1561938 9.31222,28.1452963 L9.296875,28.1289063 L9.3671875,28.0703125 C9.54462289,27.9177512 10.2964962,27.5300646 11.1147669,27.1289974 L11.5646277,26.9102393 C12.3902482,26.5116369 13.1898952,26.139971 13.4555282,26.0169865 C13.263782,25.7996341 13.0816038,25.5827753 12.9065159,25.3662482 L12.8554688,25.3710938 C12.3555054,25.3445329 11.8610822,25.2577584 11.3828424,25.1130015 C10.6460079,25.5419019 9.55152886,26.0267083 7.95703125,26.4414063 L7.734375,26.515625 L7.8699375,26.3491995 L7.8125,26.3632813 L7.953125,26.1914063 C8.24609375,25.8007813 8.453125,25.5078125 8.63671875,25.234375 C8.86944322,24.8852883 9.05077757,24.6134829 9.2890024,24.4030462 C8.70466067,24.0573113 8.04236873,23.5027467 7.359375,22.6210938 L7.25,22.4804688 L7.4296875,22.5039063 C8.86833079,22.6938072 9.87038444,23.108361 10.6700127,23.8677721 C10.9479581,23.8280362 11.2764756,23.7974128 11.6684036,23.7753296 L11.7374975,23.7725164 C11.5911815,23.5510183 11.4516995,23.3299696 11.3187521,23.1094108 C11.3104801,23.1108593 11.3017226,23.1102041 11.2929688,23.109375 C11.0176711,23.1096247 10.7452067,23.0538028 10.4921875,22.9453125 C9.8140212,22.5959173 9.2790316,22.1082436 8.86287893,21.5986074 L8.7119375,21.4071995 L8.57917318,21.4318149 C8.370584,21.4633853 8.16027733,21.482326 7.94940389,21.4885333 L7.34375,21.4882813 L7.3429375,21.4611995 L7.2479375,21.4981995 L7.42428211,21.5910558 L7.09765737,22.2137122 L7.05693844,22.1906581 C7.1169946,22.2745149 7.15234375,22.3772699 7.15234375,22.4882813 C7.15234375,22.7708957 6.92323946,23 6.640625,23 C6.35801054,23 6.12890625,22.7708957 6.12890625,22.4882813 C6.12890625,22.2056668 6.35801054,21.9765625 6.640625,21.9765625 C6.68610319,21.9765625 6.73019573,21.9824952 6.77217091,21.9936288 L6.98538675,21.5867177 C6.63460941,21.6903498 6.27168499,21.7488709 5.90541628,21.7605939 L5.80495598,21.7626698 L5.7048461,21.7623296 L5.640625,21.7617188 C4.53877536,21.7465822 3.46413369,21.4172784 2.54296875,20.8125 L2.4140625,20.7304688 L2.5379375,20.6851995 L2.55078125,20.6796875 C2.94430098,20.481293 3.35759511,20.3459814 3.77732709,20.2720671 C3.99039604,20.213774 4.20057869,20.1648005 4.4074414,20.1289381 C4.04424058,19.7985815 3.68455329,19.3830896 3.34765625,18.8632813 L3.26171875,18.7265625 L3.421875,18.75 C5.80769648,19.0724083 7.21381099,19.8736208 7.71532218,21.2144356 C7.98647458,21.2126301 8.25943648,21.1912456 8.53021122,21.152421 C7.85602488,20.1627675 7.59841545,19.2178805 7.58203125,19.1523438 L7.5499375,18.9961995 L7.38598069,19.0376832 C7.25390647,19.0641809 7.11940233,19.0777571 6.984375,19.078125 C6.34375,19.078125 5.18359375,18.9101563 3.4375,18.0507813 L3.2890625,17.9765625 L3.4453125,17.9140625 C4.52348905,17.4571457 5.74298949,17.4684636 6.8125,17.9453125 C7.00544666,18.0325162 7.17525874,18.1582236 7.31318835,18.3121671 C7.01413538,17.6861206 6.51502045,17.1667768 5.8828125,16.84375 L5.8869375,16.8301995 L5.78788427,16.888854 C5.45008688,17.0654172 5.0705222,17.1501657 4.6875,17.1328125 C3.96484375,17.1328125 2.93359375,16.8945313 1.5625,16.0273438 L1.421875,15.9335938 L1.5859375,15.890625 L1.91796875,15.8007813 C2.05975421,15.7618685 2.20363943,15.7223412 2.34940157,15.6852721 C1.62786923,15.2339006 0.981402748,14.659271 0.44140625,13.9804688 L0.3359375,13.8476563 L0.50390625,13.8476563 L0.84375,13.875 C1.28660239,13.9076787 1.86760823,13.9504344 2.47058241,14.0545613 C2.16626872,13.6010656 1.88291336,13.0746137 1.64407638,12.4676094 C1.63603408,12.4508758 1.62853958,12.4344361 1.62109375,12.4179688 L1.55859375,12.2695313 L1.5679375,12.2721995 L1.5625,12.2578125 L1.70703125,12.3007813 C2.18583423,12.4456427 2.64840756,12.6362167 3.08856443,12.8692729 C4.35457973,13.5007776 5.97125706,14.6802213 6.03718429,16.6076275 L6.0039375,16.5911995 L6.12662983,16.6569884 C6.22004137,16.7090091 6.31057003,16.765084 6.39801863,16.8249482 L6.32421875,16.7578125 C6.62234103,16.4383958 6.57866011,15.732032 6.34259145,15.3330637 C6.28132861,15.3606443 6.21409621,15.3748625 6.14453125,15.375001 C5.91305221,15.3754598 5.71009074,15.2204692 5.64958582,14.9970371 C5.5890809,14.773605 5.68610198,14.5373797 5.88618315,14.420974 C6.08626431,14.3045683 6.33957302,14.3369744 6.50390625,14.5 C6.65097298,14.6458965 6.69556788,14.8660687 6.61686467,15.0576939 C6.5838601,15.1380528 6.53190335,15.2067425 6.46741667,15.2594488 C6.73923746,15.7165118 6.78785976,16.4979787 6.43812089,16.8548022 C6.76265916,17.0817825 7.04338082,17.3634758 7.26991312,17.6839272 C7.06422385,17.1168649 6.89538635,16.4139777 6.8125,15.5546875 L6.8125,15.4140625 L6.9375,15.484375 C7.74211273,15.9481251 8.35861533,16.679358 8.6796875,17.5507813 C8.94682916,18.1892793 9.01147802,18.8924404 8.86803072,19.5658311 L8.87940216,19.5801544 C9.00630018,19.7407765 9.4959508,20.3263784 10.0266281,20.5106693 C9.66242611,19.5938062 9.39484104,18.6899057 9.20050901,17.8007557 C8.5548019,17.2302746 7.73170588,16.0310079 7.34375,13.5507813 L7.31640625,13.3671875 L7.4609375,13.4765625 C7.88179695,13.7935735 8.34997675,14.1803701 8.77836513,14.6508299 C8.76829141,14.5063856 8.76100136,14.3626573 8.75492026,14.219477 L8.7649375,14.2261995 L8.65755608,14.1553249 C8.08417941,13.7500974 7.51460952,13.0313411 7.29151432,12.171783 L7.26953125,12.171875 L7.23982718,12.1644614 C6.83820756,12.3141992 5.11065449,12.8271679 2.87380635,11.5524004 L2.640625,11.4140625 L2.53125,11.34375 L2.64453125,11.2851563 C3.31248486,10.9277798 3.90732808,10.7258916 4.4688749,10.686034 C3.93103216,10.1834443 3.48532542,9.57920252 3.16015625,8.8984375 L3.10546875,8.78515625 L3.23046875,8.78515625 C5.44120616,8.93872929 6.59722763,9.72251959 7.1971144,11.5365864 C7.1828932,11.2362087 7.21630661,10.9238731 7.30821224,10.6068895 L7.31646563,10.5833038 C7.24694607,10.3646635 7.15154266,9.94129411 7.20111343,9.35528381 L7.18359375,9.34765625 C7.10546875,9.31640625 5.265625,8.53515625 5.50390625,4.16796875 L5.50390625,3.98828125 L5.62109375,4.125 C5.78474845,4.31222098 5.95553383,4.51732349 6.12385331,4.73988468 C6.26805609,4.90989563 6.40473125,5.07633094 6.53200894,5.24239129 L6.55408471,5.11942182 C6.63196507,4.72289232 6.74067827,4.28835227 6.88671875,3.8125 L6.9375,3.640625 L7.0234375,3.80078125 C7.43215324,4.60130035 8.042233,5.79030964 7.9128752,7.22837675 C8.12867155,6.84692319 8.40732075,6.44138642 8.76171875,6.015625 L8.859375,5.8984375 L8.890625,6.046875 C9.15203082,7.2424222 9.00864045,9.4480683 7.56692173,10.7166578 C7.35778039,11.4732295 7.5181043,12.2046549 7.84219883,12.8043594 L7.9339375,12.9641995 L8.01526624,12.8761177 C8.15011811,12.7091824 8.24266656,12.5157238 8.28942075,12.3118925 C8.15116651,12.3424114 8.0018923,12.3157613 7.87900852,12.2264894 C7.65037377,12.0603921 7.59966533,11.7404043 7.76574487,11.5117567 C7.9318244,11.283109 8.2518082,11.2323757 8.48046875,11.3984375 C8.70721271,11.5657363 8.7576599,11.8840755 8.59375,12.1132813 C8.55563702,12.1657356 8.50942375,12.208823 8.45807211,12.2420744 C8.41134488,12.584543 8.26565284,12.9166784 8.02074297,13.0960655 C8.23057502,13.4088196 8.48423468,13.6742222 8.74218864,13.8719563 C8.70164962,12.487009 8.76676779,11.1554124 8.83478106,9.89077975 L8.84765625,9.65234375 C8.875,9.171875 8.8984375,8.70703125 8.91796875,8.25 C8.90518194,7.97994732 9.08250327,7.73755394 9.34375,7.66796875 L9.4140625,7.66796875 C10.2721326,7.36882403 11.14283,7.11939856 12.0219573,6.91969232 L11.7689375,6.66719947 L11.765625,6.66796875 C11.7516745,6.65924434 11.7409465,6.6464146 11.7347862,6.63142229 L11.7460938,6.64453125 C11.7332543,6.6317391 11.725989,6.61464099 11.7254404,6.59689315 L11.4335938,5.25390625 L11.0563656,4.05048526 L11.0859016,4.06967962 L11.1210938,4.07812118 L11.1523438,4.0703125 L11.4746452,3.99006317 L11.797721,3.91413899 L12.0700738,5.02337579 C11.7148223,5.11254112 11.5291997,5.17578125 11.5234375,5.17578125 C11.4776287,5.19347696 11.4500945,5.24044703 11.4570313,5.2890625 C11.4624867,5.32599217 11.486749,5.35629112 11.5194954,5.37046248 L11.5546875,5.37890625 L11.5820313,5.37109375 C11.591498,5.3692004 12.0809255,5.20120209 13.0058325,5.0285654 L13.2106762,4.99155968 L13.3242188,6.2734375 C13.3244925,6.27860848 13.3254953,6.28366123 13.3268038,6.28829289 C12.3715635,6.42700174 11.873506,6.57287449 11.8113439,6.5917077 L11.8046875,6.59375 L12.1604197,6.95042691 C15.5037844,6.21216654 18.9657792,6.19281035 22.3153646,6.89235835 L22.8725484,7.0156062 L23.1992188,6.6875 C23.1341864,6.66694588 22.5944522,6.50091302 21.6079416,6.34037486 L21.3897183,6.30611295 L21.4023438,6.29296875 C21.4160668,6.29883129 21.4315895,6.29883129 21.4453125,6.29296875 L21.4495753,6.2734375 L21.4453125,6.25390625 L21.586069,5.00016645 C22.301018,5.12725829 22.7826692,5.25663029 23.013779,5.32388358 L23.0755784,5.34213161 L23.1459401,5.36353495 C23.1620179,5.36846806 23.1706913,5.37109375 23.171875,5.37109375 C23.2257593,5.3895371 23.2845533,5.36186935 23.3046875,5.30859375 C23.3146527,5.28272894 23.3136136,5.25391496 23.3018113,5.2288351 C23.2900091,5.20375525 23.2684691,5.18458877 23.2421875,5.17578125 C23.2421875,5.17372524 23.096367,5.12243115 22.8130562,5.04795725 L22.6832438,5.01469667 L22.9510578,3.9094157 C23.1736395,3.95997658 23.3957037,4.01360884 23.6171875,4.0703125 C23.6524072,4.08046366 23.6903717,4.07160137 23.717457,4.04690597 C23.7445423,4.02221056 23.7568639,3.98522379 23.75,3.94921875 C23.7409212,3.9140139 23.7143506,3.88596709 23.6796875,3.875 C22.7721697,3.64149128 21.8549072,3.4593012 20.9321833,3.32842977 L20.2391832,3.23989844 L20.84375,1.70703125 L20.2460938,1.625 L19.6370928,3.17872505 C18.3512054,3.06362128 17.0586541,3.04728765 15.7708754,3.12972417 L15.1274367,3.17917328 L14.5078125,1.625 L13.9101563,1.70703125 L14.5243456,3.24058177 C13.3698864,3.37214634 12.2222784,3.58361909 11.0898438,3.875 C11.0554872,3.88827178 11.03141,3.91801039 11.0244452,3.95255986 L11.0229375,3.98319947 L8.89453125,1.453125 C8.882725,1.4311743 8.882725,1.4047632 8.89453125,1.3828125 C8.90297462,1.35771011 8.92356056,1.3385946 8.94921875,1.33203125 L10.8046875,0.90234375 C10.8326944,0.895360299 10.8621244,0.906202912 10.8789063,0.9296875 L10.8839375,0.937199475 L11.1132813,0.890625 C11.1543223,0.879458968 11.197974,0.895048864 11.2226563,0.9296875 L12.15625,2.265625 L13.1429375,2.14619947 L12.2578125,0.68359375 C12.2460063,0.66164305 12.2460063,0.63523195 12.2578125,0.61328125 C12.2695894,0.590617621 12.2912508,0.574732647 12.3164063,0.5703125 L12.3976815,0.558740951 C12.4104694,0.550052681 12.4254362,0.544501348 12.4414063,0.54296875 L15.2421875,0.15234375 C15.2887231,0.145319248 15.3339886,0.171185264 15.3515625,0.21484375 Z M10.4367326,8.28318017 L9.94921875,8.44140625 L9.90234375,8.44140625 L9.8828125,8.83203125 L9.84375,9.56640625 C9.69921875,12.2890625 9.53125,15.375 10.453125,18.6054688 C11.4626116,22.1010045 13.6089814,25.2478476 17.0113191,28.1580779 L17.3945313,28.4804688 L17.4453125,28.5195313 L17.5039063,28.484375 C21.1328125,25.484375 23.4023438,22.2539063 24.4453125,18.609375 C25.3223684,15.5489309 25.2177761,12.6287223 25.078125,10.0048533 L25.0546875,9.5703125 L25,8.44140625 L24.9375,8.44140625 C20.2375379,6.85914548 15.1617498,6.80640346 10.4367326,8.28318017 Z M24.3505885,8.3955904 L24.8320313,8.55078125 L24.8828125,9.57421875 C25.0273438,12.28125 25.1953125,15.3515625 24.2773438,18.5585938 C23.2460938,22.1640625 21.0078125,25.3554688 17.4335938,28.3242188 C13.859375,25.3515625 11.6210938,22.15625 10.5898438,18.5585938 C9.72018914,15.5240543 9.82166508,12.6087149 9.96096768,10.005215 L9.984375,9.57421875 L9.984375,9.5546875 C9.99804688,9.47607422 10.008728,9.3137207 10.026886,8.98912048 L10.0351563,8.83984375 L10.0351563,8.55078125 C14.6767547,6.99887276 19.6845753,6.94714248 24.3505885,8.3955904 Z M17.813358,7.65828736 L17.2580625,7.65855324 C15.1547936,7.68102513 13.053864,7.99188628 11.015314,8.59113668 L10.4609375,8.76171875 L10.4140625,8.76171875 L10.4119145,8.79179014 L10.3710938,8.8046875 L10.3242188,9.6875 C10.1796875,12.3828125 10.015625,15.4335938 10.921875,18.6054688 C11.8472222,21.8328993 13.797668,24.6763707 17.0487723,27.5160856 L17.4296875,27.84375 L17.4349145,27.8357901 L17.453125,27.8515625 L17.5,27.890625 L17.5664063,27.828125 C20.9335938,24.9804688 23.0703125,21.90625 24.0585938,18.453125 C24.9108073,15.4722222 24.8118128,12.5923635 24.6764269,10.0175728 L24.6523438,9.56640625 L24.6139145,8.85479014 L24.640625,8.76953125 C22.4201784,8.0533963 20.1181744,7.68298167 17.813358,7.65828736 Z M23.7265625,24.2109375 L23.6835938,24.28125 C24.9859335,24.6768062 26.2522265,25.1825393 27.46875,25.7929688 C27.5546875,25.8398438 27.6484375,25.8085937 27.5117188,25.7265625 C26.3245893,25.0519994 25.0511886,24.5421135 23.7265625,24.2109375 L23.7265625,24.2109375 Z M11.9492188,24.03125 L8.90234375,25.6523438 L12.0664063,24.2265625 L11.9492188,24.03125 Z M12.2508044,24.5122679 L12.2067002,24.5504615 C12.0695342,24.6616248 11.9038265,24.7838972 11.7050733,24.9134124 C12.021303,24.9919654 12.3443836,25.0434521 12.6700999,25.0706698 C12.5250965,24.8826767 12.3854704,24.6973323 12.2508044,24.5122679 Z M8.3125,23.0585938 L10.3320313,24.5820313 L10.546875,24.421875 L8.3125,23.0585938 Z M27.0078125,20.1484375 C27.0742188,20.09375 27.0585938,19.96875 26.953125,20.09375 C26.2079646,20.9461765 25.6586257,21.9515202 25.34375,23.0390625 L25.34375,23.0390625 L25.5117188,23.1367188 C25.6757813,22.6835938 25.9960938,21.28125 27.0078125,20.1484375 Z M7.7859375,18.7871995 L7.81451385,18.8953677 C7.83011538,18.9621471 7.84378443,19.0296 7.85546875,19.0976563 C7.85546875,19.0976563 8.55078125,21.6289063 10.6210938,22.6953125 C10.7896591,22.7684146 10.968675,22.8116835 11.1502445,22.8241103 C10.8397164,22.2873472 10.5674826,21.7541114 10.3289773,21.2245719 L10.1559375,20.8271995 L10.0731783,20.8140755 C9.51556015,20.683197 9.01667786,20.1705933 8.77581787,19.890625 L8.765625,19.8789063 L8.68359375,19.8242188 C8.65331058,19.8052918 8.28554549,19.5534289 7.87934523,18.9348811 L7.7859375,18.7871995 Z M23.5690892,8.82989 L24.0528035,8.96792197 L24.4209145,9.08079014 L24.453125,9.73828125 C24.5976563,12.3632813 24.7578125,15.3398438 23.875,18.4140625 C23.5688552,19.4843249 23.1505059,20.517318 22.616289,21.5184734 L22.3802343,21.9456065 L10.7466361,9.06934897 C14.9159149,7.76017575 19.3670563,7.68085649 23.5690892,8.82989 Z M33.1875,21.4570313 C31.4765625,20.6757813 29.1601563,20.8789063 29.1601563,20.8789063 L29.1601563,20.8789063 L28.90625,21.0976563 C29.4804688,21.0625 31.7539063,20.8984375 33.1523438,21.53125 C33.2421875,21.5703125 33.3359375,21.5273438 33.1875,21.4570313 Z M3.8203125,20.921875 L7.2421875,21.3554688 L7.2421875,21.21875 L3.8203125,20.921875 Z M4.453125,19.4570313 L5.3046875,20.03125 L7.02734375,21.1054688 L7.26171875,21.1171875 L4.453125,19.4570313 Z M32.25,18.8320313 C32.3632813,18.8007813 32.40625,18.703125 32.25,18.7539063 C30.9869117,19.2709828 29.82766,20.012057 28.828125,20.9414063 L28.828125,20.9414063 L28.828125,21.0976563 C29.234375,20.7070313 30.8242188,19.3242188 32.25,18.8320313 Z M7.48046875,16.703125 L8.609375,19.6992188 L8.828125,19.65625 L7.48046875,16.703125 Z M5.0625,18.1289063 L7.5,18.8789063 L7.515625,18.7421875 L5.0625,18.1289063 Z M25.6992188,17.7265625 L25.6757813,17.9726563 L25.7109375,17.9765625 C26.9162638,17.9872343 28.117521,18.1180902 29.296875,18.3671875 C29.3710938,18.390625 29.453125,18.3359375 29.296875,18.2929688 C28.117915,17.9925262 26.9134613,17.8029 25.6992188,17.7265625 L25.6992188,17.7265625 Z M27.2734375,14.78125 C26.8771975,15.560625 26.3972207,16.2940015 25.842274,16.9684988 L25.5589375,17.2981995 L25.59375,17.5429688 C26.2348101,16.6689604 26.8205885,15.75572 27.3476563,14.8085938 C27.4257813,14.6640625 27.3203125,14.6914063 27.2734375,14.78125 Z M32.7734375,16.6367188 C31.5020576,16.4954241 30.2184482,16.5046021 28.9492188,16.6640625 L28.9492188,16.6640625 L28.9492188,16.859375 L28.984375,16.859375 C30.2330722,16.6220812 31.5102922,16.5733625 32.7734375,16.7148438 C32.8515625,16.7304688 32.9335938,16.6601563 32.7734375,16.6367188 Z M7.95703125,14.4492188 L9.04296875,16.625 L8.984375,16.0898438 L7.95703125,14.4492188 Z M3.1679375,13.6991995 L5.8359375,16.546875 L5.91796875,16.3476563 L3.1679375,13.6991995 Z M2.8671875,16.1601563 L5.5625,16.40625 L5.421875,16.171875 L2.8671875,16.1601563 Z M31.90625,13.7539063 C31.2630881,14.6409871 30.5184535,15.4498596 29.6875,16.1640625 L29.8164063,16.2851563 C30.5769754,15.4935288 31.292925,14.6602105 31.9609375,13.7890625 C32.0625,13.6601563 31.9609375,13.6757813 31.90625,13.7539063 Z M1.9729375,14.4321995 L4.421875,16.0117188 L4.51171875,15.875 L1.9729375,14.4321995 Z M29.1835938,12.3046875 C28.1025961,12.4096035 27.0323879,12.6056124 25.984375,12.890625 L25.984375,12.890625 L26.0109375,13.1081995 L26.3925463,12.9707912 C27.1663414,12.7070802 27.9653903,12.524272 28.7768746,12.4252991 L29.1835938,12.3828125 C29.2851563,12.375 29.3476563,12.3046875 29.1835938,12.3046875 Z M29.84375,9.609375 C29.90625,9.55078125 29.9140625,9.42578125 29.8125,9.55078125 C29.1481218,10.3797748 28.5312478,11.2457459 27.9648438,12.1445313 L27.9648438,12.1445313 L28.1484375,12.265625 C28.5954344,11.310147 29.1653629,10.4171716 29.84375,9.609375 Z M3.921875,9.296875 L6.84075,11.7813438 L3.55078125,11.4492188 L7.12890625,12.0273438 L7.27734375,11.8632813 L3.921875,9.296875 Z M8.58203125,6.96484375 L7.3671875,10.5 L7.515625,10.5429688 L8.58203125,6.96484375 Z M5.9169375,5.36819947 L7.14453125,9.19140625 L7.24609375,9.10546875 L5.9169375,5.36819947 Z M29.859375,5.859375 C29.2855782,6.96800287 28.6136219,8.02300036 27.8515625,9.01171875 L27.8671875,9.01171875 L27.984375,9.10546875 C27.984375,9.10546875 28.8963572,7.74748058 29.7310181,6.26045282 L29.9375,5.88671875 L29.9375,5.88671875 C30.015625,5.7421875 29.90625,5.7734375 29.859375,5.859375 Z M7.0129375,4.67519947 L7.27734375,8.703125 L7.42578125,8.6875 L7.0129375,4.67519947 Z M28.4453125,4.75 C28.3475623,6.01602701 28.1091134,7.26722901 27.734375,8.48046875 L27.734375,8.50390625 L27.8867188,8.5390625 C28.202146,7.29556355 28.4150988,6.02829836 28.5234375,4.75 C28.5234375,4.5859375 28.453125,4.65625 28.4453125,4.75 Z M26.3203125,4.96484375 C26.847844,5.9185328 27.2621122,6.93060593 27.5546875,7.98046875 L27.7109375,7.890625 C27.3236146,6.87591146 26.8802232,5.88349719 26.3828125,4.91796875 C26.3085938,4.7734375 26.2734375,4.875 26.3203125,4.96484375 Z M19.6481051,4.75002409 C20.2396548,4.8004438 20.7607886,4.86663085 21.2083985,4.93697753 L21.4681166,4.97959183 L21.3398438,6.26953125 L21.3354468,6.29101563 L21.3359375,6.29819947 L21.0831578,6.26198941 C20.7325812,6.21402523 20.3395799,6.16842549 19.9045035,6.12746818 L19.5703125,6.09765625 L19.6481051,4.75002409 Z M15.127687,4.74799634 L15.203125,6.0625 C15.203975,6.07522172 15.2088411,6.08676906 15.2165921,6.09489737 C14.639843,6.13251151 14.1380158,6.18256255 13.7093626,6.2321356 L13.4609375,6.26171875 L13.3292271,4.9712336 C13.8277609,4.88739273 14.4289743,4.806712 15.127687,4.74799634 Z M17.4456611,4.65632705 C18.0629785,4.65775302 18.6340012,4.67889262 19.1569439,4.71307858 L19.5401081,4.74106007 L19.4648438,6.07421875 L19.4607628,6.09570313 L19.4599375,6.09719947 L19.1401457,6.0768172 C18.8117841,6.05782578 18.464337,6.04349356 18.0981124,6.03526548 L17.72564,6.02912562 L17.4423735,6.027 L17.4453125,6.01953125 L17.4456611,4.65632705 Z M17.3269375,4.65619947 L17.328125,6.0078125 C17.328125,6.01500371 17.3294205,6.02189234 17.3319393,6.02738345 C16.5791805,6.0284755 15.9056779,6.05202489 15.3113421,6.08859782 L15.3124873,6.07148884 L15.3085938,6.0546875 L15.2345754,4.73924844 C15.7444632,4.69863216 16.3047023,4.66988293 16.9133624,4.66000788 L17.3269375,4.65619947 Z M13.7929708,3.54318386 L13.9714126,4.6671727 C13.2919788,4.75889926 12.7475557,4.86542698 12.346242,4.95721882 L12.1830359,4.99556988 L11.9127487,3.88819099 C12.5359662,3.74914109 13.163166,3.63413871 13.7929708,3.54318386 Z M20.9585261,3.54058607 C21.3778208,3.60082921 21.795967,3.67172921 22.2125582,3.75328606 L22.836228,3.88361398 L22.5656051,4.98592823 C22.2038352,4.89932228 21.7006607,4.79554336 21.0649782,4.70242248 L20.7844561,4.6632472 L20.9585261,3.54058607 Z M14.6046025,3.43943072 L14.6601563,3.578125 L14.5897647,3.6446223 C14.5049122,3.74087564 14.4569909,3.86559861 14.4570313,3.99609375 C14.4798598,4.28236295 14.6955547,4.5101007 14.9701819,4.55500221 C14.7600394,4.57404084 14.5589763,4.59502134 14.3671396,4.617407 L14.086323,4.65197228 L13.9099718,3.52656766 C14.1411988,3.49428386 14.372765,3.46523821 14.6046025,3.43943072 Z M20.1609308,3.43898601 L20.5014757,3.47919352 L20.8415826,3.52406435 L20.6654188,4.64775592 C20.3964064,4.61349261 20.1074451,4.58171003 19.7992804,4.55514279 C20.0721907,4.50785556 20.2858776,4.28095275 20.3085938,3.99609375 C20.3086341,3.86559861 20.2607128,3.74087564 20.1758603,3.6446223 L20.1054688,3.578125 L20.1609308,3.43898601 Z M16.1325841,3.31638619 L16.1324007,4.47681538 C15.8318427,4.49027332 15.5450252,4.50818896 15.2729711,4.53080352 C15.4992964,4.45297526 15.6674899,4.24701998 15.6875,3.99609375 C15.6813322,3.76501063 15.5370029,3.56410279 15.3277944,3.47856563 L15.234375,3.44921875 L15.2078538,3.37963601 C15.515777,3.35286097 15.8240733,3.33177769 16.1325841,3.31638619 Z M18.5979648,3.31447172 L19.0783122,3.34229992 L19.5581904,3.37933305 L19.53125,3.44921875 C19.2726786,3.50731637 19.0851739,3.73199876 19.078125,3.99609375 C19.0980438,4.2458742 19.2647956,4.45109345 19.4906135,4.52835758 C19.3021814,4.51382335 19.1071182,4.50090237 18.905531,4.48993024 L18.5982708,4.47497561 L18.5979648,3.31447172 Z M17.9242314,3.2909612 L18.4810048,3.30909178 L18.4814854,4.47020912 C18.1327995,4.45672406 17.7664126,4.44921875 17.3828125,4.44921875 C17.1192255,4.44921875 16.8638622,4.45280099 16.6168606,4.45946239 L16.2526466,4.471701 L16.2535365,3.31064401 C16.8101147,3.28556443 17.3673233,3.27900349 17.9242314,3.2909612 Z"></path>
</svg>
