<?xml version="1.0" encoding="utf-8"?>
<svg xmlns="http://www.w3.org/2000/svg" version="1.1" viewBox="0 0 430 70" fill="#000000">
    <path d="M69.23 61.13c2.92-1.87 5.74-4.12 5.74-8.54V25.03l-4.42-4.64-1.72 1.72 3.82 4.04v26.44c0 3.67-1.35 6.37-3.6 8.24l.18.3zM52.35 2.71l-.07.3c1.27.53 2.85 1.8 2.85 4.35v40.59l-1.57 1.57 6.14 5.17 1.8-1.5-4.94-4.04.9-.82V7.73c-.02-3.22-2.94-4.79-5.11-5.02m3.67 61.19c7.79-.6 15.51-3.22 15.51-11.46V26.45L68 22.86l-3.9 3.82v19.54l3.22 2.92-7.41 6.59h-.67l-7.27-6.22 1.95-1.94V7.81c0-3-2.55-4.57-4.12-4.94v-.68c.68-.38 1.8-.6 3.23-.6 2.47 0 4.79 1.5 5.46 3.14h.22c1.5-2.25 3.9-3.14 6.22-3.22.68 0 1.5.08 2.32.3v.82C65.98 3 64.1 4.58 64.1 8.55V25.1l9.59-9.21h.68c.67.67 4.86 4.49 5.69 5.02.38.23.9.37 1.35.37.83 0 1.35-.3 2.02-.6v1.05c-.75.67-1.72 1.95-1.72 3.6v22.54c0 9.96-10.93 16.03-25.69 17.08V63.9zM100.28 20.54l-1.95 1.35c2.24 2.62 5.09 6 7.94 9.14l2.02-1.35c-2.85-3.15-5.69-6.6-8.01-9.14m-2.25 15.95l7.19-4.87c-2.47-2.85-5.1-5.84-7.19-8.24v13.11zm4.64 16.63c-4.34-1.95-8.23-3.52-11.68-5.39.22-1.27.3-2.77.3-6.97v-16.4l-2.32 1.2v15.2c0 4.19-.08 6.89-.45 8.08 3.37 1.88 8.17 3.9 12.59 5.85l1.56-1.57zM87.85 24.88c4.27-2.1 10.7-5.92 14.97-8.99h.75c2.77 2.92 6.89 7.56 10.41 10.71v.82L98.03 37.84v6.44c1.65 1.05 6.29 3.37 9.06 4.34l6.44-6.21.75.82-12.95 12.51h-.75c-4.34-1.87-9.96-4.27-13.55-6.29.45-1.35.82-4.65.82-8.76V24.88zM415.33 61.04c2.92-1.87 5.73-4.13 5.73-8.54V24.94l-4.42-4.65-1.72 1.73 3.82 4.04V52.5c0 3.67-1.35 6.37-3.6 8.24l.19.3zM398.45 2.62l-.07.3c1.27.52 2.85 1.79 2.85 4.35v40.59l-1.57 1.57 6.14 5.17 1.8-1.5-4.94-4.04.9-.82V7.64c-.02-3.22-2.94-4.79-5.11-5.02m3.67 61.19c7.79-.6 15.51-3.22 15.51-11.46V26.36l-3.52-3.6-3.9 3.82v19.54l3.22 2.92-7.41 6.59h-.67l-7.27-6.22 1.95-1.94V7.71c0-3-2.55-4.57-4.12-4.94V2.1c.68-.37 1.8-.6 3.23-.6 2.47 0 4.79 1.5 5.46 3.14h.23c1.5-2.24 3.9-3.14 6.22-3.22.67 0 1.5.08 2.32.3v.82c-1.27.37-3.15 1.95-3.15 5.91V25l9.59-9.21h.68c.67.67 4.86 4.49 5.69 5.02.38.22.9.37 1.35.37.82 0 1.35-.3 2.02-.6v1.36c-.75.67-1.73 1.95-1.73 3.6v22.23c0 9.96-10.93 16.03-25.69 17.07v-1.03zM195.03 20.51l-1.94 1.35c2.24 2.62 5.09 5.99 7.93 9.14l2.02-1.35c-2.85-3.15-5.69-6.6-8.01-9.14M192.9 36.4l7.19-4.87c-2.47-2.85-5.09-5.84-7.19-8.24V36.4zm4.64 16.62c-4.34-1.95-8.24-3.52-11.68-5.39.22-1.27.3-2.77.3-6.97v-16.4l-2.32 1.2v15.2c0 4.2-.07 6.89-.45 8.09 3.37 1.88 8.16 3.9 12.58 5.84l1.57-1.57zm-14.82-28.23c4.27-2.1 10.71-5.92 14.98-8.99h.75c2.77 2.92 6.89 7.56 10.41 10.71v.82L192.9 37.74v6.44c1.65 1.05 6.29 3.37 9.06 4.34l6.44-6.21.75.82-12.95 12.52h-.75c-4.35-1.87-9.96-4.27-13.56-6.29.45-1.35.82-4.64.82-8.76V24.79zM222.33 52.87c-2.92-.82-5.77-2.7-5.77-6.74V9.81l-3.22-3.3-1.72 1.72 2.62 2.69v36.17c0 4.12 3.3 6.74 6.37 7.49l1.72-1.71zm.98-46.13v38.5c0 1.64 1.57 3.22 3.07 3.51l2.32-2.32.67.82-8.24 8.39h-.45c-3.14-.68-7.56-3.45-7.56-8.32V11.46l-2.32-2.32-2.4 2.4-.74-.75 9.21-9.28h.6l5.84 5.23zM245.4 20.45l-1.95 1.35c2.25 2.62 5.09 5.99 7.94 9.14l2.02-1.35c-2.84-3.16-5.69-6.6-8.01-9.14m-2.24 15.95l7.19-4.87c-2.47-2.85-5.09-5.84-7.19-8.24V36.4zm4.63 16.62c-4.34-1.95-8.23-3.52-11.68-5.39.22-1.27.3-2.77.3-6.97v-16.4l-2.32 1.2v15.2c0 4.2-.07 6.89-.45 8.09 3.37 1.88 8.16 3.9 12.58 5.84l1.57-1.57zm-14.83-28.23c4.27-2.1 10.71-5.92 14.98-8.99h.75c2.77 2.92 6.89 7.56 10.41 10.71v.82l-15.95 10.41v6.44c1.64 1.05 6.29 3.37 9.06 4.34l6.44-6.21.75.82-12.96 12.51h-.75c-4.34-1.87-9.96-4.27-13.56-6.29.45-1.35.82-4.64.82-8.76v-15.8zM313.88 22.99c1.27 1.2 3.07 2.92 4.57 4.19l1.51-1.74c-1.43-1.28-3.6-3.15-4.64-4.2l-1.44 1.75zm-3.89 29.88c-2.99-.82-5.84-2.69-5.84-6.74V24.12L301 20.89l-1.79 1.72 2.62 2.7V47.1c0 4.12 3.3 6.74 6.36 7.49l1.8-1.72zm.89-26.51v18.87c0 1.65 1.5 3.14 3.07 3.44l2.32-2.25.68.82-8.24 8.39h-.52c-3.07-.68-7.49-3.45-7.49-8.32V25.76l-2.32-2.32-2.4 2.4-.82-.75 9.21-9.29h.68l5.84 5.69v3.15l7.41-8.84h.68c1.5 1.5 3.82 3.74 5.84 5.24v.15l-6.21 7.41h-.15c-1.72-1.5-4.04-3.6-5.32-4.87l-2.26 2.63zM342.71 46.73V34.97c-2.32-.6-4.72-1.57-6.97-2.69v14.53l4.12 2.55 2.85-2.63zm9.29 6.22c-2.77-1.05-5.77-3.07-5.77-7.04V25.69l-11.08-5.55c-.3.22-1.58 1.13-1.95 1.42l10.71 5.55v19.7c0 3.82 3.52 6.74 6.37 7.79l1.72-1.65zm-9.29-19.1v-6.06l-10.49-5.54c-.75.6-3.6 2.33-4.49 2.77 2.48 3.29 8.99 7.33 14.98 8.83m-6.29 18.95l-7.41-4.94V37l-2.25 1.65v10.56l7.94 5.32 1.72-1.73zm-1.95 2.85l-8.91-5.92V38.12c2.24-1.57 6.89-4.8 9.13-6.37-3.52-1.87-6.51-4.19-8.31-6.44v-.83c5.32-2.99 9.06-5.76 12.28-8.69h.67s10.94 5.17 11.46 5.39c.6.3 1.05.45 1.65.45.75 0 1.42-.23 2.17-.6v1.21c-.82.6-1.72 1.72-1.72 3.37v19.46c0 2.02 1.8 3.37 3.15 3.67l2.32-2.32.68.82-8.24 8.39h-.52c-3.22-.9-6.82-3.97-7.42-7.64L335 55.65h-.53zM280.51 46.68V26.46l-7.41-3.22v22.99l4.64 3.07 2.77-2.62zm3.44-22.46l-10.86-4.57v2.4l8.54 3.67v22.17c0 4.8 2.1 9.99 5.32 13.96l1.72-1.72c-2.77-3.67-4.72-7.82-4.72-12.61v-23.3zm-11.61 30.25l1.8-1.64-7.79-5.02V24.06l-2.25 1.58v23.3l8.24 5.53zm-3.14 9.46c-2.85 0-5.39 1.33-6.89 3.28v.39c1.72-.97 3.74-1.57 6.89-1.57 3.82 0 8.69 1.05 11.46 2.62l1.5-1.79c-3.22-1.65-7.94-2.93-12.96-2.93m-6.29-14.4V24.96l13.03-9.06h.75c2.55 1.05 10.86 4.64 11.91 5.09.38.15.9.3 1.35.3.75 0 1.64-.3 2.47-.67v1.36c-.75.67-1.8 2.17-1.8 3.37v20.81c0 4.87 1.05 7.74 3 9.69v.82c-2.85 2.92-9.51 9.73-12.43 13.33h-.53c-2.77-1.57-7.56-2.85-11.46-2.85-2.85 0-6.14.75-8.61 2.7l-.6-.52c2.25-5.24 7.04-10.49 13.11-10.49 3.82 0 8.76 1.57 13.03 3.9-2.92-3.3-5.54-9.39-5.62-14.48l-7.72 7.41h-.6l-9.28-6.14zM379.09 22.26l3.97 3.9v21.35l2.32-1.28V24.96l-4.49-4.49-1.8 1.79zm1.64 32.96c.38-.6 1.2-1.42 1.65-1.87l-7.94-1.65v2.18l6.29 1.34zm1.13-7.64V26.53l-3.52-3.59-3.89 3.67v19.55c1.72.37 6.51 1.27 7.41 1.42m-16.41 14.48l-1.57 1.5 5.92 5.1 1.8-1.57-4.64-3.89.82-.82v-38l-3.3-3.29-1.65 1.65 2.62 2.7v36.62zm8.99-37.02l9.59-9.14h.67c.67.67 5.1 4.64 5.77 5.09.38.22.9.3 1.28.3.82 0 1.42-.3 2.02-.6v1.36c-.75.59-1.72 2.02-1.72 3.59v23.51c-4.12.97-7.42 3.22-10.93 7.34h-.3l-6.36-1.35v5.2l3.29 2.99-7.79 6.52h-.37l-7.34-6.21 1.95-2.1v-8.71c-.75-.15-2.27-.38-3.01-.6v-1.08c.9-.38 3.16-2.61 3.16-4.48V25.86l-2.32-2.32-2.4 2.4-.82-.75L368 15.9h.68l5.77 5.69v3.45zM22.85 36.4l-.06-10.19-2.26 1.57v9.51c0 1.05-.23 1.87-.52 2.62l.29.01c1.41-.92 2.55-2.3 2.55-3.52M11.11 20.37c-3.3 3.3-6.37 7.87-6.37 13.71 0 13.85 9.34 20.82 21.1 20.82 7.34 0 12.46-3.97 15.46-6.97l-.2-.3c-3.44 2.77-8.14 5.03-15.26 5.03-9.51 0-18.7-5.84-18.7-18.57 0-5.09 1.83-10.07 4.23-13.45l-.26-.27zm25.31-5.39c-8.84 0-16.78-4.34-23.22-4.34-4.12 0-8.9 1.68-10.6 6.47l.26.12c1.94-3.3 6.36-4.35 10.33-4.35 6.44 0 14.38 4.35 23.22 4.35 7.11 0 11.23-2.4 11.91-8.09l-.37-.06c-1.04 4.34-4.42 5.9-11.53 5.9M3.54 34.08c0-9.36 7.12-15.88 13.71-18.8l.45.6c-2.4 2.77-4.12 5.47-4.12 11.16 0 6.52 1.72 11.01 4.42 14.01.9-.97 1.42-2.62 1.42-3.97v-9.74l11.91-8.53.52.67c-1.05 1.5-1.65 2.85-1.65 5.17v6.21c0 4.35-7.12 8.99-11.54 10.78 2.92 2.85 7.04 4.05 11.46 4.05 1.65 0 3.07-.07 4.42-.3V18.2c-3.89-.22-7.57-1.27-10.93-2.17-3.6-1.05-7.27-2.02-10.41-2.02-4.8 0-10.64 1.65-10.71 8.61 0 .6.07 1.27.15 2.03l-.9.29C.91 22.77.46 20.67.46 18.57.4 10.11 6.61 2.7 16.57 2.7c4.19 0 8.16 1.05 11.61 2.02 3.74 1.05 7.41 2.02 11.16 2.02 1.87 0 2.99-.97 2.99-2.77s-.9-2.69-2.32-3.07l.16-.9c4.27.75 8.98 3.3 8.98 8.69 0 6.51-4.71 9.58-12.65 9.58h-.82v26.96c5.24-.97 8.68-3.44 11.3-7.56l.82.45c-2.92 9.21-9.73 17.97-21.86 17.97-12.36 0-22.4-7.18-22.4-22.01M153.34 36.4l-.06-10.19-2.26 1.57v9.51c0 1.05-.23 1.87-.52 2.62l.28.01c1.42-.92 2.56-2.3 2.56-3.52m-11.75-16.03c-3.3 3.3-6.37 7.87-6.37 13.71 0 13.85 9.34 20.82 21.1 20.82 7.34 0 12.46-3.97 15.45-6.97l-.2-.3c-3.44 2.77-8.14 5.03-15.25 5.03-9.51 0-18.7-5.84-18.7-18.57 0-5.09 1.83-10.07 4.23-13.45l-.26-.27zm25.31-5.39c-8.84 0-16.78-4.34-23.22-4.34-4.12 0-8.9 1.68-10.6 6.47l.26.12c1.95-3.3 6.37-4.35 10.33-4.35 6.44 0 14.38 4.35 23.22 4.35 7.12 0 11.23-2.4 11.91-8.09l-.37-.06c-1.03 4.34-4.41 5.9-11.53 5.9m-32.88 19.1c0-9.36 7.12-15.88 13.71-18.8l.45.6c-2.4 2.77-4.12 5.47-4.12 11.16 0 6.52 1.72 11.01 4.42 14.01.9-.97 1.42-2.62 1.42-3.97v-9.74l11.91-8.53.52.67c-1.05 1.5-1.65 2.85-1.65 5.17v6.21c0 4.35-7.12 8.99-11.54 10.78 2.92 2.85 7.04 4.05 11.46 4.05 1.65 0 3.07-.07 4.42-.3V18.2c-3.89-.22-7.57-1.27-10.93-2.17-3.6-1.05-7.27-2.02-10.41-2.02-4.8 0-10.64 1.65-10.71 8.61 0 .6.07 1.27.15 2.03l-.9.29c-.83-2.17-1.28-4.27-1.28-6.37-.07-8.46 6.14-15.88 16.1-15.88 4.19 0 8.16 1.05 11.61 2.02 3.74 1.05 7.41 2.02 11.16 2.02 1.87 0 2.99-.97 2.99-2.77s-.9-2.69-2.32-3.07l.15-.9c4.27.75 8.98 3.3 8.98 8.69 0 6.51-4.71 9.58-12.65 9.58h-.82v26.96c5.24-.97 8.69-3.44 11.31-7.56l.82.45c-2.92 9.21-9.73 17.97-21.86 17.97-12.34.01-22.39-7.17-22.39-22"></path>
</svg>
