<?xml version="1.0" encoding="utf-8"?>
<svg xmlns="http://www.w3.org/2000/svg" version="1.1" viewBox="0 0 100 100">
  <style type="text/css">
        path {
            fill: black;
        }

        @media (prefers-color-scheme: dark) {
            path {
                fill: white;
            }
        }
  </style>
  <path d="M97.2,65.8c-0.6-2.2-2-4-4-5.1c-0.7-0.4-1.5-0.7-2.3-0.8c0.9-2.5,1.2-5.2,0.8-7.9c-1.8-11.8-6-26.6-15.8-33.5l3.6-3.5 c1.7-1.7,2.3-4.2,1.3-6.4c-0.9-2.2-3.1-3.7-5.4-3.7H51.8c-2.4,0-4.6,1.5-5.5,3.7s-0.4,4.8,1.3,6.4l3.6,3.5 c-9.9,6.9-14.1,21.8-15.9,33.5c-0.3,1.9-0.2,3.8,0.1,5.6c-0.8,0.1-1.5,0.2-2.3,0.4L22,60.8v-1.9c0-1.3-1.1-2.4-2.4-2.4H4.9 c-1.3,0-2.4,1.1-2.4,2.4v32.5c0,1.3,1.1,2.4,2.4,2.4h14.7c1.3,0,2.4-1.1,2.4-2.4v-2.2L55.8,95c1.1,0.2,2.1,0.3,3.2,0.3 c3.9,0,7.6-1.2,10.8-3.5L94,74.7C96.8,72.7,98.1,69.1,97.2,65.8z M17.2,89H7.3V61.3h9.8V89z M51,11.4c-0.4-0.5-0.3-0.9-0.2-1.2 c0.1-0.2,0.3-0.7,1-0.7h23.5c0.6,0,0.9,0.4,1,0.7c0.1,0.3,0.2,0.7-0.3,1.2l-5.4,5.3c-4.5,1.5-9.5,1.6-14.1,0L51,11.4z M40.2,52.6 c1.4-9.3,5.3-25.5,15.3-31.2c2.6,0.8,5.3,1.3,8.1,1.3c2.7,0,5.5-0.4,8.1-1.3c4.9,2.7,8.3,8,10.7,13.7c2.5,6,3.9,12.7,4.6,17.5 c0.4,2.8-0.2,5.6-1.8,7.9l-19.7,6.2c-0.7-0.7-1.5-1.2-2.4-1.6l-15.9-6.4c-2.1-0.8-4.4-1.3-6.7-1.5C40.1,55.7,39.9,54.2,40.2,52.6 z M91.2,70.7L67,87.9c-3,2.1-6.7,3-10.3,2.4L22,84.3V65.8l12.5-3.3c3.6-0.9,7.4-0.7,10.9,0.7l15.9,6.4c0.5,0.2,0.9,0.5,1.1,1 c0.2,0.5,0.2,1,0,1.5c-0.3,0.8-1.1,1.3-2,1.1l-18.8-3c-1.3-0.2-2.6,0.7-2.8,2c-0.2,1.3,0.7,2.6,2,2.8l18.8,3 c0.3,0.1,0.7,0.1,1.1,0.1c2.7,0,5.1-1.6,6.2-4.1c0.4-0.9,0.5-1.9,0.5-2.8l20.9-6.6c0.9-0.3,1.9-0.2,2.7,0.3 c0.8,0.5,1.4,1.2,1.7,2.1C92.9,68.4,92.4,69.9,91.2,70.7z"></path>
  <path d="M65.2,50.9h-3.4c-1.5,0-2.7-1.2-2.7-2.7h-4.3c0,3.7,2.9,6.7,6.5,6.9v3.5h4.3v-3.5c3.6-0.2,6.5-3.2,6.5-6.9 c0-3.8-3.1-6.9-6.9-6.9h-3.4c-1.5,0-2.7-1.2-2.7-2.7s1.2-2.7,2.7-2.7h3.4c1.5,0,2.7,1.2,2.7,2.7h4.3c0-3.7-2.9-6.7-6.5-6.9v-3.5 h-4.3v3.5c-3.6,0.2-6.5,3.2-6.5,6.9c0,3.8,3.1,6.9,6.9,6.9h3.4c1.5,0,2.7,1.2,2.7,2.7C67.9,49.7,66.7,50.9,65.2,50.9z"></path>
</svg>
