<svg version="1.1" xmlns="http://www.w3.org/2000/svg" viewBox="0 0 234 61">
    <g fill="#e30613">
        <path d="M173.58.87h60.13v60.07h-60.13z"/>
        <path d="M50.46 32.97c-2.44 0-4.66-.43-6.67-1.28a16.08 16.08 0 01-5.19-3.49A16.44 16.44 0 0134 16.74v-.09c0-2.22.41-4.32 1.22-6.29.81-1.97 1.95-3.7 3.43-5.18A16.44 16.44 0 0150.55.33c2.44 0 4.66.43 6.67 1.28 2.01.86 3.74 2.02 5.18 3.49A16.3 16.3 0 0167 16.56v.09a16.2 16.2 0 01-4.65 11.47 16.44 16.44 0 01-11.89 4.85m.08-5.09a10.26 10.26 0 009.81-6.81c.52-1.35.79-2.79.79-4.33v-.09c0-1.53-.26-2.98-.79-4.35a10.68 10.68 0 00-5.59-5.97c-1.32-.6-2.75-.9-4.31-.9a10.26 10.26 0 00-9.81 6.81 11.93 11.93 0 00-.78 4.33v.09c0 1.53.26 2.98.78 4.35a10.5 10.5 0 009.9 6.87zM72 .87h5.13L94 22.69V.87h5.5v31.56h-4.63L77.5 9.98v22.45H72V.87M106.72.87h23.35v5.01h-17.85v8.11h15.82V19h-15.82v8.43h18.08v5h-23.58V.87M143.05 6.01h-10V.87h25.6v5.14h-10.01v26.42h-5.59V6.01"/>
        <path d="M20.77 27.31c-1.3.44-2.71.66-4.21.66a10.8 10.8 0 01-4.38-.86 10.22 10.22 0 01-5.55-5.92 13 13 0 01-.76-4.52v-.09a11.63 11.63 0 012.95-7.84c.92-1.01 2-1.81 3.24-2.42a9.2 9.2 0 014.04-.9 13.64 13.64 0 015.01.93c.69.29 1.35.64 1.98 1.06.63.42 1.25.89 1.85 1.4l3.52-4.19a20.2 20.2 0 00-2.5-1.83A15.67 15.67 0 0020.09.63c-1.13-.2-2.38-.29-3.76-.29A16.25 16.25 0 004.59 5.19a15.82 15.82 0 00-3.39 5.19C.4 12.37 0 14.46 0 16.65v.09c0 2.31.39 4.46 1.17 6.42a15.45 15.45 0 003.31 5.14 15.29 15.29 0 005.16 3.43c2.01.83 4.25 1.24 6.72 1.24a20.41 20.41 0 005.14-.65v-5.28l-.73.27"/>
        <path d="M24.28 20.34h-11.1c.42-.98.9-1.91 1.44-2.77.6-.95 1.23-1.74 1.89-2.52H29.65V28.1c-.79.66-1.65 1.29-2.6 1.9-.86.55-1.79 1.02-2.77 1.44v-11.1"/>
    </g>
    <g fill="#ffffff">
        <path d="M182.75 38.76h41.75v.63h-41.75zM182.64 54.02l3.7-3.35c1.63-1.49 2.2-2.34 2.2-3.39 0-1.29-1.05-2.13-2.24-2.13-1.26 0-2.08.65-2.91 1.84l-.55-.37c.86-1.32 1.79-2.13 3.53-2.13 1.69 0 2.95 1.18 2.95 2.72v.03c0 1.36-.74 2.27-2.48 3.85l-3.03 2.75h5.61v.71h-6.78v-.53M192.89 49.64v-.03c0-2.74 1.6-5.13 4.12-5.13s4.1 2.37 4.1 5.1v.03c0 2.74-1.6 5.13-4.12 5.13-2.53 0-4.1-2.36-4.1-5.1m7.46 0v-.03c0-2.31-1.3-4.46-3.36-4.46-2.05 0-3.33 2.13-3.33 4.44v.03c0 2.3 1.3 4.47 3.36 4.47 2.05-.01 3.33-2.15 3.33-4.45zM204.23 54.02l3.7-3.35c1.63-1.49 2.2-2.34 2.2-3.39 0-1.29-1.05-2.13-2.24-2.13-1.26 0-2.08.65-2.91 1.84l-.55-.37c.86-1.32 1.79-2.13 3.53-2.13 1.69 0 2.95 1.18 2.95 2.72v.03c0 1.36-.74 2.27-2.48 3.85l-3.03 2.75h5.61v.71h-6.78v-.53M214.48 49.64v-.03c0-2.74 1.6-5.13 4.12-5.13s4.1 2.37 4.1 5.1v.03c0 2.74-1.6 5.13-4.12 5.13-2.53 0-4.1-2.36-4.1-5.1m7.45 0v-.03c0-2.31-1.3-4.46-3.36-4.46-2.06 0-3.33 2.13-3.33 4.44v.03c0 2.3 1.3 4.47 3.36 4.47 2.06-.01 3.33-2.15 3.33-4.45zM190.27 9.39c.46.44.87.97 1.22 1.58.35.61.45 1.29.3 2.04a196.16 196.16 0 00-2.7 18.13c-.07.31-.2.52-.41.63-.21.11-.44.15-.69.13a3.79 3.79 0 01-1.33-.43 5.79 5.79 0 01-1.33-1.84 3.4 3.4 0 01-.15-2.11c.31-1.95.55-3.86.74-5.71.19-1.85.43-3.78.74-5.78a4.85 4.85 0 01-.85-1.94 2.16 2.16 0 01.26-1.68c.44-.46.81-.93 1.12-1.42a5.4 5.4 0 00.69-1.61c.07-.31.2-.52.41-.64.21-.12.44-.17.69-.15a1.7 1.7 0 011.29.8M206.76 9.29c.26.13.53.37.79.72s.47.74.62 1.17c.15.43.21.85.18 1.27-.03.42-.21.76-.54 1.02a29.87 29.87 0 00-5.81 7.62 26.05 26.05 0 00-2.85 9.17c-.07.33-.19.55-.36.67-.18.12-.37.17-.59.15s-.43-.09-.64-.2a2.08 2.08 0 01-.51-.36c-.4-.4-.74-.9-1.04-1.51a2.87 2.87 0 01-.25-1.88 25.8 25.8 0 014.44-11.82c-.79.26-1.54.53-2.24.79-.7.26-1.44.53-2.2.79-.46.2-.93.12-1.42-.25a4.39 4.39 0 01-1.19-1.37 4.1 4.1 0 01-.54-1.61c-.05-.53.12-.85.51-.99 1.18-.53 2.36-1 3.54-1.42 1.17-.42 2.35-.82 3.54-1.22.53-.13 1.06-.29 1.61-.48s1.1-.35 1.66-.48c.56-.13 1.11-.2 1.66-.2.56.03 1.1.16 1.63.42M222.16 20.58a23.42 23.42 0 011.03 2.5c.14.44.24.88.28 1.33.04.45.01.88-.1 1.3a5.56 5.56 0 01-1.19 2.04c-.55.62-1.18 1.16-1.89 1.65-.71.48-1.47.89-2.27 1.23-.8.34-1.58.61-2.32.81-.7.11-1.47.18-2.3.21a4.88 4.88 0 01-2.37-.51 3.23 3.23 0 01-1.04-.81 4.67 4.67 0 01-1.13-2.59c-.04-.46.02-.88.2-1.25.13-.44.31-.7.53-.79.22-.09.46-.06.72.08.26.14.53.37.79.67.26.31.49.65.69 1.02h.49c.24 0 .48-.04.72-.13s.48-.13.72-.13a14 14 0 001.48-.41 5.2 5.2 0 001.48-.81c.31-.13.68-.33 1.12-.59.44-.26.84-.57 1.22-.92.37-.35.66-.74.85-1.15.2-.42.21-.83.03-1.25-.2-.37-.46-.7-.77-.99a3.97 3.97 0 00-1.07-.68c-.4-.16-.8-.28-1.22-.34-.42-.07-.8-.07-1.15 0a5.2 5.2 0 00-2.47 1.48 5.4 5.4 0 01-1.15.89c-.4.22-.9.25-1.51.1a2.4 2.4 0 01-.9-.62 3.7 3.7 0 01-1.04-2.23 1.6 1.6 0 01.23-1.07c.35-.64.65-1.3.89-1.99s.36-1.34.36-1.96c0-.62.03-1.25.08-1.89.05-.65.26-1.16.61-1.53.5-.5 1.01-.85 1.51-1.04.5-.19 1.06-.33 1.68-.44l2.21-.41a19 19 0 002.24-.58c.24-.04.49.03.76.21.26.19.5.43.71.72.21.3.39.63.54 1 .15.37.24.73.26 1.07.02.34-.03.64-.15.9a.98.98 0 01-.64.53l-2.02.35-2.19.35-.76.21c-.26.08-.51.18-.74.31-.23.13-.43.3-.61.49-.18.2-.3.45-.36.76v.46c.13 0 .22-.04.26-.13.04-.09.12-.13.23-.13a7.43 7.43 0 012.35.05c.8.14 1.58.47 2.35.97.75.35 1.45.87 2.12 1.55a9.77 9.77 0 011.62 2.13"/>
        <path d="M213.26 35.96c.04.05.07.11.09.19a.6.6 0 01.01.23.49.49 0 01-.08.21.33.33 0 01-.19.13.39.39 0 01-.23-.07c-.07-.04-.14-.1-.21-.17a4.25 4.25 0 01-.18-.22l-.14-.21c-.25 0-.5.01-.75.04s-.5.04-.75.04l-.13-.01a.33.33 0 01-.13-.07 18.82 18.82 0 01-1.49 3.08c-.04.1-.1.16-.17.16-.07.01-.15-.02-.24-.08s-.17-.14-.25-.24a1.75 1.75 0 01-.31-.69.5.5 0 01.04-.3 38.85 38.85 0 003.18-7.9c.05-.16.15-.23.28-.22.13.02.27.07.39.15.12.12.22.26.3.42.08.16.12.33.12.51-.04.84.01 1.69.14 2.54.12.86.35 1.69.7 2.48m-1.69-2.34l-.18.51-.24.52h.69l-.13-.52-.14-.51zM218.97 30.56c.12.11.23.26.32.45s.12.38.09.57l-.6 2.71a64.44 64.44 0 00-.59 2.84.27.27 0 01-.13.07l-.16.01a.54.54 0 01-.15-.04.88.88 0 01-.26-.29 4.52 4.52 0 00-.21-.34c-.25-.51-.46-1.03-.62-1.54a24.9 24.9 0 01-.44-1.6 74.93 74.93 0 01-1.39 3.6c-.04.12-.1.19-.17.21a.3.3 0 01-.24-.04.76.76 0 01-.25-.2 1.61 1.61 0 01-.21-.3 1.1 1.1 0 01-.12-.33.46.46 0 01.03-.29l.97-2.7c.32-.9.62-1.8.9-2.71a.27.27 0 01.11-.17.37.37 0 01.18-.05c.07 0 .13.01.2.04.06.03.12.06.16.1a1.28 1.28 0 01.4.86 15.96 15.96 0 00.74 3.22 64.16 64.16 0 01.8-4 .27.27 0 01.11-.17.35.35 0 01.18-.05c.07 0 .13.01.2.04.05.03.11.06.15.1M224.76 34.55c.07.3.03.57-.1.82s-.31.48-.54.68a4.41 4.41 0 01-3.24 1.04 2.45 2.45 0 01-.8-.23 1.99 1.99 0 01-.65-.51l-.14-.23a1.36 1.36 0 01-.15-.57c.01-.1.04-.19.11-.28.05-.09.11-.15.18-.16.07-.01.15 0 .23.03.08.03.15.08.23.14a7.09 7.09 0 00.19.17l.11.03.14.03.1.01h.55a2.22 2.22 0 00.98-.27c.19-.05.35-.12.5-.2l.42-.25c.03-.05.08-.1.13-.15l.22-.14a.21.21 0 01-.13-.05.25.25 0 00-.15-.05l-.54-.15a7.47 7.47 0 01-1.54-.8 3 3 0 01-.81-.85 1.8 1.8 0 01-.23-.56 1.42 1.42 0 01-.02-.54c.03-.17.09-.33.19-.48.1-.15.24-.28.41-.4.32-.19.66-.34 1.01-.47a3.3 3.3 0 011.07-.18c.11-.01.21.01.31.08s.19.15.27.26c.08.11.15.23.2.36.05.14.08.26.08.38s-.02.22-.07.3c-.05.08-.13.13-.25.15-.32 0-.64.06-.94.18a5.13 5.13 0 00-1.04.54 1 1 0 00.27.21c.09.05.21.1.35.15.27.09.57.17.89.25.33.08.64.19.94.32.3.13.56.3.79.5.25.28.4.56.47.89"/>
    </g>
    <g fill="#575756">
        <path d="M1.58 38.76h155.45v.63H1.58z"/>
        <path d="M8.88 50.09a3.2 3.2 0 00-1.23-.72c.35-.15.65-.37.9-.65.37-.43.56-.97.56-1.63 0-.7-.23-1.28-.67-1.72-.58-.58-1.48-.88-2.67-.88H1.62v10.04h4.37c1.13 0 2.02-.23 2.65-.68.65-.47.98-1.13.98-2.02a2.36 2.36 0 00-.74-1.74m-2.89 3.84H2.24v-4.19h3.98c.38 0 .75.05 1.09.14a2.28 2.28 0 011.47 1.06c.15.25.22.56.22.92 0 .66-.25 1.15-.76 1.51-.52.37-1.28.56-2.25.56zm2.5-6.81a1.79 1.79 0 01-.72 1.53c-.23.17-.5.3-.8.38-.31.08-.64.13-.98.13H2.24v-4.08h3.51c.88 0 1.56.19 2.04.56.47.36.7.84.7 1.48zM18.84 44.41h-.46l-4.72 9.89-.11.22h.67l1.39-2.92h6L23 54.52h.68l-4.8-10.02-.04-.09m-2.95 6.6l2.71-5.68 2.71 5.68h-5.42zM35.8 53.42l-7.1-8.88-.04-.06h-.5v10.04h.62v-8.94l7.1 8.88.05.06h.49V44.48h-.62v8.94M51.27 51.48a5.62 5.62 0 00.01-3.95 4.78 4.78 0 00-4.64-3.21A4.88 4.88 0 0042 47.53a5.66 5.66 0 001 5.6 4.74 4.74 0 003.64 1.56 4.87 4.87 0 003.29-1.22l1.43 1.25.4-.46-1.4-1.22c.39-.47.69-.99.91-1.56m-3.53-.74l-.4.46 2.14 1.86a4.32 4.32 0 01-2.82 1.04 4.22 4.22 0 01-3.18-1.39 4.96 4.96 0 01-.01-6.43 4.15 4.15 0 013.17-1.37 4.22 4.22 0 013.18 1.39 4.96 4.96 0 01.1 6.34l-2.18-1.9zM64.29 50.07c0 .67-.08 1.27-.25 1.78-.16.5-.4.92-.7 1.25-.3.33-.66.58-1.08.74a4.05 4.05 0 01-2.85 0 2.96 2.96 0 01-1.09-.75c-.3-.33-.54-.75-.71-1.25-.17-.5-.26-1.1-.26-1.78v-5.58h-.62v5.58c0 .77.1 1.44.29 2.01.2.57.48 1.06.84 1.45.36.39.8.68 1.3.87.5.19 1.05.29 1.65.29.6 0 1.16-.1 1.66-.29.51-.19.94-.49 1.3-.87.36-.39.64-.88.83-1.45.19-.57.29-1.25.29-2v-5.58h-.62v5.58M70.4 44.48h.62v10.04h-.62zM77.39 49.77h5.89v-.59h-5.89v-4.11h6.49v-.59h-7.11v10.04h7.18v-.59h-6.56v-4.16M94.36 50.02a3.3 3.3 0 001.05-.57 2.64 2.64 0 00.94-2.08c0-.78-.25-1.42-.74-1.92-.64-.64-1.62-.96-2.9-.96h-4.13v10.04h.62v-4.24h3.38l3.22 4.24h.77l-3.26-4.28c.38-.04.73-.12 1.05-.23m-5.16-4.95h3.48c.97 0 1.73.21 2.27.62.53.4.79.95.79 1.72 0 .32-.06.62-.19.89-.12.27-.32.52-.58.72a2.7 2.7 0 01-.99.49c-.4.12-.88.18-1.43.18H89.2v-4.62zM107.48 50.16a4.18 4.18 0 00-1.08-.58c-.43-.16-.98-.31-1.62-.44-.59-.12-1.08-.25-1.48-.39a3.5 3.5 0 01-.93-.47 1.37 1.37 0 01-.47-.56 1.91 1.91 0 01.04-1.52c.12-.24.3-.46.54-.65.24-.19.52-.35.85-.46.33-.11.7-.17 1.11-.17.58 0 1.13.1 1.64.29.51.19.99.45 1.41.76l.12.09.39-.49-.12-.1a5.61 5.61 0 00-3.4-1.15c-.48 0-.93.07-1.32.2-.4.13-.75.32-1.05.56-.3.24-.53.52-.7.84a2.43 2.43 0 00-.06 2.03c.13.29.34.54.62.76.27.21.63.4 1.07.56.43.16.94.29 1.56.42.61.13 1.11.26 1.51.4.39.14.71.29.94.47.22.17.37.36.47.57a1.98 1.98 0 01-.6 2.27c-.24.19-.55.34-.9.45a4.92 4.92 0 01-4.74-1.29l-.11-.11-.44.44.12.11c.54.51 1.15.91 1.81 1.18a5.46 5.46 0 003.58.21c.43-.14.8-.33 1.1-.58.31-.25.54-.54.7-.87.16-.33.24-.7.24-1.11 0-.35-.06-.67-.18-.96a2.78 2.78 0 00-.62-.71M119.34 45.4l.26.54 1.74-.78v9.36h.62V44.41h-.42l-2.2.99M133.44 50.15a4.06 4.06 0 00-1.36-.81c.45-.18.82-.42 1.12-.72.42-.43.64-.96.64-1.62 0-.38-.09-.73-.26-1.06-.17-.32-.41-.6-.71-.83a3.5 3.5 0 00-1.05-.55c-.8-.27-1.8-.27-2.6 0-.4.14-.76.32-1.06.55-.3.24-.54.52-.71.83-.17.32-.26.68-.26 1.08 0 .63.21 1.17.64 1.6.3.31.68.55 1.12.72a3.39 3.39 0 00-1.36.79c-.24.23-.44.5-.58.79a2.32 2.32 0 00.05 2.05c.17.33.42.63.75.88.32.25.71.45 1.17.6.45.14.97.22 1.54.22a4.9 4.9 0 001.54-.22 3.8 3.8 0 001.17-.6 2.4 2.4 0 001-1.98c0-.32-.07-.64-.21-.94a2.6 2.6 0 00-.58-.78m-2.92 3.92c-.48 0-.92-.06-1.31-.18a3.1 3.1 0 01-.98-.49c-.26-.2-.47-.44-.61-.7a1.73 1.73 0 01.03-1.72c.16-.27.38-.51.65-.7.27-.2.6-.35.98-.46a4.37 4.37 0 012.43 0c.38.12.71.27 1 .47.28.19.49.43.65.71.16.27.24.56.24.91 0 .29-.07.56-.21.82-.14.26-.33.49-.59.69-.26.2-.59.36-.97.48-.38.11-.82.17-1.31.17zm-.02-9.14c.38 0 .74.05 1.08.16.33.1.62.25.87.44.24.18.43.41.57.66.14.25.21.52.21.84 0 .3-.07.58-.21.83-.14.25-.33.46-.57.64-.24.18-.54.32-.86.41-.65.19-1.46.2-2.13-.01-.34-.1-.63-.24-.87-.42a1.88 1.88 0 01-.78-1.51c0-.29.07-.56.2-.8.14-.25.33-.47.56-.65.24-.18.53-.33.86-.43.33-.1.69-.16 1.07-.16zM144.98 44.41h-.49l-5.96 7.2.17.36h5.67v2.54h.62v-2.54h1.6v-.59h-1.6v-6.97m-.63 1.06v5.91h-4.89l4.89-5.91zM157 50.23a2.84 2.84 0 00-.73-.95c-.3-.26-.67-.47-1.08-.61a5.06 5.06 0 00-2.65-.08c-.33.07-.66.18-.99.31l.23-3.82h4.91v-.59h-5.48l-.31 5.04.34.18.07-.04c.46-.24.9-.41 1.32-.5a4.37 4.37 0 012.31.04c.34.12.64.29.9.5a2.23 2.23 0 01.8 1.79 2.42 2.42 0 01-.8 1.87c-.25.23-.56.41-.91.54a3.6 3.6 0 01-2.87-.23 4.1 4.1 0 01-1.28-1.01l-.1-.12-.47.41.1.12a4.34 4.34 0 002.42 1.48 4.3 4.3 0 002.43-.1 3.08 3.08 0 002.1-2.99c0-.46-.09-.87-.26-1.24M1.58 59.82h155.45v.63H1.58z"/>
    </g>
</svg>
