<svg xmlns="http://www.w3.org/2000/svg" viewBox="0 0 1000 128.66">
    <g fill="#005383">
        <rect x="361.81" y="4.65" width="19.33" height="119.16"/>
        <path d="M649,60.67c11.17-3.34,17.18-12.18,17.18-24.84,0-10.67-4.34-19.83-11.67-25.17-7.34-5.49-16.83-6-29.5-6H595V123.82h30.18c16.66,0,28-.5,36.49-9,6-6,9.66-15,9.66-24.84C671.28,74,662.78,62.83,649,60.67ZM614,20.82h7.34c17.17,0,25.33,2.84,25.33,17.68C646.62,51,638.78,55,621.29,55H614ZM643.78,104c-4.65,3.17-12.32,3.67-23.15,3.67H614v-38h12.5c5.84,0,11.18.33,15.68,2.67,6,3.16,9.16,9,9.16,16.5C651.29,95.33,648.45,100.82,643.78,104Z"/>
        <path d="M862.84,77c0,21.51-10,32.34-29.66,32.34S803.52,98.5,803.52,77V4.67H784.34V78.83c0,32.16,16,48.17,48.84,48.17s49-16,49-48.17V4.67H862.84Z"/>
        <path d="M979,15.83C964.5,4.67,947.33,4.67,925,4.67H898.84V123.82h31.33c19.33,0,35-.5,48.83-11.16,13.67-10.5,21-27,21-48.33S992.67,26.33,979,15.83ZM966.33,98.5c-8.5,7.17-18.66,7.83-31.83,7.83H918.16V22h14c14.33,0,25.33.49,34.16,7.83,9,7.66,13.49,19.17,13.49,34.33S975.33,90.82,966.33,98.5Z"/>
        <path d="M669,123.82h20.33l13.83-30.65h47.16l13.49,30.65h20.5L726.61,0ZM743.43,77H710.15L727,39.42Z"/>
        <path d="M478.3,115.22,443.8,69.66c18-2.16,27.34-13,27.34-32.17,0-11.16-4.33-20.49-11.49-26.16C452.31,5.67,442.81,4.67,430,4.67H403V123.82h18.17V70.5h2.18L463,123.82h31.66l13.83-30.65h47.16l13.5,30.65h20.5L532,0Zm-56-59.72V21.33h3.5c17.33,0,25.49,3.17,25.49,17.83,0,14.35-8.49,16.34-25.49,16.34ZM548.77,77H515.49l16.85-37.57Z"/>
        <polygon points="281.23 89.18 239.33 0 211.16 123.82 229 123.82 244.53 52.8 280.98 128.66 317.44 54.38 332.99 123.82 350.98 123.82 322.14 0 281.23 89.18"/>
    </g>
    <g fill="#9bd3dd">
        <polygon points="139.41 0 96.63 42.78 53.85 0 0 53.85 4.73 74.63 53.85 25.5 96.63 68.28 139.41 25.5 188.53 74.63 193.26 53.85 139.41 0"/>
        <polygon points="96.63 103.16 53.85 60.38 11.19 103.04 15.92 123.82 53.85 85.88 96.63 128.66 139.41 85.88 177.34 123.82 182.07 103.04 139.41 60.38 96.63 103.16"/>
    </g>
</svg>
