<svg xmlns="http://www.w3.org/2000/svg" version="1.0" viewBox="0 0 120 39">
<g transform="matrix(1.25 0 0 -1.25 -1017.1263 206.4112)">
    <path fill="#003e8c" d="M861.1547 160.3356c-6.195 0-11.279-4.199-11.279-10.672 0-6.601 5.057-10.541 11.279-10.541 6.221 0 11.279 3.94 11.279 10.541 0 6.473-5.085 10.672-11.279 10.672m0-6.762c2.354 0 3.814-1.832 3.814-4.019 0-2.352-1.569-3.964-3.814-3.964-2.246 0-3.814 1.612-3.814 3.964 0 2.187 1.46 4.019 3.814 4.019m13.0264 6.4255h7.134v-6.921h4.543v6.921h7.134v-20.536h-7.134v7.148h-4.543v-7.148h-7.134zm21.9844 0h7.397v-13.955h6.217v-6.581h-13.614zm-60.9743-13.8772l-1.234-.481-.23 1.576 1.309.075z"/>
    <path fill="#dc6701" d="M829.6559 158.2297l-.347-1.458-1.074.689.23.716zm-3.1671-1.126l-.726-.422-.599 1.079 1.155.112zm1.4314.2214l1.133-.924-.941-1.037-.651 1.614zm-.748-.481l.053-1.272-.961.524.331.978zm.4006-12.1273l-.71.075.405.711zm.0219-.3096l-.022-.689-.881-.31.075.983zm-1.8191-4.0953l-.075-1.514-1.752.038.118 1.86zm3.7094 11.6481l.654-1.701-.961-.421-.403 1.449zm-.713-2.221l-1.525-1.234-.769.614 1.642 1.56zm2.284-1.309l-1.175-.214-.711 1.229 1.481.347zm-5.2069 13.76l-.16 1.305-1.301-.325.094-1.045zm-1.7868-.1269l-1.237-.065-.065.976 1.172.261zm1.8172-23.8855l.699-1.271-1.54-.336-.773 1.858zm2.6394-2.4626l-1.469-.422-.443 1.116 1.159.054zm1.0121 26.7384l-.521 1.302-.847-.651-.13-.911zm-3.3376.0205l1.319-.432.196 1.041-1.303.586zm.985-27.6067l1.345.562-.027-.975-1.042-.024z"/>
    <path fill="#003e8c" d="M831.3405 162.8345l-.03 1.301-1.902-.096.665-1.554zm-1.5992-1.0206l-1.12-.058-.282-1.136 1.471-.287zm-3.2058-.0002l-1.059-.029-.179-.841 1.343-.174zm1.5129-.0321l-.953.015-.132-1.018 1.253-.227zm-2.986-.0092l-.999-.096-.171-1.015 1.192.112zm-1.3402-.2478l-1.116.043-.016-1.331 1.094.251zm6.8178-.6499l1.516.227-.407 1.272-1.325-.214zm-1.6931-1.0574l-1.58-.092.134-1.133 1.481.078zm.4926-.0939l-.021-1.074.902-.096-.112.94zm-3.5188-1.4664l1.229.251-.208 1.154-1.155-.251zm-.3532-.0465l-.155 1.117-1.486-.815.443-.919zm-3.2073 2.9433l-1.026.011-.749-1.493 1.844.299zm9.6953-.5231l-1.593-.374.214-1.443 1.363.401zm-8.0867-3.2332l-.326 1.101-1.41-.914.652-1.02zm6.9062-.4415l1.766.452-.398 1.316-1.325-.401zm.5813-2.0947l1.774.363-.273 1.657-1.709-.577zm-10.188 1.6322l.229-.599.67.078-.059.849zm1.1377-1.1754l.953-.347.155 1.036-1.124.155zm2.7493.0378l-1.154.443-.267-1.138 1.058-.652zm4.3445-.7346l1.176.385.171.828-.017.016c-.561-.171-1.677-.539-1.677-.539zm-2.5351.4113l-1.501.385.012-1.53 1.644-.281zm.6969-1.3072l1.384.459-.193.962-1.501-.134zm4.5594-.5675l1.576.23-.347 1.501-1.865-.497zm.4739-1.6347l1.635.406-.193.865-1.864.059zm.6213-2.1093l1.51.555-.421 1.458-1.685-.41zm-.1995-.7544l.385-1.116 1.559.288-.272 1.502zm-5.422-.7107l1.541-.298.361.448-.925 1.004zm-.8283-1.2337l.229 1.191-.672.289-.732-1.266zm2.2329.6144l-1.635.08-.096-1.464 1.576.481zm2.8047-.9029l.31-1.17 1.309.288-.214 1.208zm-.4803-.016l-1.48-.214.058-1.133 1.694.113zm-5.8289-.0211l-.216-1.353 1.258.081.23 1.213zm3.927-1.2504l-.214 1.095-1.651-.54.711-.902zm1.8268-.3847s-1.246-.295-1.279-.323c-.033-.029-.051-1.098-.051-1.098l1.389.096zm-6.6193-1.2713l1.427-.305.154 1.347-1.02-.059zm6.924-1.2877l-.23.903-1.266-.422.514-1.152zm-3.55-.5807l-1.455-.24-.283-1.341 2.099.619zm-3.9027-.5229l1.892-.133.056 1.745-1.515.12zm5.9351.1418l-.577 1.309-1.079-.556.347-1.271zm.6796-2.6433l1.073.357.226.798-1.268.009zm-1.9881.0098l.903-.732.732.577-.193.903zm-2.217-.6131l.789-1.129 1.895.824-1.17.815zm3.366-.547l-1.536-.605.809-.965 1.285.173zm-10.9919 21.8876l1.074.293.43 1.367-1.309-.195zm-1.3556.3903l-.097-1.367 1.171.684-.097 1.562zm11.4547-24.1582l-.193-1.058 2.027.065-.138.898zm1.8524 29.2605l-1.565-.023-.023-.391h1.771z"/>
    <path fill="#f7ac45" d="M824.4778 135.365l-.251 1.058-1.28-.045.457-1.323zm-2.0156 1.3647l-1.204.291.217.954 1.197-.085zm-1.9934 5.5646l1.347.481-.14-1.499-1.111-.137zm-.2247-1.8646l1.432.456-.13-1.302-1.107-.391zm-.1839 21.0103l-1.059-.289-.264.746.938.481zm-.818 2.4287l.097.938-1.282.137-.09-.907zm-.6975-.3845l-1.227-.12.241-1.299 1.203.24zm-1.3947-.0482l.626.745-.506.698-1.178-1.202zm-.9623-3.656l1.094.313-.3-1.468-.698.169zm3.1511-10.8475l.072-.865-1.299-.265-.096 1.539zm.6794-4.9362l.451-1.317-1.588.553.319.764zm1.2866-9.5425l.223.866 1.346.048.313-.721zm-.4271 1.4911l.12-1.539-1.779.24.12 1.154zm-1.3229.3368l1.083-.072.12.913-1.635.217zm-.5532-.2649l-1.539-.072.072 1.203 1.299.144zm.8663 3.4394l-1.179-.12.036 1.317 1.131.072zm9.6207 5.0513l-.147-1.099-1.208.192.016.791zm-.2811-1.6017l-.945-.539.101.715zm-1.4368-1.0678l-1.2.133-.014 1.084 1.262.221zm4.2432-1.0828l-.13-.713-1.404.096.235 1.05zm-1.8672.0311l-.051-1.01-.827-.338-.408.871zm-1.5652-.6524l.288-.828-.896-.33-.112.896zm-1.1794-.3425l.258-.961-1.347-.432.047 1.104zm-3.4214-1.725l.457-1.304-1.633.054.478 1.028zm2.5476-2.8428l-.881-.251-.711 1.004 1.288.289zm-3.5099 15.9578l-.913.102-.267.517 1 .03zm.4571 3.0306l-.472-.971-1.334.937.338.72zm.5868-10.5191l-.117-.878c-.45.153-.896.28-1.339.447-.019.198-.001.391.038.586.473-.027.946-.099 1.418-.155m7.5121 9.5828l-1.635-.406-.384 1.426 1.154.385zm-6.7184.0648l-.473-.952-1.269.489.995.944zm4.6433-.7223l-.999-.903-.972 1.306 1.57.772zm-6.9013.3469l-.208-.732-.946-.037.155 1.307zm4.4613-.0161l-.914-1.13-1.169.399.408 1.11zm5.1511-1.9629l-1.733-.581-.324 1.983 1.362.273zm-7.7116.906l-.673-.807-.856 1.167.096.24zm.6521-2.0284l.727.933.577-.999-.343-.297zm2.9699 1.5026l-1.432-1.041-.604.965 1.371 1.01zm2.9944-1.3228l.385-1.272 1.297.507-.528 1.304zm-5.4691 1.2882l-.921-1.381-.924.539 1.268 1.227zm-2.328-.4682l-.133-1.292-1.367.09.229 1.33zm1.2108-1.4062l-.54-1.272-.843.289.533 1.405zm1.4835-.4401l-.289-1.095-1.191.133.348 1.309zm-3.2885.1288l-.075-1.042-.94-.111-.059 1.132zm10.3518-1.8697l-1.346-.406-.059 1.25.887.363zm-1.9448.7688l.118-1.197-1.619-.325.155.865zm-7.5007-.1175l-.806-1.346-.828.059.464 1.169zm1.5384-.5018l-.459-1.421-1.331.288.562 1.656zm-2.1502-1.5863l-.732-1.293-.673.369.134 1.036zm1.7865-.4926c-.123-.416-.427-1.228-.427-1.228l-1.688.074.919 1.485c.411-.085.796-.219 1.196-.331m-.982-3.0181l-.075-1.154c-.181-.011-1.202.166-1.523.214-.048.475-.064.983-.053 1.464.566-.139 1.1-.347 1.651-.524m-.3203-1.6939l-.251-1.25-1.405.139.406 1.399zm-.2429-1.5733l.174-.824-1.635.037.189.921zm3.7092 20.906l-1.67.012.065.651 1.605-.207zm-3.6227-.8342l1.432.325-.065.912-1.562-.326zm-1.6343-1.328l1.172.716-.326.976-1.627-.13zm.0847-10.1976l-1.172-.261-.065-.651.911-.195zm-.3157 7.7298l-1.57.441-.195-.912 1.57-.571zm-.2462-1.3103l-1.373.221.193-1.498.85-.137zm.2462-2.27l-1.385.614-.06-1.418 1.445-.173zm.0652-1.4323l-1.497.065-.196-1.042 1.193-.728zm-3.1247 4.166l1.106-.065.007-1.316-1.041-.065zm.1951-1.9531l1.047-.021-.2-1.346-1.042.325zm1.9118 6.5745l.472-1.13-1.183-.497-.909 1.066zm.518-1.6173l-1.251-.674.433-.529 1.333.819zm-1.79-1.5054l-.249-.81-1.433-.124v1.495zm-1.0239-3.5212l-.265 1.192h-.934l.092-1.048zm-1.1785 1.5632l-.155.588 1.023-.006v-.499zm3.2389 8.4366l.249-.748.436.063.436.81zm1.0541-.7468l1.017 1.053-.097-.962zm-.11 2.8177l-1.677.335.15-1.133.983-.058zm-.3606-1.4478v.498l.685-.249v-.312zm.7212 1.6719l-.138-.69.76-.069.206.621zm1.0357-.8977l.276-.483-.898-.138-.276.414zm.2072.8977l-.138-.622.621-.482.76.206-.07.829zm2.3467 0l-.898-.207.415-.829.966.277zm2.2085-.0695l-1.797.035 1.352-.848zm1.2429.0695l.207-.622-.828-.414-.622.414.414.691zm-2.7612-30.2324l.69.276.552-.345zm-2.0019.2532l.92.369.507-.323.161-.322-1.979.023z"/>
    <path fill="#feec18" d="M821.0988 136.4469l.356-.815 1.275.144-.285.73zm-.4645 9.5816l.651.13-.065-1.237-1.172-.13zm-.2616-1.8101l1.043.313.847-.912-1.408-.748zm1.0434-5.1552l-1.302-.391v-1.172l.651-.13zm-1.8371 18.1915l-1.203.986-.841-1.034 1.683-.77zm.8661 5.5798l-1.371-.241-.241.938 1.54-.072zm-1.804-1.7797l-.217.794-1.154-.385.361-1.01zm-1.6116.746l.12 1.178-1.106.192-.144-.937zm-1.1546 1.8995l.74 1.244-1.461-.21-.048-.601zm-1.082 1.0344l-.763.209-.097-1.261.818-.048zm.9862-1.3229l-.193-1.443-1.082.409.577 1.347zm-1.8401-.1501l.649.023-.558-.775zm2.0086-1.5576l1.034-.24.288-.914-1.274-.458zm19.9684-17.1848l-1.058-.289-.15 1.215.817.169zm-1.4189-.3849l-.222 1.118-1.155-.384.578-1.299zm-2.6938.6495l.884.084.385-.986-1.275-.457zm.1685-1.654l1.094.313-.312-1.245-.698.169zm-15.0146 15.2551l.674-.601-1.107-1.227-.529.938zm-.9379-2.4053l1.131.553.096-1.419-1.035-.312zm-.2163 1.7797l.481.698-1.155.625-.841-1.01zm-1.7726.8483l.883.715-.168.915-.819-.097zm1.1953.7632v1.035l.433.024.216-1.275zm.4091 1.3713l-1.684-.168.144 1.395 1.468-.313zm.4325-4.3537l-1.395-.264.241 1.322.721-.024zm-1.4911 1.0827l-.546-1.341-.103 1.341zm23.8069-19.2058l1.058.288.372-1.081-.794-.794zm.5633-1.8933l.343-1.864 1.24-.096-.698 2.104zm1.4611-.5598l.758.469-.072 1.191-1.087-.343zm-.6309 2.9404l.35-1.203 1.155.385-.26.98zm1.7453-1.1551l-.12-1.178 1.106-.193.144.939zm-.0665-1.563l-.903-.637.361-.794 1.601 1.19zm1.2976-.3662l-1.335-1.263 1.949.108.079.751zm1.0055-1.0046l.762-.21.098 1.262-.818.048zm-.9861 1.3223l.192 1.443 1.083-.409-.577-1.347zm1.8401.1506l-.65-.024.558.776zm-2.0087 1.5575l-.944.294-.325 1.04 1.185.404zm-.0851 2.0864l-1.484-.385.023 1.323 1.027.037zm-.9382 1.2087l-.685.523 1.479 1.263.342-.992zm1.5873.722l-.938-.685.794-.813 1.407 1.083zm1.353-.9211l-1.64-.986.169-.913 1.575.366zm-1.604-2.1345l1.684.169-.145-1.395-1.467.313zm-26.3926 15.9051l-1.227.193.121-1.371 1.251.144zm-1.8758.2888l1.299.24-.216.89-1.419-.361zm-.618-.0904l1.075-.559-.096-.89-.979.03zm4.0092-2.7481l-.793.289-.265-1.275 1.419-.409zm.7702-1.1065l.871-.39-.288-1.179-.968.463zm2.3384-3.1326l-.096.505-1.161.512-.144-1.083zm-4.5038 5.3457l.313-1.323-1.299-.144-.168 1.106zm-1.467-.2886l.072-1.13-1.299.072.08 1.208zm.3611-1.4187l.986.023.288-1.034-1.49-.168zm-.5773-1.4437l.048 1.371-1.082.073.103-1.39zm-.5534-.4087l1.251.24.24-1.058-.938-.144zm1.7862.301l1.082.433.307-.926-1.227-.722zm1.4612.4687l.289-.505.24.481zm-3.6248-1.3052l.907-1.112-.469-.962-.45.27zm3.5284-.1859l.217-1.155-.819-.746-.505 1.179zm-2.1526-.7035l.685.054.313-1.419-1.503-.006zm4.8522-.9142l.114-1.028-1.226-.216-.115 1.413zm-.2706-1.4129l-1.226-.313.072-1.082h.866zm-1.178.3126l-.818-.625-.674 1.154 1.131.794zm14.9237 13.7096l-1.227.192.121-1.37 1.25.143zm.3731-1.3228l.348-1.443-1.298-.145-.205 1.227zm-.5534-1.9002l1.137.006.162-.992-1.365-.211zm.2886-1.5873l1.13.361.385-1.155-1.305-.493zm1.8461-1.1667l.216-1.155-1.304-.565-.506 1.179zm.6553-2.8982l-1.155-.577-.463 1.142 1.131.794zm-17.4917-16.4992l.198 1.226-1.611-.192.09-1.034zm-1.8034 0l.15 1.395-1.539-.529.095-.915zm-3.0177-.0078l1.392.156-.577 1.916-.891-.026zm4.4663 3.423l1.323-.337-.12 1.467-1.203-.24zm1.4431 3.4394l-1.13-.313.24 1.684.818-.385zm-4.5696-5.6284l1.01.337-.553 1.058-.818-.072zm1.2987.6255l.481-.121-.096 1.251-.794-.264zm1.3948 1.3228l-1.107.193.626 1.13.505-.024zm-4.0333 8.7847l1.075-.03.24-1.299-1.315-.331zm1.6761-.0058l-.048-1.395 1.251-.072.385 1.203zm1.6836-1.0827l1.107-.264-.025-1.299-1.346.12zm.1207-1.9716l1.034-.024.048-1.396-1.684.602zm-.8899 1.2504l.457-1.227-1.107-.793-.552 1.828zm13.7575-6.7343l.203-1.128 1.246.133.09 1.524zm1.9303-.6074l1.154.24.376-1.42-1.152.055zm-.3262-.7241l.543-1.063-.962-.964-.736 1.64zm-17.8149.3454l1.612.565-.794 1.13-.999-.426zm2.1888.7454l.794 1.275-1.023.439-.667-.71zm-2.4055 6.7344l1.107.192.24-1.25-1.267.198zm4.0525-5.0144l.313.914-1.203.457-.601-1.203zm.301 1.3346l-1.335.331-.024 1.082 1.551-.499zm-1.8278 1.7319l.192-1.611-1.539-.049-.174.86zm-2.4462-.4992l1.267.162.265.842-1.532.199zm0-.2647l.618-.15.084-.998-.793-.41zm.618-1.5207l.433.409 1.395-.193-1.034-1.371zm-.618-1.4614l.883.307-.554 1.01-.329-.163zm23.1427 21.7271l1.302.39v1.172l-.651.13zm.5378 3.1182l-.12 1.539 1.78-.24-.121-1.155zm1.3229-.3366l-1.082.072-.12-.914 1.635-.216zm.7034 1.8275l-.198-1.226 1.611.192-.09 1.034zm1.8042 0l-.15-1.395 1.539.53-.096.913zm3.0173.0078l-1.392-.157.576-1.915.891.025zm-4.9715-1.571l1.539.072-.072-1.202-1.298-.144zm.5047-1.8517l-1.322.336.12-1.466 1.202.24zm-1.2263-1.5152l1.178.12-.036-1.317-1.13-.072zm4.3532 3.7038l-1.01-.337.553-1.058.818.072zm-1.2992-.6251l-.48.12.096-1.251.793.265zm-1.3942-1.3233l1.106-.192-.625-1.131-.505.025zm3.8956.746l-1.611-.565.794-1.131.998.427zm-2.1883-.746l-.794-1.275 1.023-.438.667.709zm-1.539-1.7554l-.313-.914 1.203-.457.601 1.202zm-.409-1.2987l1.335-.331.024-1.082-1.552.499zm1.8277-1.7319l-.193 1.611 1.54.048.175-.86zm2.4463.4989l-1.268-.162.22-1.45 1.048.409zm0 .2645l-.618.15-.085.998.794.409zm-.6184 1.5212l-.433-.409-1.395.193 1.035 1.371zm.6184 1.4611l-.883-.307.553-1.01.33.163zm-12.8996 4.1538l-.054-1.334 1.389-.162.27 1.317zm.2343-1.8025l.379-1.425 1.443.433-.469.92zm1.6598 1.8025l-.018-1.64 1.371.289.018 1.19zm-1.0825-3.6605l1.479.397-.685-1.462-.884.325zm1.3895 1.587l.523-1.082 1.334.162-.45 1.299zm-2.568-21.3935l.577.577 1.299-.385-.385-.914zm1.0947-7.023l.685 1.251h.962l-.012-1.251zm-.0543 3.2651l-.042 1.485 1.155-.337-.055-1.004zm.0662 1.9297l1.179-.529.072 1.251-1.251.168zm1.2026 2.2128l-.433.505.433.842 1.323-.89zm.601 1.5152l.89-.793.77.649-.649.793zm1.5152 2.5735l1.299.77.337-1.347-1.155-.722zm-.0958.481l1.107.481-.145.962h-1.203zm-.2409 1.9721l1.251-.192.048 1.058-1.347-.144zm-.0958 1.5878l1.551.788.433-1.107-1.695-.21zm-2.0206-9.2836l.193.793 1.322.264.217-1.154zm2.3812 3.3428l.818-.962.914.361-.397 1.166zm-.4808-2.0923l.168-1.275 1.227.505-.457 1.563zm-1.1311-1.8044l-.048-1.106 1.371.144.024 1.035zm-.1199-1.4429l-.036-1.239 1.371.325-.157 1.034zm-.0721 21.4543l.505 1.154 1.227-.144-.289-1.515zm1.6591 4.654l-.144-1.119 1.804.398.144.846zm.3253-4.7264l.144 1.154 1.154.361-.36-1.767zm.2887 1.7679l1.263.433-.073 1.371-1.406-.289zm-1.9125-2.4171l.433-1.263 1.443-.072-.505 1.119zm1.6962.0724l.715-1.413h.866l-.282 1.341zm1.3344.3968l.541-1.119h.722l-.073 1.516zm-.0721-8.9834l.361-1.155 1.407.65-.614 1.154zm1.3707 1.082l.704-1.064 1.028 1.623-1.563.518zm.3491 1.5514l1.551-.668.409.975-1.696.505zm1.1123 1.2988l1.01-.613.469 1.148-.956.596zm1.5335 1.1546l-1.407.541.144.902 1.479-.577zm-3.8967-9.2718l.037-1.407 1.081-.325.325 1.173zm1.6238-.9021l-.145-1.118.83-.902.758 1.299zm1.2624-1.6955l.758 1.19.848-1.154-.92-.397zm1.2629 1.2625l.757-1.046.939.361-.397 1.154zm1.6593.6137l.469-1.083.614.181-.108 1.371zm-.2522-1.9486l1.046.65.397-1.083-1.407-.216zm-.5774-.0901l-1.064-.397-.036-.902 1.316.685zm-7.1792-5.213l.288-1.48.902-.36.072 1.515zm1.587-1.84l.036 1.245 1.047-.073.397-.955zm-2.4892-2.3814l-.18 1.227 1.1.469.325-.758zm.7579-.0958l1.154.962.614-.962zm1.7313.8536l.469-.854 1.353.019-.108.997zm-2.9222 1.8402l.072-1.011 1.191.506-.108.829zm1.6963-.2528l.216-1.19 1.118-.073-.108.992zm1.6951-.2347l-.036-.956 1.119.091-.127.938zm2.886 7.2341l-.613-1.011 1.046-1.01.397 1.371zm-3.0301.6852l.361-1.046 1.442.577-1.226.902zm-.7941-1.9122l.253-1.227 1.118.433-.18 1.227zm1.6236.5414l.181-.974 1.443 1.226-.253.289zm-2.4891-2.8505l.072-.451 1.191-.036-.108 1.1zm1.587.7938l.108-.938 1.227.397-.289 1.118zm1.5518.9023l.18-1.173 1.588.505-1.011 1.281zm-3.0302-2.4534l-.073-.541 1.209-.433.108.974zm1.6768-1.0464l1.641.361-.396 1.263-1.281-.433zm4.5762 18.123l-.217-1.298 1.468-.121-.313 1.732zm1.6594-1.0342l-.409-1.251 1.227-.379v1.804zm-5.6943 2.7295l1.654.037.072-1.396-2.062.421zm-3.2289-.6852l.481-1.299 1.347.65.24.697zm2.4051-.3908l-.216-1.443 1.515-.427.072 1.251zm3.0306-1.1003l-1.202.529-.217-1.419.77-.65zm-4.8823-.2167l.553-1.605.89.313-.289 1.869zm1.8039-.5527l1.563-.625-.409-1.492-1.154.794zm-1.0279-1.4733l.619.198.865-1.13-1.346-.505zm.2341-1.8221l.457-.986 1.323.794.024.866zm.7636-5.0812l-.144 1.353 1.353-.397-.054-1.01zm-.0362 1.7505l.072.486 1.317.379-.252-1.226zm7.4502 4.8702l-1.317.18.288-1.244 1.011-.307zm-1.696-.1262l.109 1.389-1.191.108-.36-1.281zm.4878-7.0354l1.208.289v1.263l-1.353.179zm-.3073-.3244l-1.208-.217-.65 1.047 1.606.595zm-1.5513-.2529l-.631-.595-1.064.613.938 1.064zm-2.8682.9381l1.01-.577.613 1.028-1.37.919zm.2706 3.1026l-.018-1.389 1.696.578-1.047 1.117zm.7035-1.6412l1.046-.83.578.974-.397.433zm1.7861-.6497l1.443.271v1.876l-1.082-.217zm-1.7142 2.8682l1.552-1.335.415 1.209-1.281 1.334zm.9023 1.4971l.686 1.371 1.678-.433-1.588-1.515zm1.3886-1.9479l-.252 1.226 1.298.902.704-1.948zm1.2451-.3068l.091-1.227 1.262-.072v1.425zm.8478.5052l.559.036-.054 1.696h-.92zm-4.8883-9.7231l.288-1.569 1.317.216-.035 1.569zm3.6618 2.3631l.216-.956 1.516-.325v1.516z"/>
</g>
</svg>
