<svg xmlns="http://www.w3.org/2000/svg" viewBox="0 0 298 108">
    <path fill="#e60000" d="M174.3 65c0 22.4-12.2 25-24.4 25-21 0-25.5-10.7-25.5-26V20.6h-7.7v-4.1H146v4.1h-8.3v42c0 15 3.8 22.3 14.5 22.3 10.8 0 16.1-5.4 16.1-20.8V20.6h-7.8v-4.1h20.8v4.1h-7zm20.5 20V20.6h-8.2v-4.1h32.5c13.8 0 20.7 7.8 20.7 17 0 9.7-8.9 15.2-16.8 16.9 15.4 1.4 19.5 11.2 19.5 18.5 0 14.7-12.5 20.3-24.9 20.3h-31.5V85zm31.7-50.7c0-6.8-3.5-13.7-11.1-13.7h-8.5v28h7.6c8 0 12-6.9 12-14.3zm2.6 34.6c0-9.7-4.1-16.2-13.9-16.2H207V85h6.8C224 85 229 79 229 69zM275 19.7c-7.6 0-12.5 4.5-12.5 12.4 0 7.2 7.7 10.6 15.2 13.1a38.5 38.5 0 0114 7.4c4.2 4 6.5 9.4 6.4 16.2-.3 12.7-9.2 21.2-24.8 21.3-5.8 0-15-1.3-20.5-4.5l-.6-19.1h4.6c.4 12.8 6.4 19.5 17 19.5 8.5 0 13.1-5.6 13.1-14.3 0-7.4-6.1-10.7-15.5-13.8-3-1-9-3.3-13.3-7.4a18.9 18.9 0 01-5.6-13.7c0-14.8 10.6-21.2 23.7-21.2 5.2 0 13 1.8 17.5 4.4l.5 16.6h-4.7c-1-11.8-6-17-14.5-17z"/>
    <path d="M80.1 31.2l-2 1.6 2.1 6.7-6.1-3.3-2 1.6 6.7 3.6-7.2 5.9-2-2.6 2.6-2-1.9-2.3-2.6 2-2-2.5 2.7-2-2-2.5-13.2 11 12.6 10.2 2.2-2.8c1.7 0 2.8 1.2 3.5 2.8l-2.3 2.8 1.4 1c3.2-2.8 7.2-4.6 11.4-4.6 8.9 0 15.8 7.2 15.8 16 0 3-.8 6.1-2.4 8.7l2.4 1.9a5 5 0 01-3.4 4l-2.2-1.9c-3.2 3-7.3 4.7-11.6 4.7-8.8 0-15.7-7-15.7-16 0-3 .9-6 2.2-8.4l-1.3-1.2-2.3 3a4 4 0 01-3.4-3l2.2-2.7L51.7 52v14l3.5.2c.5.5.8 1.3.8 2.1s-.3 1.6-.7 2.3h-3.6v1.7c7.7 1.3 14.2 7.9 14.2 15.9 0 8.3-6.4 14.9-14.2 16.2v2.8c-.8.4-1.7.7-2.6.7-1 0-2-.3-3-.7v-2.8c-7.8-1.3-14-8-14-16.2 0-8 6.2-14.6 14-15.8v-1.8h-3.6c-.4-.7-.6-1.5-.6-2.3 0-.8.2-1.6.6-2.2h3.7V52l-10.8 8.8 2.4 2.7c-.5 1.7-2 2.8-3.6 3l-2.2-3-1.4 1.2c1.5 2.4 2.2 5.5 2.2 8.4 0 9-6.9 16-15.7 16-4.2 0-8.4-1.7-11.4-4.7l-2.4 1.8a5.3 5.3 0 01-3.3-4l2.3-1.8A18.8 18.8 0 010 72c0-8.9 6.9-16 15.7-16 4.3 0 8.4 1.7 11.5 4.5l1.3-1-2.2-2.8c.5-1.6 2-2.6 3.5-2.8l2.3 2.8 12.6-10.2-13.3-11-1.9 2.5 2.6 2-2 2.5-2.5-2-2 2.2 2.5 2-2 2.7-7-5.9 6.6-3.6-1.9-1.6-6.1 3.3 2-6.7-2-1.6-2.2 7.3-7.2-5.8 2-2.4 2.4 2 2-2.3-2.5-2.3 1.9-2.2 2.6 2 1.8-2.3-5.6-4.5a7.8 7.8 0 013.5-4.4l29.8 24.4V24.4h-3v3.1h-3v-3.1H37v3.1h-3v-9.1l7 3v-2.6L34.5 16l6.5-2.6V11l-7 2.8V4.5h3V8h3.2V4.5h3V8h3V.5A8 8 0 0149 0a8 8 0 012.7.5v40.2l29.8-24.4a8.8 8.8 0 013.4 4.4l-5.7 4.5 2 2.2 2.6-2 1.9 2.3-2.6 2.3 2 2.4 2.5-2 2 2.3-7.2 5.8zm-61 44.1c0 2.6 2 4.2 4.3 4.5l-3.8 2.9c-2.6-1-5-4.1-5-6.8 0-.9.3-1.4.5-2h-.8c-3.4 0-6.3-3.2-7-6.5l3.9-3-.1 1c0 2.2 2 4.1 4.2 4.1s4.4-2 4.4-4.2c0-2.8-2.2-4.6-4.8-4.6-5.3 0-10.5 5-10.5 11.7 0 2 .4 3.8 1.3 5.4L8.1 76c1.6.7 2.9 2.4 3.3 4.2L9 82c2.3 2 5.1 2.8 8 2.8 6 0 10.9-4.8 10.9-9.1 0-2.5-1.7-4.7-4.3-4.7a4.3 4.3 0 00-4.4 4.3zm32 9.3c0 2.4 2 4.3 4.2 4.3 1.7 0 2.3-.6 3.5-1.6v4.9c-1.2.6-2.4 1-3.7 1-2.6 0-4.7-.8-6.1-3-1.5 2.2-3.7 3-6.3 3-1.1 0-2.4-.4-3.6-1v-4.9c1 1.1 2 1.6 3.4 1.6 2.4 0 4.2-2 4.2-4.3 0-2.2-1.5-4.3-4-4.3-4.4 0-6.2 4.2-6.2 8.1 0 5.7 4.2 10.6 9.7 11.5V97a6 6 0 012.7-.5c1 0 2 .1 2.8.5v3c5-.8 9.7-6.2 9.7-11.6 0-4-1.6-8-6.3-8-2.3 0-4 2-4 4.2zM78 65.3c0 2.2 2.2 4.2 4.5 4.2 2.1 0 4.2-2 4.2-4l-.1-1.2 3.7 3c-.6 3.7-3.8 7-7.6 6.5.2.7.3 1.2.3 2 0 2.8-2.4 6-5 6.9l-3.7-3c2.4-.2 4.3-1.8 4.3-4.4 0-2.4-2.2-4.3-4.5-4.3-2.5 0-4.3 2.2-4.3 4.8 0 3.1 3.7 9 11 9 2.9 0 5.7-.8 7.8-2.8l-2.4-1.8a6.3 6.3 0 013.4-4.2l2.3 1.8c1-1.6 1.4-3.4 1.4-5.4 0-5.2-4-11.7-10.3-11.7-2.7 0-5 1.8-5 4.6z"/>
</svg>
