<?xml version="1.0" encoding="utf-8"?>
<svg xmlns="http://www.w3.org/2000/svg" version="1.1" viewBox="0 7 420 397">
    <path d="M295.2,355.5v-11.3h-12.5v-17.6h-14.4v17.6h-8.1v11.3h8.1v33.8c0,9.6,5.6,14.4,16.9,14.4 c4.6,0,7.9-0.2,10.1-0.6v-11.9l-6.9,0.6c-3.8,0-5.6-1.8-5.6-5.6v-30.7h12.5 M352.8,379.9V368c0-7.5-2.7-13.6-8.1-18.2 c-5-4.6-11.1-6.9-18.2-6.9s-13.1,2.1-18.2,6.3c-5.9,5-8.7,11.3-8.7,18.8v13.8c0,7.1,2.7,12.7,8.1,16.9c5,3.8,11.3,5.6,18.8,5.6 c7.1,0,13.1-2.1,18.2-6.3C350.1,393.4,352.8,387.4,352.8,379.9 M339.1,366.8v15c0,7.9-4.2,11.9-12.5,11.9c-3.4,0-6.3-1-8.7-3.1 c-2.5-2.5-3.8-5.4-3.8-8.7v-15c0-7.9,4.2-11.9,12.5-11.9c3.4,0,6.3,1,8.7,3.1C337.8,360.5,339.1,363.4,339.1,366.8 M409.2,352.3 c-4.6-6.3-12.3-9.3-23.2-9.3c-6.7,0-12.1,1.8-16.3,5.6c-5,3.8-7.5,8.5-7.5,14.4c0,8.3,5.6,13.1,16.9,14.4l7.5,1.8 c7.5,1.2,11.3,3.6,11.3,6.9c0,4.6-4,6.9-11.9,6.9c-7.5,0-12.9-2.5-16.3-7.5l-10.7,7.5c5.9,7.5,14.8,11.3,26.9,11.3 c6.7,0,12.7-1.6,18.2-5c5.4-3.8,8.1-8.5,8.1-14.4c0-9.1-5.4-14.8-16.3-16.9l-8.7-1.2c-7.1-2.1-10.7-4.2-10.7-6.3 c0-4.2,3.1-6.3,9.3-6.3c5.4,0,9.9,1.8,13.1,5.6L409.2,352.3 M99.2,403v-38.8c0-14.2-6.7-21.3-20-21.3c-8.3,0-14.4,2.9-18.2,8.7 h-0.6c-3.4-5.9-8.7-8.7-16.3-8.7c-6.7,0-12.5,2.9-17.6,8.7v-7.4H13.5V403h13.8v-33.8c0-9.1,3.8-13.8,11.3-13.8 c7.1,0,10.7,4.6,10.7,13.8V403h14.4v-33.8c0-9.1,4-13.8,11.9-13.8c6.7,0,10.1,4.6,10.1,13.8V403H99.2 M153.8,344.2h-14.4V403 h14.4v-32.5c0-10.1,4.2-15,12.5-15c7.1,0,10.7,4.6,10.7,13.8v33.8h14.4v-37c0-15.4-6.9-23.2-20.6-23.2c-7.5,0-13.1,2.9-16.9,8.7 v-7.5 M126.9,344.2h-13.8V403h13.8V344.2 M113.1,320.3v15h13.8v-15H113.1 M217,344.2h-14.4v38.2c0,14.6,6.9,21.9,20.6,21.9 c7.1,0,12.7-2.7,16.9-8.1v6.9h13.8v-58.9h-14.4v33.2c0,10.1-4,15-11.9,15c-7.1,0-10.7-4.6-10.7-13.8v-34.4 M192,258.4H88.7 l-43.8,43.8H192V258.4 M189.4,88.8c0-24.2-7.7-43.6-23.2-58.2C150.4,15.5,128.1,8,99.2,8C71.3,8,49,14.7,32.3,28 C14.7,41.8,6,61,6,85.6v10.1h48.9v-7.5c0-11.3,3.6-20.2,10.7-26.9c7.5-7.1,17.6-10.7,30.1-10.7c13.3,0,23.6,3.4,30.7,10.1 c6.3,6.3,9.3,14.6,9.3,25.1v8.1c0,20.4-8.9,40.9-26.9,61.4L12.9,267.8v34.4h23.2l81.4-85.7c26.3-29.7,42.4-49.1,48.2-58.2 C181.5,134.9,189.4,111.7,189.4,88.8 M409.2,98.1c0-40-18-67.2-53.8-81.4V219c0,12.9-4,23.8-11.9,32.5 c-8.3,9.1-19.8,13.8-34.4,13.8c-14.6,0-26.1-4.6-34.4-13.8c-7.9-8.3-11.9-19.2-11.9-32.5V97.5c0-13.3,4.2-24.2,12.5-32.5 c8.3-9.1,19.8-13.8,34.4-13.8c17.1,0,30.3,6.5,39.4,19.4V14.3c-11.3-3.4-24.4-5-39.4-5c-27.9,0-51.3,7.3-70.1,21.9 c-20.8,16.3-31.3,38.4-31.3,66.3v123.3c0,28.8,10.5,50.9,31.3,66.3c18.4,13.3,41.5,20,69.5,20c27.5,0,50.7-7.3,69.5-21.9 c20.4-16.3,30.7-38.2,30.7-65.7L409.2,98.1L409.2,98.1z"/>
</svg>
