<?xml version="1.0" encoding="utf-8"?>
<svg xmlns="http://www.w3.org/2000/svg" version="1.1" viewBox="10 10 582 582">
    <rect fill="#d91918" x="10" y="10" width="582" height="582"/>
    <path fill="#ffffff" transform="translate(20)" style="fill-rule:evenodd" d="M 294.82441,507.95467 L 347.14382,507.95467 L 347.14382,83.550112 L 294.82441,83.550112 L 294.82441,507.95467 z M 197.19993,484.91963 C 197.17016,497.59617 186.97607,507.77892 174.40229,507.81116 L 71.264771,507.81116 L 71.29737,83.549758 L 174.52914,83.549758 C 186.97607,83.570664 197.17016,93.761923 197.19993,106.43846 L 197.19993,255.15034 C 197.19993,267.13983 187.37079,276.8244 175.39016,276.8244 L 173.10225,276.81235 C 186.35386,276.81235 197.19993,287.58755 197.19993,300.82747 L 197.19993,310.15487 L 197.19993,484.91857 L 197.19993,484.91963 z M 123.58985,135.93507 L 145.06654,135.93507 L 145.06654,256.83448 L 123.58985,256.83448 L 123.58985,135.93507 z M 123.58985,308.78503 L 145.06654,308.78503 L 145.06654,455.30928 L 123.58985,455.30928 L 123.58985,308.78503 z M 495.6626,507.94758 L 495.6626,83.526727 L 443.33149,83.526727 L 443.33149,157.39901 L 392.41276,157.39901 C 379.9513,157.41956 369.83374,167.61401 369.80114,180.29054 L 369.73913,484.91892 C 369.77173,497.59546 379.96299,507.77821 392.53677,507.81046 L 495.6626,507.94616 L 495.6626,507.94758 z M 443.35205,209.24503 L 421.87571,209.24503 L 421.87571,455.30999 L 443.35205,455.30999 L 443.35205,209.24503 z M 219.8615,135.93436 L 272.17772,135.93436 L 272.17772,83.544443 L 219.8615,83.544443 L 219.8615,135.93436 z M 219.8615,507.95467 L 272.17772,507.95467 L 272.17772,157.41956 L 219.8615,157.41956 L 219.8615,507.95467 z" />
</svg>
