<?xml version="1.0" encoding="utf-8"?>
<svg xmlns="http://www.w3.org/2000/svg" version="1.1" viewBox="23 10 607 83">
    <path transform="translate(130 -82)" d="M48.8 110.9a12.78 12.78 0 00-7.57-2.22c-2.5 0-4.64.5-6.42 1.43s-3.21 2.21-4.35 3.78c-1.15 1.57-2 3.36-2.57 5.43-.57 2-.79 4.14-.79 6.28 0 2.35.29 4.64.79 6.7.57 2.15 1.35 4 2.57 5.58 1.14 1.57 2.64 2.85 4.42 3.78s3.93 1.43 6.43 1.43c1.85 0 3.42-.29 4.85-.93a10.99 10.99 0 006.14-6.35c.57-1.5.93-3.07 1.07-4.79h5.57c-.58 5.29-2.36 9.35-5.43 12.28-3.07 2.93-7.28 4.35-12.63 4.35-3.21 0-6.07-.57-8.5-1.64-2.42-1.14-4.42-2.64-6-4.57s-2.78-4.2-3.56-6.92a29.79 29.79 0 01.07-17.06c.86-2.64 2.14-5 3.78-7a17.1 17.1 0 016.21-4.7 20.06 20.06 0 018.5-1.72c2.2 0 4.2.29 6.2.86 1.93.57 3.72 1.43 5.22 2.57a15.27 15.27 0 013.78 4.21 16.7 16.7 0 012 5.85H53c-.71-2.92-2.14-5.14-4.21-6.63zM64.22 125.45a14.83 14.83 0 012.78-5 12.34 12.34 0 014.64-3.35 15.9 15.9 0 016.28-1.21 16 16 0 016.36 1.21c1.78.79 3.35 1.93 4.57 3.36a13.7 13.7 0 012.78 5c.64 1.92.93 4 .93 6.2s-.29 4.29-.93 6.21c-.64 1.93-1.57 3.57-2.78 5s-2.79 2.5-4.57 3.36a15.75 15.75 0 01-6.36 1.2c-2.35 0-4.5-.42-6.28-1.2a12.94 12.94 0 01-4.64-3.36 13.7 13.7 0 01-2.78-5c-.64-1.92-.93-4-.93-6.2s.29-4.29.93-6.21zm5.07 11.07c.5 1.43 1.14 2.64 2 3.57s1.85 1.71 3 2.21c1.14.5 2.35.79 3.63.79 1.29 0 2.5-.29 3.64-.79a8.2 8.2 0 003-2.21c.86-.93 1.5-2.14 2-3.57.5-1.43.72-3.07.72-4.85 0-1.86-.22-3.43-.72-4.86a10.12 10.12 0 00-2-3.57 8.2 8.2 0 00-3-2.21 9.01 9.01 0 00-3.64-.79c-1.28 0-2.5.29-3.64.79a8.2 8.2 0 00-3 2.21c-.85 1-1.5 2.14-2 3.57-.5 1.43-.7 3.07-.7 4.86a13.1 13.1 0 00.7 4.85zM103.12 116.53v4.43h.14c2.29-3.43 5.5-5.14 9.78-5.14 1.86 0 3.57.36 5.07 1.14a6.58 6.58 0 013.21 4c1-1.64 2.36-2.93 4-3.78 1.64-.93 3.5-1.36 5.42-1.36 1.5 0 2.86.14 4.14.5 1.22.36 2.29.86 3.14 1.57a7.24 7.24 0 012.07 2.71c.5 1.15.72 2.43.72 4v22.13h-5v-19.77c0-.93-.07-1.79-.21-2.65a5.63 5.63 0 00-.86-2.14c-.43-.57-1-1.07-1.78-1.42a6.95 6.95 0 00-2.93-.5c-2.43 0-4.35.71-5.78 2.07-1.43 1.42-2.07 3.28-2.07 5.63v18.78h-5v-19.78c0-1-.07-1.85-.28-2.7a4.83 4.83 0 00-2.64-3.57 6.27 6.27 0 00-2.79-.5 7.7 7.7 0 00-3.71.85c-1 .57-1.86 1.29-2.5 2.07s-1.14 1.64-1.43 2.57a7.06 7.06 0 00-.42 2.21v18.77h-5v-30.12zM153.37 116.53v4.07h.14a7.4 7.4 0 013.86-3.64 14.17 14.17 0 015.78-1.14c2.35 0 4.35.43 6.07 1.29 1.7.85 3.14 2 4.35 3.5 1.14 1.42 2 3.13 2.57 5.06.57 1.93.86 3.93.86 6.07s-.29 4.14-.86 6.07a14.42 14.42 0 01-2.57 5 11.34 11.34 0 01-4.35 3.35 14.37 14.37 0 01-6.07 1.21 12.96 12.96 0 01-7.78-2.43 7.43 7.43 0 01-2-2.2h-.14v15.55h-5v-41.76zm17.84 10.71a9.76 9.76 0 00-1.7-3.57 8.29 8.29 0 00-2.94-2.5 8.63 8.63 0 00-4.14-.92 8.24 8.24 0 00-7.14 3.57 10.44 10.44 0 00-1.56 3.64c-.36 1.35-.5 2.7-.5 4.14 0 1.5.14 2.92.5 4.28.35 1.35.92 2.57 1.64 3.64.78 1.07 1.71 1.93 2.92 2.57s2.65.93 4.36.93c1.71 0 3.14-.36 4.28-1a8.22 8.22 0 002.78-2.64 10.69 10.69 0 001.5-3.72 22 22 0 00.5-4.35c0-1.36-.14-2.71-.5-4.07zM209.54 146.59c-.86.5-2.07.78-3.57.78a4.35 4.35 0 01-3.07-1.07c-.78-.71-1.14-1.93-1.14-3.5a11.4 11.4 0 01-4.78 3.5 15.8 15.8 0 01-5.86 1.07c-1.35 0-2.64-.14-3.85-.5s-2.28-.78-3.21-1.43-1.57-1.5-2.14-2.57a9.04 9.04 0 01-.79-3.85c0-1.71.29-3.14.86-4.21.57-1.07 1.35-2 2.28-2.64a10 10 0 013.29-1.57c1.2-.36 2.5-.65 3.78-.86 1.35-.29 2.64-.5 3.85-.64 1.22-.15 2.29-.36 3.22-.57.92-.29 1.64-.65 2.2-1.15s.8-1.2.8-2.14c0-1.07-.22-2-.65-2.64a4.5 4.5 0 00-1.57-1.5 6.88 6.88 0 00-2.14-.71c-.79-.14-1.57-.14-2.36-.14-2.07 0-3.85.42-5.28 1.21-1.43.79-2.14 2.28-2.28 4.5h-5c.07-1.86.5-3.43 1.14-4.71a9.13 9.13 0 012.79-3.14c1.14-.79 2.5-1.36 4-1.72s3.06-.5 4.78-.5a26 26 0 014.06.29c1.36.21 2.57.57 3.65 1.21 1.07.57 2 1.43 2.64 2.57.64 1.07 1 2.5 1 4.28v15.5c0 1.13.07 2 .2 2.56.15.57.58.79 1.37.79.42 0 .92-.07 1.5-.22v3.72zm-8-15.5a5.8 5.8 0 01-2.42 1c-1 .22-2.07.36-3.21.5-1.15.15-2.22.29-3.36.5-1.14.15-2.14.43-3.07.86-.93.36-1.64.93-2.21 1.64a4.6 4.6 0 00-.86 2.93c0 .78.15 1.5.5 2.07s.79 1 1.29 1.36c.5.35 1.14.57 1.85.78.72.14 1.43.21 2.22.21 1.64 0 3.07-.2 4.2-.64 1.15-.43 2.15-1 2.86-1.71a6.87 6.87 0 001.64-2.21c.36-.79.5-1.57.5-2.22v-5.06zM218.82 116.53v4.79h.14c2.07-3.64 5.36-5.5 9.78-5.5 2 0 3.64.29 5 .79a7.73 7.73 0 013.21 2.28c.79 1 1.36 2.14 1.71 3.5.36 1.35.5 2.85.5 4.5v19.84h-5V126.3c0-1.85-.56-3.35-1.64-4.42a6.1 6.1 0 00-4.5-1.64c-1.5 0-2.85.21-3.92.71a7.35 7.35 0 00-2.78 2 8.73 8.73 0 00-1.64 3 12.74 12.74 0 00-.57 3.78v17.06h-5v-30.27zM246.95 111.1v-6.06h5v6.06zm4.93 5.43v30.2h-5v-30.2zM280.99 144.8c-2.28 1.7-5.07 2.56-8.5 2.56-2.42 0-4.5-.35-6.28-1.14-1.78-.78-3.28-1.85-4.5-3.28s-2.13-3.07-2.7-5a25.18 25.18 0 01-1-6.35c0-2.28.35-4.43 1.07-6.28a16.47 16.47 0 012.92-5 13.54 13.54 0 014.5-3.28 13.6 13.6 0 015.71-1.14c2.71 0 4.93.57 6.71 1.64a13.42 13.42 0 014.28 4.21 16.93 16.93 0 012.22 5.64c.42 2 .57 3.92.5 5.78h-22.63c-.07 1.36.14 2.57.5 3.78a8.42 8.42 0 004.7 5.36c1.22.57 2.65.78 4.3.78 2.06 0 3.85-.5 5.13-1.43a6.99 6.99 0 002.64-4.42h4.93c-.79 3.28-2.29 5.85-4.5 7.57zm-1.21-19.42a8.96 8.96 0 00-1.79-2.71 8.63 8.63 0 00-6.14-2.43c-1.28 0-2.42.21-3.5.64a7.7 7.7 0 00-2.63 1.86 9.93 9.93 0 00-1.79 2.71c-.43 1-.71 2.14-.78 3.28h17.34c0-1.14-.28-2.28-.71-3.35zM294.77 139.94c.5.79 1.07 1.36 1.86 1.79a7.9 7.9 0 002.57.93c.92.21 1.92.28 2.92.28.79 0 1.57-.07 2.43-.14.86-.14 1.64-.36 2.35-.64.72-.29 1.29-.79 1.79-1.36s.71-1.35.71-2.28c0-1.29-.5-2.29-1.43-2.93-1-.64-2.2-1.21-3.64-1.57-1.42-.36-3.06-.78-4.78-1.14s-3.28-.79-4.78-1.43a8.91 8.91 0 01-3.64-2.57c-1-1.07-1.43-2.64-1.43-4.57 0-1.5.36-2.85 1-3.92.72-1.07 1.57-2 2.64-2.64a10.33 10.33 0 013.64-1.5c1.36-.36 2.64-.5 4-.5 1.71 0 3.28.14 4.71.43s2.71.78 3.86 1.5 2 1.7 2.64 2.92a10.76 10.76 0 011.14 4.57h-5a4.89 4.89 0 00-2.43-4 10.2 10.2 0 00-2.2-.85c-.8-.15-1.58-.29-2.43-.29-.72 0-1.5.07-2.22.14-.78.15-1.42.36-2.07.65-.64.28-1.14.7-1.5 1.14-.35.5-.57 1.14-.57 1.92 0 .86.29 1.58.93 2.15.57.57 1.36 1 2.28 1.42.93.36 2 .72 3.15.93 1.14.22 2.35.5 3.5.79 1.2.28 2.42.57 3.63 1 1.22.35 2.22.92 3.14 1.57s1.65 1.42 2.22 2.42c.57 1 .85 2.22.85 3.64a8.2 8.2 0 01-1.14 4.57 9.03 9.03 0 01-3 2.93 13.11 13.11 0 01-4.14 1.57c-1.57.28-3.07.43-4.57.43a20.9 20.9 0 01-4.78-.5 11.9 11.9 0 01-4-1.72 9.13 9.13 0 01-2.78-3.14 10.5 10.5 0 01-1.14-4.78h5c0 1.14.21 2.07.71 2.78zM342.73 105.03v17.92h21.98v-17.92h5.57v41.69h-5.57v-19.06h-21.98v19.06h-5.57v-41.69zM377.85 125.45a14.83 14.83 0 012.78-5 12.34 12.34 0 014.64-3.35 15.9 15.9 0 016.28-1.21 16 16 0 016.36 1.21c1.78.79 3.35 1.93 4.57 3.36a13.7 13.7 0 012.78 5c.64 1.92.93 4 .93 6.2s-.29 4.29-.93 6.21c-.64 1.93-1.57 3.57-2.78 5s-2.79 2.5-4.57 3.36a15.75 15.75 0 01-6.36 1.2c-2.35 0-4.5-.42-6.28-1.2a12.94 12.94 0 01-4.64-3.36 13.7 13.7 0 01-2.78-5c-.64-1.92-.93-4-.93-6.2a17.7 17.7 0 01.93-6.21zm5 11.07c.5 1.43 1.14 2.64 2 3.57s1.85 1.71 3 2.21 2.35.79 3.63.79 2.5-.29 3.64-.79a8.2 8.2 0 003-2.21c.86-.93 1.5-2.14 2-3.57s.71-3.07.71-4.85c0-1.86-.21-3.43-.71-4.86s-1.14-2.64-2-3.57a8.2 8.2 0 00-3-2.21c-1.14-.5-2.35-.79-3.64-.79a9 9 0 00-6.64 3c-.85 1-1.5 2.14-2 3.57-.5 1.43-.7 3.07-.7 4.86s.2 3.42.7 4.85zM432.31 146.72v-4.78h-.14c-1.07 1.86-2.43 3.21-4 4.14s-3.57 1.29-5.78 1.29c-2 0-3.64-.29-5-.79a7.6 7.6 0 01-4.92-5.7c-.36-1.36-.5-2.86-.5-4.5v-19.85h5v20.42c0 1.85.56 3.35 1.64 4.42a6.1 6.1 0 004.5 1.64c1.5 0 2.85-.21 3.92-.71 1.07-.5 2-1.14 2.78-2a8.73 8.73 0 001.64-3c.36-1.14.57-2.42.57-3.78v-16.99h5v30.2zM448.3 139.94c.5.79 1.07 1.36 1.86 1.79a7.9 7.9 0 002.57.93c.92.21 1.92.28 2.92.28.79 0 1.57-.07 2.43-.14.86-.14 1.64-.36 2.35-.64.72-.29 1.29-.79 1.79-1.36s.71-1.35.71-2.28c0-1.29-.5-2.29-1.43-2.93-1-.64-2.2-1.21-3.64-1.57-1.42-.36-3.06-.78-4.78-1.14s-3.28-.79-4.78-1.43a8.91 8.91 0 01-3.64-2.57c-1-1.07-1.43-2.64-1.43-4.57 0-1.5.36-2.85 1-3.92.72-1.07 1.57-2 2.64-2.64a10.33 10.33 0 013.64-1.5c1.36-.36 2.64-.5 4-.5 1.71 0 3.28.14 4.71.43s2.71.78 3.86 1.5 2 1.7 2.64 2.92a10.76 10.76 0 011.14 4.57h-5a4.89 4.89 0 00-2.43-4 10.2 10.2 0 00-2.2-.85c-.8-.15-1.58-.29-2.43-.29-.72 0-1.5.07-2.22.14-.78.15-1.42.36-2.07.65-.64.28-1.14.7-1.5 1.14-.35.5-.57 1.14-.57 1.92 0 .86.29 1.58.93 2.15.57.57 1.36 1 2.28 1.42.93.36 2 .72 3.15.93 1.14.22 2.35.5 3.5.79 1.2.28 2.42.57 3.63 1 1.22.35 2.22.92 3.14 1.57s1.65 1.42 2.22 2.42c.57 1 .85 2.22.85 3.64a8.2 8.2 0 01-1.14 4.57 9.03 9.03 0 01-3 2.93 13.11 13.11 0 01-4.14 1.57c-1.57.28-3.07.43-4.57.43a20.9 20.9 0 01-4.78-.5 11.9 11.9 0 01-4-1.72 9.13 9.13 0 01-2.78-3.14 10.5 10.5 0 01-1.14-4.78h5c0 1.14.21 2.07.71 2.78zM495.05 144.8c-2.28 1.7-5.07 2.56-8.5 2.56-2.42 0-4.5-.35-6.28-1.14a12.24 12.24 0 01-4.5-3.28 13.57 13.57 0 01-2.7-5 25.18 25.18 0 01-1-6.35c0-2.28.35-4.43 1.07-6.28a16.47 16.47 0 012.92-5 13.54 13.54 0 014.5-3.28 13.6 13.6 0 015.71-1.14c2.71 0 4.93.57 6.71 1.64a13.42 13.42 0 014.28 4.21 16.93 16.93 0 012.22 5.64c.42 2 .57 3.92.5 5.78h-22.63c-.07 1.36.14 2.57.5 3.78a8.49 8.49 0 004.7 5.36c1.22.57 2.65.78 4.3.78 2.06 0 3.85-.5 5.13-1.43a6.99 6.99 0 002.64-4.42h4.93c-.79 3.28-2.29 5.85-4.5 7.57zm-1.21-19.42a8.96 8.96 0 00-1.79-2.71 8.63 8.63 0 00-6.14-2.43c-1.28 0-2.42.21-3.5.64a7.7 7.7 0 00-2.63 1.86 9.93 9.93 0 00-1.79 2.71c-.43 1-.71 2.14-.78 3.28h17.34c0-1.14-.28-2.28-.71-3.35z"/>
    <g>
        <path d="M66.49 13.63c-.46.92-.92 1.47-.82 2.11.09.73.82 1.2 1.1 1.92.27-.82.82-1.46.73-2.1.09-.64-.83-1.47-1.01-1.93M78.6 13.63c.46.92.92 1.47.82 2.11-.09.73-.82 1.2-1.1 1.92-.27-.82-.82-1.46-.73-2.1 0-.64.83-1.47 1.01-1.93M59.53 13.08c.46 0 .82-.36.82-.82s-.36-.82-.82-.82-.82.36-.82.82.36.82.82.82M60.08 14.3c0-.45-.37-.82-.82-.82s-.83.37-.83.82.37.83.83.83c.45-.1.82-.37.82-.83M60.49 16.27c0-.46-.37-.83-.82-.83s-.83.37-.83.83c0 .45.37.82.83.82s.82-.37.82-.82M64.1 9.2c.46 0 .82-.37.82-.83s-.36-.82-.82-.82c-.46 0-.82.36-.82.82s.36.82.82.82M62.03 9.86c.46 0 .82-.36.82-.82s-.36-.82-.82-.82-.82.36-.82.82.36.82.82.82M60.47 11.25c.46 0 .82-.36.82-.82s-.36-.82-.82-.82c-.46 0-.82.36-.82.82s.36.82.82.82M66.2 9.44c.46 0 .82-.36.82-.82s-.36-.82-.82-.82c-.46 0-.82.36-.82.82s.36.82.82.82M68.27 10c.46 0 .82-.36.82-.82s-.36-.82-.82-.82-.82.36-.82.82.36.82.82.82M70.12 10.86c.46 0 .82-.36.82-.82s-.36-.82-.82-.82c-.46 0-.82.36-.82.82s.36.82.82.82M84.73 12.25a.82.82 0 101.65 0 .82.82 0 00-.83-.82.82.82 0 00-.82.82M85.83 13.48c-.46 0-.82.37-.82.83s.36.82.82.82c.46 0 .82-.36.82-.82s-.36-.83-.82-.83M85.42 15.44c-.46 0-.82.36-.82.82s.36.82.82.82c.46 0 .82-.36.82-.82s-.36-.83-.82-.83M81.08 9.2c.46 0 .82-.37.82-.83s-.36-.82-.82-.82-.82.36-.82.82.36.82.82.82M83.05 9.86c.46 0 .82-.36.82-.82s-.36-.82-.82-.82c-.46 0-.82.36-.82.82s.36.82.82.82M84.7 11.25c.46 0 .82-.36.82-.82s-.36-.82-.82-.82-.82.36-.82.82.36.82.82.82M78.88 9.44c.46 0 .82-.36.82-.82s-.36-.82-.82-.82c-.46 0-.82.36-.82.82s.36.82.82.82M76.9 10c.46 0 .82-.36.82-.82s-.36-.82-.82-.82-.82.36-.82.82.36.82.82.82M74.14 10.03c0 .46.37.83.82.83s.83-.37.83-.83-.37-.82-.83-.82-.82.37-.82.82M71.19 14.47h.92V11c-.37-.1-.65-.19-.92-.28zM73.98 10.72c-.27.09-.55.27-.92.27v3.48h.92zM72.04 6.83V4.72c-1 .18-1.83 1-2.02 2.1zM73.05 6.83h2.02c-.19-1.01-1.01-1.84-2.02-2.11zM70.08 7.8a2.54 2.54 0 002.47 2.02c1.2 0 2.3-.82 2.48-2.02zM73.99 4.45c-.55-.46-1-1.1-1.1-1.83.64.09 1.38.64 1.83 1.19V.97c-.45.55-1.19 1.1-1.83 1.19.1-.64.46-1.28 1.1-2.02h-2.75c.55.74 1 1.38 1.1 2.02a3.38 3.38 0 01-1.83-1.2v2.85c.46-.55 1.19-1.1 1.83-1.2-.1.74-.55 1.38-1.1 1.84zM76.94 60.63a53.24 53.24 0 01-8.52-3.03 2.2 2.2 0 00-.55-1.74c-.46-.55-1.01-.82-1.65-.82-.28 0-.55.09-.83.18a7.32 7.32 0 01-1.2-1.19 14.99 14.99 0 01-2.56-4.4c-.36-.91-.55-1.92-.73-2.92-.1.82-1.1 1.92-2.66 1.92 0-.18 0-.55-.18-.64-.46.46-1.1 1-2.48.46a20.3 20.3 0 004.58 9.52l1.66 1.65v.36c0 .64.55 1.56 1.37 2.02.64.36 1.47.27 2.1-.28 1.3.64 2.85 1.29 4.6 1.74 1.92.55 3.75.83 5.22.83 1.28 0 2.93-.55 4.58-1.65.64-.46 1.28-.92 1.74-1.28l.18-.19c-1.19.19-3.02-.18-4.67-.55M67.5 56.7l-.28-.19c-.45-.36-.91-.36-1.37 0-.18.19-.37.37-.55.65l-.28.27.19.18c.55.46.64.92.46 1.2-.1.09-.19.18-.28.18-.27.09-.64 0-1-.28l-.2-.09-.08.18c0 .1-.1.1-.1.19s-.09.09-.18.18c-.18.37-.36.73-.36.92v.18c.09.27.27.46.55.55l.09.09c.27.18.55.37.82.46-.46.27-.91.27-1.37.09-.74-.37-1.2-1.2-1.2-1.56 0-.64.28-1.37.74-2.2l.1-.09-.1-.09a2.74 2.74 0 01-.37-.73c.28 0 .55.09.83.18h.09l.1-.09c.27-.37 1.37-1.46 2.37-1.46.46 0 .92.27 1.29.64.27.27.46.64.46 1 0-.09-.19-.18-.37-.36m1.74 4.94c-.64 0-1.1-.46-1.1-1.1 0-.64.46-1.1 1.1-1.1s1.1.46 1.1 1.1c0 .64-.55 1.1-1.1 1.1m4.77 1.47c-.55 0-1.01-.46-1.01-1.01s.46-1 1-1c.56 0 1.02.45 1.02 1s-.46 1-1.01 1M75.38 68.18c-.18 0-.37 0-.55.09v-3.12a20.4 20.4 0 01-4.5-.64v3.76c-.17-.1-.36-.1-.54-.1-1.1 0-1.74.92-1.74 1.74 0 .83.46 1.56.91 2.02.19-.46.37-.82.65-.82.55 0 .27 2.65 1.83 2.74-.1.1-.1.28-.1.46 0 .64.56 1.2 1.2 1.2s1.19-.56 1.19-1.2c0-.18 0-.27-.1-.46 1.57-.09 1.3-2.74 1.84-2.74.28 0 .46.36.64.82.37-.46.83-1.2.83-2.02.18-.82-.46-1.74-1.56-1.74m-2.84 6.78a.63.63 0 01-.64-.64c0-.37.27-.64.64-.64s.64.27.64.64c.1.28-.18.64-.64.64m3.67-3.94c-.19-.36-.46-.55-.74-.55-1.1 0-.64 2.75-1.92 2.75-.55 0-.83-.36-.83-.73s.28-.55.28-.83-.28-.45-.55-.45-.55.09-.55.45c0 .28.27.46.27.83 0 .37-.27.73-.82.73-1.29 0-.83-2.75-1.93-2.75-.27 0-.55.19-.73.55a3.09 3.09 0 01-.37-1.1c0-.54.37-1.19 1.2-1.19 1.37 0 1.1 1.93 1.74 1.93.27 0 .55-.19.55-.46 0-.55-1.01-1.1-1.01-1.83s.73-1.47 1.46-2.1c.83.63 1.47 1.27 1.47 2.1 0 .82-1 1.28-1 1.83 0 .27.18.46.54.46.64 0 .37-1.93 1.74-1.93.83 0 1.2.74 1.2 1.2.36.27.27.73 0 1.1"/>
        <path d="M111.58 71.9c-.1-.18-.27-.27-.37-.18-3.57 1-8.06-1.92-12.37-4.85-3.67-2.38-7.06-4.67-10-4.67-1.1 0-2 .27-2.92.64-1.01.55-1.84 1.46-2.3 2.65s-1 2.02-1.46 2.66c-.46.82-.83 1.37-.83 2.1 0 .56.28 1.1.74 1.66.45.45 1 .82 1.92 1.28l.55.27c.73.37 1.2.55 1.28 1-1.46.65-3.3 1.2-5.4 1.57-2.39.45-4.95.64-7.7.64s-5.32-.19-7.7-.64c-2.11-.37-3.94-.92-5.41-1.56.1-.64.46-.82 1.28-1.2.19-.08.37-.17.55-.27a7.05 7.05 0 001.84-1.19c.55-.45.73-.91.73-1.55 0-.74-.37-1.29-.83-2.11a16.3 16.3 0 01-1.46-2.66 5.06 5.06 0 00-5.14-3.3c-2.93 0-6.41 2.3-10.08 4.77-4.3 2.84-8.8 5.86-12.37 4.85-.19-.09-.37 0-.37.19-.1.18 0 .36.18.45 1.1.46 2.11 1.29 3.03 1.93 1.28 1 2.57 2.01 3.85 2.01 1.28 0 2.66-.36 4.3-1.28 1.47-.73 2.94-1.74 4.4-2.75 2.85-1.92 5.78-3.93 8.62-4.21l-.82.82c-.83.74-1.56 1.38-1.56 2.66 0 1 .37 1.74.82 2.75.19.27.28.64.46 1 .28.74.46 1.29.64 2.02l.28 1.1c.18.64.55 1.92 2.57 2.93 2.38 1.19 6.5 1.83 12.19 1.83s9.8-.64 12.19-1.83c2.01-1 2.38-2.3 2.56-2.93.1-.46.19-.83.28-1.1.18-.73.27-1.28.64-2.02.18-.54.46-.91.64-1.28.46-.82.74-1.46.74-2.38 0-1.28-.74-1.92-1.65-2.75-.28-.27-.55-.55-.92-.82 2.84.18 5.77 2.2 8.61 4.21 1.47 1.01 2.94 2.02 4.4 2.75a8.77 8.77 0 004.31 1.28c1.38 0 2.57-.91 3.85-2.01.92-.74 1.93-1.47 3.03-1.93.09-.18.18-.36.18-.55M89.87 43c-.37-.27-1-.91-1.37-1.64-.46-.92-2.2-4.4-2.48-4.86a1.7 1.7 0 01-.37-1c0-.37.19-.65.37-.92.18-.18.55-.55.64-.82.1-.19.19-.28.28-.46a13.63 13.63 0 00-2.2-2.93c-1.01-1.2-2.2-2.2-3.49-3.02.65-.46 1.38-1.1 1.38-2.2 0-.64-.28-1.1-.73-1.56.73-2.29 2.01-5.13 3.11-6.32l-2.29-1c.64.91.64 2.01.55 2.65-.64-.46-1.1-1-1.28-1.74-.1.73-.46 1.83-.83 2.47.64-.27 1.2-.45 1.93-.18a2.7 2.7 0 01-2.94 1c-.82-.18-1.65-.63-1.65-1.27 0-.37.28-.83.83-.83.55.1.55.83.37 1.2.64-.37 1.37-2.3.27-2.57-.82-.19-1.56.91-1.83 1.74-.19-1.01-.55-2.02-1.38-2.02-1.1.1-.73 2.02-.36 2.57.09-.74.45-1.1.73-1.01.27 0 .64.18.55.82-.1.64-.92 1.01-2.02 1.01-1 0-2.66-.27-2.84-2.2.64.1 1.65.64 2.02 1.2-.1-1.1-.1-1.93 0-3.12a3.15 3.15 0 01-2.02 1.2c.18-.83.92-1.66 1.65-2.2h-4.22a3.83 3.83 0 011.65 2.2 3.15 3.15 0 01-2.01-1.2c.09 1.2.09 2.01 0 3.11a3.33 3.33 0 012.01-1.19c-.18 1.93-1.92 2.2-2.84 2.2-1 0-1.92-.37-2.01-1-.1-.65.27-.83.64-.83.27 0 .73.37.73 1 .37-.45.74-2.47-.36-2.56-.83-.09-1.29.92-1.38 2.02-.27-.83-1-2.02-1.83-1.74-1.01.27-.37 2.2.27 2.56-.18-.36-.09-1.1.37-1.19.55-.1.82.37.82.83 0 .64-.82 1.1-1.65 1.28a2.78 2.78 0 01-2.93-1.01c.73-.27 1.2-.18 1.93.18a8.73 8.73 0 01-.83-2.47 3.13 3.13 0 01-1.28 1.74c-.1-.64-.1-1.74.55-2.66l-2.3 1.01c1.1 1.2 2.39 4.03 3.12 6.32-.46.37-.73.92-.73 1.47 0 1.1.73 1.74 1.37 2.2a18.86 18.86 0 00-7.15 9.16c.37.36 1.75 1.82 2.02 2.28.55.73.92 1.47.92 2.02 0 1 .27 1.46.82 2.2.19.18.46 1 .46 1.55h11.55v12.64c-.46 0-.92.18-1.28.64 1.37.55 2.56 1 3.85 1.37a3 3 0 01.73-1.83s-1.65-.18-2.57-.18V44.56H84.2a14.8 14.8 0 01-3.49 9.34 10.49 10.49 0 01-3.75 2.93c-.19.1-.19.28-.46.37-.19.18-.37.55-.55 1-.19.37-.19.65-.28 1.1.55.19.83.28 1.29.37 3.94 1 4.95.73 5.13.55.92-.64 1.74-1.46 2.47-2.29a19.28 19.28 0 003.67-6.22 21.1 21.1 0 001.37-7.6c.28-.46.28-.56.28-1.1m-17.5.91H60.8c0-1.74.37-3.48.92-5.13s1.47-3.11 2.57-4.4a11.34 11.34 0 018.06-4.02v13.55zm.18-19.23c-3.85 0-6.51 1.1-8.07 2.2-.92-.55-1.28-1-1.28-1.65 0-2.2 6.14-2.38 9.25-2.38 3.12 0 9.26.18 9.26 2.38 0 .64-.36 1.1-1.28 1.65-1.38-1-4.03-2.2-7.88-2.2m.55 19.23V30.37c1.37.09 2.75.36 4.03 1 1.37.74 2.66 1.65 3.76 2.94a14.99 14.99 0 012.56 4.4c.55 1.64.92 3.38.92 5.12-.1.1-11.27.1-11.27.1z"/>
        <path d="M82.5 41.72c.18.09.1.45-.1.36a12.7 12.7 0 00-2.2-5.68c.2-.09.47-.27.47-.55-.37 0-.55.1-.74.28l-.27-.28a11.67 11.67 0 00-2.48-2.29c-.82-.54-1.74-1-2.75-1.28 0-.18.28-.27.46-.09 0-.37-.27-.55-.46-.46-.09 0-.18.1-.18.28-.1-.1-.27-.28-.55-.28 0 .28.1.37.18.55-.18 0-.27.1-.27.19-.1.18 0 .45.37.55-.19-.19-.1-.46.09-.37v4.4c-.19-.1-.46 0-.74.18.28.27.55.27.74.18v4.76c-.28 0-.28-.27-.1-.36-.36 0-.54.36-.45.45.09.1.18.19.36.19-.09.09-.18.27-.18.55a.7.7 0 00.46-.19c0 .19.1.28.18.37.19.1.46-.1.46-.46-.1.19-.46.1-.46-.09h3.3c-.09.18 0 .46.19.73.18-.27.27-.55.18-.73h3.67c0 .28-.28.28-.37.1 0 .36.37.45.46.45.09-.1.18-.18.18-.37.1.1.28.19.55.19a.7.7 0 00-.18-.46c.18 0 .27-.1.36-.18.37-.37.19-.65-.18-.65m-3.12-5.86c-.09.1-.18.19-.09.28 0 .09.1.18.37.18-.1.1-.18.28-.28.46.19 0 .37 0 .55-.1 0 .2 0 .28.1.37.09.1.18.1.27 0a11.46 11.46 0 011.65 4.58c-.1-.09-.27-.09-.46-.09 0 .28.1.37.19.55h-2.85c0-.18-.09-.37-.18-.37-.1 0-.27 0-.37.1a.7.7 0 00-.18-.46c-.18.18-.18.36-.18.46-.1-.19-.28-.19-.37-.1-.1 0-.18.19-.18.37h-2.39a.7.7 0 00.19-.46.7.7 0 00-.46.19v-3.85c.18 0 .37-.1.37-.18 0-.1 0-.28-.1-.37a.7.7 0 00.46-.18c-.18-.19-.36-.19-.46-.19.19-.09.19-.27.1-.36 0-.1-.19-.18-.37-.18v-3.3c.1.09.27.18.46.18 0-.18 0-.36-.1-.46.74.28 1.47.64 2.2 1.1.65.37 1.38 1.01 2.11 1.83"/>
        <path d="M80.55 40.47c.18-.09.27-.18.27-.27-.18.1-.27 0-.27 0 .1-.1.27 0 .1-.18-.1-.19-.2-.19-.37-.1-.1.19-1.01 0-1.01-.73l.27.28s.1 0 .1.09H80.1a.4.4 0 00.36-.37c0-.36-.28-.55-.73-.82-.19-.1-.28-.28-.37-.37-.1-.27 0-.55-.37-1 0-.1 0-.28-.09-.46-.18.27-.27.91.18 1.37.37.46 1.2.83 1.1 1.2 0 .08-.09.17-.18.17h-.18c-.1 0-.1 0-.19-.09s-.18-.09-.27-.18c-.37-.27-.64-.73-.83-1-.36-.47-.18-.92-.18-1.29.28-.37-.18-1.1-.37-1.28 0 0 .1-.18 0-.37h-.18c-.1-.09-.1-.18-.18-.18-.19 0-.19-.1-.19-.18-.09.09-.09.18-.18.18h-.27c-.1.09-.1.09-.28.09-.18 0-.18.1-.1.18 0 .1 0 .19.1.19l.1.18.08-.18c.1-.1.28-.1.28.09 0 .09 0 .09-.1.18h-.36c-.1 0-.1.1-.1.18 0 .1.1.1.28.1.19 0 .46-.1.46.09 0 .36-.46.36-.55.82l-.27-.27c-.1-.1-.19-.28-.37-.46-.1-.1-.18-.18-.37-.28-.18-.09-.18-.18-.18-.36s.1-.28.1-.37v-.09c0-.1-.2-.18-.2-.1 0 0 .1.1.1.2l-.1.08v.19c0-.1-.08-.28-.17-.28h-.1c0-.09-.09-.18-.27-.09h.1v.1c0 .08.08.18.17.18-.18-.1-.27 0-.27.09v.09c-.1 0-.1.18 0 .18v-.09l.1.1h.18c-.1.08-.1.17 0 .27-.1.09-.28.09-.28-.1-.18.28.1.46.27.37v.28s0-.1.1-.1c0 .1 0 .1.09.19v-.1c0 .1.09.1.09.19.1.18.27.64.82.82-.27.19-.36.37-.55.55-.09.1-.36.28-.45.19-.1 0-.1-.1-.19-.19-.09 0-.09-.09-.18 0h-.1c-.08 0-.18 0-.27.1h.19v.09c0 .09 0 .09.27.09 0 0-.1.09-.1 0-.08 0-.17-.1-.27 0l-.09.09c-.09 0-.18.18-.09.27 0 0 0-.09.1-.18 0 0 0 .1.08.1.1.08.19.18.28-.1 0 .1-.1.28 0 .28h.1c0 .09.17.18.27.09-.1 0-.1-.1-.19-.19h.1c.09-.09 0-.18 0-.27 0 .1.09.18.27.1.1 0 .1-.1.1-.2.17-.08.27-.08.45-.08 0-.1.1-.19.27-.28.19-.1.28 0 .28.1 0-.1.1-.2.18-.28 0 .73.92.64 1.2 1.1-.28-.1-.65-.19-.74-.19-.27 0-.64.28-.64.55 0 .19.18.64.37.74-.28.09-.37 0-.65 0-.18 0-.27-.37-.45-.28 0 0-.1 0-.1.1-.09 0-.27.08-.18.18 0 0 .1-.1.18-.1v.1s0 .09.1.09h.09c0 .09-.28-.1-.28.18 0 0 0 .1.1.1 0 .08.09.18.18.08l-.1-.09h.1v.19c0 .09.09.18.27.09 0 0-.09 0-.09-.1h.1v-.09h.08c0 .1.1.1.19.1s.09-.1.09-.1.1 0 .1.1c0-.1 0-.19.27 0l.18-.1s.18.1.27 0c.1-.09.1-.09.1-.27-.1-.18-.19-.18-.19-.37-.09-.36.46-.55.74-.46.09.19.36.83.91 1.01.37.1.46-.27.55-.18l.1.1v.36c0 .09-.19 0-.37 0-.1 0-.1 0-.1.09a.2.2 0 00-.18.18s.1-.09.19-.09v.1c0 .08.18.17.27.08 0 0 .1 0 0 0-.1.1-.18.19-.1.28h.1c0 .09.1.18.1.18v-.18h.08c.1 0 .1-.19.19-.19 0 .1-.1.19 0 .28h.09c0 .1.1.1.27.1 0 0-.09 0-.09-.1l.1-.1c.09-.18-.1-.18-.1-.27 0-.09.19 0 .19-.27.09-.1.18-.1.27-.18.18.09 0 0 0 0zM71.07 46.85h-.18v-.18c0-.64-.37-1.19-1.1-1.19-.64 0-1.93.83-3.67.83a5.6 5.6 0 01-2.2-.65l-.18.55v-.09c0-.27-.19-.46-.46-.46s-.46.19-.46.46c0 .28.18.46.46.46.1 0 .27-.1.37-.18l-.19.55c.1 0 .19.09.19.09-.28 2.65 1.74 6.04 5.13 7.05.55-.1 1-.1 1 .46 0 .36-.18.46-.45.46-.18 0-.37-.1-.37-.28 0-.27.37-.1.46-.27.1-.19-.1-.28-.37-.28s-.64.18-.64.55c0 .46.37.73.83.73.36 0 1.19-.18 1.1-1.19.18 0 .36 0 .46-.18v-.55h-.19l.19-6.04h.09c.18 0 .46-.1.46-.37.09-.18-.1-.27-.28-.27m-6.23.45l4.21 6.05c-2.29-.92-4.49-2.93-4.21-6.05m4.3 5.4l-3.84-5.49h.91l3.12 4.4c-.1.45-.18.82-.18 1.1m.27-1.74l-2.75-3.85.83-.28 2.01 2.94c0 .36 0 .82-.09 1.19m.64-4.22h-.18a.5.5 0 00-.46.28c0 .27.18.36.37.36h.09v.19c-.1.36-.18.91-.28 1.55l-1.74-2.47c.83-.27 1.47-.64 1.84-.64s.45.18.36.73M70.36 34.63c.82 0 1.2-.28 1.2-.55 0-.92-2.3-.37-2.3-.92 0-.1.1-.18.18-.27 1.1-.1 1.2-.92 1.93-1.01-1.01-.19-1.1.64-1.56.64.18-.1.27-.37.27-.46-.18.28-.64.28-.91.55 0 .1-.1.1 0 .18-.18.1-.28.19-.28.37 0 .82 2.3.27 2.3.92 0 .18-.37.36-1.01.36-.46 0-.83-.36-1.65-.09 0-.18.27-.46.18-.55.1 0 .18-.1.18-.18-.09-.1-.09-.1-.18-.1v-.09s0-.09-.1-.09c0 0-.08-.09-.17-.09-.1-.09-.19-.09-.19-.09h-.09c-.1 0-.1 0-.1.1 0 0-.08-.1-.18-.1 0 .1-.09.1 0 .27-.09 0-.18.19-.27.19 0 .09.1.09.1.09-.1.1-.1.27-.2.27 0 0 0 .1.1.1-.1.18-.1.36-.1.54l-.17-.18c-.1-.09-.1-.18-.1-.27 0-.1.1-.19.1-.28v-.09c0-.1-.1-.1-.19-.1l.1.1-.1.1s-.09.08 0 .08v.1c0-.1 0-.19-.09-.19h-.1c0-.09-.08-.18-.17-.09h.09v.1c0 .08 0 .08.18.08-.18-.09-.27 0-.27.1v.09c-.1 0-.1.09 0 .18 0 0 0-.1.09-.1h.09c-.1.1-.1.2 0 .2 0 .18-.28.18-.28 0-.18.18.1.36.28.27 0 0 0 .09.09.09h.1s0 .09.08.09v-.1s.1.2.19.28c-.19.1-.46.19-.55.19h-.37c-.1.09-.46.18-.55.09 0 0 0-.1-.1-.19l-.08-.09h-.1c-.09-.09-.18-.09-.18 0 0 0 .1 0 .1.1v.09s0 .09.18.18h-.1c-.09-.1-.09-.18-.18-.1h-.09a.2.2 0 00-.18.2s0-.1.09-.1v.1c0 .08.09.17.27 0-.09.08-.18.17-.09.27h.1c0 .09.09.18.18.18 0 0-.1-.1-.1-.18h.1c.09 0 .09-.19.09-.19 0 .1 0 .19.18.19.1 0 .19-.1.19-.19l.09.1s.09 0 .09-.1v.19s.18-.1.18-.19v.1h.28v.09-.1s0 .1.09.19c0-.28.18-.19.37-.28 0 0 0 .1-.1.1.1 0 .28-.1.28-.19l.09-.1c.1 0 .18 0 .18-.08v.18c.19 0 .37-.18.46-.27.46-.1-.27-.37.64-.37.1 0 .19 0 .28-.1-.1.1-.1.37.09.47.1 0 .18.09.18.09-.09 0-.18 0-.18.09-.18.1-.18-.28-.46-.18h-.09a.2.2 0 00-.18.18s.09-.1.18-.1c0 0 0 .1.1.1h.08c0 .1-.27 0-.18.18v.1c0 .09.1.18.18.09 0 0-.09 0-.09-.1h.1v.19c0 .09.09.18.27.09 0 0-.1 0-.1-.1h.1v-.08h.09c0 .09.1.09.18.09.19-.1 0-.19.19-.19h.36c0-.09 0-.27-.09-.36-.09 0 0-.1-.09-.28.1.1.28.1.46.1.27 0 0-.1.18-.1.19-.09.37-.09.37 0 0 0 .09 0 .09.1v.27c0 .1-.18 0-.27 0h-.1a.2.2 0 00-.18.18s.1-.09.18-.09c0 .1.1.18.19.1-.1.08-.19.18-.1.18h.1c0 .09 0 .18.09.18v-.1h.09c.1 0 0-.08.1-.18v.19h.08c0 .09.1.09.19.09 0 0-.1 0-.1-.1l.1-.08c0-.19-.1-.19-.1-.28 0-.1.19 0 .19-.18 0 0 0-.1-.1-.1 0 0 .1 0 .1-.09-.1 0-.1-.09-.1-.18 0 0 .1-.09.1-.18 0 .09-.18.09-.18 0 0 0 0-.1-.1-.1-.27.1-.36-.08-.73-.08-.1 0-.1 0 0 0m-1.92-1.1s.18.09.27.09c-.1 0-.1.09-.18.09-.1 0-.1-.1-.1-.18m-.18-.1c0 .1-.09.1-.18.1-.1-.1 0-.1-.1-.19.1 0 .28.1.28.1m-.27.54s.09-.09 0 0l.18-.18c0-.1 0-.1-.1-.1.1 0 .1 0 .1-.08h-.1l.1-.1h.1l.18.1v.19s0-.1-.1-.1v.1h-.09v.17c0 .1-.09.1-.27 0M71.49 37.69c0-.28-.27-.37-1.1-.37-.82 0-2.66.27-2.66-.18 0-.19.37-.19.74-.19 0 0 .09.1.18.1 1 .27 2.29-.28 2.93-.1-.73-.55-1.37 0-2.1-.18.45 0 .64-.1.64-.28-.37.28-1.01-.09-1.47.19 0 0-.1 0-.1.09-.54 0-1 0-1 .37 0 .82 2.2.36 2.84.36.64 0 .82.1.82.19 0 .18-.64.27-1 .27-.55 0-2.39-.27-3.4-.1.1-.17.28-.36.19-.54.09 0 .18-.1.18-.18-.09-.1-.09-.1-.18-.1 0-.09 0-.09-.1-.18 0 0 0-.1-.08-.1 0 0-.1-.08-.28-.17-.1-.1-.18-.1-.27-.1h-.19c-.09 0-.09 0-.09.1-.1-.1-.1-.1-.18-.1 0 .1-.1.19 0 .28-.1 0-.19.27-.28.18 0 .1.1.1.1.1-.1.18-.1.27-.19.27l.1.09v.27l-.2-.09h-.08.09-.1c-.08-.09-.18-.18-.36-.27-.18-.1-.18-.18-.18-.37s.09-.27.09-.36v-.1a.2.2 0 00-.18-.18s.09.1.09.18l-.1.1v.28c0-.1-.09-.28-.18-.28h-.09c0-.1-.1-.19-.27-.1h.09v.1c0 .09.09.18.18.18v.1c-.18-.1-.27 0-.27.08v.1c-.1.09-.1.18 0 .18v-.1h.18c-.1.1-.1.28 0 .28 0 .18-.37.18-.28 0-.18.28.1.46.37.37 0 0 0 .09.1.09 0 0 0-.1.08-.1 0 .1 0 .1.1.19v-.1s.18.2.36.28c.19.1.28.19.37.1 0 .18.1.36.1.36h-.56c-.18.1-.55.18-.64.1 0-.1 0-.1-.1-.2 0-.08-.08-.08-.08-.08h-.1c-.09-.1-.18-.1-.27 0 0 0 .1 0 .18.09v.1c0 .08 0 .08.19.17h-.1c-.09-.09-.09-.18-.18-.09h-.1c-.08 0-.27.1-.17.28l.09-.1v.1c0 .09.09.18.36.09-.09.09-.18.18-.09.27h.1c0 .19.09.28.18.28 0 0-.1-.1-.1-.19h.1c.09-.09.09-.18.09-.27 0 .1 0 .18.18.18.1 0 .19-.09.19-.18 0 0 .09.1.09.18 0 0 .09 0 .09-.09 0 .1 0 .18-.1.28.1 0 .2-.1.2-.28 0 0 0 .1.08.1h.28v.09s0-.1.09-.1c0 0 0 .1.1.19 0-.37.17-.19.45-.37 0 0 0 .1-.1.1.28.08.65-.28.74-.47h.28c.73.1.18-.64 1.37-.45.1 0 .18-.1.28-.1-.1.19-.1.46.09.46.09 0 .18.1.27.1-.09 0-.18 0-.18.09-.28.18-.28-.37-.46-.28 0 0-.1 0-.1.1-.08 0-.27.08-.17.18 0 0 .09-.1.18-.1v.1s0 .09.09.09h.1c0 .09-.37-.1-.28.18v.1c0 .08.09.18.18.08l-.1-.09h.1v.19c0 .09.1.18.28.09 0 0-.1 0-.19-.1h.1v-.09h.18c0 .1.09.1.18.1.18-.1 0-.19.18-.28H69.38c0-.1 0-.27-.09-.37-.1 0 0-.18-.1-.27.2.1.28.1.47.1.36 0 .46-.1.64-.2.18-.08.37-.08.46 0 0 0 .09 0 .09.1v.27c0 .1-.18 0-.28 0-.09 0-.09 0-.09.1a.2.2 0 00-.18.18s.09-.1.18-.1c0 .1.19.2.28.1-.1.1-.19.18-.1.18h.1c0 .1.09.19.09.19v-.19h.09c.1 0 0-.18.1-.18 0 .1-.1.18 0 .27h.08c0 .1.1.1.19.1 0 0-.1 0-.1-.1l.1-.09c.09-.18-.1-.18-.1-.27 0-.1.19 0 .19-.19 0 0 0-.09-.1-.09.1 0 .1 0 .19-.09-.18 0-.1-.1-.1-.18.1 0 .1-.1.1-.19-.1.1-.18.19-.18 0 0 0 0-.09-.19-.09-.27 0-.45 0-.91-.09.46 0 1.28-.09 1.28-.36m-5.04-.74s.18.1.27.1c-.18 0-.09.09-.18.09-.1 0-.1-.1-.1-.19m-.17-.09c0 .1-.1.1-.19.1-.09-.1 0-.1-.09-.2.1 0 .28.1.28.1m-.28.64c0-.09.1-.09 0 0 .18-.09.18-.09.18-.18 0-.1 0-.1-.09-.1.1 0 .1 0 .1-.08h-.1s0-.1.1-.1h.09l.27.1s.1 0 .1.09v.09s0-.1-.1-.1v.1c-.1 0-.1-.1-.18 0v.18c0 .1-.1.19-.19.1-.27.09-.27 0-.18-.1m.64 1.47M71.09 41.18c0-.28-.27-.37-1-.37-.74 0-3.12.27-3.12-.18 0-.28.82-.19 1.37-.19 0 0 .1.1.18.1 1.01.27 2.02-.37 2.75-.19-.55-.55-1.28.1-2.01-.1.46 0 .91-.08.91-.17-.36.18-1.28-.19-1.74.09 0 0-.09 0-.09.09-.73 0-1.65-.1-1.65.37 0 .73 2.66.27 3.3.27.64 0 .83.1.83.18 0 .19-.65.19-1.01.19-.55 0-3.12-.37-4.13 0 .1-.19.28-.46.19-.55.09 0 .18-.1.18-.19-.1-.09-.1-.09-.18-.09v-.09s0-.1-.1-.1l-.18-.17c-.1-.1-.18-.1-.18-.1h-.19c-.09 0-.09 0-.09.1 0 0-.09-.1-.18-.1 0 .1-.1.19 0 .28-.1 0-.18.27-.28.18 0 .1.1.1.1.1-.1.09-.1.27-.19.27l.1.09v.28H64.38c-.08 0-.17-.19-.45-.37-.18-.1-.18-.18-.18-.28 0-.09.09-.27.09-.36v-.1c0-.09-.18-.18-.18-.09l.09.1-.1.09v.19c0-.1-.09-.28-.18-.28h-.09c0-.1-.1-.19-.18-.1h.09v.1c0 .09.1.09.18.18-.18-.1-.27 0-.27.1v.08c-.1.1-.1.1 0 .19v-.1h.27c-.09.1-.09.19.1.28 0 .18-.28.18-.28 0-.18.27.1.46.37.27 0 0 0 .1.09.1h.09c0 .09 0 .09.1.18v-.1s.17.28.54.46c.1 0 .18 0 .18-.09 0 0 0 .1.1.1 0 .18.09.27.09.27h-.64c-.19.1-.46.18-.65.1 0-.1 0-.1-.09-.2 0-.08-.09-.08-.09-.08h-.1c-.08-.1-.17-.1-.27 0 0 0 .1 0 .19.09V42c0 .1 0 .1.18.18h-.1c-.08-.09-.08-.18-.17-.09h-.1c-.09 0-.27.1-.18.28l.1-.1v.1c0 .09.08.18.27.09-.1.09-.19.18-.1.27h.1c0 .1.09.28.18.19 0 0-.1-.1-.1-.19h.1c.1 0 .1-.18.1-.18 0 .09 0 .18.18.18.09 0 .18-.09.18-.18 0 0 .1.09.1.18l.08-.09c0 .1 0 .18-.09.18.1 0 .18-.09.18-.18v.1h.28v.08s0-.09.1-.09c0 0 0 .1.08.19 0-.37.46-.19.64-.28 0 0 0 .1-.09.1.1 0 .19 0 .28-.1l.36-.18v-.1h.1c.18 0 .18-.18.27-.18 1.28.19.55-.55 2.02-.36.09 0 .09 0 .18-.1-.1.19-.1.37.1.37.08 0 .18.1.27.1-.1 0-.19 0-.19.08-.27.19-.27-.36-.45-.27 0 0-.1 0-.1.1-.09 0-.27.08-.18.17 0 0 .1-.09.18-.09v.1s0 .09.1.09h.09c0 .09-.28-.1-.28.18v.09c0 .1.1.18.19.1l-.1-.1h.1v.18c0 .1.09.19.27.1 0 0-.1 0-.1-.1h.1v-.09h.18c0 .1.1.1.19.1.18-.1 0-.19.18-.28H69.35c0-.1 0-.28-.1-.37-.08 0 0-.18-.08-.27.18.09.27.09.45.09.37 0 .46-.1.55-.18.19-.1.37-.1.46 0 0 0 .1 0 .1.09v.27c0 .1-.19 0-.28 0-.1 0-.1 0-.1.1a.2.2 0 00-.18.18s.1-.1.19-.1c0 .1.18.19.18.1-.1.09-.18.18-.1.18h.1c0 .1.1.18.1.18v-.18h.08c.1 0 0-.18.1-.18v.18h.09c0 .1.09.1.18.1 0 0-.1 0-.1-.1l.1-.1c.1-.17-.1-.17-.1-.27 0-.09.2 0 .2-.18 0 0 0-.1-.1-.1.1 0 .1 0 .1-.08-.2 0-.1-.1-.1-.19 0 0 .1-.09.1-.18 0 .1-.2.18-.2 0 0 0 0-.09-.17-.09-.28 0-.37 0-.83-.1.37.2 1.1.1 1.1-.17m-5.6-.65s.2.1.28.1c-.09 0-.09.09-.18.09-.1 0-.1-.1-.1-.19m-.17-.09c0 .1-.1.1-.19.1-.09-.1 0-.1-.09-.19.1 0 .28.1.28.1m-.28.63c.18-.09.18-.09.18-.18 0-.1 0-.1-.09-.1.1 0 .1 0 .1-.08h-.1l.1-.1h.09l.27.1s.1 0 .1.09v.1s0-.1-.1-.1v.1h-.18v.17c0 .1-.1.1-.19.1-.18 0-.18-.1-.18-.1M82.05 47.04c.1-.09.1-.09.1-.27-.1.1-.2.18-.2 0 0 0 0-.1-.17-.1-.28 0-.46 0-.92-.08 0 0-.1 0 0 0 .46 0 1.28-.1 1.28-.37s-.27-.37-1-.37-3.12.28-3.12-.18c0-.27.82-.18 1.37-.18 0 0 .1.09.19.09 1 .27 2.1-.46 2.74-.27-.73-.28-1.28.18-2.01 0 .46 0 .92-.1.92-.19-.37.19-1.29-.18-1.75.1 0 0-.09 0-.09.09-.73 0-1.65-.1-1.65.36 0 .73 2.66.28 3.3.28s.83.09.83.18c0 .18-.65.27-1.01.27-.64 0-3.12-.36-4.13 0 .1-.18.28-.45.19-.55.09 0 .18-.09.18-.18-.1-.09-.1-.09-.18-.09v-.1s0-.08-.1-.08l-.18-.19c-.09-.09-.18-.09-.18-.09h-.1c-.08 0-.08 0-.08.1-.1 0-.1-.1-.19-.1 0 .1-.09.18 0 .28-.09 0-.18.27-.27.18 0 .1.09.1.09.1-.1.08-.1.27-.18.27l.09.09v.18h-.28c-.09 0-.18-.18-.46-.37-.18-.09-.18-.18-.18-.27 0-.1.1-.27.1-.37v-.09c0-.09-.1-.18-.2-.09l.1.1-.1.08v.19c0-.1-.08-.19-.17-.28h-.1c0-.09-.09-.18-.18-.09h.1v.1c0 .08.08.18.18.18-.19-.1-.28 0-.28.09v.09c-.1 0-.1.09 0 .18v-.09h.28c-.1.1-.1.27.09.27 0 .19-.28.19-.28 0-.18.28.1.46.37.28 0 0 0 .1.1.1h.08c0 .08 0 .08.1.17v-.09s.18.28.45.46c0 0 .1-.1.19-.1 0 .1.09.1.09.2h.09c0 .18.18.27.1.27h-.47c-.18.09-.46.18-.64.09 0-.1 0-.1-.1-.18 0-.1-.08-.1-.08-.1h-.1c-.09-.09-.18-.09-.27 0 0 0 .1 0 .1.1v.09c0 .09 0 .09.18.18h-.1c-.09-.1-.09-.18-.18-.1h-.1c-.08 0-.27.1-.17.28l.09-.09v.1c0 .08.09.18.27.08-.09.1-.18.19-.09.28h.1c0 .1.08.18.18.18 0 0-.1-.09-.1-.18h.1c.09 0 .09-.18.09-.18 0 .09 0 .18.18.18.1 0 .18-.1.18-.18 0 0 .1.09.1.18l.09-.1c0 .1 0 .2-.1.28.1 0 .19-.09.19-.27 0 0 0 .09.1.09h.27v.1s0-.1.09-.1c0 0 0 .1.09.18 0-.36.18-.18.46-.36 0 0 0 .09-.1.09.1.09.37-.1.37-.28 0 0 .1 0 .19-.09.18 0 .18-.18.27-.18 1.28.18.55-.55 2.02-.37.09 0 .09-.09.18-.18-.1.18-.1.46.1.46.08 0 .18.09.27.09-.1 0-.19 0-.19.09-.18.18-.27-.37-.45-.27 0 0-.1 0-.1.09a.2.2 0 00-.18.18s.1-.1.18-.1v.1s0 .1.1.1h.09c0 .08-.28-.1-.28.17 0 0 0 .1.1.1 0 .09.09.18.18.09l-.1-.1h.1v.19c0 .1.09.18.27.1 0 0-.09 0-.09-.1h.1v-.1h.08c0 .1.1.1.19.1.18-.1 0-.18.18-.18H80.31c0-.1 0-.28-.1-.37-.08 0 0-.18-.08-.27.18.09.27.09.45.09.37 0 .46-.1.65-.19.18-.09.36-.09.45 0 0 0 .1 0 .1.1-.1.18 0 .18 0 .27 0 .1-.19 0-.28 0-.1 0-.1 0-.1.1a.2.2 0 00-.17.17s.09-.09.18-.09c0 .1.09.19.18.1-.09.09-.18.18-.09.18h.1c0 .09 0 .18.08.18v-.18h.1c.09 0 .09-.19.18-.19 0 .1-.1.19 0 .19h.09c0 .09.1.09.18.09 0 0-.09 0-.09-.1l.1-.08c.09-.19-.1-.19-.1-.28 0-.09.19 0 .19-.18 0 0 0-.1-.1-.1.1 0 .1 0 .19-.08-.46.27-.37.09-.37 0m-5.6-1.38s.2.1.28.1l-.09.08a.2.2 0 01-.18-.18m-.18-.09c0 .1-.1.1-.19.1-.09-.1 0-.1-.09-.2.1 0 .28.1.28.1m-.28.64c0-.09.1-.09 0 0 .18-.09.18-.09.18-.18 0-.1 0-.1-.09-.1.1 0 .1 0 .1-.09h-.1v-.09h.1l.27.1v.18s0-.1-.1-.1v.1c-.08 0-.08-.1-.18 0v.18c0 .1-.09.1-.18 0m-.18-.37zM78.59 48.98c0 .1.1.1.18.1.92.27 2.02-.46 2.57-.28-.73-.27-1.2.19-1.92 0 .45 0 .82-.09.91-.18-.37.18-1.19-.1-1.65.09h-.09c-.55 0-.92 0-.92.37 0 .73 1.93.27 2.57.27s.55.1.55.18c0 .19-.73.19-1 .19-.56 0-2.12-.28-3.12-.1.09-.18.27-.36.18-.45.09 0 .18-.1.18-.18-.09-.1-.09-.1-.18-.1v-.09s0-.09-.1-.09c0 0-.08-.1-.18-.18-.09-.1-.18-.1-.18-.1h-.1c-.08 0-.08 0-.08.1 0 0-.1-.1-.19-.1 0 .1-.09.19 0 .28-.09 0-.18.18-.27.18 0 .1.09.1.09.1-.1.09-.1.27-.18.27l.09.1c0 .08 0 .17-.1.27h-.08c-.1 0-.19 0-.37-.1s-.18-.18-.18-.27c0-.1.09-.28.09-.37v-.09c0-.09-.1-.18-.19-.09l.1.1-.1.08v.19a.2.2 0 00-.18-.19h-.1c0-.09-.08-.18-.17-.09h.09v.1c0 .09.09.09.18.09-.18-.1-.27 0-.27.09v.09c-.1 0-.1.09 0 .18v-.09h.18c-.1.1-.1.18.09.27 0 .19-.27.19-.27 0-.19.28.09.46.36.28 0 0 0 .1.1.1 0 .08 0 .08.09.08v-.09s0-.1.27.1c0 0 0 .08.1.08h.18v.37h-.46c-.1.1-.46.18-.55.1 0-.1 0-.1-.1-.2 0-.08-.09-.08-.09-.08h-.09c-.09-.1-.18-.1-.27 0 0 0 .09 0 .09.09v.09s0 .1.18.18h-.09c-.1-.09-.1-.18-.18-.09h-.1c-.09 0-.27.1-.18.19 0 0 0-.1.1-.1v.1c0 .09.09.18.27 0-.1.09-.18.18-.1.27h.1c0 .1.09.18.18.18 0 0-.09-.09-.09-.18h.1c.08 0 .08-.18.08-.18 0 .09 0 .18.19.18.09 0 .18-.1.18-.18 0 0 .1.09.1.18l.08-.1c0 .1 0 .2-.09.2.1 0 .19-.1.19-.2 0 0 0 .1.09.1h.27v.1s0-.1.1-.1c0 0 0 .1.09.18 0-.36.27-.27.45-.36 0 0 0 .09-.09.09.19.09.46-.18.55-.37l.1-.09v.1c.18 0 .18-.2.27-.2.64.1.18-.54 1.19-.36.1 0 .18-.09.28-.09-.1.1-.1.46.09.46.09 0 .18.09.27.09-.09 0-.18 0-.18.1-.18.18-.18-.37-.46-.28h-.1a.2.2 0 00-.17.18s.09-.1.18-.1v.1s0 .1.09.1h.1c0 .08-.28-.1-.28.18v.09c0 .09.09.18.18.09l-.1-.1h.1V51c0 .1.1.18.28.1 0 0-.1 0-.1-.1h.1v-.1h.09c0 .1.09.1.18.1.18-.1 0-.18.18-.18H79.23c0-.1 0-.28-.09-.37-.1 0 0-.1-.1-.27.1.09.28.09.47.09.36 0 .46 0 .64-.1s.37-.09.46 0c0 0 .09 0 0 .1-.1.18 0 .18-.1.27-.09.1-.18 0-.27 0h-.1a.2.2 0 00-.17.19s.09-.1.18-.1c0 .1.09.19.18.1-.09.09-.27.18-.18.18h.09c0 .09 0 .18.1.18 0 0 0-.09.08-.18h.1c.09 0 .09-.18.18-.18-.1.09-.1.18 0 .18h.09c0 .09.1.09.18.09 0 0-.09 0-.09-.1l.1-.08c.09-.19-.1-.19 0-.28 0-.09.18 0 .27-.18 0 0 0-.1-.1-.1.1 0 .1 0 .19-.08-.1 0-.1-.1-.1-.19.1 0 .1-.09.1-.18-.1.1-.18.1-.18 0 0 0 0-.1-.1-.1-.18 0-.54 0-.91-.08.46 0 1.28-.1 1.28-.37 0-.18 0-.37-.73-.37s-2.38.28-2.38-.18c-.46.28-.1.28.27.28m-2.38 0c0 .09-.1.09-.19.09-.09-.1 0-.1-.09-.19.1 0 .19.1.28.1m.18.45c-.1 0-.1-.09 0 0-.18-.09-.1-.09 0 0h-.18v.19s-.1.09-.19.09-.09-.1-.09-.19.1-.09.1-.09c.09 0 .09 0 .09-.09s0-.09-.1-.09c.1 0 .1 0 .1-.1h-.1v-.08h.1l.27.09v.27m.1-.18c-.1 0-.1-.1-.1-.18 0 0 .18.09.28.09-.1 0-.1.09-.19.09M77.77 52.43c0 .09.1.09.18.09.92.27 2.02-.46 2.57-.28-.73-.27-1.2.19-1.92 0 .45 0 .82-.09.91-.18-.37.18-1.19-.18-1.65.09 0 0-.09 0-.09.1-.27.08-.55.18-.55.45 0 .64 2.38.1 2.38.37 0 .18-.46.36-1.1.36-.45 0-1.28-.27-2.38-.09.1-.18.28-.46.18-.55.1 0 .19-.09.19-.18-.1-.1-.1-.1-.19-.1v-.08s0-.1-.09-.1c0 0-.09-.09-.18-.09-.1-.09-.18 0-.18-.09h-.1s-.09 0-.09.1c0 0-.09-.1-.18-.1 0 .1-.1.18 0 .27-.1 0-.18.19-.28.19 0 .09.1.09.1.09-.1.1-.1.27-.19.27l.1.1c0 .18-.1.45 0 .55-.19-.19-.37-.46-.56-.55-.18-.1-.18-.19-.18-.28 0-.09.1-.18.1-.37v-.09c0-.09-.1-.09-.2-.09l.1.1-.1.08v.19a.2.2 0 00-.17-.18h-.1c0-.1-.09-.19-.18-.1h.1v.1c0 .09.08.09.18.09-.19-.1-.19 0-.28.09v.09c-.1 0-.1.1 0 .18v-.09h.18c-.09.1-.09.18.1.18 0 .19-.28.19-.28 0-.18.19.1.37.28.28 0 0 0 .1.09.1 0 .08 0 .08.09.08v-.09s0 .28.27.46c.1.18.19.27.37.27.1.1.1.19.1.19h-.47c-.09 0-.18.09-.27.09-.1 0-.18 0-.28-.1 0 0 0-.08-.09-.18 0-.09-.09-.09-.09-.09h-.1c-.08-.09-.17-.09-.17 0 0 0 .09 0 .09.1v.09s0 .09.18.18h-.1c-.08-.1-.08-.18-.17-.1h-.1a.2.2 0 00-.18.19s0-.1.1-.1v.1c0 .1.08.18.27 0-.1.1-.19.18-.1.27 0 .1.1.19.19.19 0 0-.1-.1-.1-.19h.1c.09 0 .09-.18.09-.18 0 .1 0 .18.18.18.1 0 .19-.09.19-.18l.09.1s.09 0 .09-.1c0 .1 0 .1-.1.18 0 0 .2-.09.2-.18v.1h.27v.08s0-.09.09-.09c0 0 0 .1.09.19 0-.28.18-.19.37-.28 0 0 0 .1-.1.1.1 0 .28-.1.28-.19 0 0 .18-.18.18-.55h.1c.27 0 .36-.18.64-.18-.1.09-.1.27-.1.36 0 .1.19.28.28.37-.1 0-.18 0-.18.1-.19.08-.19-.28-.46-.2l-.1.1a.2.2 0 00-.18.18s.1-.09.19-.09c0 0 0 .1.09.1h.09c0 .08-.27-.1-.18.18v.09c0 .09.09.18.18.09l-.1-.1h.1v.2c0 .08.1.17.28.08 0 0-.1 0-.1-.09h.1v-.1h.09s.09.1.18.1c.18-.1 0-.18.18-.18h.1c.09 0 .18.09.27 0 0-.1 0-.28-.1-.37-.08 0 .1-.46-.27-.73.19 0 .74.1.83 0 .18 0 .37.18.37.18v.1c-.19.09-.1.09-.19.18l-.18-.19h-.1c-.08 0-.18 0-.18.1h.19v.09c-.1 0-.28 0-.19.09v.09c-.09 0-.09.1 0 .18 0 0 0-.09.1-.09v.1s.09-.1.18-.1c-.1 0-.18.1-.1.18v.1c0 .09 0 .18.1.18v-.1h.09c.18-.08.1-.18.1-.27.08-.09.08.1.27 0v-.09s.09.1.09 0c-.1-.09 0-.09.09-.18 0 0 .1 0 .18-.1-.09 0-.27-.08-.18-.08.18-.1.18-.19.1-.28-.1-.18-.37-.18-.37-.37h.27c.83 0 1.38-.18 1.28-.45 0-.55-2.47 0-2.47-.37.37-.18.46-.27.64-.27m-1.74 0s.18.09.27.09c-.09 0-.09.09-.18.09-.1 0-.1-.1-.1-.18m-.17 0c0 .09-.1.09-.19.09-.09-.1 0-.1-.09-.19.1 0 .28 0 .28.1m-.19.54c.1-.09.19-.09.19-.09 0-.09 0-.09-.1-.09.1 0 .1 0 .1-.09h-.1v-.1h.1l.18.1v.18s0-.09-.1-.09v.1h-.08v.18c0 .09-.1.09-.19.09-.09-.1-.09-.19 0-.19M38.49 10.14c0-.36-.27-.54-.55-.54-.37 0-.55.27-.55.54 0 .28.28.55.55.55s.55-.27.55-.55M38.24 8.52c0-.37-.27-.55-.55-.55-.37 0-.55.27-.55.55s.28.54.55.54c.37.1.55-.18.55-.55M38.63 7.81c.37 0 .55-.27.55-.54a.6.6 0 00-.55-.55c-.37 0-.55.27-.55.55 0 .27.18.54.55.54M40.17 7.77c.37 0 .55-.27.55-.54 0-.37-.28-.55-.55-.55-.37 0-.55.27-.55.55 0 .27.28.54.55.54M46.85 6.67c.27.19.64.19.82 0 .19-.18.19-.64 0-.82-.27-.27-.64-.27-.82 0-.18.18-.18.55 0 .82M46.72 5.42c.27-.18.27-.64 0-.82-.27-.18-.64-.27-.82 0-.28.18-.19.64 0 .82.27.19.64.19.82 0M45.18 5.15c.18-.18.18-.64 0-.82-.27-.27-.64-.27-.82 0-.19.27-.19.64 0 .82.18.28.55.28.82 0M43.81 6.13c.18-.18.18-.64 0-.82-.27-.18-.64-.18-.82 0-.19.28-.19.64 0 .82.27.28.64.28.82 0M40.05 5.3l.46 1.01.55-.73h.09c.1.37.1.92.1 1.28 0 .46.36.74.72.74s.74-.37.74-.74a.77.77 0 00-.37-.64c-.27-.18-.64-.55-.82-.73v-.1l1 .1-.36-1.1-.73.64-.1-1.1-1 .37.64.82v.1zM46.87 7.22c.18.36.27.54.37.82-.19-.1-.37-.28-.64-.55l.09 1.37c.18-.27.27-.36.46-.45-.1.91-.37 1.28-.74 1.28-.36.09-.64-.19-.73-.46-.1-.37.27-.64.64-.28.1-.82-.64-.82-.92-.45.37-.83.19-1.29-.45-1.74-.46.73-.28 1.19.27 1.83-.55-.28-1 .18-.55.82.1-.55.55-.36.64 0 .1.37-.27.83-.82 1.01-.83.27-1.1-.27-1.29-.73.19-.1.65-.1 1.1.27l-.36-1.37c-.19.46-.46.64-.83.82 0-.36.28-1.19.28-1.19l-1.65.64s.73.37 1 .64c-.36.1-.64.19-1.1 0l.65 1.29c.09-.55.36-.92.64-.92.18.46.37 1-.46 1.47-.55.27-1.1.18-1.28-.1-.19-.36 0-.82.46-.45-.1-.74-.74-.74-.92-.19 0-.82-.18-1.28-1-1.46-.2.82.08 1.28.82 1.55-.46-.09-.92.37-.28.92 0-.46.46-.55.64-.18a.6.6 0 01-.18.82c-.28.18-.73.18-1.47-.46.19-.09.37-.09.74 0l-.83-1.1c.1.37 0 .65-.1.83-.17-.18-.27-.37-.36-.83l-.64.55c.64.37 1.38 1.01 2.2 2.2.92-.55 2.57-1.37 3.58-1.83 1-.46 2.74-1 3.84-1.19a8.16 8.16 0 01.1-3.11z"/>
        <path d="M59.8 44.53c.27-.64-.92-1.37-1.1-2.2-.18-.82 0-1.73-1.1-2.92-1-1.2-4.5-4.95-5.6-6.14.28 0 .93-.18 1.57.46.36.37 1.1 1.1 1.83 1.74a19.7 19.7 0 013.76-6.05c.18-.27.46-.45.64-.73-.64.19-1.56.37-2.1.73 0-1 0-1.83-.65-2.56.28-1.46 0-3.2-3.2-5.31 1.64.37 2.65 1.92 3.93.73-1.1 0-1.19-2.47-5.31-4.58 1.56 0 2.75 2.48 4.58 1.1-1.74-.18-2.3-3.2-5.4-4.21 1.1.1 2.2.64 3.1-.64-1.1.27-1.73-.73-2.83-.83.46-1.37.36-2.2-.1-3.1-.82.08-1.64.27-2.2.82-.09-.74-.82-.74-1.55-.74 0 .28.18.74-.19.83-.55.09-2.38.64-3.85 1.19a18.2 18.2 0 00-3.48 1.92c-.27.18-.55-.27-.73-.46-.46.46-1.01 1.01-.64 1.56-.83.1-1.65.27-2.39.82 0 .92.74 1.83 1.93 2.3-1.93 1.92-.19 3.66-1.83 5.3 2.38.1 1.92-3.2 3.11-3.66-.09 2.3-1.37 2.75-1.37 5.22 0 1.37.82 2.75.09 3.66 2.01-.55 1.46-4.94 2.66-6.22.18.73.09 1.46-.19 2.2-.73 2 .1 4.85-1 5.67 2.01-.18 2.29-3.39 3.94-4.58-1.47 2.93-2.85 9.07-5.05 12.18-3.39 4.67-5.5 10.26-8.61 10.26-1.38 0-2.48-.82-2.48-2.56 0-5.22 9.08-8.89 9.08-14.47a3.36 3.36 0 00-3.3-3.48 5 5 0 00-2.75 1.1 2.44 2.44 0 00-1.1-.28c-3.2 0-2.38 5.77-5.13 5.68 1.1.64 3.02-.55 4.12-2.2-.46 3.76-5.87 2.75-5.4 7.24.73-3.48 9.25-3.03 9.25-8.34 0-.64-.27-1.1-.73-1.46a3.8 3.8 0 011.83-.55c1 0 1.93.73 1.93 2.29 0 4.67-8.99 8.7-8.99 14.47 0 1 .28 1.83.74 2.38-.65.27-1.29.18-1.84-.46-.09 1.46 2.11 2.38 3.4 1.65.27.09.64.18.91.18-.37 1.1-1.74 1.47-2.47 1.37 2.2 1.74 6.05-.54 5.86-2.47 1.74-1.37 2.84-3.84 4.13-5.4-.1.37-.19.73-.19 1.1-1.28 2.38-2.47 4.4-2.84 7.5-.27 2.57-1.56 4.95-3.39 4.95-.37 0-1-.55-1.37-.27-.55.46 0 1 0 1.46 0 .74-1.38 1.47-1.38 3.76 0 1 .55 2.2.37 2.93.55-.28 1.37-1.28 1.65-2.47.64 3.02-1.29 2.83.09 5.49.18-.92 1-1.28 1.56-.92.55.37.27.64-.1 1.01-.36.37-.73 2.38 1.01 2.3-.36-.2-.36-.74.55-.93 1.29-.27 1.65.37 2.94.37.82 0 1-1.1 1.74-1.1.64 0 .64.55.46.92 1-.28 1.28-.83 1.28-1.47 0-.55-.46-.91-.1-1.19.37-.18 1.57 0 1.1 1.01.65-.1 1.02-.55 1.02-1.37 0-.74-.92-1.2-1.65-1.1-.19-.46-.83-.74-1.47-.74-1.47 0-1.28 1.2-2.3 1.2-1.64 0-3.2-2.11-3.2-5.68 0-1.93 2.02-2.38 3.48-3.02 1.47-.65 3.94-2.2 5.5-4.77 1.2-2.01 1.2-4.2 1.1-6.77a4.32 4.32 0 012.3 4.03c0 1.55-.83 2.2-1.47 2.47-.55.27-.74.18-.83.46-.09.36.19.64.46.73.73.37.55 1.1.83 1.83a6.3 6.3 0 002.01 2.84c.1-.46.1-1.2 0-2.2 1.56.73.28 3.94 3.4 3.94-.56-.37-.37-1.1-.1-1.28.28-.19.74.18 1.29 1 .55.83.45.74 1.83.74 1.47 0 .82-.46 1.56-.46.73 0 .73.92.27 1.56 1.28-.37 1.65-1.38 1.2-2.38 1.1-.65 1.73.27 1.92.91 1.1-1.1 0-2.47-.92-2.56 0-.37-.37-.83-.82-.92-.46 0-.92-.09-1.47 0-.55 0-.82.83-1.47.83-1.92 0-5.68-3.48-5.68-4.95s3.58-2.38 3.58-4.67c0-3.02-2.94-4.03-5.5-5.95.91-1.01 3.48-1.28 4.95-.55.18-.83.73-.64.91-2.1.55 1.27 0 2.37.55 2.92.46-.64 1.47-.55 1.47-2.1.36 1-.46 2.47.36 3.2.1-.82.65-1 .92-1s.55.18.55.73c0 1.19-1.47.64-1.47 2.01 0 .55.74.73.74 1.1 0 .37-.55.92-1.29.46.28.55.74 1 1.38 1s1.37-.54 1.65-1.19c.37.83.1 1.84-.55 1.93.64.36 2.2 0 2.02-2.02.91.19 1.37.74.82 1.83.73-.18 1.38-.54 1.38-1.28 0-.55-.65-.73-.37-1.55m-17.05-27.2c-.82.09-.82-.73-2.3-1.1 1.02-.18 2.3-.73 3.5-1.2.27 1.02-.2 2.2-1.2 2.3m5.87 6.13c-1.1.46-1.93-.45-2.11-1.1-.18-.64-.37-1.19-.1-1.37.47-.46.65-.82.37-1.37-.27-.64-1-.37-1.74-.19.37-.64.37-1.1-.09-1-.55.09-.55 1-.92.82-.27-.09-.09-.64-.09-.91 0-.37.28-.55.64-.74l3.03-1.19c.37-.18.64-.18.91.1.19.18.74.45.55.73s-.82-.37-1.28 0c-.36.27-.09.55.64.82-.64.37-1.37.64-1.1 1.37.19.55.55.74 1.2.74.36 0 .55.45.91 1.1.18.64.28 1.74-.82 2.2m.18-8.52c-.82.64-1.92.09-2.38-.83 1.1-.46 2.47-1 3.3-1.55-.83 1.28-.28 1.83-.92 2.38M117.42 59.1a2.56 2.56 0 105.13 0c0-1.46-1.1-2.56-2.56-2.56s-2.57 1.1-2.57 2.56m.64 0c0-1 .83-1.92 1.93-1.92 1 0 1.92.83 1.92 1.92 0 1.1-.92 1.84-2.02 1.84-1 0-1.83-.83-1.83-1.84M107.95 61.38c-.37.27-.55.54-.64.91-.1.46.09.92.37 1.28.27.37.73.55 1.28.64.55.1 1 0 1.46-.18.46-.27.74-.64.83-1.1.18-.91-.55-1.74-1.65-1.92-.64 0-1.28.09-1.65.37m1.1 2.28c-.73-.09-1.2-.64-1.1-1.19.1-.27.18-.45.37-.55a1.5 1.5 0 011.1-.18c.64.1 1.19.55 1.19 1.1v.1c-.19.54-.83.9-1.56.72M93.91 25.86c-.82.64-1 1.64-.55 2.28.55.65 1.56.65 2.38.1.46-.37.74-.83.74-1.29 0-.36 0-.73-.28-1a1.13 1.13 0 00-.92-.46c-.36-.18-.91 0-1.37.37m-.1 1.46c0-.37.2-.73.56-1 .27-.19.64-.37.91-.28.19 0 .37.09.46.27.1.19.19.37.1.55 0 .28-.28.64-.56.83-.45.36-1.19.36-1.46 0v-.37M104.91 57.19a2.2 2.2 0 00-.64 1.55v.1c0 .54.18 1.1.55 1.46.27.27.64.46 1 .46s.74-.19 1.01-.46a2.25 2.25 0 00.18-2.93 1.57 1.57 0 00-1.18-.64c-.28 0-.65.18-.92.46m1 2.93c-.27 0-.45-.19-.54-.28-.28-.27-.37-.64-.37-1.1s.18-.82.46-1.1c.1-.09.37-.27.55-.27.55 0 1 .64.92 1.37 0 .46-.19.83-.46 1.1-.1.1-.28.28-.55.28m0 .64zM92.51 36.72c-.37.09-.73.36-.82.73-.37.82.09 1.83 1.1 2.29.54.27 1.1.27 1.64.09.37-.1.74-.37.83-.73.18-.37.18-.74 0-1.1a2.3 2.3 0 00-1.1-1.2 2.1 2.1 0 00-1.65-.09m.46 2.48c-.64-.28-1.01-1.01-.73-1.47.09-.27.36-.36.45-.36.37-.1.74-.1 1.1.09.37.18.64.46.83.82.09.19.09.37 0 .64s-.37.37-.46.37c-.37.1-.73.1-1.2-.1"/>
        <path d="M119.23 34.09c.82 2.28 2.47 3.1 3.76 2.47-2.84-.37-.55-5.13-4.13-5.13-.18 0-.36 0-.55.1-.64-.65-1.28-.92-2.38-.92a4.42 4.42 0 00-4.12 4.48c0 6.5 7.6 7.15 7.6 12.91a2.7 2.7 0 01-2.75 2.75c-1.28 0-2.29-1.46-3.39-3.66-.55-1.1-1.65-2.57-2.75-4.03.37.27.74.37 1.1.37.37 0 .83-.1 1.1-.37.28-.28.46-.64.46-1v-.1c0-.55-.18-1-.64-1.46s-.92-.74-1.47-.74c-.36 0-.82.1-1.1.37-.27.27-.46.64-.46 1v.1c0 .18 0 .46.1.64-1.65-2.1-3.12-4.21-3.12-5.4 0-1.01.73-1.93 1.56-2.93l.27.18.19-.28c.27-.36.91-1 2.29-2.47l.09-.09.27-.37-.82-.64c.18-.46.37-1 .55-1.65.27 1.01.82 1.74 1.56 1.47-.46-1.1.46-2.57-.19-5.22.65 1 1.56 1.56 2.2 1.37-1.65-1.46.46-3.57-1.65-6.77.74.27 1.2.09 1.56-.28-2.01-.27-1.1-2.84-4.58-3.75.92-.19 1.37-.64 1.28-1.1-.91.64-1.74-1.28-4.76-1.2-.19-1.1-1.29-2.37-2.48-2.92.18.91 0 1.65-.18 2.38l-9.9-9.7c-.28-.28-.46-.38-.55-.28-.1.09-.1.27.09.45l8.52 10.72c-.64.18-1.28.46-1.92.73a1.1 1.1 0 00-.73 1.1 21.2 21.2 0 00-3.67 2.38c-.55.46-.92.55-.46 1.65.19.37-.36 1.37.83.64.82-.46 2.65-1.47 2.93-.82.18.36-.73.73-1.38 1-.64.28-1.28.74-1.19 1.01.1.28.55 0 .64.28 0 .27.28.54.46.54.28 0 .55-.54.74-.36s-.1 1.37-.28 1.65c1.01-.1 1.56-1.01 1.65-1.74 0-.74.18-.92.37-1.01.18-.1.36.73.09 1.28.55-.09 1-.82 1-2.01.28-.19.56-.37.74-.37.37 0 1.01.92 1.93.92 1.65 0 2.65-1.38 2.75-2.02.09-.55 0-1-.28-1.37.64.46.83 1.28.83 1.83 0 2.38-4.22 3.48-5.96 5.13l-.19.18-2.01-.73-.1.46s0 .09-.09.36c-.18.64-.64 2.1-.91 2.93l-.1.37.19.1c-1.2 1.55-2.1 3.29-2.3 5.12a9.8 9.8 0 00-1.46-1.28c.1-.19.1-.37.1-.55 0-.55-.1-1.01-.46-1.38-.28-.27-.55-.45-.92-.45s-.64.09-1.01.36l-.18.19c-.1-.1-.19-.1-.19-.19-.64-.55-1.46-1.1-1.92-1.65-.18-.27-.46-.36-.83-.36h-.91c-.28 0-.46.18-.83.55-.18.18-.64.46-1.1.91l.74.74c.09.18.27.27.36.45.1-.09.28-.18.37-.27.18-.18.46-.18.73-.18s.64.18.83.55c.18.27 1.74 2.38 3.11 3.84-.18.1-.27.1-.45.18-.55.28-1.84.19-2.39.19-.55-.1-.64-.19-1.1.46-.18.27-.36.54-.55.73-.18.27-.36.46.1 1.19.54 1 2.01 3.57 2.56 4.76.46 1.2 1 1.37 2.02 1.74.91.37 2.47 1.28 2.65 1.47l.1-.92a5.5 5.5 0 00-1.47-.73c-.37-.1-.46-.28 0-.28.37 0 1.47.37 2.3.74-.28-.92-1.1-1.84-1.57-2.39-.64-.18-1.37-.18-1.65 0 0 .19-.09.46-.36.46-.28 0-.46-.18-.37-.46.1-.27.46-.36.37-.82-.1-.55-.74-.55-1.1-.64-.55-.83-1.2-2.02-1.56-2.47-.28-.46-.1-.74.09-.92.46-.37 1.47.18 3.48.37.74 0 1.56.09 2.48.09.27 2.38 1.19 4.58 4.49 5.4 1.56.37 3.2 1.56 3.76 3.12-6.51-.1-7.52 2.38-7.52 4.85 0 2.75 2.3 2.56 2.3 4.58 0 1.74-5.5 2.47-7.16 2.74-1.37.19-2.2.55-2.84 1.2-.64.64-1.37 1.28-2.56 2.56 0 0 .55.1 1 .1l.92-1.2c.28-.37.46-.73.64-.73s.1.36-.18.73l-.73 1.28c3.2.19 3.39-1 3.39-1.46s-.83-.83-.37-1.1c.46-.28.83-.1 1.2.36.36.46.45.83 1.37.46 0 0 6.96-2.93 7.88-3.3.82-.36.55-.73.1-1.1-.56-.45-.65-1.1-.65-1.82 0-2.11 1.28-2.75 3.57-2.75 0 .36-.09.73-.09 1 0 3.3 5.04 6.5 6.33 6.5.64 0 1.37-.45 1.46 1.56 0 1.47.37 2.48.1 4.22-.28 1.65-.74 1.92-1.75 2.65-1 .74-2.01 2.93-2.38 3.4.46.27.92.36 1.28-.74.28-.92.65-1.56 1.1-1.74-.36 1-.64 2.47-.91 2.93 1.28.18 3.39-.92 3.39-1.83s-.73-.83-.73-1.47c0-.27.36-.55.73-.55.55 0 .92.37.92.64.55-.27.91-.82.91-2.2 0-.54 0-1-.09-1.55 0 .09.1.18.1.18.27.37.63.64 1.18.64.46 0 1.01-.09 1.38-.36.46-.37.82-.83.91-1.38v-.36c0-.28-.09-.55-.27-.83a1.68 1.68 0 00-.92-.64c-.55-.09-1.1 0-1.65.37-.45.27-.82.73-.91 1.19-.1-1.83-.28-3.48-.19-4.21.1-1.01.1-1.47-.18-1.65-.37-.19-.73.46-1.2.46s-1.92-1.38-1.92-2.75c0-1.47 1.56-3.3 1.47-5.22 0-.64.37-.92.64-.37a8.9 8.9 0 001.38 2.3c-.37 2.46 2.29 4.84 4.49 3.1-1.1.19-1.84-.82-2.39-1.83.19 0 .37.1.65.1h.36c.83 1 3.3.91 3.94-1.56-.45.55-1.37.91-2.01.82a4.1 4.1 0 001.46-3.2c0-6.23-7.6-6.96-7.6-12.64 0-2.1 1.83-3.48 3.11-3.48.46 0 .83.18 1.2.37-.46.45-.74 1.28-.74 2.2.19 4.48 7.52 4.3 7.6 6.4.65-3.57-4.76-2.56-4.94-6.96M99.71 16.87c.36-.64 0-1.74 1.28-1.74.64 0 1.2.64 1.92.82a9.52 9.52 0 00-3.2.92M93 30.6c0 .37-.18.74-.36.92a.7.7 0 01-.46.18c-.46 0-.73-.55-.73-1.1v-.09c0-.36.18-.73.36-.91.1-.1.28-.19.46-.19s.37.19.46.28c.18.27.28.55.28.91m21.63 31.5c.09-.36.36-.73.64-.91.37-.27.73-.37 1.1-.27.18 0 .37.09.55.36.18.18.1.46.1.64-.1.37-.38.74-.65.92-.64.36-1.38.36-1.65-.1-.18-.27-.1-.45-.1-.63m-4.58-20.88c0-.19.1-.37.28-.55.18-.19.46-.19.55-.19.37 0 .73.19 1 .55.28.28.47.74.47 1.1 0 .19-.1.37-.28.55-.18.19-.46.19-.55.19-.37 0-.73-.19-1-.55s-.47-.74-.47-1.1M97.7 27.13c.37-1.1 1-3.3 1-3.3l1.2.46c-.37.09-.73.45-1.1.82.28.1.73.1 1-.1l-.45 1.2c-.1-.19-.46-.64-.73-.64-.28.91.36 1.28.73 1.46.73.37 1.2.46 1.38.1.18-.37-.28-.92-.83-.74-.1-.64.28-.91.64-.91.28 0 .55.27.64.64 0-1.01.37-1.74 1.29-2.02.36.92.09 1.56-.64 2.3.36-.2.82-.1 1 .08.19.37.19.83-.36 1.1-.1-.64-.83-.64-1.1-.27-.19.36.09.82.73 1.19.73.46 1.38.18 1.74-.46-.27-.1-.64 0-1.1.18l.74-1.46c0 .18.18.55.45.82.1-.36.28-.91 0-1.37l1.65.91c-.55.1-1 .46-1.19.74.37.18.74.09 1.01 0l-.83 1.37c0-.46-.18-.82-.36-1-.37.63-.28 1.27.46 1.73.64.37 1.1.46 1.37.1.28-.37-.18-1.01-.73-.83 0-.64.36-.92.73-.92s.55.37.64.83c.28-1 .64-1.56 1.65-1.74.19.91-.27 1.65-1.1 2.1.37-.09.74-.09.92.19.18.36.1.82-.46 1-.09-.64-.82-.73-1-.36-.19.37.08.73.73 1.1.36.27 1 .55 1.65-.1-.19-.27-.74-.36-1.01-.36l.73-1c0 .36.18.73.46.9.1-.45.18-1 .1-1.37l1 .74s-1.56 1.65-2.3 2.56zm10.27 25.82c-.46.55-1.1.82-1.56.46-.46-.37-.46-1.1-.1-1.65.37-.55 1.1-.83 1.56-.46.46.37.46 1.1.1 1.65m2.93-4.67c-.46.55-1.1.82-1.56.46-.46-.37-.46-1.1-.09-1.65.46-.55 1.1-.83 1.56-.46.46.27.55 1 .09 1.65"/>
    </g>
</svg>
