<?xml version="1.0" encoding="utf-8"?>
<svg xmlns="http://www.w3.org/2000/svg" version="1.1" viewBox="0 3 1016 580" fill="#012d5b">
    <path d="M 293,5 C 133.94199,5 5,133.94199 5,293 5,452.05805 133.94199,581 293,581 378.47599,581 455.2551,543.7616 508,484.625 560.7449,543.7616 637.52401,581 723,581 882.05801,581 1011,452.05805 1011,293 1011,133.94199 882.05801,5 723,5 637.52401,5 560.7449,42.23841 508,101.375 455.2551,42.23841 378.47599,5 293,5 z m 0,63 C 417.26407,68 518,168.73593 518,293 518,417.26407 417.26407,518 293,518 168.73593,518 68,417.26407 68,293 68,168.73593 168.73593,68 293,68 z m -122.25,115.65625 0,222.5 147.9375,0 c 67.45109,0 120.78132,-41.64938 120.78125,-111.25 -8e-5,-69.60062 -55.83055,-111.25 -120.78125,-111.25 l -147.9375,0 z m 401.40625,15.5 66.4375,0 29.90625,103.3125 37.34375,-103.3125 50.53125,0 37.34375,103.78125 29.90625,-103.78125 66.4375,0 -62.3125,197 -57.0625,0 -39.8125,-96.125 -40.34375,96.125 -56.0625,0 -62.3125,-197 z m -330.90625,48.8125 67.03125,0 c 35.65837,0 56.18733,17.22226 56.1875,47.4375 0,29.99555 -19.29296,45.9375 -55.1875,45.9375 l -68.03125,0 0,-93.375 z" />
</svg>
