<?xml version="1.0" encoding="utf-8"?>
<svg xmlns="http://www.w3.org/2000/svg" version="1.1" viewBox="0 3 528 60" fill="#003B4F">
    <path d="M4.3,61.2v-4.4h6.3V11.1H4.3V6.7h44.2v12.9H44v-7.9H23.3v17.5h12.9v-6.9h4.5v18.9h-4.5v-6.9H23.3v22.1h21.3 v-7.9h4.5v12.9H4.3z"/>
    <path d="M67.7,56.8h5v4.4H51.1v-4.4h5V8.7h-5V4.3h16.6V56.8z"/>
    <path d="M140.5,45.6c-1.3,5.6-3.6,9.8-7,12.5c-3.4,2.7-7.9,4.1-13.5,4.1c-8.3,0-14.9-2.5-19.7-7.6 c-4.8-5.1-7.2-12-7.2-20.7c0-8.7,2.4-15.6,7.2-20.7c4.8-5.1,11.4-7.6,19.7-7.6c2.9,0,5.9,0.4,9.1,1.2c3.2,0.8,6.5,2,10,3.5v13.4 H135c-0.9-4.6-2.4-8-4.7-10.3c-2.3-2.3-5.2-3.4-8.9-3.4c-4.8,0-8.4,2-10.7,5.9c-2.3,3.9-3.5,9.9-3.5,18c0,8.1,1.2,14.1,3.5,18 c2.3,3.9,5.9,5.8,10.7,5.8c3.3,0,6-1,8-3c2.1-2,3.6-5.1,4.5-9.2H140.5z"/>
    <path d="M162.7,62.3c-6.2,0-11-1.8-14.5-5.5c-3.5-3.6-5.2-8.7-5.2-15c0-6.4,1.7-11.4,5.2-15c3.5-3.6,8.3-5.4,14.5-5.4 c6.2,0,11,1.8,14.5,5.4c3.5,3.6,5.2,8.6,5.2,15c0,6.4-1.8,11.4-5.3,15C173.6,60.5,168.8,62.3,162.7,62.3z M162.7,58.2 c2.4,0,4.2-1.2,5.2-3.5c1-2.3,1.5-6.6,1.5-12.9c0-6.2-0.5-10.5-1.5-12.8c-1-2.3-2.7-3.5-5.2-3.5c-2.5,0-4.2,1.2-5.2,3.5 c-1,2.3-1.5,6.6-1.5,12.8c0,6.2,0.5,10.5,1.5,12.8C158.4,57,160.2,58.2,162.7,58.2z"/>
    <path d="M181.9,61.2v-4.4h5v-30h-5v-4.4h16.6v5.5c1.4-2.3,3-4,4.8-5c1.8-1,4.1-1.5,6.8-1.5c3.9,0,6.9,1.3,8.9,3.9 c2,2.6,3,6.4,3,11.4v20.3h5v4.4h-20.9v-4.4h4.2V36.1c0-3.3-0.4-5.6-1.1-6.9c-0.8-1.3-2.1-1.9-3.9-1.9c-2.3,0-4.1,1-5.2,2.9 c-1.1,1.9-1.6,5-1.6,9.1v17.4h4.2v4.4H181.9z"/>
    <path d="M259.2,14.1h-3.7c-0.2-1.9-0.7-3.3-1.5-4.2c-0.8-0.9-2-1.4-3.5-1.4c-1.8,0-3,0.7-3.8,2.1 c-0.8,1.4-1.2,3.7-1.2,6.8v5h8.8v4.4h-8.8v30h6.7v4.4h-23.4v-4.4h5v-30h-5.2v-4.4h5.2v-4.9c0-4.3,1.2-7.6,3.7-9.8 c2.5-2.2,6.1-3.3,10.9-3.3c1.9,0,3.7,0.1,5.5,0.3c1.8,0.2,3.5,0.6,5.2,1V14.1z"/>
    <path d="M273.4,56.8h5v4.4h-21.6v-4.4h5v-30h-5v-4.4h16.6V56.8z M260.6,11.4c0-2,0.6-3.6,1.8-5c1.2-1.4,2.7-2,4.5-2 c1.7,0,3.2,0.7,4.4,2c1.2,1.3,1.8,3,1.8,5c0,1.9-0.6,3.6-1.8,4.9c-1.2,1.3-2.7,2-4.4,2c-1.8,0-3.3-0.7-4.5-2 C261.2,15,260.6,13.3,260.6,11.4z"/>
    <path d="M316.9,56.8h5v4.4h-16.6v-4.9c-1,2-2.3,3.5-4,4.5c-1.7,1-3.8,1.5-6.2,1.5c-4.9,0-8.8-1.8-11.7-5.5 c-2.8-3.7-4.3-8.7-4.3-15c0-6.4,1.4-11.4,4.3-15c2.8-3.6,6.7-5.4,11.7-5.4c2.5,0,4.5,0.5,6.2,1.5c1.7,1,3,2.5,4,4.5V8.7h-5V4.3 h16.7V56.8z M305.2,43.7v-3.8c0-4.5-0.5-7.8-1.6-9.8c-1-2-2.7-3-5-3c-2.4,0-4.1,1.1-5.1,3.2c-1,2.1-1.5,6-1.5,11.6 c0,5.6,0.5,9.4,1.5,11.6c1,2.1,2.7,3.2,5.1,3.2c2.3,0,4-1,5-3C304.7,51.5,305.2,48.2,305.2,43.7z"/>
    <path d="M359.4,43.6h-24v0.3c0,5,0.7,8.6,2,10.9c1.4,2.2,3.6,3.3,6.6,3.3c2.5,0,4.5-0.7,6.1-2.2c1.6-1.5,2.6-3.6,3-6.5 h5.5c-1,4.4-2.8,7.7-5.6,9.7c-2.8,2.1-6.7,3.1-11.7,3.1c-6.1,0-10.7-1.8-13.9-5.3c-3.2-3.5-4.8-8.6-4.8-15.2c0-6.4,1.6-11.5,5-15.1 c3.3-3.6,7.9-5.4,13.8-5.4c5.8,0,10.2,1.9,13.3,5.7C357.6,30.8,359.2,36.3,359.4,43.6z M346.6,39.3c0-5.1-0.4-8.7-1.3-10.8 c-0.9-2.1-2.3-3.1-4.4-3.1c-2,0-3.4,1-4.3,3c-0.9,2-1.3,5.4-1.3,10.2v0.7H346.6z"/>
    <path d="M359.8,61.2v-4.4h5v-30h-5v-4.4h16.6v5.5c1.4-2.3,3-4,4.8-5c1.8-1,4.1-1.5,6.8-1.5c3.9,0,6.9,1.3,8.9,3.9 c2,2.6,3,6.4,3,11.4v20.3h5v4.4H384v-4.4h4.2V36.1c0-3.3-0.4-5.6-1.1-6.9c-0.8-1.3-2.1-1.9-3.9-1.9c-2.3,0-4.1,1-5.2,2.9 c-1.1,1.9-1.6,5-1.6,9.1v17.4h4.2v4.4H359.8z"/>
    <path d="M440.7,49.1c-0.9,4.4-2.6,7.7-5.1,9.9c-2.6,2.2-6.1,3.3-10.5,3.3c-6.2,0-11.1-1.8-14.5-5.4 c-3.4-3.6-5.1-8.6-5.1-15.1c0-6.4,1.7-11.5,5.1-15.1c3.4-3.6,8.1-5.4,14-5.4c2.4,0,4.9,0.3,7.4,0.8c2.5,0.5,5,1.3,7.6,2.3v10.8 h-3.7c-0.3-3.3-1.2-5.7-2.6-7.3c-1.4-1.6-3.3-2.4-5.8-2.4c-3.2,0-5.6,1.2-6.9,3.7c-1.4,2.4-2.1,6.7-2.1,12.7c0,5.9,0.7,10.1,2,12.6 c1.3,2.5,3.5,3.8,6.5,3.8c2.3,0,4.2-0.8,5.6-2.3c1.4-1.6,2.3-3.8,2.6-6.7H440.7z"/>
    <path d="M458.9,56.8h5v4.4h-21.6v-4.4h5v-30h-5v-4.4h16.6V56.8z M446.1,11.4c0-2,0.6-3.6,1.8-5c1.2-1.4,2.7-2,4.5-2 c1.7,0,3.2,0.7,4.4,2c1.2,1.3,1.8,3,1.8,5c0,1.9-0.6,3.6-1.8,4.9c-1.2,1.3-2.7,2-4.4,2c-1.8,0-3.3-0.7-4.5-2 C446.8,15,446.1,13.3,446.1,11.4z"/>
    <path d="M498.9,37.4v19.4h5v4.4h-16.6v-4.9c-1.5,2-3.2,3.6-5.1,4.5c-1.9,1-4,1.5-6.4,1.5c-3.6,0-6.3-1.1-8.2-3.2 c-1.9-2.1-2.9-5.2-2.9-9.2c0-4.4,1.4-7.6,4.1-9.8c2.7-2.2,6.9-3.3,12.4-3.3h6.1v-2.3c0-3.1-0.7-5.5-2-7c-1.3-1.5-3.4-2.2-6.2-2.2 c-2.3,0-4.1,0.5-5.4,1.6c-1.3,1.1-2.1,2.8-2.7,5.2h-3.7v-8.4c2.1-0.8,4.3-1.5,6.5-1.9c2.2-0.4,4.6-0.6,7.1-0.6 c6.3,0,10.8,1.3,13.7,3.9C497.5,27.8,498.9,31.8,498.9,37.4z M487.3,49v-7.8h-4.4c-2.2,0-3.8,0.7-5,2c-1.2,1.3-1.8,3.2-1.8,5.7 c0,2.5,0.4,4.3,1.3,5.5c0.9,1.2,2.1,1.8,3.9,1.8c1.8,0,3.3-0.7,4.3-2C486.7,52.9,487.3,51.2,487.3,49z"/>
    <path d="M521.9,56.8h5v4.4h-21.6v-4.4h5V8.7h-5V4.3h16.6V56.8z"/>
</svg>
