<?xml version="1.0" encoding="utf-8"?>
<svg xmlns="http://www.w3.org/2000/svg" version="1.1" viewBox="0 0 226 52" fill="#212020">
    <path d="M.001 50.64v-4.641h3.37c2.051 0 3.19-.63 3.19-4.399V17.16c0-2.689-.721-3.512-3.851-3.512H0V9h39.722v16.58h-4.46c-.9-8.54-1.62-11.932-9.682-11.932h-10.6v13.07h3.189c3.619 0 5.239-1.891 5.239-6.979v-.82h4.46v20.979h-4.46v-1.5c0-5.09-1.62-7.038-5.239-7.038H14.98V46h12.04c5.54 0 7.7-3.59 8.24-12.939h4.46v17.58L.001 50.64zM42.647 50.271V45.63h3.85c1.68 0 2.83-.63 2.83-2.771V15.981c0-1.88-.79-2.7-3.189-2.7h-3.489v-4.65h22.02v4.648h-3.37c-2.64 0-3.55.632-3.55 2.83v29.58h9.811c6.199 0 7.699-3.58 8.25-13.318h4.449V50.27H42.647v.001zM92.107 50.271V45.63h3.85c1.391 0 2.59-.5 2.59-2.141V15.41c0-1.632-1.199-2.132-2.59-2.132h-3.85V8.631h23.59c9.028 0 14.199 4.341 14.199 11.431 0 7.729-5.41 11.37-13.479 11.37h-9.439v12.061c0 1.64 1.5 2.14 2.881 2.14h3.85v4.641H92.107v-.003zm14.869-23.49h5.471c5.661 0 8.67-1.818 8.67-6.648 0-4.84-2.41-6.852-8.67-6.852h-5.471v13.5zM123.156 50.271h18.78V45.63h-4.69c-1.148 0-1.93-.26-1.93-1.13 0-.569.121-.95.239-1.319l1.979-6.29h13.66l1.989 6.29c.119.369.238.939.238 1.51 0 .62-.479.939-1.858.939h-4.761v4.641h40.729V45.63h-3.49c-2.04 0-2.95-1.069-2.95-3.08V16.29c0-2.38 1.87-3.012 3.79-3.012h2.65V8.631h-21.298v4.648h3.371c2.35 0 3.067 1.25 3.067 2.83v27.262c0 1.63-.96 2.26-3.431 2.26h-1.5c-3.188 0-5.229-.439-6.319-3.399L149.397 8.631h-8.432l-11.489 33.601c-1.021 2.96-3.13 3.399-6.319 3.399l-.001 4.64zm26.301-18.02h-10.17l4.82-15.142h.107l5.243 15.142zM219.377 8.631h3.49v15.83h-4.33c-1.439-6.852-5.229-11.75-12.391-11.75-5.602 0-7.892 1.511-7.892 5.66 0 9.42 26.841 2.39 26.841 19.908 0 9.99-7.461 13.25-15.891 13.25-4.51 0-9.021-2.01-12.51-4.96l-1.32 3.7h-4.1V33.25h4.459c.84 8.42 5.771 12.938 14.318 12.938 5.29 0 7.82-2.58 7.82-5.59 0-10.74-26.84-2.641-26.84-20.601 0-8.859 7.64-12.63 14.93-12.63 4.57 0 8.42 2.198 11.431 4.398l1.985-3.134z"/>
    <path fill="#016CA2" d="M187.656.001v5.24h-21.939z"/>
</svg>
