<svg xmlns="http://www.w3.org/2000/svg" viewBox="0 0 65 65" version="1.1">
    <rect fill="#852308" width="65" height="65" x="0" y="0" />
    <path fill="#ffffff" d="M 17.249255,47.348 V 17.652 h -4.452 v 29.696 z m 13.267,-19.856 h 4.496 V 25.31 c 0,-2.79 -0.55,-4.837 -1.647,-6.143 -1.098,-1.306 -2.864,-1.959 -5.298,-1.959 -1.573,0 -2.82,0.267 -3.74,0.801 a 5.435,5.435 0 0 0 -2.114,2.182 c -0.49,0.92 -0.802,2.01 -0.935,3.272 a 38.328,38.328 0 0 0 -0.2,4.029 v 10.284 c 0,1.721 0.089,3.213 0.267,4.474 0.178,1.261 0.526,2.3 1.046,3.116 a 4.753,4.753 0 0 0 2.137,1.826 c 0.905,0.4 2.085,0.6 3.539,0.6 1.365,0 2.493,-0.23 3.383,-0.69 a 5.55,5.55 0 0 0 2.137,-1.914 c 0.535,-0.816 0.906,-1.773 1.113,-2.871 0.208,-1.098 0.312,-2.27 0.312,-3.517 v -1.96 h -4.496 c 0,0.684 -0.008,1.47 -0.023,2.36 -0.015,0.89 -0.052,1.544 -0.111,1.96 -0.06,0.77 -0.252,1.38 -0.579,1.825 -0.326,0.445 -0.92,0.667 -1.78,0.667 -0.653,0 -1.136,-0.148 -1.447,-0.445 -0.312,-0.297 -0.557,-0.712 -0.735,-1.246 -0.119,-0.327 -0.2,-0.839 -0.245,-1.536 -0.044,-0.698 -0.067,-1.759 -0.067,-3.183 v -9.438 c 0,-1.247 0.023,-2.234 0.067,-2.961 0.045,-0.727 0.097,-1.24 0.156,-1.536 0.148,-0.623 0.4,-1.105 0.757,-1.447 0.356,-0.341 0.905,-0.512 1.647,-0.512 0.772,0 1.336,0.215 1.692,0.646 0.356,0.43 0.549,1.001 0.579,1.714 z m 21.68,-9.839 h -4.452 v 21.058 c 0.03,1.691 -0.126,2.849 -0.467,3.472 -0.341,0.623 -0.957,0.965 -1.848,1.024 h -1.068 v 4.14 h 2.137 c 1.098,-0.03 2.018,-0.207 2.76,-0.534 0.742,-0.326 1.336,-0.853 1.78,-1.58 0.446,-0.727 0.758,-1.677 0.936,-2.85 0.178,-1.172 0.252,-2.634 0.222,-4.385 z m -9.349,29.695 V 17.653 h -4.452 v 29.695 z" />
</svg>
