<?xml version="1.0" encoding="utf-8"?>
<svg xmlns="http://www.w3.org/2000/svg" version="1.1" viewBox="0 0 157 30" fill="#0D3567">
    <path transform="translate(46 5)" d="m23.926 23.195-0.439-0.438c-0.282 0.292-0.624 0.438-1.025 0.438-0.39 0-0.697-0.157-0.919-0.472-0.222-0.314-0.414-0.878-0.577-1.691l-0.7-3.464c-0.26-1.366-0.973-2.399-2.138-3.099-1.166-0.699-2.882-1.114-5.148-1.244 2.938-0.282 5.031-1.01 6.278-2.187s1.871-2.6 1.871-4.27c0-1.963-0.828-3.418-2.481-4.367-1.654-0.948-4.172-1.423-7.555-1.423h-2.309-8.783v0.634c0.705 0.033 1.217 0.12 1.537 0.261 0.32 0.14 0.539 0.401 0.659 0.78 0.119 0.38 0.179 0.987 0.179 1.821v16.526c0 0.835-0.057 1.442-0.171 1.821-0.114 0.38-0.331 0.64-0.651 0.781-0.319 0.141-0.837 0.228-1.553 0.26v0.667h11.499v-0.667c-0.705-0.032-1.217-0.119-1.537-0.26s-0.539-0.401-0.659-0.781c-0.119-0.379-0.179-0.986-0.179-1.821v-7.202h1.513c0.781 0 1.361 0.398 1.74 1.195 0.38 0.797 0.683 1.517 0.911 3.079l0.504 3.317c0.195 1.313 0.718 2.243 1.57 2.79 0.851 0.547 2.041 0.822 3.57 0.822 1.062 0 1.994-0.136 2.797-0.408 0.802-0.27 1.534-0.737 2.196-1.398m-13.89-10.523h-0.911v-8.198c0-0.791 0.047-1.387 0.138-1.788 0.093-0.401 0.266-0.68 0.521-0.838 0.255-0.157 0.637-0.236 1.147-0.236 1.138 0 1.957 0.467 2.455 1.399 0.499 0.933 0.749 2.31 0.749 4.131 0 1.128-0.112 2.093-0.334 2.895-0.222 0.803-0.634 1.442-1.235 1.92-0.602 0.476-1.446 0.715-2.53 0.715"></path>
    <path d="m24.855 19.933 3.204-8.328 2.567 8.328h-5.771zm16.685 8.384c-0.348-0.342-0.662-0.87-0.944-1.586l-8.067-20.785h-3.497l-7.4 19.012c-0.51 1.324-1.011 2.283-1.505 2.879-0.493 0.596-1.01 0.938-1.553 1.025v0.667h6.929v-0.667c-0.998-0.033-1.291-0.217-1.794-0.553-0.505-0.336-0.757-0.96-0.757-1.87 0-1.03 0.588-2.478 1.303-4.343l0.34-1.038h6.259l1.984 5.006c0.271 0.716 0.407 1.242 0.407 1.578 0 0.434-0.182 0.737-0.545 0.91-0.364 0.174-0.963 0.277-1.798 0.31v0.667h11.662v-0.667c-0.336-0.022-0.678-0.203-1.024-0.545z"></path>
    <path d="m73.75 19.933 3.204-8.328 2.567 8.328h-5.771zm16.685 8.384c-0.348-0.342-0.662-0.87-0.944-1.586l-8.067-20.785h-3.497l-7.4 19.012c-0.51 1.324-1.011 2.283-1.505 2.879-0.493 0.596-1.01 0.938-1.553 1.025v0.667h6.929v-0.667c-0.998-0.033-1.291-0.217-1.794-0.553-0.505-0.336-0.757-0.96-0.757-1.87 0-1.03 0.588-2.478 1.303-4.343l0.34-1.038h6.259l1.984 5.006c0.271 0.716 0.407 1.242 0.407 1.578 0 0.434-0.182 0.737-0.545 0.91-0.364 0.174-0.963 0.277-1.798 0.31v0.667h11.662v-0.667c-0.336-0.022-0.678-0.203-1.024-0.545z"></path>
    <path d="m11.824 6.6116v-0.666h-11.824v0.666c0.705 0.033 1.217 0.12 1.537 0.261 0.32 0.14 0.539 0.401 0.659 0.78 0.119 0.38 0.178 0.987 0.178 1.821v16.526c0 0.835-0.056 1.442-0.171 1.821-0.113 0.38-0.33 0.64-0.65 0.781s-0.837 0.228-1.553 0.26v0.667h19.224v-8.994h-0.829c-0.25 1.377-0.738 2.244-1.464 3.518-0.727 1.274-1.548 2.301-2.464 3.082s-1.759 1.171-2.529 1.171h-1.106c-0.51 0-0.878-0.048-1.106-0.146s-0.385-0.29-0.471-0.577c-0.088-0.287-0.131-0.746-0.131-1.375v-16.734c0-0.834 0.068-1.441 0.203-1.821 0.136-0.379 0.385-0.64 0.749-0.78 0.363-0.141 0.945-0.228 1.748-0.261"></path>
    <path d="m156.68 6.6116v-0.666h-6.489v0.666c1.073 0.152 2.299 1.61 2.429 2.326s0.195 1.893 0.195 3.529v7.873l-12.887-14.394h-5.839v0.666c0.704 0.033 1.216 0.12 1.537 0.261 0.32 0.14 0.539 0.401 0.658 0.78 0.12 0.38 0.18 0.987 0.18 1.821v14.2c0 1.323-0.057 2.317-0.171 2.984s-0.337 1.163-0.667 1.488c-0.331 0.325-0.843 0.565-1.537 0.716v0.667h6.506v-0.667c-1.074-0.151-2.316-1.61-2.446-2.326-0.131-0.715-0.196-1.892-0.196-3.529v-9.596l14.027 16.118c0.444-0.032 2.016-0.032 2.342 0v-17.729c0-1.322 0.056-2.317 0.17-2.984s0.334-1.163 0.659-1.488 0.835-0.564 1.529-0.716"></path>
    <path d="m109.5 6.6116v-0.634h-17.268v7.97h0.776c0.238-1.768 0.762-2.732 1.569-3.812 0.808-1.078 1.733-1.842 2.773-2.293 1.041-0.45 2.082-0.674 3.123-0.674h1.659l-10.084 21.693v0.667c1.952-0.065 17.593 0 17.593 0s-0.066-7.861 0-8.652h-0.776c-0.206 1.842-0.786 2.897-1.74 4.079-0.954 1.181-2.02 2.036-3.196 2.561-1.177 0.527-2.22 0.789-3.131 0.789h-1.399l10.101-21.694z"></path>
    <path d="m119.68 7.681c-0.818 0.984-1.45 2.355-1.896 4.114s-0.669 3.773-0.669 6.042c0 2.281 0.252 4.294 0.758 6.042 0.505 1.748 1.188 3.096 2.049 4.042 0.861 0.947 1.807 1.42 2.84 1.42 1.086 0 2.038-0.492 2.855-1.476 0.817-0.985 1.45-2.356 1.896-4.115 0.446-1.758 0.669-3.772 0.669-6.042 0-2.28-0.252-4.294-0.757-6.042-0.506-1.748-1.189-3.095-2.05-4.042-0.86-0.946-1.807-1.42-2.84-1.42-1.085 0-2.038 0.493-2.855 1.477m9.535-0.653c1.872 0.946 3.324 2.32 4.357 4.122 1.032 1.802 1.548 3.944 1.548 6.429 0 2.431-0.53 4.582-1.588 6.454-1.06 1.872-2.537 3.324-4.43 4.356s-4.049 1.549-6.469 1.549c-2.496 0-4.68-0.473-6.551-1.42-1.872-0.946-3.324-2.32-4.356-4.122-1.033-1.802-1.549-3.944-1.549-6.43 0-2.431 0.529-4.582 1.589-6.453 1.06-1.872 2.534-3.324 4.421-4.356 1.888-1.033 4.047-1.549 6.478-1.549 2.495 0 4.679 0.473 6.55 1.42"></path>
    <polygon transform="translate(120)" fill="#D8232A" points="7.8145 8.9359 0.9285 8.8009 4.6765 0.5999 13.002 0.5999"></polygon>
</svg>
