<?xml version="1.0" encoding="utf-8"?>
<svg xmlns="http://www.w3.org/2000/svg" version="1.1" viewBox="0 0 205 25" fill="#000000">
    <path d="M22 24v-9.47h-3.248c0 3.746-.663 6.417-4.854 6.417h-3.806V5.44c0-.867.488-1.387 1.362-1.387h2.165V1H0v3.053h2.165c.873 0 1.362.52 1.362 1.387v14.12c0 .867-.489 1.387-1.362 1.387H.035V24H22zM33.418 1.041L27.55 18.387c-.702 2.116-1.194 2.602-2.424 2.602h-1.194v3.052H34.26V20.99h-1.02c-.948 0-2.177-.104-2.177-.66 0-.485.14-1.006.527-2.22l.421-1.387h7.168l.737 2.498c.14.52.176.901.176 1.249 0 .381-.878.52-1.932.52h-1.054v3.052h12.825V20.99h-1.195c-1.23 0-1.721-.486-2.424-2.602L40.446 1.041h-7.028zm2.037 5.34h.073l2.622 7.393h-5.28l2.585-7.393zM74.867.391h-2.853l-.619 1.671C69.435.782 67.201 0 64.865 0 60.12 0 55 1.6 55 7.467c0 10.205 14.883 6.081 14.883 11.166 0 2.027-2.165 3.058-3.953 3.058-4.056 0-7.046-2.596-7.493-6.328H55.24v9.317h2.887l.894-1.885C61.186 24.431 63.868 25 66.514 25 71.258 25 76 23.08 76 17.39c0-10.135-14.883-6.543-14.883-11.023 0-2.382 1.856-3.058 3.85-3.058 3.025 0 6.222 2.098 6.737 5.832h3.162V.394l.001-.003zM81.22 9.81c0-3.54 1.039-5.758 5.022-5.758V19.56c0 .868-.485 1.388-1.35 1.388h-2.148V24h13.441v-3.053h-2.078c-.866 0-1.351-.52-1.351-1.388V4.052c3.983 0 5.022 2.22 5.022 5.761H101V1H78v8.813h3.222l-.002-.004z"></path>
    <path d="M106.418 1.041l-5.868 17.346c-.702 2.116-1.194 2.602-2.424 2.602h-1.194v3.052h10.329V20.99h-1.02c-.948 0-2.177-.104-2.177-.66 0-.485.14-1.006.527-2.22l.421-1.387h7.168l.737 2.498c.14.52.176.901.176 1.249 0 .381-.879.52-1.932.52h-1.054v3.052h12.825V20.99h-1.195c-1.23 0-1.721-.486-2.424-2.602l-5.869-17.346H106.418zm2.037 5.34h.073l2.622 7.393h-5.28l2.585-7.393zM124 1v3.054h2.14c.892 0 1.392.52 1.392 1.387v14.118c0 .868-.5 1.388-1.391 1.388H124V24h10.312v-3.053h-1.498c-.893 0-1.392-.52-1.392-1.388V4.574h.072L137.059 24h5.208l5.601-19.079h.072V19.56c0 .867-.5 1.387-1.391 1.387h-1.499V24H158v-3.053h-1.962c-.892 0-1.392-.52-1.392-1.387V5.44c0-.867.5-1.387 1.392-1.387H158V1h-12.7l-4.21 14.118h-.072L136.916 1H124zM162.495 19.6c0 .868-.494 1.388-1.377 1.388h-2.153v3.053h13.906v-3.053h-2.364c-.883 0-1.377-.52-1.377-1.388V14.12h3.883c6.493 0 9.917-1.804 9.917-6.556s-3.423-6.522-9.212-6.522H158.93v3.054h2.188c.883 0 1.377.52 1.377 1.387V19.6zm6.78-15.683h3.535c1.94 0 3.5 1.355 3.5 3.508 0 2.154-1.629 3.474-4.055 3.474h-2.98V3.916v.001zM188.418 1.041l-5.868 17.346c-.702 2.116-1.194 2.602-2.424 2.602h-1.194v3.052h10.329V20.99h-1.019c-.949 0-2.178-.104-2.178-.66 0-.485.14-1.006.527-2.22l.422-1.387h7.167l.737 2.498c.14.52.176.901.176 1.249 0 .381-.878.52-1.932.52h-1.054v3.052h12.825V20.99h-1.195c-1.23 0-1.722-.486-2.424-2.602l-5.867-17.346h-7.028zm2.037 5.34h.073l2.622 7.393h-5.28l2.585-7.393z"></path>
</svg>
