<?xml version="1.0" encoding="utf-8"?>
<svg xmlns="http://www.w3.org/2000/svg" version="1.1" viewBox="0 0 439.6 46.4" fill="#001b4a">
    <path d="M360.4,3.5h-18v2.3l4.7,1.1v33.2c-0.6,0.8-1.6,1.7-3.3,1.7c-3.1,0-4.9-2.7-5.8-4.3l-4.5-8c-1.8-3.4-3.9-5-8.2-5.5v-0.6c6-0.1,11.4-4.4,11.4-10.2c0-6.9-6.3-9.6-13.5-9.6h-16.3v2.3l5.3,1.1v33.7h0l-6.1,1.2L290.6,0c-1.8,2.2-3.8,3.8-5.5,4.7l0.6,1.7l-14,34.2l-4.2,1.1V44h12.7v-2.3l-4.2-1.1l4.7-12.5h13l4.5,12.4l-4.9,1.2V44h31v-2.3l-5.2-1.1V24.9c3.5,0.2,5.2,1.8,6.9,5.1l6.1,11c2.1,3.6,5.1,5.4,8.9,5.4c2.9,0,5.2-1.7,5.8-2.4h13.9c11.8,0,21.4-9.1,21.4-20.2C382.1,11.9,373,3.5,360.4,3.5L360.4,3.5z M281.8,25l5.5-14.4l5.3,14.4H281.8L281.8,25z M321.9,22c-0.6,0-1.9,0-2.8,0V6.9h3.5c4.3,0,7.2,3.2,7.1,7.2C329.5,18.1,326.6,22,321.9,22L321.9,22z M359.9,40.6h-5.8V6.9h5.9c9.2,0,14.8,6.3,14.8,16.9C374.9,34.1,369.1,40.6,359.9,40.6L359.9,40.6z"/>
    <path d="M65,40.6L50,0c-1.8,2.2-3.8,3.8-5.5,4.7l0.6,1.7l-14,34.2l-3,1.1L27.3,44h12.4v-2.3l-4.2-1.1l4.7-12.5h13l4.5,12.4l-4.9,1.2V44h16.6v-2.3L65,40.6L65,40.6z M41.2,25l5.5-14.4L52,25H41.2L41.2,25z"/>
    <polygon points="29.3,33.7 27.8,32.9 19.1,40.8 11.6,40.8 11.6,6.9 16.1,5.8 16.1,3.5 0,3.5 0,5.8 4.5,6.9 4.5,40.6 0,41.7 0,44 25.3,44 29.3,33.7 "/>
    <polygon points="99.7,3.5 99.7,5.8 104.5,6.9 94,34 82.8,6.9 88.1,5.8 88.1,3.5 70.1,3.5 70.1,5.8 75.2,6.9 91.2,45.4 92.9,45.4 108.8,6.9 109,6.9 114,5.8 114,3.5 99.7,3.5 "/>
    <path d="M259.2,3.5v2.3l4.8,1.1c0,0,0.4,20.1,0.2,25.1c-0.2,5.9-4.8,9.9-10.9,9.9c-6.2,0-10.7-3.7-10.9-10.4V6.8l4.7-1.1V3.5h-16.3v2.3l4.6,1.1v24.9c0.3,8.6,7.2,14.2,16.1,14.2c8.9,0,15.8-5.2,16.1-14.2L268,6.9l4.7-1.1V3.5H259.2L259.2,3.5z"/>
    <path d="M435.1,40.5L420.2,0c-1.8,2.2-3.8,3.8-5.5,4.7l0.6,1.7l-14,34.4l-2.4,1l-3.2-1V6.9l5-1.1V3.5h-16.9v2.3l4.9,1.2v33.7l-4.7,1.1V44h25.9v-2.3l-4.2-1.1l4.7-12.5h13l4.5,12.4l-4.9,1.2V44h16.6v-2.3L435.1,40.5L435.1,40.5z M411.4,25l5.5-14.4l5.3,14.4H411.4L411.4,25z"/>
    <path d="M172.3,3.5v2.3l4.9,1.2l0.3,26.5L152.2,3.5h-10.8v2.3l4.9,1.1l0.4,0.2l-0.4,33.5h0l-5,1.2L126,0c-1.8,2.2-3.8,3.8-5.5,4.7l0.6,1.7l-14,34.2l-4.2,1.1V44h12.7v-2.3l-4.2-1.1l4.7-12.5h13l4.5,12.4l-4.9,1.2V44h26.6v-2.3l-5.2-1.1l-0.3-29.3l29,34.1h1.9l0.4-38.5l4.9-1.1V3.5H172.3L172.3,3.5z M117.2,25l5.5-14.4l5.3,14.4H117.2L117.2,25z"/>
    <path d="M214.9,23.3v2.3l4.6,1.1v13c-2.2,1.8-5.7,3-9.1,3c-9.2,0-15.1-7.8-15.1-18.5C195.2,13.9,201,5,210.4,5c6.1,0,11.6,4.3,13.5,11l1.3-0.8V2.5l-1.2-0.6l-2.5,3.1c-2.6-1.4-7-2.8-11.2-2.8c-12.5,0-22.7,10.2-22.7,22.3c0,12.6,8.9,21.6,21,21.6c4.9,0,9.5-1.5,13.1-4.3l3.6,2.4h1.2V26.6l3.8-1.5v-1.9H214.9L214.9,23.3z"/>
</svg>
