<?xml version="1.0" encoding="utf-8"?>
<svg xmlns="http://www.w3.org/2000/svg" version="1.1" viewBox="168 0 485 115.96" fill="#000000">
    <g transform="translate(0,-257.354)">
        <path d="m 550.234,340.915 c -0.026,3.51 3.525,6.938 6.912,6.913 h 6.038 v 8.344 h -44.996 v -8.344 h 9.113 c 3.451,0 6.929,-3.4 6.944,-6.913 v -53.519 c -0.016,-3.387 -3.44,-6.887 -6.938,-6.916 h -9.119 v -8.115 h 44.996 v 8.115 h -6.038 c -3.605,0.002 -6.938,3.461 -6.912,6.967 v 53.468" />
        <path d="m 480.215,356.836 c -11.792,0 -20.395,-3.215 -28.544,-11.357 -5.722,-5.711 -11.621,-16.656 -11.584,-33.033 0.013,-12.334 3.952,-24.455 11.511,-31.934 6.975,-6.857 16.649,-10.585 28.617,-10.585 11.962,0 21.642,3.728 28.618,10.585 7.559,7.479 11.498,19.6 11.503,31.934 0.038,16.377 -5.854,27.322 -11.578,33.033 -8.154,8.142 -16.751,11.357 -28.543,11.357 m 0,-7.827 c 11.52,-0.026 19.37,-7.028 22.586,-20.354 2.191,-9.06 2.533,-17.25 0,-30.574 -2.654,-11.68 -10.139,-21.073 -22.586,-21.04 -12.447,-0.033 -19.931,9.36 -22.592,21.04 -2.533,13.324 -2.191,21.344 0,30.574 3.158,13.335 11.066,20.327 22.592,20.354" />
        <path d="m 430.376,275.396 v 25.556 h -7.419 c 0,-6.65 -1.732,-12.226 -6.517,-16.622 -11.206,-10.212 -24.835,-4.708 -24.835,-4.708 -3.537,1.455 -7.349,4.223 -8.738,8.032 -1.041,3.673 -0.137,7.478 2.567,10.113 2.912,2.771 6.59,3.668 10.195,4.913 11.028,3.325 22.757,4.986 32.042,12.535 6.314,5.263 7.211,13.576 5.686,21.194 -1.873,10.313 -11.488,15.544 -19.275,18.057 -14.959,4.316 -29.752,2.773 -45.918,-4.137 v -26.944 h 8.461 c -0.207,8.658 2.845,16.688 10.058,21.539 7.491,4.847 19.215,4.921 27.117,0.692 3.057,-2.008 5.765,-5.33 5.69,-9.275 0.208,-4.781 -3.189,-8.59 -7.137,-10.596 -15.194,-7.205 -36.559,-6.237 -43.567,-25.42 -2.356,-9.352 2.289,-17.723 9.713,-23.198 12.311,-8.949 29.337,-9.691 51.877,-1.731" />
        <path d="m 306.776,302.785 v -8.033 c 0,-10.907 -4.974,-14.23 -14.495,-14.27 h -12.426 c -3.674,0.024 -6.952,3.061 -6.934,6.947 v 20.172 h 13.203 c 3.668,-0.027 6.357,-2.309 6.39,-9.38 v -3.741 h 7.153 v 36.733 h -7.153 l 0.011,-3.306 c -0.025,-6.619 -2.36,-10.283 -6.401,-10.303 h -13.203 v 23.311 c 0.007,3.221 3.652,6.917 6.92,6.913 h 14.244 c 8.413,0.015 14.625,-5.392 14.652,-14.624 v -9.674 h 8.549 v 32.641 h -73.212 v -8.343 h 5.816 c 3.89,-0.007 6.95,-3.234 6.95,-6.913 v -53.459 c 0.007,-4.004 -2.653,-6.973 -6.927,-6.975 h -9.547 v -8.117 h 75.43 v 30.42 h -9.02" />
        <path d="m 652.926,347.791 v 8.381 h -23.827 c -1.665,-0.145 -3.261,-1.514 -3.744,-3.105 -3.265,-11.981 -2.982,-24.381 -11.584,-34.213 -1.596,-1.611 -4.657,-2.719 -7.003,-2.703 h -11.932 v 24.758 c 0.011,3.389 3.554,6.945 6.935,6.92 h 5.514 v 8.344 h -39.268 v -8.344 h 3.865 c 3.403,0.015 6.967,-3.366 6.967,-6.92 v -53.512 c 0,-3.418 -3.521,-6.896 -6.967,-6.916 h -3.865 v -8.115 h 42.633 c 10.677,-0.017 21.13,0.043 28.298,11.242 2.774,4.847 3.19,12.112 0.348,17.101 -4.997,8.521 -14.635,11.149 -23.584,12.882 6.869,1.037 14.288,2.911 17.894,9.695 3.396,6.576 3.083,11.726 6.757,20.244 1.728,3.274 4.95,4.271 7.531,4.262 h 5.032 M 601.754,280.48 c -3.6,-0.012 -6.912,3.443 -6.918,6.918 v 20.063 h 14.539 c 6.623,0.053 12.438,-3.307 14.73,-8.137 2.139,-4.807 1.595,-9.575 -1.872,-14.197 -2.971,-3.764 -7.237,-4.631 -13.092,-4.646 h -7.387" />
        <path d="m 229.441,319.441 h 8.74 v 36.73 h -70.646 v -8.343 h 7.754 c 4.416,-0.013 6.941,-3.314 6.95,-6.913 v -53.497 c -0.009,-4.937 -3.764,-6.923 -6.969,-6.938 h -7.735 v -8.115 h 47.443 v 8.115 h -9.782 c -3.425,0 -6.936,2.135 -6.936,6.938 v 53.497 c -0.015,3.707 2.945,6.9 8.336,6.913 h 5.52 c 13.762,0.004 17.325,-8.834 17.325,-17.744 v -10.643" />
    </g>
</svg>
