<?xml version="1.0" encoding="utf-8"?>
<svg xmlns="http://www.w3.org/2000/svg" version="1.1" viewBox="0 0 400.1 79.2" fill="#222222">
    <path d="M206.5,0h5v5h-5V0z M206.5,21.8h5v55.5h-5V21.8z"/>
    <path d="M223.3,39c1.8-14,9-18.8,25.8-18.8c16.1,0,25.5,3.8,25.5,16.2v31.1c0,4.1,0,6.6,3.7,6.6c1.6,0,3.2-0.3,4.9-0.9 v4.3c-1.5,0.5-3.6,0.9-6.1,0.9c-6.8,0-6.8-4.8-6.8-12.1h-0.2c-6.2,11.4-19.2,12.8-26.4,12.8c-4.8,0-22.7,0-22.7-16.9 c0-11.4,9.6-15.3,20.9-15.9l19.4-1.3c5.7-0.4,8.4-1.1,8.4-7.9c0-7.5-4.2-12.6-20.6-12.6c-14.6,0-19.2,4.5-20.7,14.5L223.3,39z M269.5,46.3h-0.2c-1.2,1.3-4.1,2.6-8.9,2.9l-18.7,1.3c-9.3,0.6-15.9,3.2-15.9,11.6c0,11.3,11.4,12.6,18.1,12.6 c11,0,25.7-5,25.7-18.2V46.3L269.5,46.3z"/>
    <path d="M288.3,21.8h5V35h0.2c3.7-9.7,12.1-14.8,23-14.8c1.5,0,2.6,0.2,4.1,0.6v5c-1.2-0.4-2.6-0.6-5.7-0.6 c-14.4,0-21.6,10.9-21.6,22.2v30h-5V21.8z"/>
    <path d="M326.8,0h5v5h-5V0z M326.8,21.8h5v55.5h-5V21.8z"/>
    <path d="M370.6,20.1c-16.3,0-29.5,13.2-29.5,29.5s13.2,29.5,29.5,29.5s29.5-13.2,29.5-29.5S386.8,20.1,370.6,20.1z M370.6,74.1c-13.5,0-24.5-11-24.5-24.5s11-24.5,24.5-24.5s24.5,11,24.5,24.5S384.1,74.1,370.6,74.1z"/>
    <path d="M189,0v33.9c-5.2-8.3-14.4-13.7-24.9-13.7c-16.3,0-29.5,13.2-29.5,29.5s13.2,29.5,29.5,29.5 c10.5,0,19.7-5.5,24.9-13.7v12h5V0H189z M164,74.1c-13.5,0-24.5-11-24.5-24.5s11-24.5,24.5-24.5s24.5,11,24.5,24.5 S177.6,74.1,164,74.1z"/>
    <path d="M29.5,20.1C13.2,20.1,0,33.3,0,49.6s13.2,29.5,29.5,29.5S59,65.9,59,49.6S45.8,20.1,29.5,20.1z M29.5,67.3 c-9.8,0-17.7-7.9-17.7-17.7s7.9-17.7,17.7-17.7s17.7,7.9,17.7,17.7S39.3,67.3,29.5,67.3z"/>
    <path d="M67.4,41.5l8.3-8.4l0.9-0.9V0H64.9v44L67.4,41.5z"/>
    <path d="M75.7,54.8l-8.3-8.3L64.9,44v33.3h11.7V55.8L75.7,54.8z"/>
    <path d="M97.4,54.8L89,63.1l14.2,14.2h16.7L97.4,54.8z"/>
    <path fill="#23AAE6" d="M111.5,19l-25,25l-8.3-8.4L69.9,44l8.3,8.3l8.3,8.3l5.7-5.7l27.7-27.6L111.5,19z"/>
</svg>
