<?xml version="1.0" encoding="utf-8"?>
<svg xmlns="http://www.w3.org/2000/svg" version="1.1" viewBox="0 0 128 50" fill="#000000">
    <path d="M128,0 L128,50 L0,50 L0,0 L128,0 Z M47.0699367,25.0629114 C39.4471519,25.0629114 35.3572785,30.6281013 35.3572785,36.8198734 C35.3572785,42.048038 38.9582278,44.3641772 43.9791139,44.3641772 C46.6848101,44.3641772 49.1522152,43.5173418 50.4813291,42.8682911 L50.4813291,42.8682911 L52.6174051,33.5948734 L45.1702532,33.5948734 L44.3901899,37.0806329 L46.1072785,37.0806329 L45.4142405,40.098038 C45.1094937,40.2439241 44.7193038,40.358481 44.0610759,40.358481 C42.318038,40.358481 41.5031646,38.9493038 41.5031646,36.6553165 C41.5031646,33.3518354 43.2493671,29.415443 46.7971519,29.415443 C48.75,29.415443 50.3123418,29.9122785 52.2889241,30.7863291 L52.2889241,30.7863291 L53.3126582,26.4413924 C51.9082278,25.6344304 49.9829114,25.0629114 47.0699367,25.0629114 Z M19.3201266,25.3485443 L16.4536709,25.3485443 L15.0020886,31.6175316 L14.8922272,31.4799948 C14.2142454,30.6684118 13.1918954,30.108038 11.5160127,30.108038 C7.27613924,30.108038 4.54481013,34.5051899 4.54481013,39.3175316 C4.54481013,42.9858861 6.67772152,44.3381013 8.88911392,44.3381013 C10.7622152,44.3381013 12.0365823,43.3491772 12.8691772,42.2311392 C12.9989241,43.3491772 13.7017722,44.0779747 15.3400633,44.0779747 L15.3400633,44.0779747 L17.9416456,44.0779747 L21.6147468,28.043481 L21.6490215,27.8739302 C21.9201115,26.3126287 20.835622,25.3485443 19.3201266,25.3485443 L19.3201266,25.3485443 Z M118.122278,30.0821835 C113.075443,30.1340823 109.84981,33.6980063 109.84981,38.5628797 C109.823861,42.3090823 112.295063,44.3122468 116.795063,44.3122468 C119.162468,44.3122468 120.775443,43.8435759 121.897911,43.1378797 L121.897911,43.1378797 L122.674177,39.7495886 C121.116899,40.4090823 119.804557,40.764462 118.247595,40.764462 C116.285253,40.764462 115.393481,39.9935759 115.393481,38.4590823 L115.393481,38.4590823 L123.532722,38.4590823 C123.845063,37.3923101 123.975443,36.4559177 123.975443,35.4410443 C124.026709,31.6780696 121.212468,30.0821835 118.122278,30.0821835 Z M90.679019,30.0821835 C85.6321835,30.1340823 82.4065506,33.6980063 82.4065506,38.5628797 C82.3806013,42.3090823 84.8518038,44.3122468 89.3518038,44.3122468 C91.7192089,44.3122468 93.3321835,43.8435759 94.4546519,43.1378797 L94.4546519,43.1378797 L95.2309177,39.7495886 C93.6736392,40.4090823 92.3612975,40.764462 90.8043354,40.764462 C88.8419937,40.764462 87.9502215,39.9935759 87.9502215,38.4590823 L87.9502215,38.4590823 L96.089462,38.4590823 C96.4018038,37.3923101 96.5321835,36.4559177 96.5321835,35.4410443 C96.5834494,31.6780696 93.7692089,30.0821835 90.679019,30.0821835 Z M60.9165506,30.0821835 C55.8700316,30.1340823 52.6443987,33.6980063 52.6443987,38.5628797 C52.6184494,42.3090823 55.0896519,44.3122468 59.5896519,44.3122468 C61.9573734,44.3122468 63.5700316,43.8435759 64.6928165,43.1378797 L64.6928165,43.1378797 L65.4693987,39.7495886 C63.9118038,40.4090823 62.599462,40.764462 61.0425,40.764462 C59.0798418,40.764462 58.1880696,39.9935759 58.1880696,38.4590823 L58.1880696,38.4590823 L66.3273101,38.4590823 C66.6393354,37.3923101 66.7697152,36.4559177 66.7697152,35.4410443 C66.820981,31.6780696 64.0073734,30.0821835 60.9165506,30.0821835 Z M28.6008544,30.0821835 C23.554019,30.1340823 20.3283861,33.6980063 20.3283861,38.5628797 C20.3024367,42.3090823 22.7736392,44.3122468 27.2736392,44.3122468 C29.6413608,44.3122468 31.254019,43.8435759 32.3768038,43.1378797 L32.3768038,43.1378797 L33.1530696,39.7495886 C31.5957911,40.4090823 30.2834494,40.764462 28.7264873,40.764462 C26.7641456,40.764462 25.872057,39.9935759 25.872057,38.4590823 L25.872057,38.4590823 L34.0112975,38.4590823 C34.3236392,37.3923101 34.454019,36.4559177 34.454019,35.4410443 C34.5052848,31.6780696 31.6913608,30.0821835 28.6008544,30.0821835 Z M100.22443,30.3424684 L96.6712658,30.3424684 L96.8367722,31.4870886 L98.5798101,44.0779114 L104.355127,44.0779114 L111.534873,31.4870886 L112.196582,30.3424684 L106.670316,30.3424684 L103.080127,37.7567089 L103.001646,37.7567089 L102.601646,32.3307595 C102.502278,30.9820253 101.586139,30.3424684 100.22443,30.3424684 L100.22443,30.3424684 Z M79.2296203,30.082057 C76.9922785,30.082057 75.5093671,31.0969304 74.1052532,32.527943 C74.1052532,30.9152848 73.2986076,30.3425 71.7378481,30.3425 L71.7378481,30.3425 L69.0581013,30.3425 L65.8846835,44.077943 L71.6853165,44.077943 L73.7663291,34.8950316 C74.2090506,34.6868038 74.6248734,34.5830063 75.0410127,34.5830063 C76.1084177,34.5830063 76.341962,35.0510443 76.1337342,36.0133861 L76.1337342,36.0133861 L74.8868987,41.4659177 C74.5093671,43.0975633 75.6312025,44.077943 77.2005063,44.077943 L77.2005063,44.077943 L80.0362658,44.077943 L82.1691772,34.8431329 C82.9239241,31.5130696 81.3106329,30.082057 79.2296203,30.082057 Z M13.2071519,34.1665823 C13.7796203,34.1665823 14.1175949,34.3229114 14.3517722,34.5051899 L14.3517722,34.5051899 L12.9989241,40.3843038 L12.8060709,40.4684456 C12.5422532,40.5682532 12.2550633,40.618481 11.9846835,40.618481 C10.9698101,40.618481 10.4498734,40.0716456 10.4498734,38.9010759 C10.4498734,36.6640506 11.3862658,34.1665823 13.2071519,34.1665823 Z M28.1872468,33.5423101 C29.0195253,33.5423101 29.4071835,34.0619304 29.4071835,35.0508544 C29.4071835,35.3631962 29.3809177,35.5714241 29.3549684,35.8056013 L29.3549684,35.8056013 L26.1840823,35.8056013 C26.522057,34.5052848 27.1986392,33.5423101 28.1872468,33.5423101 Z M90.2654114,33.5423101 C91.0973734,33.5423101 91.4850316,34.0619304 91.4850316,35.0508544 C91.4850316,35.3631962 91.4590823,35.5714241 91.4331329,35.8056013 L91.4331329,35.8056013 L88.2622468,35.8056013 C88.6002215,34.5052848 89.2764873,33.5423101 90.2654114,33.5423101 Z M60.5032595,33.5423101 C61.335538,33.5423101 61.7231962,34.0619304 61.7231962,35.0508544 C61.7231962,35.3631962 61.6966139,35.5714241 61.6706646,35.8056013 L61.6706646,35.8056013 L58.5000949,35.8056013 C58.8380696,34.5052848 59.5143354,33.5423101 60.5032595,33.5423101 Z M117.708671,33.5423101 C118.540633,33.5423101 118.928291,34.0619304 118.928291,35.0508544 C118.928291,35.3631962 118.902342,35.5714241 118.876392,35.8056013 L118.876392,35.8056013 L115.705506,35.8056013 C116.043481,34.5052848 116.719747,33.5423101 117.708671,33.5423101 Z M91.4348734,25.3387658 L85.7756962,25.3387658 L88.9896203,29.1884494 L92.8364557,29.1884494 L92.5016456,28.2783228 L91.4348734,25.3387658 Z M42.0027215,4.53803797 L39.1346835,4.53803797 L34.8109494,23.2668354 L37.6986076,23.2668354 L37.9088074,23.2595993 C38.8754585,23.1922405 39.6441983,22.6571097 40.3001899,21.7589241 C40.9761392,22.8250633 42.2248734,23.5279114 44.0979747,23.5279114 C48.7543038,23.5279114 51.3558861,19.2870886 51.3558861,14.1627215 C51.3558861,10.6506962 49.5868987,9.27189873 47.5058861,9.27189873 C45.7365823,9.27189873 44.3581013,10.130443 43.3694937,11.1972152 L43.3694937,11.1972152 L44.2973418,7.23265823 L44.3316164,7.06310847 C44.6027065,5.50182732 43.5182169,4.53803797 42.0027215,4.53803797 L42.0027215,4.53803797 Z M90.3402848,9.2718038 C85.2934494,9.32370253 82.0678165,12.8876266 82.0678165,17.7525 C82.0418671,21.4987025 84.5130696,23.5012342 89.0130696,23.5012342 C91.3811076,23.5012342 92.9934494,23.0331962 94.1165506,22.3275 L94.1165506,22.3275 L94.8928165,18.9392089 C93.335538,19.5987025 92.0231962,19.9540823 90.4662342,19.9540823 C88.5038924,19.9540823 87.6114873,19.1831962 87.6114873,17.6487025 L87.6114873,17.6487025 L95.7507278,17.6487025 C96.0630696,16.5819304 96.1934494,15.645538 96.1934494,14.6306646 C96.2447152,10.8676899 93.4311076,9.2718038 90.3402848,9.2718038 Z M56.3875,9.53212025 L53.5406646,9.53212025 L51.4077532,18.7666139 C50.627057,22.122943 52.2922468,23.5011076 54.5295886,23.5011076 C56.6365506,23.5011076 58.0935127,22.4609177 59.3678797,21.2118671 C59.4723101,22.3052215 60.1485759,23.2669304 61.8653481,23.2669304 L61.8653481,23.2669304 L64.4400316,23.2669304 L67.6140823,9.53212025 L61.8393987,9.53212025 L59.6539557,19.0530063 C59.2381329,19.2352848 58.8473101,19.3390823 58.405538,19.3390823 C57.4166139,19.3390823 57.1830696,18.8450949 57.3906646,17.8824367 L57.3906646,17.8824367 L58.7017405,12.1435127 C59.0441456,10.4833861 57.9574367,9.53212025 56.3875,9.53212025 L56.3875,9.53212025 Z M78.9131646,9.27170886 C76.6758228,9.27170886 75.1929114,10.2865823 73.7887975,11.7175949 C73.7887975,10.1049367 72.9821519,9.5321519 71.4213924,9.5321519 L71.4213924,9.5321519 L68.7416456,9.5321519 L65.5682278,23.2675949 L71.3688608,23.2675949 L73.4498734,14.0846835 C73.8925949,13.8764557 74.3084177,13.7726582 74.724557,13.7726582 C75.791962,13.7726582 76.0255063,14.2406962 75.8172785,15.203038 L75.8172785,15.203038 L74.570443,20.6558861 C74.1929114,22.2872152 75.3147468,23.2675949 76.8840506,23.2675949 L76.8840506,23.2675949 L79.7198101,23.2675949 L81.8527215,14.0327848 C82.6074684,10.7027215 80.9941772,9.27170886 78.9131646,9.27170886 Z M22.3866456,4.53841772 L7.72620253,4.53841772 L6.7635443,8.75234177 L11.0037342,8.75234177 L7.6271519,23.2675316 L13.8186076,23.2675316 L17.1955063,8.75234177 L21.4094304,8.75234177 L22.3866456,4.53841772 Z M29.204462,9.42768987 C27.5395886,9.42768987 25.9531962,10.7846519 24.8206013,12.7732595 C25.0351582,10.8096519 23.912057,9.98686709 22.1804114,9.98686709 L22.1804114,9.98686709 L19.8712342,9.98686709 L16.7959177,23.2675633 L22.5971835,23.2675633 L24.4959177,14.9691456 C25.7854747,14.1799051 27.3411709,14.0742089 28.8661709,14.2666139 L28.8661709,14.2666139 L29.9585759,9.53212025 C29.7247152,9.45363924 29.4645886,9.42768987 29.204462,9.42768987 Z M33.9388291,9.53205696 L31.0492722,9.53205696 L27.875538,23.2675 L33.6768038,23.2675 L36.2524367,12.1434494 L36.2837302,11.9683022 C36.5169202,10.4165886 35.4523915,9.53205696 33.9388291,9.53205696 L33.9388291,9.53205696 Z M43.863481,13.4339241 C44.8261392,13.4339241 45.3986076,13.8506962 45.3986076,15.1510127 C45.3986076,17.8044937 44.4362658,19.9633544 42.6410127,19.9633544 C41.9906962,19.9633544 41.6786709,19.7817089 41.4185443,19.6000633 L41.4185443,19.6000633 L42.7710759,13.7462658 L42.9531728,13.6599481 C43.2566333,13.5244655 43.5599473,13.4339241 43.863481,13.4339241 Z M89.9266772,12.7319304 C90.7592722,12.7319304 91.1469304,13.2515506 91.1469304,14.2404747 C91.1469304,14.5528165 91.1203481,14.7610443 91.0943987,14.9952215 L91.0943987,14.9952215 L87.9235127,14.9952215 C88.2614873,13.6949051 88.9383861,12.7319304 89.9266772,12.7319304 Z M34.6141456,3.97414557 C32.8195253,3.97414557 31.5701582,5.04091772 31.5701582,6.67920886 C31.5701582,8.00610759 32.6372468,8.83870253 34.2242722,8.83870253 C35.9932595,8.83870253 37.2935759,7.7981962 37.2935759,6.18522152 C37.2935759,4.83237342 36.2271203,3.97414557 34.6141456,3.97414557 Z"></path>
</svg>
