<svg xmlns="http://www.w3.org/2000/svg" version="1.0" viewBox="550 750 10700 2200" fill="#000000">
    <path d="M4370 2840 l0 -100 95 0 95 0 0 -630 c0 -727 14 -650 -119 -650 l-81 0 0 -101 0 -100 179 3 c204 3 223 10 250 84 8 21 16 41 17 43 2 2 24 -15 50 -38 56 -49 150 -96 225 -112 84 -18 211 -6 295 28 81 34 101 46 160 103 78 75 138 186 165 306 17 76 17 291 0 369 -16 73 -77 205 -123 262 -89 112 -227 182 -374 191 -144 7 -224 -18 -329 -103 l-55 -45 0 195 0 195 95 0 96 0 -3 98 -3 97 -317 3 -318 2 0 -100z m897 -596 c121 -59 193 -201 193 -375 0 -92 -32 -212 -73 -275 -36 -55 -108 -108 -170 -125 -54 -14 -175 -6 -216 16 -83 42 -148 128 -172 225 -17 71 -17 230 0 300 28 111 97 201 185 241 65 29 188 26 253 -7z"/>
    <path d="M7120 2840 l0 -100 95 0 95 0 0 -624 c0 -554 -2 -626 -16 -640 -12 -12 -36 -16 -100 -16 l-84 0 0 -101 0 -101 179 4 c204 3 224 10 249 84 7 21 15 40 17 42 2 3 26 -15 52 -38 100 -88 216 -126 358 -117 275 17 460 217 496 534 35 314 -101 591 -339 694 -73 31 -83 33 -202 34 -120 0 -128 -1 -192 -32 -37 -17 -87 -50 -113 -74 -25 -23 -46 -40 -48 -38 -1 2 -1 91 1 197 l4 192 89 0 89 0 0 100 0 100 -315 0 -315 0 0 -100z m910 -602 c54 -31 88 -67 122 -128 44 -78 61 -195 47 -322 -12 -106 -48 -185 -109 -242 -76 -71 -101 -81 -210 -81 -87 0 -99 3 -145 29 -59 34 -83 57 -114 109 -40 66 -61 154 -61 255 0 154 44 270 130 344 68 58 98 68 205 65 77 -2 98 -7 135 -29z"/>
    <path d="M2390 2486 c-283 -65 -481 -295 -497 -577 -8 -130 9 -214 63 -325 77 -157 201 -261 389 -325 60 -20 89 -24 200 -24 110 0 141 4 200 24 151 50 293 158 363 274 109 182 119 419 26 613 -78 161 -259 301 -440 339 -83 18 -228 18 -304 1z m322 -247 c105 -53 175 -137 207 -249 38 -127 15 -269 -58 -371 -43 -60 -71 -83 -151 -125 -51 -27 -63 -29 -170 -29 -109 0 -118 2 -175 32 -157 82 -234 243 -206 436 19 137 93 242 211 302 93 47 254 49 342 4z"/>
    <path d="M6292 2489 c-298 -58 -512 -317 -512 -620 0 -172 54 -311 169 -432 120 -125 267 -193 441 -204 83 -5 125 -1 227 21 45 10 141 53 196 90 330 219 371 683 86 968 -88 88 -199 148 -315 173 -74 16 -223 18 -292 4z m325 -260 c233 -118 284 -464 96 -653 -27 -26 -75 -62 -108 -79 -56 -29 -67 -31 -170 -32 -105 0 -114 2 -177 33 -237 116 -293 448 -110 653 111 125 311 158 469 78z"/>
    <path d="M8943 2485 c-29 -8 -70 -25 -91 -39 -44 -28 -109 -99 -124 -136 -40 -97 -42 -120 -48 -485 l-5 -360 -97 -3 -98 -3 0 -99 0 -100 230 0 230 0 0 416 c0 279 4 430 11 461 25 98 119 145 247 124 154 -25 271 -159 307 -352 11 -62 15 -134 13 -265 l-3 -179 -102 -3 -103 -3 0 -99 0 -100 230 0 230 0 2 503 3 502 88 3 87 3 0 104 0 105 -142 0 c-217 -1 -272 -27 -285 -138 -3 -28 -8 -52 -10 -52 -2 0 -29 26 -61 58 -64 65 -169 124 -250 141 -71 15 -195 13 -259 -4z"/>
    <path d="M1106 2472 c-5 -9 -54 -137 -131 -342 -45 -120 -156 -414 -208 -550 l-44 -115 -81 -3 -82 -3 0 -99 0 -100 285 0 285 0 0 100 0 100 -70 0 c-38 0 -70 4 -70 9 0 10 125 365 140 396 5 11 16 40 24 65 47 137 83 225 91 221 9 -3 36 -68 71 -171 8 -25 19 -54 24 -65 6 -11 37 -96 70 -190 34 -93 67 -184 75 -202 27 -58 23 -63 -55 -63 l-70 0 0 -100 0 -100 280 0 280 0 0 100 0 100 -75 0 c-61 0 -76 3 -84 18 -5 9 -38 96 -75 192 -36 96 -79 211 -96 255 -17 44 -40 103 -50 130 -10 28 -50 133 -89 235 l-70 185 -135 3 c-74 1 -137 -1 -140 -6z"/>
    <path d="M3270 2394 l0 -86 233 -281 c127 -155 283 -342 344 -417 62 -74 113 -138 113 -142 0 -5 -101 -8 -225 -8 l-225 0 0 95 0 95 -110 0 -110 0 0 -195 0 -195 505 0 505 0 0 80 0 81 -107 132 c-59 72 -112 137 -118 143 -5 7 -23 29 -40 49 -39 49 -203 248 -322 392 -51 62 -93 117 -93 123 0 7 77 10 230 10 l230 0 0 -95 0 -95 115 0 115 0 0 200 0 200 -520 0 -520 0 0 -86z"/>
    <path d="M10260 2460 c-67 -24 -135 -93 -165 -166 -19 -47 -20 -80 -25 -674 l-5 -625 -97 -3 -98 -3 0 -99 0 -100 230 0 230 0 0 683 c0 438 4 695 10 719 15 52 42 68 117 68 l63 0 0 79 c0 43 -3 93 -6 110 l-6 31 -97 0 c-69 -1 -112 -6 -151 -20z"/>
    <path d="M10570 2375 l0 -105 90 0 90 0 0 -405 0 -405 -95 0 -95 0 0 -100 0 -100 225 0 225 0 0 505 0 505 95 0 95 0 0 105 0 105 -315 0 -315 0 0 -105z"/>
    <path d="M10750 920 l0 -130 135 0 135 0 0 130 0 130 -135 0 -135 0 0 -130z"/>
    <path fill="#1aa74a" d="M5945 1131 c3 -5 31 -19 63 -31 31 -12 71 -28 87 -35 17 -8 53 -23 80 -33 28 -11 158 -63 290 -117 353 -143 357 -145 377 -145 17 0 18 13 18 175 0 162 -1 175 -19 185 -25 13 -905 14 -896 1z"/>
</svg>
