<svg xmlns="http://www.w3.org/2000/svg" viewBox="0 0 713.01 274" width="713.01" height="274" style="background-color: transparent;"><defs><style>@import url('https://fonts.googleapis.com/css2?family=Caveat+Brush&amp;family=Source+Code+Pro&amp;family=Source+Sans+Pro&amp;family=Crimson+Pro&amp;display=block');</style></defs><g><g id="13455bb1-7e5f-45c7-3f45-12bced6ca26b_svg" class="tl-centered-g" transform="translate(16.00, 16.00) rotate(0.00, 152.50, 82.10)"><defs><mask id="13455bb1-7e5f-45c7-3f45-12bced6ca26b_clip"><rect x="-100" y="-100" width="505" height="364.19" fill="white"/><rect x="152.5" y="82.09" width="0" height="0" rx="4" ry="4" fill="black" opacity="1"/></mask></defs><g pointer-events="none" opacity="1" mask=""><path d="M-0.44,163.38 Q75.84,122.39 113.98,101.89 T190.25,60.88 266.52,19.86 304.76,-0.69 305.00,-0.73 305.23,-0.69 305.44,-0.58 305.60,-0.41 305.70,-0.20 305.73,0.03 305.68,0.27 305.56,0.47 305.38,0.62 305.16,0.71 304.93,0.72 304.70,0.66 304.50,0.53 304.36,0.34 304.28,0.12 304.28,-0.11 304.35,-0.34 304.50,-0.53 304.69,-0.66 304.92,-0.72 305.15,-0.71 305.37,-0.63 305.55,-0.47 305.67,-0.27 305.73,-0.04 305.70,0.19 305.61,0.40 305.44,0.58 305.35,0.65 267.23,21.19 191.00,62.27 114.77,103.36 38.55,144.46 0.34,165.06 0.12,165.12 -0.10,165.12 -0.32,165.07 -0.52,164.97 -0.69,164.82 -0.82,164.64 -0.90,164.43 -0.93,164.21 -0.90,163.99 -0.82,163.78 -0.70,163.59 -0.53,163.44 Z" fill="#cecece" stroke="#cecece" stroke-width="2.11" stroke-dasharray="none" stroke-dashoffset="none" stroke-linecap="round" stroke-linejoin="round" pointer-events="stroke"/></g></g><g id="2b9668ff-1562-4bc2-14f6-603def2a60f5_svg" class="tl-centered-g" transform="translate(323.00, 16.00) rotate(0.00, 187.00, 0.50)"><defs><mask id="2b9668ff-1562-4bc2-14f6-603def2a60f5_clip"><rect x="-100" y="-100" width="574.01" height="201" fill="white"/><rect x="187.00" y="0" width="0" height="0" rx="4" ry="4" fill="black" opacity="1"/></mask></defs><g pointer-events="none" opacity="1" mask=""><path d="M0.00,-1.00 Q93.50,-0.93 140.25,-0.91 T233.76,-0.87 327.26,-0.84 374.14,-0.80 374.39,-0.72 374.60,-0.56 374.75,-0.34 374.82,-0.09 374.81,0.18 374.71,0.42 374.54,0.62 374.31,0.76 374.05,0.81 373.79,0.78 373.55,0.67 373.36,0.49 373.24,0.26 373.20,-0.00 373.24,-0.26 373.36,-0.49 373.55,-0.67 373.79,-0.78 374.05,-0.81 374.31,-0.76 374.54,-0.62 374.71,-0.42 374.81,-0.17 374.82,0.09 374.75,0.34 374.60,0.56 374.39,0.72 374.14,0.80 374.01,0.83 327.26,0.84 233.76,0.87 140.25,0.91 46.75,0.96 -0.12,0.98 -0.35,0.92 -0.56,0.81 -0.74,0.66 -0.88,0.46 -0.96,0.24 -0.99,-0.00 -0.96,-0.24 -0.88,-0.46 -0.74,-0.66 -0.56,-0.81 -0.35,-0.92 -0.12,-0.98 Z" fill="#cecece" stroke="#cecece" stroke-width="2.11" stroke-dasharray="none" stroke-dashoffset="none" stroke-linecap="round" stroke-linejoin="round" pointer-events="stroke"/></g></g><g id="d6f97ad5-6d17-4ccb-3e6f-122852053ca0_svg" class="tl-centered-g" transform="translate(392.00, 16.80) rotate(0.00, 152.50, 82.10)"><defs><mask id="d6f97ad5-6d17-4ccb-3e6f-122852053ca0_clip"><rect x="-100" y="-100" width="505" height="364.19" fill="white"/><rect x="152.5" y="82.09" width="0" height="0" rx="4" ry="4" fill="black" opacity="1"/></mask></defs><g pointer-events="none" opacity="1" mask=""><path d="M-0.45,163.36 Q75.83,122.37 113.97,101.87 T190.24,60.86 266.50,19.83 304.75,-0.72 305.00,-0.76 305.24,-0.72 305.46,-0.61 305.63,-0.43 305.73,-0.21 305.76,0.04 305.71,0.28 305.58,0.49 305.40,0.65 305.17,0.74 304.92,0.76 304.69,0.69 304.48,0.55 304.33,0.36 304.25,0.13 304.25,-0.12 304.33,-0.35 304.47,-0.55 304.68,-0.69 304.91,-0.75 305.16,-0.74 305.39,-0.65 305.58,-0.50 305.70,-0.29 305.76,-0.05 305.73,0.20 305.63,0.42 305.46,0.60 305.36,0.68 267.25,21.22 191.01,62.29 114.78,103.38 38.56,144.49 0.35,165.08 0.12,165.14 -0.10,165.14 -0.33,165.09 -0.53,164.99 -0.70,164.84 -0.84,164.65 -0.92,164.44 -0.95,164.21 -0.92,163.98 -0.84,163.77 -0.72,163.58 -0.55,163.42 Z" fill="#cecece" stroke="#cecece" stroke-width="2.11" stroke-dasharray="none" stroke-dashoffset="none" stroke-linecap="round" stroke-linejoin="round" pointer-events="stroke"/></g></g><g id="4e4f2f4f-f0ff-436b-387b-6b1a27aff9de_svg" class="tl-centered-g" transform="translate(17.00, 181.00) rotate(0.00, 187.00, 0.50)"><defs><mask id="4e4f2f4f-f0ff-436b-387b-6b1a27aff9de_clip"><rect x="-100" y="-100" width="574.01" height="201" fill="white"/><rect x="187.00" y="0" width="0" height="0" rx="4" ry="4" fill="black" opacity="1"/></mask></defs><g pointer-events="none" opacity="1" mask=""><path d="M0.00,-1.04 Q93.50,-0.98 140.25,-0.96 T233.76,-0.93 327.26,-0.90 374.15,-0.86 374.42,-0.77 374.65,-0.60 374.80,-0.37 374.88,-0.09 374.86,0.19 374.76,0.45 374.58,0.67 374.33,0.81 374.06,0.87 373.78,0.84 373.52,0.72 373.31,0.53 373.18,0.28 373.14,-0.00 373.18,-0.28 373.31,-0.53 373.52,-0.72 373.78,-0.84 374.06,-0.87 374.33,-0.81 374.58,-0.67 374.76,-0.45 374.86,-0.19 374.88,0.09 374.80,0.37 374.64,0.60 374.42,0.77 374.15,0.86 374.01,0.89 327.26,0.90 233.76,0.93 140.25,0.96 46.75,1.01 -0.12,1.02 -0.37,0.97 -0.59,0.85 -0.77,0.68 -0.91,0.48 -1.00,0.25 -1.03,-0.00 -1.00,-0.25 -0.91,-0.48 -0.77,-0.68 -0.59,-0.85 -0.37,-0.97 -0.12,-1.02 Z" fill="#cecece" stroke="#cecece" stroke-width="2.11" stroke-dasharray="none" stroke-dashoffset="none" stroke-linecap="round" stroke-linejoin="round" pointer-events="stroke"/></g></g></g><g id="13455bb1-7e5f-45c7-3f45-12bced6ca26b_svg" class="tl-centered-g" transform="translate(16.00, 16.00) rotate(0.00, 152.50, 82.10)"><defs><mask id="13455bb1-7e5f-45c7-3f45-12bced6ca26b_clip"><rect x="-100" y="-100" width="505" height="364.19" fill="white"/><rect x="152.5" y="82.09" width="0" height="0" rx="4" ry="4" fill="black" opacity="1"/></mask></defs><g pointer-events="none" opacity="1" mask=""><path d="M-0.44,163.38 Q75.84,122.39 113.98,101.89 T190.25,60.88 266.52,19.86 304.76,-0.69 305.00,-0.73 305.23,-0.69 305.44,-0.58 305.60,-0.41 305.70,-0.20 305.73,0.03 305.68,0.27 305.56,0.47 305.38,0.62 305.16,0.71 304.93,0.72 304.70,0.66 304.50,0.53 304.36,0.34 304.28,0.12 304.28,-0.11 304.35,-0.34 304.50,-0.53 304.69,-0.66 304.92,-0.72 305.15,-0.71 305.37,-0.63 305.55,-0.47 305.67,-0.27 305.73,-0.04 305.70,0.19 305.61,0.40 305.44,0.58 305.35,0.65 267.23,21.19 191.00,62.27 114.77,103.36 38.55,144.46 0.34,165.06 0.12,165.12 -0.10,165.12 -0.32,165.07 -0.52,164.97 -0.69,164.82 -0.82,164.64 -0.90,164.43 -0.93,164.21 -0.90,163.99 -0.82,163.78 -0.70,163.59 -0.53,163.44 Z" fill="#cecece" stroke="#cecece" stroke-width="2.11" stroke-dasharray="none" stroke-dashoffset="none" stroke-linecap="round" stroke-linejoin="round" pointer-events="stroke"/></g></g><g id="1a4a54e8-11ae-4413-2747-2e72fa137e0e_svg" class="tl-centered-g" transform="translate(16.00, 93.00) rotate(0.00, 152.50, 82.10)"><defs><mask id="1a4a54e8-11ae-4413-2747-2e72fa137e0e_clip"><rect x="-100" y="-100" width="505" height="364.19" fill="white"/><rect x="152.5" y="82.09" width="0" height="0" rx="4" ry="4" fill="black" opacity="1"/></mask></defs><g pointer-events="none" opacity="1" mask=""><path d="M-0.50,163.28 Q75.78,122.28 113.92,101.77 T190.18,60.75 266.44,19.73 304.71,-0.84 304.99,-0.88 305.28,-0.84 305.53,-0.71 305.73,-0.50 305.85,-0.24 305.88,0.04 305.82,0.32 305.68,0.57 305.46,0.75 305.20,0.86 304.91,0.88 304.63,0.81 304.40,0.65 304.22,0.42 304.13,0.15 304.13,-0.14 304.22,-0.41 304.39,-0.64 304.62,-0.80 304.90,-0.88 305.18,-0.86 305.45,-0.76 305.67,-0.58 305.82,-0.33 305.88,-0.05 305.85,0.23 305.74,0.49 305.54,0.70 305.42,0.79 267.31,21.32 191.07,62.40 114.83,103.48 38.61,144.57 0.38,165.17 0.14,165.23 -0.11,165.23 -0.36,165.17 -0.58,165.06 -0.77,164.90 -0.92,164.69 -1.01,164.46 -1.04,164.21 -1.01,163.96 -0.93,163.73 -0.79,163.52 -0.60,163.35 Z" fill="#cecece" stroke="#cecece" stroke-width="2.11" stroke-dasharray="none" stroke-dashoffset="none" stroke-linecap="round" stroke-linejoin="round" pointer-events="stroke"/></g></g><g id="9f2eecce-a795-48a2-1ab7-453e185bca27_svg" class="tl-centered-g" transform="translate(16.00, 93.00) rotate(0.00, 152.50, 82.10)"><defs><mask id="9f2eecce-a795-48a2-1ab7-453e185bca27_clip"><rect x="-100" y="-100" width="505" height="364.19" fill="white"/><rect x="152.5" y="82.09" width="0" height="0" rx="4" ry="4" fill="black" opacity="1"/></mask></defs><g pointer-events="none" opacity="1" mask=""><path d="M-0.44,163.37 Q75.84,122.39 113.98,101.89 T190.25,60.88 266.52,19.86 304.76,-0.69 305.00,-0.73 305.23,-0.70 305.44,-0.59 305.60,-0.42 305.71,-0.20 305.73,0.04 305.68,0.27 305.56,0.47 305.38,0.63 305.16,0.72 304.93,0.73 304.70,0.67 304.50,0.54 304.35,0.35 304.28,0.12 304.27,-0.11 304.35,-0.34 304.49,-0.53 304.69,-0.66 304.92,-0.73 305.15,-0.72 305.37,-0.63 305.56,-0.48 305.68,-0.28 305.73,-0.04 305.71,0.19 305.61,0.41 305.45,0.58 305.35,0.65 267.23,21.19 191.00,62.27 114.77,103.36 38.55,144.47 0.34,165.07 0.12,165.12 -0.10,165.12 -0.32,165.07 -0.52,164.97 -0.69,164.82 -0.82,164.64 -0.90,164.43 -0.93,164.21 -0.91,163.99 -0.83,163.78 -0.70,163.59 -0.54,163.44 Z" fill="#cecece" stroke="#cecece" stroke-width="2.11" stroke-dasharray="none" stroke-dashoffset="none" stroke-linecap="round" stroke-linejoin="round" pointer-events="stroke"/></g></g><text font-size="28px" font-family="Caveat Brush" font-weight="normal" line-height="28px" letter-spacing="-0.03em" text-align="center" dominant-baseline="mathematical" alignment-baseline="mathematical" text-anchor="middle" fill="#cecece" transform="translate(276.50, 129.00) rotate(0.00, 56.50, 19.00)"><tspan y="14px" x="60.5">Datasource
</tspan></text><g id="2b9668ff-1562-4bc2-14f6-603def2a60f5_svg" class="tl-centered-g" transform="translate(323.00, 16.00) rotate(0.00, 187.00, 0.50)"><defs><mask id="2b9668ff-1562-4bc2-14f6-603def2a60f5_clip"><rect x="-100" y="-100" width="574.01" height="201" fill="white"/><rect x="187.00" y="0" width="0" height="0" rx="4" ry="4" fill="black" opacity="1"/></mask></defs><g pointer-events="none" opacity="1" mask=""><path d="M0.00,-1.00 Q93.50,-0.93 140.25,-0.91 T233.76,-0.87 327.26,-0.84 374.14,-0.80 374.39,-0.72 374.60,-0.56 374.75,-0.34 374.82,-0.09 374.81,0.18 374.71,0.42 374.54,0.62 374.31,0.76 374.05,0.81 373.79,0.78 373.55,0.67 373.36,0.49 373.24,0.26 373.20,-0.00 373.24,-0.26 373.36,-0.49 373.55,-0.67 373.79,-0.78 374.05,-0.81 374.31,-0.76 374.54,-0.62 374.71,-0.42 374.81,-0.17 374.82,0.09 374.75,0.34 374.60,0.56 374.39,0.72 374.14,0.80 374.01,0.83 327.26,0.84 233.76,0.87 140.25,0.91 46.75,0.96 -0.12,0.98 -0.35,0.92 -0.56,0.81 -0.74,0.66 -0.88,0.46 -0.96,0.24 -0.99,-0.00 -0.96,-0.24 -0.88,-0.46 -0.74,-0.66 -0.56,-0.81 -0.35,-0.92 -0.12,-0.98 Z" fill="#cecece" stroke="#cecece" stroke-width="2.11" stroke-dasharray="none" stroke-dashoffset="none" stroke-linecap="round" stroke-linejoin="round" pointer-events="stroke"/></g></g><g><g id="13455bb1-7e5f-45c7-3f45-12bced6ca26b_svg" class="tl-centered-g" transform="translate(16.00, 16.00) rotate(0.00, 152.50, 82.10)"><defs><mask id="13455bb1-7e5f-45c7-3f45-12bced6ca26b_clip"><rect x="-100" y="-100" width="505" height="364.19" fill="white"/><rect x="152.5" y="82.09" width="0" height="0" rx="4" ry="4" fill="black" opacity="1"/></mask></defs><g pointer-events="none" opacity="1" mask=""><path d="M-0.44,163.38 Q75.84,122.39 113.98,101.89 T190.25,60.88 266.52,19.86 304.76,-0.69 305.00,-0.73 305.23,-0.69 305.44,-0.58 305.60,-0.41 305.70,-0.20 305.73,0.03 305.68,0.27 305.56,0.47 305.38,0.62 305.16,0.71 304.93,0.72 304.70,0.66 304.50,0.53 304.36,0.34 304.28,0.12 304.28,-0.11 304.35,-0.34 304.50,-0.53 304.69,-0.66 304.92,-0.72 305.15,-0.71 305.37,-0.63 305.55,-0.47 305.67,-0.27 305.73,-0.04 305.70,0.19 305.61,0.40 305.44,0.58 305.35,0.65 267.23,21.19 191.00,62.27 114.77,103.36 38.55,144.46 0.34,165.06 0.12,165.12 -0.10,165.12 -0.32,165.07 -0.52,164.97 -0.69,164.82 -0.82,164.64 -0.90,164.43 -0.93,164.21 -0.90,163.99 -0.82,163.78 -0.70,163.59 -0.53,163.44 Z" fill="#cecece" stroke="#cecece" stroke-width="2.11" stroke-dasharray="none" stroke-dashoffset="none" stroke-linecap="round" stroke-linejoin="round" pointer-events="stroke"/></g></g><g id="2b9668ff-1562-4bc2-14f6-603def2a60f5_svg" class="tl-centered-g" transform="translate(323.00, 16.00) rotate(0.00, 187.00, 0.50)"><defs><mask id="2b9668ff-1562-4bc2-14f6-603def2a60f5_clip"><rect x="-100" y="-100" width="574.01" height="201" fill="white"/><rect x="187.00" y="0" width="0" height="0" rx="4" ry="4" fill="black" opacity="1"/></mask></defs><g pointer-events="none" opacity="1" mask=""><path d="M0.00,-1.00 Q93.50,-0.93 140.25,-0.91 T233.76,-0.87 327.26,-0.84 374.14,-0.80 374.39,-0.72 374.60,-0.56 374.75,-0.34 374.82,-0.09 374.81,0.18 374.71,0.42 374.54,0.62 374.31,0.76 374.05,0.81 373.79,0.78 373.55,0.67 373.36,0.49 373.24,0.26 373.20,-0.00 373.24,-0.26 373.36,-0.49 373.55,-0.67 373.79,-0.78 374.05,-0.81 374.31,-0.76 374.54,-0.62 374.71,-0.42 374.81,-0.17 374.82,0.09 374.75,0.34 374.60,0.56 374.39,0.72 374.14,0.80 374.01,0.83 327.26,0.84 233.76,0.87 140.25,0.91 46.75,0.96 -0.12,0.98 -0.35,0.92 -0.56,0.81 -0.74,0.66 -0.88,0.46 -0.96,0.24 -0.99,-0.00 -0.96,-0.24 -0.88,-0.46 -0.74,-0.66 -0.56,-0.81 -0.35,-0.92 -0.12,-0.98 Z" fill="#cecece" stroke="#cecece" stroke-width="2.11" stroke-dasharray="none" stroke-dashoffset="none" stroke-linecap="round" stroke-linejoin="round" pointer-events="stroke"/></g></g><g id="d6f97ad5-6d17-4ccb-3e6f-122852053ca0_svg" class="tl-centered-g" transform="translate(392.00, 16.80) rotate(0.00, 152.50, 82.10)"><defs><mask id="d6f97ad5-6d17-4ccb-3e6f-122852053ca0_clip"><rect x="-100" y="-100" width="505" height="364.19" fill="white"/><rect x="152.5" y="82.09" width="0" height="0" rx="4" ry="4" fill="black" opacity="1"/></mask></defs><g pointer-events="none" opacity="1" mask=""><path d="M-0.45,163.36 Q75.83,122.37 113.97,101.87 T190.24,60.86 266.50,19.83 304.75,-0.72 305.00,-0.76 305.24,-0.72 305.46,-0.61 305.63,-0.43 305.73,-0.21 305.76,0.04 305.71,0.28 305.58,0.49 305.40,0.65 305.17,0.74 304.92,0.76 304.69,0.69 304.48,0.55 304.33,0.36 304.25,0.13 304.25,-0.12 304.33,-0.35 304.47,-0.55 304.68,-0.69 304.91,-0.75 305.16,-0.74 305.39,-0.65 305.58,-0.50 305.70,-0.29 305.76,-0.05 305.73,0.20 305.63,0.42 305.46,0.60 305.36,0.68 267.25,21.22 191.01,62.29 114.78,103.38 38.56,144.49 0.35,165.08 0.12,165.14 -0.10,165.14 -0.33,165.09 -0.53,164.99 -0.70,164.84 -0.84,164.65 -0.92,164.44 -0.95,164.21 -0.92,163.98 -0.84,163.77 -0.72,163.58 -0.55,163.42 Z" fill="#cecece" stroke="#cecece" stroke-width="2.11" stroke-dasharray="none" stroke-dashoffset="none" stroke-linecap="round" stroke-linejoin="round" pointer-events="stroke"/></g></g><g id="4e4f2f4f-f0ff-436b-387b-6b1a27aff9de_svg" class="tl-centered-g" transform="translate(17.00, 181.00) rotate(0.00, 187.00, 0.50)"><defs><mask id="4e4f2f4f-f0ff-436b-387b-6b1a27aff9de_clip"><rect x="-100" y="-100" width="574.01" height="201" fill="white"/><rect x="187.00" y="0" width="0" height="0" rx="4" ry="4" fill="black" opacity="1"/></mask></defs><g pointer-events="none" opacity="1" mask=""><path d="M0.00,-1.04 Q93.50,-0.98 140.25,-0.96 T233.76,-0.93 327.26,-0.90 374.15,-0.86 374.42,-0.77 374.65,-0.60 374.80,-0.37 374.88,-0.09 374.86,0.19 374.76,0.45 374.58,0.67 374.33,0.81 374.06,0.87 373.78,0.84 373.52,0.72 373.31,0.53 373.18,0.28 373.14,-0.00 373.18,-0.28 373.31,-0.53 373.52,-0.72 373.78,-0.84 374.06,-0.87 374.33,-0.81 374.58,-0.67 374.76,-0.45 374.86,-0.19 374.88,0.09 374.80,0.37 374.64,0.60 374.42,0.77 374.15,0.86 374.01,0.89 327.26,0.90 233.76,0.93 140.25,0.96 46.75,1.01 -0.12,1.02 -0.37,0.97 -0.59,0.85 -0.77,0.68 -0.91,0.48 -1.00,0.25 -1.03,-0.00 -1.00,-0.25 -0.91,-0.48 -0.77,-0.68 -0.59,-0.85 -0.37,-0.97 -0.12,-1.02 Z" fill="#cecece" stroke="#cecece" stroke-width="2.11" stroke-dasharray="none" stroke-dashoffset="none" stroke-linecap="round" stroke-linejoin="round" pointer-events="stroke"/></g></g></g><g id="7231e216-5581-4eb0-27d3-5e21ab3e354c_svg" class="tl-centered-g" transform="translate(323.00, 93.00) rotate(0.00, 187.00, 0.50)"><defs><mask id="7231e216-5581-4eb0-27d3-5e21ab3e354c_clip"><rect x="-100" y="-100" width="574.01" height="201" fill="white"/><rect x="187.00" y="0" width="0" height="0" rx="4" ry="4" fill="black" opacity="1"/></mask></defs><g pointer-events="none" opacity="1" mask=""><path d="M0.00,-0.94 Q93.50,-0.87 140.25,-0.85 T233.76,-0.80 327.26,-0.77 374.13,-0.73 374.36,-0.66 374.55,-0.51 374.68,-0.31 374.75,-0.08 374.73,0.16 374.65,0.38 374.49,0.57 374.28,0.69 374.05,0.74 373.81,0.71 373.59,0.61 373.42,0.45 373.31,0.24 373.27,-0.00 373.31,-0.24 373.42,-0.45 373.59,-0.61 373.81,-0.71 374.05,-0.74 374.28,-0.69 374.49,-0.57 374.65,-0.38 374.73,-0.16 374.75,0.08 374.68,0.31 374.55,0.51 374.36,0.66 374.13,0.73 374.01,0.75 327.26,0.77 233.76,0.80 140.25,0.85 46.75,0.91 -0.11,0.93 -0.33,0.87 -0.53,0.77 -0.70,0.62 -0.83,0.43 -0.91,0.22 -0.94,-0.00 -0.91,-0.22 -0.83,-0.43 -0.70,-0.62 -0.53,-0.77 -0.33,-0.87 -0.11,-0.93 Z" fill="#cecece" stroke="#cecece" stroke-width="2.11" stroke-dasharray="none" stroke-dashoffset="none" stroke-linecap="round" stroke-linejoin="round" pointer-events="stroke"/></g></g><g id="4c2409a5-67a9-477d-21d1-a7fbe04cd17d_svg" class="tl-centered-g" transform="translate(323.00, 93.00) rotate(0.00, 187.00, 0.50)"><defs><mask id="4c2409a5-67a9-477d-21d1-a7fbe04cd17d_clip"><rect x="-100" y="-100" width="574.01" height="201" fill="white"/><rect x="187.00" y="0" width="0" height="0" rx="4" ry="4" fill="black" opacity="1"/></mask></defs><g pointer-events="none" opacity="1" mask=""><path d="M0.00,-1.01 Q93.50,-0.95 140.25,-0.93 T233.76,-0.89 327.26,-0.86 374.15,-0.83 374.40,-0.74 374.62,-0.58 374.77,-0.35 374.84,-0.09 374.83,0.18 374.73,0.43 374.55,0.64 374.32,0.78 374.06,0.84 373.79,0.81 373.54,0.69 373.34,0.51 373.21,0.27 373.17,-0.00 373.21,-0.27 373.34,-0.51 373.54,-0.69 373.79,-0.81 374.06,-0.84 374.32,-0.78 374.55,-0.64 374.73,-0.43 374.83,-0.18 374.84,0.09 374.77,0.35 374.62,0.58 374.40,0.74 374.15,0.83 374.01,0.85 327.26,0.86 233.76,0.89 140.25,0.93 46.75,0.98 -0.12,1.00 -0.36,0.94 -0.57,0.83 -0.75,0.67 -0.89,0.47 -0.98,0.24 -1.01,-0.00 -0.98,-0.24 -0.89,-0.47 -0.75,-0.67 -0.57,-0.83 -0.36,-0.94 -0.12,-1.00 Z" fill="#cecece" stroke="#cecece" stroke-width="2.11" stroke-dasharray="none" stroke-dashoffset="none" stroke-linecap="round" stroke-linejoin="round" pointer-events="stroke"/></g></g><g id="d6f97ad5-6d17-4ccb-3e6f-122852053ca0_svg" class="tl-centered-g" transform="translate(392.00, 16.80) rotate(0.00, 152.50, 82.10)"><defs><mask id="d6f97ad5-6d17-4ccb-3e6f-122852053ca0_clip"><rect x="-100" y="-100" width="505" height="364.19" fill="white"/><rect x="152.5" y="82.09" width="0" height="0" rx="4" ry="4" fill="black" opacity="1"/></mask></defs><g pointer-events="none" opacity="1" mask=""><path d="M-0.45,163.36 Q75.83,122.37 113.97,101.87 T190.24,60.86 266.50,19.83 304.75,-0.72 305.00,-0.76 305.24,-0.72 305.46,-0.61 305.63,-0.43 305.73,-0.21 305.76,0.04 305.71,0.28 305.58,0.49 305.40,0.65 305.17,0.74 304.92,0.76 304.69,0.69 304.48,0.55 304.33,0.36 304.25,0.13 304.25,-0.12 304.33,-0.35 304.47,-0.55 304.68,-0.69 304.91,-0.75 305.16,-0.74 305.39,-0.65 305.58,-0.50 305.70,-0.29 305.76,-0.05 305.73,0.20 305.63,0.42 305.46,0.60 305.36,0.68 267.25,21.22 191.01,62.29 114.78,103.38 38.56,144.49 0.35,165.08 0.12,165.14 -0.10,165.14 -0.33,165.09 -0.53,164.99 -0.70,164.84 -0.84,164.65 -0.92,164.44 -0.95,164.21 -0.92,163.98 -0.84,163.77 -0.72,163.58 -0.55,163.42 Z" fill="#cecece" stroke="#cecece" stroke-width="2.11" stroke-dasharray="none" stroke-dashoffset="none" stroke-linecap="round" stroke-linejoin="round" pointer-events="stroke"/></g></g><g><g id="1a4a54e8-11ae-4413-2747-2e72fa137e0e_svg" class="tl-centered-g" transform="translate(16.00, 93.00) rotate(0.00, 152.50, 82.10)"><defs><mask id="1a4a54e8-11ae-4413-2747-2e72fa137e0e_clip"><rect x="-100" y="-100" width="505" height="364.19" fill="white"/><rect x="152.5" y="82.09" width="0" height="0" rx="4" ry="4" fill="black" opacity="1"/></mask></defs><g pointer-events="none" opacity="1" mask=""><path d="M-0.50,163.28 Q75.78,122.28 113.92,101.77 T190.18,60.75 266.44,19.73 304.71,-0.84 304.99,-0.88 305.28,-0.84 305.53,-0.71 305.73,-0.50 305.85,-0.24 305.88,0.04 305.82,0.32 305.68,0.57 305.46,0.75 305.20,0.86 304.91,0.88 304.63,0.81 304.40,0.65 304.22,0.42 304.13,0.15 304.13,-0.14 304.22,-0.41 304.39,-0.64 304.62,-0.80 304.90,-0.88 305.18,-0.86 305.45,-0.76 305.67,-0.58 305.82,-0.33 305.88,-0.05 305.85,0.23 305.74,0.49 305.54,0.70 305.42,0.79 267.31,21.32 191.07,62.40 114.83,103.48 38.61,144.57 0.38,165.17 0.14,165.23 -0.11,165.23 -0.36,165.17 -0.58,165.06 -0.77,164.90 -0.92,164.69 -1.01,164.46 -1.04,164.21 -1.01,163.96 -0.93,163.73 -0.79,163.52 -0.60,163.35 Z" fill="#cecece" stroke="#cecece" stroke-width="2.11" stroke-dasharray="none" stroke-dashoffset="none" stroke-linecap="round" stroke-linejoin="round" pointer-events="stroke"/></g></g><g id="9f2eecce-a795-48a2-1ab7-453e185bca27_svg" class="tl-centered-g" transform="translate(16.00, 93.00) rotate(0.00, 152.50, 82.10)"><defs><mask id="9f2eecce-a795-48a2-1ab7-453e185bca27_clip"><rect x="-100" y="-100" width="505" height="364.19" fill="white"/><rect x="152.5" y="82.09" width="0" height="0" rx="4" ry="4" fill="black" opacity="1"/></mask></defs><g pointer-events="none" opacity="1" mask=""><path d="M-0.44,163.37 Q75.84,122.39 113.98,101.89 T190.25,60.88 266.52,19.86 304.76,-0.69 305.00,-0.73 305.23,-0.70 305.44,-0.59 305.60,-0.42 305.71,-0.20 305.73,0.04 305.68,0.27 305.56,0.47 305.38,0.63 305.16,0.72 304.93,0.73 304.70,0.67 304.50,0.54 304.35,0.35 304.28,0.12 304.27,-0.11 304.35,-0.34 304.49,-0.53 304.69,-0.66 304.92,-0.73 305.15,-0.72 305.37,-0.63 305.56,-0.48 305.68,-0.28 305.73,-0.04 305.71,0.19 305.61,0.41 305.45,0.58 305.35,0.65 267.23,21.19 191.00,62.27 114.77,103.36 38.55,144.47 0.34,165.07 0.12,165.12 -0.10,165.12 -0.32,165.07 -0.52,164.97 -0.69,164.82 -0.82,164.64 -0.90,164.43 -0.93,164.21 -0.91,163.99 -0.83,163.78 -0.70,163.59 -0.54,163.44 Z" fill="#cecece" stroke="#cecece" stroke-width="2.11" stroke-dasharray="none" stroke-dashoffset="none" stroke-linecap="round" stroke-linejoin="round" pointer-events="stroke"/></g></g><g id="7231e216-5581-4eb0-27d3-5e21ab3e354c_svg" class="tl-centered-g" transform="translate(323.00, 93.00) rotate(0.00, 187.00, 0.50)"><defs><mask id="7231e216-5581-4eb0-27d3-5e21ab3e354c_clip"><rect x="-100" y="-100" width="574.01" height="201" fill="white"/><rect x="187.00" y="0" width="0" height="0" rx="4" ry="4" fill="black" opacity="1"/></mask></defs><g pointer-events="none" opacity="1" mask=""><path d="M0.00,-0.94 Q93.50,-0.87 140.25,-0.85 T233.76,-0.80 327.26,-0.77 374.13,-0.73 374.36,-0.66 374.55,-0.51 374.68,-0.31 374.75,-0.08 374.73,0.16 374.65,0.38 374.49,0.57 374.28,0.69 374.05,0.74 373.81,0.71 373.59,0.61 373.42,0.45 373.31,0.24 373.27,-0.00 373.31,-0.24 373.42,-0.45 373.59,-0.61 373.81,-0.71 374.05,-0.74 374.28,-0.69 374.49,-0.57 374.65,-0.38 374.73,-0.16 374.75,0.08 374.68,0.31 374.55,0.51 374.36,0.66 374.13,0.73 374.01,0.75 327.26,0.77 233.76,0.80 140.25,0.85 46.75,0.91 -0.11,0.93 -0.33,0.87 -0.53,0.77 -0.70,0.62 -0.83,0.43 -0.91,0.22 -0.94,-0.00 -0.91,-0.22 -0.83,-0.43 -0.70,-0.62 -0.53,-0.77 -0.33,-0.87 -0.11,-0.93 Z" fill="#cecece" stroke="#cecece" stroke-width="2.11" stroke-dasharray="none" stroke-dashoffset="none" stroke-linecap="round" stroke-linejoin="round" pointer-events="stroke"/></g></g><g id="4c2409a5-67a9-477d-21d1-a7fbe04cd17d_svg" class="tl-centered-g" transform="translate(323.00, 93.00) rotate(0.00, 187.00, 0.50)"><defs><mask id="4c2409a5-67a9-477d-21d1-a7fbe04cd17d_clip"><rect x="-100" y="-100" width="574.01" height="201" fill="white"/><rect x="187.00" y="0" width="0" height="0" rx="4" ry="4" fill="black" opacity="1"/></mask></defs><g pointer-events="none" opacity="1" mask=""><path d="M0.00,-1.01 Q93.50,-0.95 140.25,-0.93 T233.76,-0.89 327.26,-0.86 374.15,-0.83 374.40,-0.74 374.62,-0.58 374.77,-0.35 374.84,-0.09 374.83,0.18 374.73,0.43 374.55,0.64 374.32,0.78 374.06,0.84 373.79,0.81 373.54,0.69 373.34,0.51 373.21,0.27 373.17,-0.00 373.21,-0.27 373.34,-0.51 373.54,-0.69 373.79,-0.81 374.06,-0.84 374.32,-0.78 374.55,-0.64 374.73,-0.43 374.83,-0.18 374.84,0.09 374.77,0.35 374.62,0.58 374.40,0.74 374.15,0.83 374.01,0.85 327.26,0.86 233.76,0.89 140.25,0.93 46.75,0.98 -0.12,1.00 -0.36,0.94 -0.57,0.83 -0.75,0.67 -0.89,0.47 -0.98,0.24 -1.01,-0.00 -0.98,-0.24 -0.89,-0.47 -0.75,-0.67 -0.57,-0.83 -0.36,-0.94 -0.12,-1.00 Z" fill="#cecece" stroke="#cecece" stroke-width="2.11" stroke-dasharray="none" stroke-dashoffset="none" stroke-linecap="round" stroke-linejoin="round" pointer-events="stroke"/></g></g><g id="07089fd9-1072-4f24-2b2c-f38c64edb3d8_svg" class="tl-centered-g" transform="translate(392.00, 93.80) rotate(0.00, 152.50, 82.10)"><defs><mask id="07089fd9-1072-4f24-2b2c-f38c64edb3d8_clip"><rect x="-100" y="-100" width="505" height="364.19" fill="white"/><rect x="152.5" y="82.09" width="0" height="0" rx="4" ry="4" fill="black" opacity="1"/></mask></defs><g pointer-events="none" opacity="1" mask=""><path d="M-0.44,163.38 Q75.84,122.40 113.98,101.89 T190.25,60.89 266.52,19.87 304.76,-0.68 305.00,-0.72 305.23,-0.69 305.43,-0.58 305.60,-0.41 305.70,-0.20 305.72,0.03 305.67,0.26 305.55,0.46 305.38,0.62 305.16,0.71 304.93,0.72 304.70,0.66 304.51,0.53 304.36,0.34 304.29,0.12 304.29,-0.11 304.36,-0.33 304.50,-0.52 304.69,-0.65 304.92,-0.72 305.15,-0.71 305.37,-0.62 305.55,-0.47 305.67,-0.27 305.72,-0.04 305.70,0.19 305.60,0.40 305.44,0.57 305.35,0.65 267.23,21.18 191.00,62.26 114.77,103.35 38.55,144.46 0.34,165.06 0.12,165.11 -0.10,165.12 -0.32,165.06 -0.52,164.96 -0.68,164.82 -0.81,164.64 -0.89,164.43 -0.92,164.21 -0.90,163.99 -0.82,163.78 -0.70,163.59 -0.53,163.45 Z" fill="#cecece" stroke="#cecece" stroke-width="2.11" stroke-dasharray="none" stroke-dashoffset="none" stroke-linecap="round" stroke-linejoin="round" pointer-events="stroke"/></g></g><g id="e851d1e2-5f4c-4459-3555-3218353c06f7_svg" class="tl-centered-g" transform="translate(392.00, 93.80) rotate(0.00, 152.50, 82.10)"><defs><mask id="e851d1e2-5f4c-4459-3555-3218353c06f7_clip"><rect x="-100" y="-100" width="505" height="364.19" fill="white"/><rect x="152.5" y="82.09" width="0" height="0" rx="4" ry="4" fill="black" opacity="1"/></mask></defs><g pointer-events="none" opacity="1" mask=""><path d="M-0.48,163.31 Q75.80,122.31 113.93,101.81 T190.20,60.79 266.47,19.77 304.73,-0.79 304.99,-0.84 305.26,-0.80 305.50,-0.67 305.69,-0.48 305.81,-0.23 305.84,0.04 305.78,0.31 305.64,0.54 305.44,0.72 305.19,0.82 304.91,0.83 304.65,0.76 304.43,0.61 304.26,0.40 304.17,0.14 304.17,-0.13 304.26,-0.39 304.42,-0.61 304.64,-0.76 304.90,-0.83 305.18,-0.82 305.43,-0.72 305.64,-0.55 305.78,-0.32 305.84,-0.05 305.81,0.22 305.70,0.47 305.51,0.66 305.40,0.75 267.28,21.28 191.05,62.36 114.82,103.44 38.59,144.54 0.37,165.14 0.13,165.20 -0.11,165.20 -0.35,165.14 -0.56,165.03 -0.75,164.87 -0.89,164.68 -0.97,164.45 -1.01,164.21 -0.98,163.97 -0.90,163.74 -0.76,163.54 -0.58,163.38 Z" fill="#cecece" stroke="#cecece" stroke-width="2.11" stroke-dasharray="none" stroke-dashoffset="none" stroke-linecap="round" stroke-linejoin="round" pointer-events="stroke"/></g></g><g id="6c133125-900e-4af1-21af-982a49d41e7c_svg" class="tl-centered-g" transform="translate(17.00, 258.00) rotate(0.00, 187.00, 0.50)"><defs><mask id="6c133125-900e-4af1-21af-982a49d41e7c_clip"><rect x="-100" y="-100" width="574.01" height="201" fill="white"/><rect x="187.00" y="0" width="0" height="0" rx="4" ry="4" fill="black" opacity="1"/></mask></defs><g pointer-events="none" opacity="1" mask=""><path d="M0.00,-0.95 Q93.50,-0.88 140.25,-0.85 T233.76,-0.80 327.26,-0.77 374.13,-0.74 374.36,-0.66 374.55,-0.51 374.69,-0.31 374.75,-0.08 374.74,0.16 374.65,0.38 374.49,0.57 374.29,0.69 374.05,0.75 373.81,0.72 373.59,0.62 373.42,0.45 373.30,0.24 373.26,-0.00 373.30,-0.24 373.42,-0.45 373.59,-0.62 373.81,-0.72 374.05,-0.75 374.29,-0.69 374.49,-0.57 374.65,-0.38 374.74,-0.16 374.75,0.08 374.69,0.31 374.55,0.51 374.36,0.66 374.13,0.74 374.01,0.76 327.26,0.77 233.76,0.80 140.25,0.85 46.75,0.91 -0.11,0.93 -0.33,0.88 -0.53,0.77 -0.70,0.62 -0.83,0.44 -0.91,0.22 -0.94,-0.00 -0.91,-0.22 -0.83,-0.44 -0.70,-0.62 -0.53,-0.77 -0.33,-0.88 -0.11,-0.93 Z" fill="#cecece" stroke="#cecece" stroke-width="2.11" stroke-dasharray="none" stroke-dashoffset="none" stroke-linecap="round" stroke-linejoin="round" pointer-events="stroke"/></g></g><g id="5a29ad08-289a-40e5-2c59-47f5761ce142_svg" class="tl-centered-g" transform="translate(17.00, 258.00) rotate(0.00, 187.00, 0.50)"><defs><mask id="5a29ad08-289a-40e5-2c59-47f5761ce142_clip"><rect x="-100" y="-100" width="574.01" height="201" fill="white"/><rect x="187.00" y="0" width="0" height="0" rx="4" ry="4" fill="black" opacity="1"/></mask></defs><g pointer-events="none" opacity="1" mask=""><path d="M0.00,-0.89 Q93.50,-0.81 140.25,-0.78 T233.76,-0.73 327.26,-0.70 374.12,-0.66 374.32,-0.59 374.50,-0.46 374.62,-0.28 374.68,-0.07 374.67,0.14 374.59,0.35 374.44,0.51 374.26,0.62 374.05,0.67 373.83,0.65 373.63,0.56 373.48,0.41 373.37,0.21 373.34,-0.00 373.37,-0.21 373.48,-0.41 373.63,-0.56 373.83,-0.65 374.05,-0.67 374.26,-0.62 374.44,-0.51 374.59,-0.35 374.67,-0.14 374.68,0.07 374.62,0.28 374.50,0.46 374.32,0.59 374.12,0.66 374.01,0.68 327.26,0.70 233.76,0.73 140.25,0.78 46.75,0.85 -0.11,0.88 -0.31,0.83 -0.50,0.73 -0.66,0.59 -0.78,0.41 -0.86,0.21 -0.88,-0.00 -0.86,-0.21 -0.78,-0.41 -0.66,-0.59 -0.50,-0.73 -0.31,-0.83 -0.11,-0.88 Z" fill="#cecece" stroke="#cecece" stroke-width="2.11" stroke-dasharray="none" stroke-dashoffset="none" stroke-linecap="round" stroke-linejoin="round" pointer-events="stroke"/></g></g></g><g id="07089fd9-1072-4f24-2b2c-f38c64edb3d8_svg" class="tl-centered-g" transform="translate(392.00, 93.80) rotate(0.00, 152.50, 82.10)"><defs><mask id="07089fd9-1072-4f24-2b2c-f38c64edb3d8_clip"><rect x="-100" y="-100" width="505" height="364.19" fill="white"/><rect x="152.5" y="82.09" width="0" height="0" rx="4" ry="4" fill="black" opacity="1"/></mask></defs><g pointer-events="none" opacity="1" mask=""><path d="M-0.44,163.38 Q75.84,122.40 113.98,101.89 T190.25,60.89 266.52,19.87 304.76,-0.68 305.00,-0.72 305.23,-0.69 305.43,-0.58 305.60,-0.41 305.70,-0.20 305.72,0.03 305.67,0.26 305.55,0.46 305.38,0.62 305.16,0.71 304.93,0.72 304.70,0.66 304.51,0.53 304.36,0.34 304.29,0.12 304.29,-0.11 304.36,-0.33 304.50,-0.52 304.69,-0.65 304.92,-0.72 305.15,-0.71 305.37,-0.62 305.55,-0.47 305.67,-0.27 305.72,-0.04 305.70,0.19 305.60,0.40 305.44,0.57 305.35,0.65 267.23,21.18 191.00,62.26 114.77,103.35 38.55,144.46 0.34,165.06 0.12,165.11 -0.10,165.12 -0.32,165.06 -0.52,164.96 -0.68,164.82 -0.81,164.64 -0.89,164.43 -0.92,164.21 -0.90,163.99 -0.82,163.78 -0.70,163.59 -0.53,163.45 Z" fill="#cecece" stroke="#cecece" stroke-width="2.11" stroke-dasharray="none" stroke-dashoffset="none" stroke-linecap="round" stroke-linejoin="round" pointer-events="stroke"/></g></g><g id="e851d1e2-5f4c-4459-3555-3218353c06f7_svg" class="tl-centered-g" transform="translate(392.00, 93.80) rotate(0.00, 152.50, 82.10)"><defs><mask id="e851d1e2-5f4c-4459-3555-3218353c06f7_clip"><rect x="-100" y="-100" width="505" height="364.19" fill="white"/><rect x="152.5" y="82.09" width="0" height="0" rx="4" ry="4" fill="black" opacity="1"/></mask></defs><g pointer-events="none" opacity="1" mask=""><path d="M-0.48,163.31 Q75.80,122.31 113.93,101.81 T190.20,60.79 266.47,19.77 304.73,-0.79 304.99,-0.84 305.26,-0.80 305.50,-0.67 305.69,-0.48 305.81,-0.23 305.84,0.04 305.78,0.31 305.64,0.54 305.44,0.72 305.19,0.82 304.91,0.83 304.65,0.76 304.43,0.61 304.26,0.40 304.17,0.14 304.17,-0.13 304.26,-0.39 304.42,-0.61 304.64,-0.76 304.90,-0.83 305.18,-0.82 305.43,-0.72 305.64,-0.55 305.78,-0.32 305.84,-0.05 305.81,0.22 305.70,0.47 305.51,0.66 305.40,0.75 267.28,21.28 191.05,62.36 114.82,103.44 38.59,144.54 0.37,165.14 0.13,165.20 -0.11,165.20 -0.35,165.14 -0.56,165.03 -0.75,164.87 -0.89,164.68 -0.97,164.45 -1.01,164.21 -0.98,163.97 -0.90,163.74 -0.76,163.54 -0.58,163.38 Z" fill="#cecece" stroke="#cecece" stroke-width="2.11" stroke-dasharray="none" stroke-dashoffset="none" stroke-linecap="round" stroke-linejoin="round" pointer-events="stroke"/></g></g><g id="4e4f2f4f-f0ff-436b-387b-6b1a27aff9de_svg" class="tl-centered-g" transform="translate(17.00, 181.00) rotate(0.00, 187.00, 0.50)"><defs><mask id="4e4f2f4f-f0ff-436b-387b-6b1a27aff9de_clip"><rect x="-100" y="-100" width="574.01" height="201" fill="white"/><rect x="187.00" y="0" width="0" height="0" rx="4" ry="4" fill="black" opacity="1"/></mask></defs><g pointer-events="none" opacity="1" mask=""><path d="M0.00,-1.04 Q93.50,-0.98 140.25,-0.96 T233.76,-0.93 327.26,-0.90 374.15,-0.86 374.42,-0.77 374.65,-0.60 374.80,-0.37 374.88,-0.09 374.86,0.19 374.76,0.45 374.58,0.67 374.33,0.81 374.06,0.87 373.78,0.84 373.52,0.72 373.31,0.53 373.18,0.28 373.14,-0.00 373.18,-0.28 373.31,-0.53 373.52,-0.72 373.78,-0.84 374.06,-0.87 374.33,-0.81 374.58,-0.67 374.76,-0.45 374.86,-0.19 374.88,0.09 374.80,0.37 374.64,0.60 374.42,0.77 374.15,0.86 374.01,0.89 327.26,0.90 233.76,0.93 140.25,0.96 46.75,1.01 -0.12,1.02 -0.37,0.97 -0.59,0.85 -0.77,0.68 -0.91,0.48 -1.00,0.25 -1.03,-0.00 -1.00,-0.25 -0.91,-0.48 -0.77,-0.68 -0.59,-0.85 -0.37,-0.97 -0.12,-1.02 Z" fill="#cecece" stroke="#cecece" stroke-width="2.11" stroke-dasharray="none" stroke-dashoffset="none" stroke-linecap="round" stroke-linejoin="round" pointer-events="stroke"/></g></g><text font-size="28px" font-family="Caveat Brush" font-weight="normal" line-height="28px" letter-spacing="-0.03em" text-align="center" dominant-baseline="mathematical" alignment-baseline="mathematical" text-anchor="middle" fill="#cecece" transform="translate(276.50, 206.00) rotate(0.00, 56.50, 19.00)"><tspan y="14px" x="60.5">Application
</tspan></text><g id="6c133125-900e-4af1-21af-982a49d41e7c_svg" class="tl-centered-g" transform="translate(17.00, 258.00) rotate(0.00, 187.00, 0.50)"><defs><mask id="6c133125-900e-4af1-21af-982a49d41e7c_clip"><rect x="-100" y="-100" width="574.01" height="201" fill="white"/><rect x="187.00" y="0" width="0" height="0" rx="4" ry="4" fill="black" opacity="1"/></mask></defs><g pointer-events="none" opacity="1" mask=""><path d="M0.00,-0.95 Q93.50,-0.88 140.25,-0.85 T233.76,-0.80 327.26,-0.77 374.13,-0.74 374.36,-0.66 374.55,-0.51 374.69,-0.31 374.75,-0.08 374.74,0.16 374.65,0.38 374.49,0.57 374.29,0.69 374.05,0.75 373.81,0.72 373.59,0.62 373.42,0.45 373.30,0.24 373.26,-0.00 373.30,-0.24 373.42,-0.45 373.59,-0.62 373.81,-0.72 374.05,-0.75 374.29,-0.69 374.49,-0.57 374.65,-0.38 374.74,-0.16 374.75,0.08 374.69,0.31 374.55,0.51 374.36,0.66 374.13,0.74 374.01,0.76 327.26,0.77 233.76,0.80 140.25,0.85 46.75,0.91 -0.11,0.93 -0.33,0.88 -0.53,0.77 -0.70,0.62 -0.83,0.44 -0.91,0.22 -0.94,-0.00 -0.91,-0.22 -0.83,-0.44 -0.70,-0.62 -0.53,-0.77 -0.33,-0.88 -0.11,-0.93 Z" fill="#cecece" stroke="#cecece" stroke-width="2.11" stroke-dasharray="none" stroke-dashoffset="none" stroke-linecap="round" stroke-linejoin="round" pointer-events="stroke"/></g></g><g id="5a29ad08-289a-40e5-2c59-47f5761ce142_svg" class="tl-centered-g" transform="translate(17.00, 258.00) rotate(0.00, 187.00, 0.50)"><defs><mask id="5a29ad08-289a-40e5-2c59-47f5761ce142_clip"><rect x="-100" y="-100" width="574.01" height="201" fill="white"/><rect x="187.00" y="0" width="0" height="0" rx="4" ry="4" fill="black" opacity="1"/></mask></defs><g pointer-events="none" opacity="1" mask=""><path d="M0.00,-0.89 Q93.50,-0.81 140.25,-0.78 T233.76,-0.73 327.26,-0.70 374.12,-0.66 374.32,-0.59 374.50,-0.46 374.62,-0.28 374.68,-0.07 374.67,0.14 374.59,0.35 374.44,0.51 374.26,0.62 374.05,0.67 373.83,0.65 373.63,0.56 373.48,0.41 373.37,0.21 373.34,-0.00 373.37,-0.21 373.48,-0.41 373.63,-0.56 373.83,-0.65 374.05,-0.67 374.26,-0.62 374.44,-0.51 374.59,-0.35 374.67,-0.14 374.68,0.07 374.62,0.28 374.50,0.46 374.32,0.59 374.12,0.66 374.01,0.68 327.26,0.70 233.76,0.73 140.25,0.78 46.75,0.85 -0.11,0.88 -0.31,0.83 -0.50,0.73 -0.66,0.59 -0.78,0.41 -0.86,0.21 -0.88,-0.00 -0.86,-0.21 -0.78,-0.41 -0.66,-0.59 -0.50,-0.73 -0.31,-0.83 -0.11,-0.88 Z" fill="#cecece" stroke="#cecece" stroke-width="2.11" stroke-dasharray="none" stroke-dashoffset="none" stroke-linecap="round" stroke-linejoin="round" pointer-events="stroke"/></g></g></svg>